%
T1C.02F0S0
X010888Y010422
X011693Y010422
X012379Y010422
X013192Y010392
X013998Y010399
X015005Y010399
X01511Y01239
X015498Y010842
X016004Y010407
X01645Y01232
X016498Y010849
X017003Y010399
X017497Y010842
X017995Y010399
X018489Y010842
X019002Y010399
X019496Y010842
X020002Y010399
X020495Y010842
X021001Y010399
X021495Y010842
X021728Y011937
X02175Y012625
X022Y010399
X022438Y011938
X022439Y01261
X022494Y010842
X022992Y010399
X023176Y012877
X023313Y011938
X023486Y010842
X023938Y012875
X023999Y010399
X024063Y011938
X024493Y010842
X024625Y012563
X024625Y011938
X024999Y010399
X025188Y012313
X025492Y010842
X025998Y010399
X026492Y010842
X027005Y010399
X027499Y010842
X027997Y010399
X028491Y010842
X028996Y010392
X02913Y012578
X02949Y010834
X02975Y01237
X029988Y010407
X030482Y010849
X03052Y01197
X03061Y01273
X031003Y010399
X03139Y01216
X031496Y010842
X032002Y010399
X032496Y010842
X033001Y010399
X033495Y010842
X033993Y010399
X034487Y010842
X034993Y010399
X035486Y010842
X036Y010399
X036493Y010842
X036992Y010414
X037485Y010857
X038006Y010407
X0385Y010849
X039005Y010407
X039499Y010849
X040005Y010407
X040498Y010849
X040997Y010407
X04149Y010849
X041996Y010407
X04249Y010849
X043004Y0104
X043498Y010842
X043996Y010415
X04449Y010857
X045011Y010407
X045504Y01085
X04601Y010407
X046504Y01085
X047009Y010407
X047503Y01085
X048001Y010407
X048495Y01085
X049001Y010407
X049495Y01085
X04954Y01202
X050004Y010397
X05047Y01194
X050498Y010839
X050996Y010412
X05143Y01195
X05149Y010854
X052011Y010404
X0523Y01194
X052504Y010847
X05301Y010404
X05318Y01212
X053504Y010847
X054009Y010404
X05405Y01194
X054503Y010847
X05487Y01193
X055001Y010404
X055495Y010847
X05579Y01204
X056001Y010404
X056494Y010847
X05659Y01195
X057Y010397
X05742Y01195
X057493Y010839
X057992Y010412
X05842Y01207
X058485Y010854
X059006Y010404
X05932Y01184
X0595Y010847
X060005Y010404
X06012Y01187
X060499Y010847
X061005Y010404
X061498Y010847
X06188Y01141
X061997Y010404
X06249Y010847
X062793Y011374
X062996Y010404
X061144Y015184
X060664Y014692
X059973Y01461
X059341Y014844
X058872Y015289
X047188Y014938
X047125Y01425
X0465Y014
X0465Y014625
X045813Y013813
X045688Y014563
X045063Y014938
X045Y014188
X03994Y01444
X03972Y01504
X0381Y01515
X0381Y01454
X0381Y01391
X03749Y01509
X03748Y01449
X0373Y01392
X03686Y01497
X0368Y01433
X03626Y01496
X03622Y01403
X03142Y01309
X03076Y01344
X02486Y0153
X0244Y0148
X01649Y01306
X01504Y01308
X01434Y01442
X01433Y01331
X01328Y01451
X012577Y01426
X010702Y014325
X01061Y01541
X010688Y017625
X010688Y016313
X012625Y01625
X012625Y017625
X01276Y01544
X01292Y01685
X013813Y01775
X013938Y01625
X014813Y016063
X014938Y016938
X01575Y016125
X01651Y01687
X01653Y01768
X01725Y017813
X01725Y016875
X018813Y016938
X01954Y0169
X01957Y01778
X02026Y01604
X02098Y01782
X022067Y015937
X024023Y015445
X024556Y015932
X02549Y01598
X025655Y017145
X02592Y01654
X02624Y01605
X02689Y01587
X02701Y01661
X03113Y01753
X03445Y01763
X03539Y01758
X03625Y0177
X03676Y01559
X03741Y0157
X0381Y01575
X03991Y01568
X045375Y017313
X046125Y0175
X046813Y01725
X047313Y016813
X0475Y015563
X047563Y01625
X058615Y01591
X05875Y0165
X059125Y017
X05968Y017303
X060336Y017292
X060957Y017046
X061378Y016507
X061472Y015875
X067682Y019526
X046875Y018
X046188Y018688
X045547Y01906
X045188Y018313
X044813Y0195
X044375Y018875
X04375Y019438
X04325Y018875
X042688Y019438
X04231Y01881
X041813Y019438
X04173Y01856
X04119Y01816
X041113Y019042
X04051Y01876
X0405Y019438
X04043Y01813
X03974Y01939
X03973Y01806
X03972Y01871
X03808Y01874
X037938Y019375
X03783Y01814
X03731Y01886
X03702Y01816
X03672Y01951
X03646Y01875
X03592Y019608
X03585Y01898
X03582Y01831
X03518Y01887
X03505Y01806
X03502Y01958
X03442Y01839
X03173Y01801
X03065Y018
X03042Y019067
X02998Y01963
X02996Y02025
X029332Y020155
X023813Y019085
X02284Y01828
X022188Y018125
X02178Y01861
X02088Y01853
X01931Y01853
X018813Y017938
X014625Y024063
X016938Y023563
X019237Y0208
X01949Y02454
X02098Y0251
X021032Y0208
X021313Y024688
X021792Y020791
X023683Y020667
X025965Y020937
X025997Y024946
X028375Y02525
X029257Y020944
X02988Y02093
X03Y024938
X030547Y020622
X030563Y024313
X030563Y024938
X031179Y023734
X031188Y024313
X031188Y024938
X031807Y023128
X03181Y023716
X031813Y024938
X031813Y024313
X032375Y024313
X032375Y024938
X032375Y023688
X032377Y02311
X03276Y02105
X036563Y02275
X036563Y023313
X036563Y024375
X036563Y024938
X036563Y023875
X037188Y023313
X037188Y02275
X037188Y024938
X037188Y023875
X037188Y024375
X03775Y023313
X03775Y023875
X03775Y024375
X03775Y024938
X03775Y02275
X038313Y022938
X038955Y022649
X039528Y022895
X04022Y022673
X040914Y022895
X041637Y022673
X042329Y022866
X043018Y022708
X063604Y023479
X063607Y022975
X063622Y025187
X064563Y025063
X064742Y024641
X065942Y024284
X067149Y020914
X064813Y025688
X064617Y026161
X063623Y025691
X043398Y027257
X041662Y026865
X041652Y027472
X039891Y026875
X039881Y02739
X0382Y027153
X037691Y026913
X037387Y026509
X037204Y025419
X036561Y025423
X032375Y026188
X032375Y025563
X031813Y026188
X031813Y025563
X031813Y02675
X031188Y025563
X031188Y02675
X031188Y026188
X030563Y026188
X030563Y025563
X030563Y02675
X030009Y026756
X03Y025563
X03Y026188
X027731Y027219
X02305Y0256
X020813Y027563
X015063Y02725
X015005Y030365
X015063Y02825
X015072Y032409
X015125Y031375
X015838Y03237
X01757Y028
X018127Y030151
X019034Y031792
X019501Y031786
X0205Y031375
X021741Y029688
X02225Y030313
X024123Y032557
X026313Y02975
X02714Y030746
X034313Y032563
X0345Y032
X036623Y030122
X038247Y030818
X038625Y029313
X038965Y02799
X039205Y029297
X039938Y029375
X039994Y029943
X040797Y027968
X042581Y027978
X06551Y030875
X065913Y029898
X066733Y032944
X066545Y034739
X064349Y034511
X064334Y03398
X063959Y034981
X061336Y03493
X061228Y034476
X060953Y034104
X06057Y033823
X06008Y03375
X059612Y033817
X059208Y034086
X058957Y034416
X058834Y035314
X05881Y034853
X047488Y033942
X047405Y034926
X047304Y034429
X047135Y033385
X047055Y034025
X046702Y033691
X04656Y033169
X046143Y033586
X045971Y033146
X045576Y033683
X045412Y033214
X045125Y034063
X045051Y033611
X044711Y034549
X044674Y034052
X044651Y035048
X0385Y032938
X0385Y033438
X038016Y035391
X038Y032938
X038Y033438
X036446Y035237
X033688Y034063
X027229Y03516
X026232Y0336
X018501Y03616
X027173Y035731
X034188Y037063
X03425Y037625
X034756Y037828
X034766Y036878
X03478Y037358
X035269Y037363
X035269Y036446
X035269Y036916
X035274Y037823
X035744Y037823
X035749Y037367
X035752Y036439
X035762Y036913
X036199Y037371
X036205Y036917
X036213Y03784
X03622Y036435
X037563Y035438
X039563Y03775
X039563Y037188
X039563Y036625
X040063Y036938
X040063Y036375
X040063Y037563
X040497Y03724
X040497Y0378
X040527Y036659
X040975Y037509
X040989Y036912
X041027Y036301
X041452Y037859
X041452Y03727
X041467Y036621
X041877Y037576
X041877Y036994
X044748Y035533
X045088Y035946
X047157Y035854
X047194Y037232
X047359Y03545
X047901Y037622
X055817Y037375
X056Y03675
X056938Y036875
X059002Y035762
X059355Y036074
X059798Y036259
X060247Y036277
X060666Y036175
X061007Y035864
X061264Y035469
X072128Y041106
X072125Y041688
X072125Y04225
X072125Y042875
X072119Y040564
X071569Y041401
X071563Y041938
X071563Y0425
X071555Y040845
X067188Y040813
X066688Y040813
X06425Y040875
X063775Y041194
X063313Y040875
X06325Y042047
X060938Y040813
X060438Y040813
X059813Y039563
X059173Y039889
X058747Y04024
X058728Y040721
X057709Y040804
X057235Y041169
X057204Y039954
X056709Y041191
X053313Y040813
X052805Y040807
X0509Y039963
X050417Y039963
X047916Y038257
X041892Y038173
X041452Y038426
X040989Y038113
X040493Y038354
X040063Y038063
X039563Y038313
X036188Y038875
X035754Y038332
X035245Y038337
X03477Y038332
X026543Y03809
X019107Y042833
X014875Y047188
X0496Y045839
X050221Y046246
X050624Y045331
X050643Y046892
X06058Y04786
X065625Y046563
X065625Y047125
X066188Y047125
X066188Y046563
X06675Y047125
X06675Y046563
X067382Y046547
X067382Y047108
X068034Y046547
X068063Y047188
X068677Y046547
X068688Y047188
X069125Y045938
X06925Y047188
X06932Y046574
X069813Y045938
X069938Y0465
X0705Y045938
X071563Y043063
X071563Y043688
X071625Y045
X071625Y044375
X072125Y044688
X072125Y044063
X072125Y043438
X071816Y049405
X071792Y050059
X071245Y049429
X071174Y050082
X06852Y04897
X0678Y04897
X06704Y04899
X06695Y04981
X06664Y04931
X06661Y05026
X065919Y049842
X06586Y04934
X065335Y049842
X06527Y04935
X06477Y05009
X06471Y04961
X064173Y049856
X06414Y04934
X059985Y047902
X059974Y048456
X059363Y049812
X058994Y048962
X058554Y048552
X055Y048498
X054606Y048845
X054204Y048456
X053822Y048848
X053466Y048462
X053111Y048851
X052712Y048462
X05235Y048842
X051926Y048459
X051538Y048847
X051106Y048453
X048Y048125
X039164Y048486
X03863Y04851
X03768Y049745
X03768Y04912
X037313Y050123
X06415Y05247
X064168Y05043
X06422Y05101
X064228Y05159
X06466Y05246
X06478Y05066
X06479Y05126
X06486Y05182
X06532Y05103
X06533Y050416
X065353Y05159
X065415Y052215
X06586Y05102
X065894Y050425
X065915Y05159
X065978Y052215
X066584Y050957
X06691Y051366
X06691Y05196
X067007Y050676
X067461Y050873
X068066Y050865
X06824Y05239
X069875Y052875
X070438Y052875
X0706Y05065
X071Y052875
X07121Y05065
X071313Y05125
X071313Y051813
X071313Y052375
X071563Y052875
X0718Y05065
X071875Y051813
X071875Y052375
X071875Y05125
X071563Y053438
X071Y053438
X070438Y053438
X069875Y053438
X06975Y055207
X06975Y056207
X06975Y057207
X06875Y055207
X06875Y057207
X06875Y056207
X06775Y057207
X06775Y056207
X06775Y055207
X06675Y057207
X06675Y055207
X06675Y056207
X064874Y054765
X064788Y054209
X064238Y054735
X06423Y054197
X057Y055563
X05582Y055448
X05575Y056824
X055542Y056327
X050985Y057613
X042156Y057372
X040313Y055938
X039197Y057172
X038252Y057089
X037776Y05734
X037315Y057045
X036916Y057476
X035931Y057033
X034991Y057021
X034122Y057045
X02739Y05661
X039125Y061938
X039438Y061063
X04175Y060625
X042218Y061422
X042754Y061928
X042875Y06125
X04332Y06205
X043846Y06209
X044038Y062617
X051139Y061881
X051151Y060097
X051233Y062763
X051707Y060092
X052225Y058226
X052676Y060086
X05331Y06079
X05332Y06169
X05337Y0626
X054005Y058226
X055133Y060091
X055774Y058227
X056339Y060009
X057541Y058235
X05881Y05969
X059318Y058245
X0594Y06282
X05942Y06192
X059712Y061016
X059758Y060071
X060438Y059
X061091Y058285
X061575Y062514
X061674Y062052
X061693Y060501
X063298Y061786
X063523Y058793
X063579Y062176
X063937Y061846
X064578Y061722
X064905Y062132
X065396Y061895
X065562Y060743
X065731Y061519
X065992Y061072
X066634Y061679
X06675Y058207
X067745Y060868
X06775Y058207
X06875Y062188
X06875Y058207
X069688Y062563
X06975Y058207
X07158Y06123
X07005Y06425
X06915Y06425
X068772Y062939
X068132Y062943
X067505Y063317
X067139Y062925
X066678Y064184
X066402Y063067
X065304Y064771
X064887Y064955
X06456Y06455
X063942Y065275
X063458Y065228
X06172Y065006
X061716Y063118
X061688Y064063
X061659Y064548
X059585Y064621
X059568Y063714
X05341Y0635
X053363Y065321
X05336Y064416
X051226Y064388
X051214Y063844
X051188Y06326
X051155Y065218
X04564Y06292
X044625Y063375
X044168Y063728
X044099Y063216
X042424Y065135
X041905Y065145
X030781Y064627
X029853Y063572
X029398Y06305
X03331Y0654
X039063Y065625
X041369Y066148
X044575Y065863
X044803Y06661
X04502Y065552
X045625Y065563
X045656Y06618
X04569Y066632
X047993Y067159
X048093Y067746
X048565Y067187
X049132Y066748
X049144Y067229
X049411Y066153
X04971Y06576
X049838Y066565
X051151Y067
X053179Y066374
X053183Y067286
X053967Y066718
X054868Y066709
X056772Y066779
X057677Y066783
X05954Y06643
X059543Y06553
X060519Y067309
X061617Y0673
X061782Y066595
X064142Y066683
X064178Y066237
X064181Y067148
X065625Y065578
X066313Y066933
X067444Y072734
X067312Y069161
X066812Y069162
X061605Y0701
X061125Y070313
X061114Y070931
X061091Y06886
X060636Y071409
X060493Y070407
X060214Y07126
X05975Y07225
X059692Y071783
X059305Y068837
X059094Y072179
X059035Y071719
X057583Y068874
X056213Y07091
X055938Y0705
X055932Y071404
X055781Y068864
X054Y068813
X052499Y072748
X052223Y068871
X050849Y069637
X050546Y069224
X0494Y068502
X049271Y069877
X04871Y069901
X047873Y072815
X047625Y068063
X047279Y072179
X047063Y068938
X045684Y068615
X044814Y068621
X04008Y07177
X039438Y06825
X0392Y07098
X039193Y07263
X038177Y069448
X037308Y071102
X03705Y070227
X03697Y07069
X033781Y068102
X037537Y07407
X037769Y07494
X037861Y074473
X038963Y07312
X03985Y07564
X047038Y074997
X047942Y073747
X048474Y073797
X048972Y074286
X049009Y07372
X049819Y077828
X051468Y073896
X051896Y076178
X05251Y073688
X05282Y07619
X06076Y07475
X061401Y073825
X061628Y077282
X062938Y073625
X06456Y07782
X065125Y076688
X06532Y07572
X065625Y074645
X067438Y07375
X067438Y07475
X067438Y07775
X067438Y07675
X067438Y07575
X067438Y07875
X067438Y07975
X066924Y082838
X066625Y078125
X066427Y082838
X064563Y082875
X064063Y082875
X05876Y07875
X057375Y080625
X057125Y081125
X057125Y080125
X05662Y0814
X056133Y082276
X056097Y081601
X053113Y078626
X051482Y07791
X05058Y078531
X04972Y082494
X047526Y081371
X041812Y081907
X05017Y08806
X05119Y08856
X056979Y084123
X05714Y08311
X061864Y087007
X06388Y08739
X06388Y08424
X063889Y086607
X06389Y08581
X063896Y088959
X063922Y088183
X06393Y085024
X065547Y087797
X06637Y08985
X066888Y089434
X067273Y08579
X067279Y090327
X06731Y08658
X06737Y08897
X067294Y091571
X064981Y091567
X056125Y09625
X055166Y095316
X05159Y09628
X051384Y095252
X011983Y097138
X011946Y096421
X011896Y097882
X011615Y095869
X011045Y09541
X01042Y095428
X009832Y095667
X010977Y101228
X011131Y098153
X011731Y101209
X01254Y101228
X012631Y097918
X01322Y100602
X013256Y098341
X013275Y099169
X013293Y099867
X04945Y09922
X050625Y098519
X05158Y09839
X054Y099063
T2C.028F0S0
X060518Y093434
X067393Y094795
T3C.034F0S0
X068785Y015185
X068785Y014185
X068785Y017185
X068785Y016185
X069785Y017185
X069785Y016185
X069785Y015185
X069785Y014185
X070785Y015185
X070785Y014185
X070785Y017185
X070785Y016185
X070785Y020185
X070785Y019185
X070785Y018185
X070785Y022185
X070785Y021185
X069785Y018185
X069785Y020185
X069785Y019185
X069785Y022185
X069785Y021185
X068785Y019185
X068785Y018185
X068785Y020185
X068785Y022185
X068785Y021185
X068785Y025185
X068785Y024185
X068785Y023185
X068785Y027185
X068785Y026185
X069785Y025185
X069785Y024185
X069785Y023185
X069785Y027185
X069785Y026185
X070785Y025185
X070785Y024185
X070785Y023185
X070785Y027185
X070785Y026185
X070785Y030185
X070785Y029185
X070785Y028185
X070785Y031185
X070785Y032185
X069785Y028185
X069785Y030185
X069785Y032185
X069785Y031185
X069785Y029185
X068785Y029185
X068785Y028185
X068785Y032185
X068785Y031185
X068785Y030185
X022563Y034188
X022563Y035188
X022563Y036188
X022563Y037188
X023563Y034188
X023563Y035188
X023563Y036188
X023563Y037188
X024813Y034188
X024813Y035188
X024813Y036188
X024813Y037188
X025813Y034188
X025813Y036188
X025813Y037188
X025813Y035188
X068785Y035185
X068785Y037185
X068785Y036185
X068785Y034185
X068785Y033185
X069785Y034185
X069785Y035185
X069785Y033185
X069785Y037185
X069785Y036185
X070785Y036185
X070785Y033185
X070785Y034185
X070785Y035185
X070785Y037185
X070785Y039185
X070785Y038185
X070785Y040185
X070785Y041185
X070785Y042185
X069785Y039185
X069785Y038185
X069785Y042185
X069785Y041185
X069785Y040185
X068785Y038185
X068785Y042185
X068785Y041185
X068785Y040185
X068785Y039185
X025813Y038188
X025813Y039188
X024813Y038188
X024813Y039188
X023563Y039188
X023563Y038188
X022563Y039188
X022563Y038188
X068785Y043185
X068785Y045185
X068785Y044185
X069785Y045185
X069785Y044185
X069785Y043185
X070785Y043185
X070785Y045185
X070785Y044185
X070785Y067685
X070785Y066685
X069785Y067685
X069785Y066685
X068785Y067685
X068785Y066685
X068785Y069685
X068785Y068685
X068785Y072685
X068785Y071685
X068785Y070685
X069785Y072685
X069785Y071685
X069785Y070685
X069785Y069685
X069785Y068685
X070785Y071685
X070785Y070685
X070785Y068685
X070785Y072685
X070785Y069685
X070785Y073685
X070785Y074685
X070785Y077685
X070785Y076685
X070785Y075685
X069785Y073685
X069785Y077685
X069785Y076685
X069785Y074685
X069785Y075685
X068785Y077685
X068785Y076685
X068785Y075685
X068785Y074685
X068785Y073685
X059688Y07525
X059688Y07625
X059688Y07725
X059688Y07425
X053688Y07425
X053688Y07625
X053688Y07725
X053688Y07525
X053688Y08025
X053688Y07925
X053688Y07825
X053688Y08225
X053688Y08125
X059688Y07925
X059688Y08025
X059688Y08125
X059688Y08225
X059688Y07825
X068785Y081685
X068785Y080685
X068785Y079685
X068785Y078685
X068785Y082685
X069785Y080685
X069785Y078685
X069785Y079685
X069785Y082685
X069785Y081685
X070785Y079685
X070785Y082685
X070785Y081685
X070785Y080685
X070785Y078685
X070785Y084685
X070785Y083685
X070785Y087685
X070785Y086685
X070785Y085685
X069785Y084685
X069785Y083685
X069785Y087685
X069785Y086685
X069785Y085685
X068785Y086685
X068785Y085685
X068785Y084685
X068785Y083685
X068785Y087685
X059688Y08325
X059688Y08425
X059688Y08625
X059688Y08725
X059688Y08525
X053688Y08525
X053688Y08425
X053688Y08325
X053688Y08725
X053688Y08625
X053688Y09025
X053688Y08925
X053688Y08825
X053688Y09125
X059688Y08925
X059688Y09025
X059688Y08825
X059688Y09125
X068785Y089685
X068785Y088685
X068785Y090685
X068785Y091685
X068785Y092685
X069785Y088685
X069785Y089685
X069785Y092685
X069785Y091685
X069785Y090685
X070785Y089685
X070785Y092685
X070785Y091685
X070785Y090685
X070785Y088685
X070785Y094685
X070785Y093685
X070785Y097685
X070785Y096685
X070785Y095685
X069785Y093685
X069785Y095685
X069785Y094685
X069785Y096685
X069785Y097685
X068785Y097685
X068785Y096685
X068785Y093685
X068785Y095685
X068785Y094685
T4C.035F0S0
X02376Y02704
X02376Y02604
X02676Y02604
X02676Y02704
X02676Y02804
X02676Y02904
X02376Y02904
X02376Y02804
T5C.03543F0S0
X014625Y0375
X014625Y0365
X014625Y0355
X015625Y035
X015625Y036
X015625Y037
X015625Y038
X014625Y0385
T6C.038F0S0
X01077Y025313
X01077Y026313
X01077Y027313
X01177Y027313
X01177Y025313
X01177Y026313
X01625Y026438
X01625Y025438
X01177Y028313
X01177Y029313
X01177Y030313
X01177Y031313
X01177Y032313
X01077Y029313
X01077Y031313
X01077Y032313
X01077Y030313
X01077Y028313
X019937Y036657
X019937Y035657
X019948Y039304
X019948Y038304
X020937Y036657
X020937Y035657
X020948Y039304
X020948Y038304
X029581Y037078
X029581Y038078
X039625Y045
X039625Y044
X038625Y045
X038625Y044
X037625Y045
X037625Y044
X036625Y045
X036625Y044
X035625Y045
X035625Y044
X034625Y045
X034625Y044
X033625Y045
X033625Y044
X032625Y045
X032625Y044
X031625Y045
X031625Y044
X030625Y045
X030625Y044
X029625Y045
X029625Y044
X028625Y045
X028625Y044
X027625Y045
X027625Y044
X026625Y045
X026625Y044
X025625Y045
X025625Y044
X024625Y045
X024625Y044
X023625Y045
X023625Y044
X022625Y045
X022625Y044
X021625Y045
X021625Y044
X020625Y045
X020625Y044
X016625Y046
X016625Y047
X017625Y046
X017625Y047
X018625Y046
X018625Y047
X019625Y046
X019625Y047
X020625Y046
X020625Y047
X021625Y046
X021625Y047
X022625Y046
X022625Y047
X023625Y046
X023625Y047
X024625Y046
X024625Y047
X025625Y046
X025625Y047
X026625Y046
X026625Y047
X027625Y046
X027625Y047
X028625Y046
X028625Y047
X029625Y046
X029625Y047
X030625Y046
X030625Y047
X031625Y046
X031625Y047
X032625Y046
X032625Y047
X033625Y046
X033625Y047
X034625Y046
X034625Y047
X035625Y046
X035625Y047
X036625Y046
X036625Y047
X037625Y046
X037625Y047
X038625Y046
X038625Y047
X039625Y046
X039625Y047
X040625Y046
X040625Y047
X041625Y046
X041625Y047
X042625Y046
X042625Y047
X043625Y046
X043625Y047
X044625Y047
X044625Y046
X045625Y047
X045625Y046
X046625Y046
X046625Y047
X047625Y047
X047625Y046
X067688Y065063
X067688Y066063
X066688Y065063
X066688Y066063
X0515Y089375
X0515Y090375
X057Y097688
X058Y097688
X059Y097688
X06Y097688
X066063Y098563
X065063Y098563
T7C.04F0S0
X06559Y084636
X06559Y088576
T8C.04331F0S0
X01375Y013925
X01575Y012867
X01575Y012021
X018Y012021
X018Y012867
X02025Y012805
X02025Y011958
X037396Y01271
X038242Y01271
X042258Y01271
X043104Y01271
X044706Y01277
X045552Y01277
X049568Y01277
X050414Y01277
X064862Y012812
X064862Y013658
X064862Y017674
X064862Y01852
X02025Y017667
X02025Y01682
X018Y017729
X018Y016883
X01575Y017729
X01575Y016883
X01375Y017075
X041625Y029764
X041625Y028917
X041625Y034626
X041625Y03378
T9C.052F0S0
X0121Y022563
X013313Y019688
X0141Y022563
X0151Y022563
X015313Y019688
X0161Y022563
X016313Y019688
X017313Y019688
T10C.06F0S0
X011688Y014938
X011688Y016938
T11C.1F0S0
X020165Y019788
X022665Y019788
X04376Y017232
X046071Y016
X050071Y016
X056071Y016
X060071Y016
X062382Y018807
X062382Y032193
X060071Y035
X056071Y035
X053071Y035
X050071Y035
X046071Y035
X04376Y032193
X012553Y057438
X012553Y065125
X012553Y075438
X012553Y08925
T12C.116F0S0
X071785Y012185
X071785Y047185
X071785Y064685
X071785Y099685
T13C.12F0S0
X011406Y012185
X011406Y099685
T14C.128F0S0
X012125Y0345
X012125Y039
T15C.16F0S0
X010629Y044
X016625Y044
X048125Y044008
X046625Y07775
X017625Y07775
X010629Y096819
X048105Y096819
M30
