*
*
G04 PADS 9.4.1 Build Number: 494907 generated Gerber (RS-274-X) file*
G04 PC Version=2.1*
*
%IN "ATLAS_XP2V5.pcb"*%
*
%MOIN*%
*
%FSLAX35Y35*%
*
*
*
*
G04 PC Standard Apertures*
*
*
G04 Thermal Relief Aperture macro.*
%AMTER*
1,1,$1,0,0*
1,0,$1-$2,0,0*
21,0,$3,$4,0,0,45*
21,0,$3,$4,0,0,135*
%
*
*
G04 Annular Aperture macro.*
%AMANN*
1,1,$1,0,0*
1,0,$2,0,0*
%
*
*
G04 Odd Aperture macro.*
%AMODD*
1,1,$1,0,0*
1,0,$1-0.005,0,0*
%
*
*
G04 PC Custom Aperture Macros*
*
*
*
*
*
*
G04 PC Aperture Table*
*
%ADD010C,0.001*%
%ADD083C,0.002*%
%ADD015R,0.0605X0.0605*%
%ADD029C,0.0625*%
%ADD030R,0.0605X0.0505*%
%ADD032R,0.0505X0.0605*%
%ADD040C,0.1165*%
%ADD041R,0.0625X0.0625*%
%ADD045C,0.0605*%
%ADD048R,0.0555X0.0555*%
%ADD049C,0.1285*%
%ADD053R,0.0675X0.0675*%
%ADD054C,0.0675*%
%ADD055O,0.1555X0.1055*%
%ADD056C,0.1265*%
%ADD057C,0.0775*%
%ADD060C,0.06743*%
%ADD062C,0.0555*%
%ADD063R,0.0655X0.0655*%
%ADD064C,0.0655*%
%ADD065C,0.2305*%
%ADD066C,0.0585*%
%ADD067R,0.0585X0.0585*%
%ADD069C,0.2105*%
%ADD070C,0.05956*%
%ADD011C,0.1405*%
*
*
*
*
G04 PC Circuitry*
G04 Layer Name ATLAS_XP2V5.pcb - circuitry*
%LPD*%
*
*
G04 PC Custom Flashes*
G04 Layer Name ATLAS_XP2V5.pcb - flashes*
%LPD*%
*
*
G04 PC Circuitry*
G04 Layer Name ATLAS_XP2V5.pcb - circuitry*
%LPD*%
*
G54D10*
G01X100050Y540675D02*
X181150D01*
Y727650*
X233389*
X233697Y935450*
X100050*
Y540675*
Y935274D02*
X233697D01*
X100050Y935074D02*
X233696D01*
X100050Y934874D02*
X233696D01*
X100050Y934674D02*
X233696D01*
X100050Y934474D02*
X233696D01*
X100050Y934274D02*
X233695D01*
X100050Y934074D02*
X233695D01*
X100050Y933874D02*
X233695D01*
X100050Y933674D02*
X233694D01*
X100050Y933474D02*
X233694D01*
X100050Y933274D02*
X233694D01*
X100050Y933074D02*
X233693D01*
X100050Y932874D02*
X233693D01*
X100050Y932674D02*
X233693D01*
X100050Y932474D02*
X233693D01*
X100050Y932274D02*
X233692D01*
X100050Y932074D02*
X233692D01*
X100050Y931874D02*
X233692D01*
X100050Y931674D02*
X233691D01*
X100050Y931474D02*
X233691D01*
X100050Y931274D02*
X233691D01*
X100050Y931074D02*
X233690D01*
X100050Y930874D02*
X233690D01*
X100050Y930674D02*
X233690D01*
X100050Y930474D02*
X233690D01*
X100050Y930274D02*
X233689D01*
X100050Y930074D02*
X233689D01*
X100050Y929874D02*
X233689D01*
X100050Y929674D02*
X233688D01*
X100050Y929474D02*
X233688D01*
X100050Y929274D02*
X233688D01*
X100050Y929074D02*
X233688D01*
X100050Y928874D02*
X233687D01*
X100050Y928674D02*
X233687D01*
X100050Y928474D02*
X233687D01*
X100050Y928274D02*
X233686D01*
X100050Y928074D02*
X233686D01*
X100050Y927874D02*
X233686D01*
X100050Y927674D02*
X233685D01*
X100050Y927474D02*
X233685D01*
X100050Y927274D02*
X233685D01*
X100050Y927074D02*
X233685D01*
X100050Y926874D02*
X233684D01*
X100050Y926674D02*
X233684D01*
X100050Y926474D02*
X233684D01*
X100050Y926274D02*
X233683D01*
X100050Y926074D02*
X233683D01*
X100050Y925874D02*
X233683D01*
X100050Y925674D02*
X233682D01*
X100050Y925474D02*
X233682D01*
X100050Y925274D02*
X233682D01*
X100050Y925074D02*
X233682D01*
X100050Y924874D02*
X233681D01*
X100050Y924674D02*
X233681D01*
X100050Y924474D02*
X233681D01*
X100050Y924274D02*
X233680D01*
X100050Y924074D02*
X233680D01*
X100050Y923874D02*
X233680D01*
X100050Y923674D02*
X233680D01*
X100050Y923474D02*
X233679D01*
X100050Y923274D02*
X233679D01*
X100050Y923074D02*
X233679D01*
X100050Y922874D02*
X233678D01*
X100050Y922674D02*
X233678D01*
X100050Y922474D02*
X233678D01*
X100050Y922274D02*
X233677D01*
X100050Y922074D02*
X233677D01*
X100050Y921874D02*
X233677D01*
X100050Y921674D02*
X233677D01*
X100050Y921474D02*
X233676D01*
X100050Y921274D02*
X233676D01*
X100050Y921074D02*
X233676D01*
X100050Y920874D02*
X233675D01*
X100050Y920674D02*
X233675D01*
X100050Y920474D02*
X233675D01*
X100050Y920274D02*
X233674D01*
X100050Y920074D02*
X233674D01*
X100050Y919874D02*
X233674D01*
X100050Y919674D02*
X233674D01*
X100050Y919474D02*
X233673D01*
X100050Y919274D02*
X233673D01*
X100050Y919074D02*
X233673D01*
X100050Y918874D02*
X233672D01*
X100050Y918674D02*
X233672D01*
X100050Y918474D02*
X233672D01*
X100050Y918274D02*
X233672D01*
X100050Y918074D02*
X233671D01*
X100050Y917874D02*
X233671D01*
X100050Y917674D02*
X233671D01*
X100050Y917474D02*
X233670D01*
X100050Y917274D02*
X233670D01*
X100050Y917074D02*
X233670D01*
X100050Y916874D02*
X233669D01*
X100050Y916674D02*
X233669D01*
X100050Y916474D02*
X233669D01*
X100050Y916274D02*
X233669D01*
X100050Y916074D02*
X233668D01*
X100050Y915874D02*
X233668D01*
X100050Y915674D02*
X233668D01*
X100050Y915474D02*
X233667D01*
X100050Y915274D02*
X233667D01*
X100050Y915074D02*
X233667D01*
X100050Y914874D02*
X233666D01*
X100050Y914674D02*
X233666D01*
X100050Y914474D02*
X233666D01*
X100050Y914274D02*
X233666D01*
X100050Y914074D02*
X233665D01*
X100050Y913874D02*
X233665D01*
X100050Y913674D02*
X233665D01*
X100050Y913474D02*
X233664D01*
X100050Y913274D02*
X233664D01*
X100050Y913074D02*
X233664D01*
X100050Y912874D02*
X233664D01*
X100050Y912674D02*
X233663D01*
X100050Y912474D02*
X233663D01*
X100050Y912274D02*
X233663D01*
X100050Y912074D02*
X233662D01*
X100050Y911874D02*
X233662D01*
X100050Y911674D02*
X233662D01*
X100050Y911474D02*
X233661D01*
X100050Y911274D02*
X233661D01*
X100050Y911074D02*
X233661D01*
X100050Y910874D02*
X233661D01*
X100050Y910674D02*
X233660D01*
X100050Y910474D02*
X233660D01*
X100050Y910274D02*
X233660D01*
X100050Y910074D02*
X233659D01*
X100050Y909874D02*
X233659D01*
X100050Y909674D02*
X233659D01*
X100050Y909474D02*
X233658D01*
X100050Y909274D02*
X233658D01*
X100050Y909074D02*
X233658D01*
X100050Y908874D02*
X233658D01*
X100050Y908674D02*
X233657D01*
X100050Y908474D02*
X233657D01*
X100050Y908274D02*
X233657D01*
X100050Y908074D02*
X233656D01*
X100050Y907874D02*
X233656D01*
X100050Y907674D02*
X233656D01*
X100050Y907474D02*
X233656D01*
X100050Y907274D02*
X233655D01*
X100050Y907074D02*
X233655D01*
X100050Y906874D02*
X233655D01*
X100050Y906674D02*
X233654D01*
X100050Y906474D02*
X233654D01*
X100050Y906274D02*
X233654D01*
X100050Y906074D02*
X233653D01*
X100050Y905874D02*
X233653D01*
X100050Y905674D02*
X233653D01*
X100050Y905474D02*
X233653D01*
X100050Y905274D02*
X233652D01*
X100050Y905074D02*
X233652D01*
X100050Y904874D02*
X233652D01*
X100050Y904674D02*
X233651D01*
X100050Y904474D02*
X233651D01*
X100050Y904274D02*
X233651D01*
X100050Y904074D02*
X233650D01*
X100050Y903874D02*
X233650D01*
X100050Y903674D02*
X233650D01*
X100050Y903474D02*
X233650D01*
X100050Y903274D02*
X233649D01*
X100050Y903074D02*
X233649D01*
X100050Y902874D02*
X233649D01*
X100050Y902674D02*
X233648D01*
X100050Y902474D02*
X233648D01*
X100050Y902274D02*
X233648D01*
X100050Y902074D02*
X233648D01*
X100050Y901874D02*
X233647D01*
X100050Y901674D02*
X233647D01*
X100050Y901474D02*
X233647D01*
X100050Y901274D02*
X233646D01*
X100050Y901074D02*
X233646D01*
X100050Y900874D02*
X233646D01*
X100050Y900674D02*
X233645D01*
X100050Y900474D02*
X233645D01*
X100050Y900274D02*
X233645D01*
X100050Y900074D02*
X233645D01*
X100050Y899874D02*
X233644D01*
X100050Y899674D02*
X233644D01*
X100050Y899474D02*
X233644D01*
X100050Y899274D02*
X233643D01*
X100050Y899074D02*
X233643D01*
X100050Y898874D02*
X233643D01*
X100050Y898674D02*
X233642D01*
X100050Y898474D02*
X233642D01*
X100050Y898274D02*
X233642D01*
X100050Y898074D02*
X233642D01*
X100050Y897874D02*
X233641D01*
X100050Y897674D02*
X233641D01*
X100050Y897474D02*
X233641D01*
X100050Y897274D02*
X233640D01*
X100050Y897074D02*
X233640D01*
X100050Y896874D02*
X233640D01*
X100050Y896674D02*
X233640D01*
X100050Y896474D02*
X233639D01*
X100050Y896274D02*
X233639D01*
X100050Y896074D02*
X233639D01*
X100050Y895874D02*
X233638D01*
X100050Y895674D02*
X233638D01*
X100050Y895474D02*
X233638D01*
X100050Y895274D02*
X233637D01*
X100050Y895074D02*
X233637D01*
X100050Y894874D02*
X233637D01*
X100050Y894674D02*
X233637D01*
X100050Y894474D02*
X233636D01*
X100050Y894274D02*
X233636D01*
X100050Y894074D02*
X233636D01*
X100050Y893874D02*
X233635D01*
X100050Y893674D02*
X233635D01*
X100050Y893474D02*
X233635D01*
X100050Y893274D02*
X233634D01*
X100050Y893074D02*
X233634D01*
X100050Y892874D02*
X233634D01*
X100050Y892674D02*
X233634D01*
X100050Y892474D02*
X233633D01*
X100050Y892274D02*
X233633D01*
X100050Y892074D02*
X233633D01*
X100050Y891874D02*
X233632D01*
X100050Y891674D02*
X233632D01*
X100050Y891474D02*
X233632D01*
X100050Y891274D02*
X233632D01*
X100050Y891074D02*
X233631D01*
X100050Y890874D02*
X233631D01*
X100050Y890674D02*
X233631D01*
X100050Y890474D02*
X233630D01*
X100050Y890274D02*
X233630D01*
X100050Y890074D02*
X233630D01*
X100050Y889874D02*
X233629D01*
X100050Y889674D02*
X233629D01*
X100050Y889474D02*
X233629D01*
X100050Y889274D02*
X233629D01*
X100050Y889074D02*
X233628D01*
X100050Y888874D02*
X233628D01*
X100050Y888674D02*
X233628D01*
X100050Y888474D02*
X233627D01*
X100050Y888274D02*
X233627D01*
X100050Y888074D02*
X233627D01*
X100050Y887874D02*
X233626D01*
X100050Y887674D02*
X233626D01*
X100050Y887474D02*
X233626D01*
X100050Y887274D02*
X233626D01*
X100050Y887074D02*
X233625D01*
X100050Y886874D02*
X233625D01*
X100050Y886674D02*
X233625D01*
X100050Y886474D02*
X233624D01*
X100050Y886274D02*
X233624D01*
X100050Y886074D02*
X233624D01*
X100050Y885874D02*
X233624D01*
X100050Y885674D02*
X233623D01*
X100050Y885474D02*
X233623D01*
X100050Y885274D02*
X233623D01*
X100050Y885074D02*
X233622D01*
X100050Y884874D02*
X233622D01*
X100050Y884674D02*
X233622D01*
X100050Y884474D02*
X233621D01*
X100050Y884274D02*
X233621D01*
X100050Y884074D02*
X233621D01*
X100050Y883874D02*
X233621D01*
X100050Y883674D02*
X233620D01*
X100050Y883474D02*
X233620D01*
X100050Y883274D02*
X233620D01*
X100050Y883074D02*
X233619D01*
X100050Y882874D02*
X233619D01*
X100050Y882674D02*
X233619D01*
X100050Y882474D02*
X233618D01*
X100050Y882274D02*
X233618D01*
X100050Y882074D02*
X233618D01*
X100050Y881874D02*
X233618D01*
X100050Y881674D02*
X233617D01*
X100050Y881474D02*
X233617D01*
X100050Y881274D02*
X233617D01*
X100050Y881074D02*
X233616D01*
X100050Y880874D02*
X233616D01*
X100050Y880674D02*
X233616D01*
X100050Y880474D02*
X233616D01*
X100050Y880274D02*
X233615D01*
X100050Y880074D02*
X233615D01*
X100050Y879874D02*
X233615D01*
X100050Y879674D02*
X233614D01*
X100050Y879474D02*
X233614D01*
X100050Y879274D02*
X233614D01*
X100050Y879074D02*
X233613D01*
X100050Y878874D02*
X233613D01*
X100050Y878674D02*
X233613D01*
X100050Y878474D02*
X233613D01*
X100050Y878274D02*
X233612D01*
X100050Y878074D02*
X233612D01*
X100050Y877874D02*
X233612D01*
X100050Y877674D02*
X233611D01*
X100050Y877474D02*
X233611D01*
X100050Y877274D02*
X233611D01*
X100050Y877074D02*
X233610D01*
X100050Y876874D02*
X233610D01*
X100050Y876674D02*
X233610D01*
X100050Y876474D02*
X233610D01*
X100050Y876274D02*
X233609D01*
X100050Y876074D02*
X233609D01*
X100050Y875874D02*
X233609D01*
X100050Y875674D02*
X233608D01*
X100050Y875474D02*
X233608D01*
X100050Y875274D02*
X233608D01*
X100050Y875074D02*
X233608D01*
X100050Y874874D02*
X233607D01*
X100050Y874674D02*
X233607D01*
X100050Y874474D02*
X233607D01*
X100050Y874274D02*
X233606D01*
X100050Y874074D02*
X233606D01*
X100050Y873874D02*
X233606D01*
X100050Y873674D02*
X233605D01*
X100050Y873474D02*
X233605D01*
X100050Y873274D02*
X233605D01*
X100050Y873074D02*
X233605D01*
X100050Y872874D02*
X233604D01*
X100050Y872674D02*
X233604D01*
X100050Y872474D02*
X233604D01*
X100050Y872274D02*
X233603D01*
X100050Y872074D02*
X233603D01*
X100050Y871874D02*
X233603D01*
X100050Y871674D02*
X233602D01*
X100050Y871474D02*
X233602D01*
X100050Y871274D02*
X233602D01*
X100050Y871074D02*
X233602D01*
X100050Y870874D02*
X233601D01*
X100050Y870674D02*
X233601D01*
X100050Y870474D02*
X233601D01*
X100050Y870274D02*
X233600D01*
X100050Y870074D02*
X233600D01*
X100050Y869874D02*
X233600D01*
X100050Y869674D02*
X233600D01*
X100050Y869474D02*
X233599D01*
X100050Y869274D02*
X233599D01*
X100050Y869074D02*
X233599D01*
X100050Y868874D02*
X233598D01*
X100050Y868674D02*
X233598D01*
X100050Y868474D02*
X233598D01*
X100050Y868274D02*
X233597D01*
X100050Y868074D02*
X233597D01*
X100050Y867874D02*
X233597D01*
X100050Y867674D02*
X233597D01*
X100050Y867474D02*
X233596D01*
X100050Y867274D02*
X233596D01*
X100050Y867074D02*
X233596D01*
X100050Y866874D02*
X233595D01*
X100050Y866674D02*
X233595D01*
X100050Y866474D02*
X233595D01*
X100050Y866274D02*
X233594D01*
X100050Y866074D02*
X233594D01*
X100050Y865874D02*
X233594D01*
X100050Y865674D02*
X233594D01*
X100050Y865474D02*
X233593D01*
X100050Y865274D02*
X233593D01*
X100050Y865074D02*
X233593D01*
X100050Y864874D02*
X233592D01*
X100050Y864674D02*
X233592D01*
X100050Y864474D02*
X233592D01*
X100050Y864274D02*
X233592D01*
X100050Y864074D02*
X233591D01*
X100050Y863874D02*
X233591D01*
X100050Y863674D02*
X233591D01*
X100050Y863474D02*
X233590D01*
X100050Y863274D02*
X233590D01*
X100050Y863074D02*
X233590D01*
X100050Y862874D02*
X233589D01*
X100050Y862674D02*
X233589D01*
X100050Y862474D02*
X233589D01*
X100050Y862274D02*
X233589D01*
X100050Y862074D02*
X233588D01*
X100050Y861874D02*
X233588D01*
X100050Y861674D02*
X233588D01*
X100050Y861474D02*
X233587D01*
X100050Y861274D02*
X233587D01*
X100050Y861074D02*
X233587D01*
X100050Y860874D02*
X233586D01*
X100050Y860674D02*
X233586D01*
X100050Y860474D02*
X233586D01*
X100050Y860274D02*
X233586D01*
X100050Y860074D02*
X233585D01*
X100050Y859874D02*
X233585D01*
X100050Y859674D02*
X233585D01*
X100050Y859474D02*
X233584D01*
X100050Y859274D02*
X233584D01*
X100050Y859074D02*
X233584D01*
X100050Y858874D02*
X233584D01*
X100050Y858674D02*
X233583D01*
X100050Y858474D02*
X233583D01*
X100050Y858274D02*
X233583D01*
X100050Y858074D02*
X233582D01*
X100050Y857874D02*
X233582D01*
X100050Y857674D02*
X233582D01*
X100050Y857474D02*
X233581D01*
X100050Y857274D02*
X233581D01*
X100050Y857074D02*
X233581D01*
X100050Y856874D02*
X233581D01*
X100050Y856674D02*
X233580D01*
X100050Y856474D02*
X233580D01*
X100050Y856274D02*
X233580D01*
X100050Y856074D02*
X233579D01*
X100050Y855874D02*
X233579D01*
X100050Y855674D02*
X233579D01*
X100050Y855474D02*
X233578D01*
X100050Y855274D02*
X233578D01*
X100050Y855074D02*
X233578D01*
X100050Y854874D02*
X233578D01*
X100050Y854674D02*
X233577D01*
X100050Y854474D02*
X233577D01*
X100050Y854274D02*
X233577D01*
X100050Y854074D02*
X233576D01*
X100050Y853874D02*
X233576D01*
X100050Y853674D02*
X233576D01*
X100050Y853474D02*
X233576D01*
X100050Y853274D02*
X233575D01*
X100050Y853074D02*
X233575D01*
X100050Y852874D02*
X233575D01*
X100050Y852674D02*
X233574D01*
X100050Y852474D02*
X233574D01*
X100050Y852274D02*
X233574D01*
X100050Y852074D02*
X233573D01*
X100050Y851874D02*
X233573D01*
X100050Y851674D02*
X233573D01*
X100050Y851474D02*
X233573D01*
X100050Y851274D02*
X233572D01*
X100050Y851074D02*
X233572D01*
X100050Y850874D02*
X233572D01*
X100050Y850674D02*
X233571D01*
X100050Y850474D02*
X233571D01*
X100050Y850274D02*
X233571D01*
X100050Y850074D02*
X233570D01*
X100050Y849874D02*
X233570D01*
X100050Y849674D02*
X233570D01*
X100050Y849474D02*
X233570D01*
X100050Y849274D02*
X233569D01*
X100050Y849074D02*
X233569D01*
X100050Y848874D02*
X233569D01*
X100050Y848674D02*
X233568D01*
X100050Y848474D02*
X233568D01*
X100050Y848274D02*
X233568D01*
X100050Y848074D02*
X233568D01*
X100050Y847874D02*
X233567D01*
X100050Y847674D02*
X233567D01*
X100050Y847474D02*
X233567D01*
X100050Y847274D02*
X233566D01*
X100050Y847074D02*
X233566D01*
X100050Y846874D02*
X233566D01*
X100050Y846674D02*
X233565D01*
X100050Y846474D02*
X233565D01*
X100050Y846274D02*
X233565D01*
X100050Y846074D02*
X233565D01*
X100050Y845874D02*
X233564D01*
X100050Y845674D02*
X233564D01*
X100050Y845474D02*
X233564D01*
X100050Y845274D02*
X233563D01*
X100050Y845074D02*
X233563D01*
X100050Y844874D02*
X233563D01*
X100050Y844674D02*
X233562D01*
X100050Y844474D02*
X233562D01*
X100050Y844274D02*
X233562D01*
X100050Y844074D02*
X233562D01*
X100050Y843874D02*
X233561D01*
X100050Y843674D02*
X233561D01*
X100050Y843474D02*
X233561D01*
X100050Y843274D02*
X233560D01*
X100050Y843074D02*
X233560D01*
X100050Y842874D02*
X233560D01*
X100050Y842674D02*
X233560D01*
X100050Y842474D02*
X233559D01*
X100050Y842274D02*
X233559D01*
X100050Y842074D02*
X233559D01*
X100050Y841874D02*
X233558D01*
X100050Y841674D02*
X233558D01*
X100050Y841474D02*
X233558D01*
X100050Y841274D02*
X233557D01*
X100050Y841074D02*
X233557D01*
X100050Y840874D02*
X233557D01*
X100050Y840674D02*
X233557D01*
X100050Y840474D02*
X233556D01*
X100050Y840274D02*
X233556D01*
X100050Y840074D02*
X233556D01*
X100050Y839874D02*
X233555D01*
X100050Y839674D02*
X233555D01*
X100050Y839474D02*
X233555D01*
X100050Y839274D02*
X233554D01*
X100050Y839074D02*
X233554D01*
X100050Y838874D02*
X233554D01*
X100050Y838674D02*
X233554D01*
X100050Y838474D02*
X233553D01*
X100050Y838274D02*
X233553D01*
X100050Y838074D02*
X233553D01*
X100050Y837874D02*
X233552D01*
X100050Y837674D02*
X233552D01*
X100050Y837474D02*
X233552D01*
X100050Y837274D02*
X233552D01*
X100050Y837074D02*
X233551D01*
X100050Y836874D02*
X233551D01*
X100050Y836674D02*
X233551D01*
X100050Y836474D02*
X233550D01*
X100050Y836274D02*
X233550D01*
X100050Y836074D02*
X233550D01*
X100050Y835874D02*
X233549D01*
X100050Y835674D02*
X233549D01*
X100050Y835474D02*
X233549D01*
X100050Y835274D02*
X233549D01*
X100050Y835074D02*
X233548D01*
X100050Y834874D02*
X233548D01*
X100050Y834674D02*
X233548D01*
X100050Y834474D02*
X233547D01*
X100050Y834274D02*
X233547D01*
X100050Y834074D02*
X233547D01*
X100050Y833874D02*
X233546D01*
X100050Y833674D02*
X233546D01*
X100050Y833474D02*
X233546D01*
X100050Y833274D02*
X233546D01*
X100050Y833074D02*
X233545D01*
X100050Y832874D02*
X233545D01*
X100050Y832674D02*
X233545D01*
X100050Y832474D02*
X233544D01*
X100050Y832274D02*
X233544D01*
X100050Y832074D02*
X233544D01*
X100050Y831874D02*
X233544D01*
X100050Y831674D02*
X233543D01*
X100050Y831474D02*
X233543D01*
X100050Y831274D02*
X233543D01*
X100050Y831074D02*
X233542D01*
X100050Y830874D02*
X233542D01*
X100050Y830674D02*
X233542D01*
X100050Y830474D02*
X233541D01*
X100050Y830274D02*
X233541D01*
X100050Y830074D02*
X233541D01*
X100050Y829874D02*
X233541D01*
X100050Y829674D02*
X233540D01*
X100050Y829474D02*
X233540D01*
X100050Y829274D02*
X233540D01*
X100050Y829074D02*
X233539D01*
X100050Y828874D02*
X233539D01*
X100050Y828674D02*
X233539D01*
X100050Y828474D02*
X233538D01*
X100050Y828274D02*
X233538D01*
X100050Y828074D02*
X233538D01*
X100050Y827874D02*
X233538D01*
X100050Y827674D02*
X233537D01*
X100050Y827474D02*
X233537D01*
X100050Y827274D02*
X233537D01*
X100050Y827074D02*
X233536D01*
X100050Y826874D02*
X233536D01*
X100050Y826674D02*
X233536D01*
X100050Y826474D02*
X233536D01*
X100050Y826274D02*
X233535D01*
X100050Y826074D02*
X233535D01*
X100050Y825874D02*
X233535D01*
X100050Y825674D02*
X233534D01*
X100050Y825474D02*
X233534D01*
X100050Y825274D02*
X233534D01*
X100050Y825074D02*
X233533D01*
X100050Y824874D02*
X233533D01*
X100050Y824674D02*
X233533D01*
X100050Y824474D02*
X233533D01*
X100050Y824274D02*
X233532D01*
X100050Y824074D02*
X233532D01*
X100050Y823874D02*
X233532D01*
X100050Y823674D02*
X233531D01*
X100050Y823474D02*
X233531D01*
X100050Y823274D02*
X233531D01*
X100050Y823074D02*
X233530D01*
X100050Y822874D02*
X233530D01*
X100050Y822674D02*
X233530D01*
X100050Y822474D02*
X233530D01*
X100050Y822274D02*
X233529D01*
X100050Y822074D02*
X233529D01*
X100050Y821874D02*
X233529D01*
X100050Y821674D02*
X233528D01*
X100050Y821474D02*
X233528D01*
X100050Y821274D02*
X233528D01*
X100050Y821074D02*
X233528D01*
X100050Y820874D02*
X233527D01*
X100050Y820674D02*
X233527D01*
X100050Y820474D02*
X233527D01*
X100050Y820274D02*
X233526D01*
X100050Y820074D02*
X233526D01*
X100050Y819874D02*
X233526D01*
X100050Y819674D02*
X233525D01*
X100050Y819474D02*
X233525D01*
X100050Y819274D02*
X233525D01*
X100050Y819074D02*
X233525D01*
X100050Y818874D02*
X233524D01*
X100050Y818674D02*
X233524D01*
X100050Y818474D02*
X233524D01*
X100050Y818274D02*
X233523D01*
X100050Y818074D02*
X233523D01*
X100050Y817874D02*
X233523D01*
X100050Y817674D02*
X233522D01*
X100050Y817474D02*
X233522D01*
X100050Y817274D02*
X233522D01*
X100050Y817074D02*
X233522D01*
X100050Y816874D02*
X233521D01*
X100050Y816674D02*
X233521D01*
X100050Y816474D02*
X233521D01*
X100050Y816274D02*
X233520D01*
X100050Y816074D02*
X233520D01*
X100050Y815874D02*
X233520D01*
X100050Y815674D02*
X233520D01*
X100050Y815474D02*
X233519D01*
X100050Y815274D02*
X233519D01*
X100050Y815074D02*
X233519D01*
X100050Y814874D02*
X233518D01*
X100050Y814674D02*
X233518D01*
X100050Y814474D02*
X233518D01*
X100050Y814274D02*
X233517D01*
X100050Y814074D02*
X233517D01*
X100050Y813874D02*
X233517D01*
X100050Y813674D02*
X233517D01*
X100050Y813474D02*
X233516D01*
X100050Y813274D02*
X233516D01*
X100050Y813074D02*
X233516D01*
X100050Y812874D02*
X233515D01*
X100050Y812674D02*
X233515D01*
X100050Y812474D02*
X233515D01*
X100050Y812274D02*
X233514D01*
X100050Y812074D02*
X233514D01*
X100050Y811874D02*
X233514D01*
X100050Y811674D02*
X233514D01*
X100050Y811474D02*
X233513D01*
X100050Y811274D02*
X233513D01*
X100050Y811074D02*
X233513D01*
X100050Y810874D02*
X233512D01*
X100050Y810674D02*
X233512D01*
X100050Y810474D02*
X233512D01*
X100050Y810274D02*
X233512D01*
X100050Y810074D02*
X233511D01*
X100050Y809874D02*
X233511D01*
X100050Y809674D02*
X233511D01*
X100050Y809474D02*
X233510D01*
X100050Y809274D02*
X233510D01*
X100050Y809074D02*
X233510D01*
X100050Y808874D02*
X233509D01*
X100050Y808674D02*
X233509D01*
X100050Y808474D02*
X233509D01*
X100050Y808274D02*
X233509D01*
X100050Y808074D02*
X233508D01*
X100050Y807874D02*
X233508D01*
X100050Y807674D02*
X233508D01*
X100050Y807474D02*
X233507D01*
X100050Y807274D02*
X233507D01*
X100050Y807074D02*
X233507D01*
X100050Y806874D02*
X233506D01*
X100050Y806674D02*
X233506D01*
X100050Y806474D02*
X233506D01*
X100050Y806274D02*
X233506D01*
X100050Y806074D02*
X233505D01*
X100050Y805874D02*
X233505D01*
X100050Y805674D02*
X233505D01*
X100050Y805474D02*
X233504D01*
X100050Y805274D02*
X233504D01*
X100050Y805074D02*
X233504D01*
X100050Y804874D02*
X233504D01*
X100050Y804674D02*
X233503D01*
X100050Y804474D02*
X233503D01*
X100050Y804274D02*
X233503D01*
X100050Y804074D02*
X233502D01*
X100050Y803874D02*
X233502D01*
X100050Y803674D02*
X233502D01*
X100050Y803474D02*
X233501D01*
X100050Y803274D02*
X233501D01*
X100050Y803074D02*
X233501D01*
X100050Y802874D02*
X233501D01*
X100050Y802674D02*
X233500D01*
X100050Y802474D02*
X233500D01*
X100050Y802274D02*
X233500D01*
X100050Y802074D02*
X233499D01*
X100050Y801874D02*
X233499D01*
X100050Y801674D02*
X233499D01*
X100050Y801474D02*
X233498D01*
X100050Y801274D02*
X233498D01*
X100050Y801074D02*
X233498D01*
X100050Y800874D02*
X233498D01*
X100050Y800674D02*
X233497D01*
X100050Y800474D02*
X233497D01*
X100050Y800274D02*
X233497D01*
X100050Y800074D02*
X233496D01*
X100050Y799874D02*
X233496D01*
X100050Y799674D02*
X233496D01*
X100050Y799474D02*
X233496D01*
X100050Y799274D02*
X233495D01*
X100050Y799074D02*
X233495D01*
X100050Y798874D02*
X233495D01*
X100050Y798674D02*
X233494D01*
X100050Y798474D02*
X233494D01*
X100050Y798274D02*
X233494D01*
X100050Y798074D02*
X233493D01*
X100050Y797874D02*
X233493D01*
X100050Y797674D02*
X233493D01*
X100050Y797474D02*
X233493D01*
X100050Y797274D02*
X233492D01*
X100050Y797074D02*
X233492D01*
X100050Y796874D02*
X233492D01*
X100050Y796674D02*
X233491D01*
X100050Y796474D02*
X233491D01*
X100050Y796274D02*
X233491D01*
X100050Y796074D02*
X233490D01*
X100050Y795874D02*
X233490D01*
X100050Y795674D02*
X233490D01*
X100050Y795474D02*
X233490D01*
X100050Y795274D02*
X233489D01*
X100050Y795074D02*
X233489D01*
X100050Y794874D02*
X233489D01*
X100050Y794674D02*
X233488D01*
X100050Y794474D02*
X233488D01*
X100050Y794274D02*
X233488D01*
X100050Y794074D02*
X233488D01*
X100050Y793874D02*
X233487D01*
X100050Y793674D02*
X233487D01*
X100050Y793474D02*
X233487D01*
X100050Y793274D02*
X233486D01*
X100050Y793074D02*
X233486D01*
X100050Y792874D02*
X233486D01*
X100050Y792674D02*
X233485D01*
X100050Y792474D02*
X233485D01*
X100050Y792274D02*
X233485D01*
X100050Y792074D02*
X233485D01*
X100050Y791874D02*
X233484D01*
X100050Y791674D02*
X233484D01*
X100050Y791474D02*
X233484D01*
X100050Y791274D02*
X233483D01*
X100050Y791074D02*
X233483D01*
X100050Y790874D02*
X233483D01*
X100050Y790674D02*
X233482D01*
X100050Y790474D02*
X233482D01*
X100050Y790274D02*
X233482D01*
X100050Y790074D02*
X233482D01*
X100050Y789874D02*
X233481D01*
X100050Y789674D02*
X233481D01*
X100050Y789474D02*
X233481D01*
X100050Y789274D02*
X233480D01*
X100050Y789074D02*
X233480D01*
X100050Y788874D02*
X233480D01*
X100050Y788674D02*
X233480D01*
X100050Y788474D02*
X233479D01*
X100050Y788274D02*
X233479D01*
X100050Y788074D02*
X233479D01*
X100050Y787874D02*
X233478D01*
X100050Y787674D02*
X233478D01*
X100050Y787474D02*
X233478D01*
X100050Y787274D02*
X233477D01*
X100050Y787074D02*
X233477D01*
X100050Y786874D02*
X233477D01*
X100050Y786674D02*
X233477D01*
X100050Y786474D02*
X233476D01*
X100050Y786274D02*
X233476D01*
X100050Y786074D02*
X233476D01*
X100050Y785874D02*
X233475D01*
X100050Y785674D02*
X233475D01*
X100050Y785474D02*
X233475D01*
X100050Y785274D02*
X233474D01*
X100050Y785074D02*
X233474D01*
X100050Y784874D02*
X233474D01*
X100050Y784674D02*
X233474D01*
X100050Y784474D02*
X233473D01*
X100050Y784274D02*
X233473D01*
X100050Y784074D02*
X233473D01*
X100050Y783874D02*
X233472D01*
X100050Y783674D02*
X233472D01*
X100050Y783474D02*
X233472D01*
X100050Y783274D02*
X233472D01*
X100050Y783074D02*
X233471D01*
X100050Y782874D02*
X233471D01*
X100050Y782674D02*
X233471D01*
X100050Y782474D02*
X233470D01*
X100050Y782274D02*
X233470D01*
X100050Y782074D02*
X233470D01*
X100050Y781874D02*
X233469D01*
X100050Y781674D02*
X233469D01*
X100050Y781474D02*
X233469D01*
X100050Y781274D02*
X233469D01*
X100050Y781074D02*
X233468D01*
X100050Y780874D02*
X233468D01*
X100050Y780674D02*
X233468D01*
X100050Y780474D02*
X233467D01*
X100050Y780274D02*
X233467D01*
X100050Y780074D02*
X233467D01*
X100050Y779874D02*
X233466D01*
X100050Y779674D02*
X233466D01*
X100050Y779474D02*
X233466D01*
X100050Y779274D02*
X233466D01*
X100050Y779074D02*
X233465D01*
X100050Y778874D02*
X233465D01*
X100050Y778674D02*
X233465D01*
X100050Y778474D02*
X233464D01*
X100050Y778274D02*
X233464D01*
X100050Y778074D02*
X233464D01*
X100050Y777874D02*
X233464D01*
X100050Y777674D02*
X233463D01*
X100050Y777474D02*
X233463D01*
X100050Y777274D02*
X233463D01*
X100050Y777074D02*
X233462D01*
X100050Y776874D02*
X233462D01*
X100050Y776674D02*
X233462D01*
X100050Y776474D02*
X233461D01*
X100050Y776274D02*
X233461D01*
X100050Y776074D02*
X233461D01*
X100050Y775874D02*
X233461D01*
X100050Y775674D02*
X233460D01*
X100050Y775474D02*
X233460D01*
X100050Y775274D02*
X233460D01*
X100050Y775074D02*
X233459D01*
X100050Y774874D02*
X233459D01*
X100050Y774674D02*
X233459D01*
X100050Y774474D02*
X233459D01*
X100050Y774274D02*
X233458D01*
X100050Y774074D02*
X233458D01*
X100050Y773874D02*
X233458D01*
X100050Y773674D02*
X233457D01*
X100050Y773474D02*
X233457D01*
X100050Y773274D02*
X233457D01*
X100050Y773074D02*
X233456D01*
X100050Y772874D02*
X233456D01*
X100050Y772674D02*
X233456D01*
X100050Y772474D02*
X233456D01*
X100050Y772274D02*
X233455D01*
X100050Y772074D02*
X233455D01*
X100050Y771874D02*
X233455D01*
X100050Y771674D02*
X233454D01*
X100050Y771474D02*
X233454D01*
X100050Y771274D02*
X233454D01*
X100050Y771074D02*
X233453D01*
X100050Y770874D02*
X233453D01*
X100050Y770674D02*
X233453D01*
X100050Y770474D02*
X233453D01*
X100050Y770274D02*
X233452D01*
X100050Y770074D02*
X233452D01*
X100050Y769874D02*
X233452D01*
X100050Y769674D02*
X233451D01*
X100050Y769474D02*
X233451D01*
X100050Y769274D02*
X233451D01*
X100050Y769074D02*
X233451D01*
X100050Y768874D02*
X233450D01*
X100050Y768674D02*
X233450D01*
X100050Y768474D02*
X233450D01*
X100050Y768274D02*
X233449D01*
X100050Y768074D02*
X233449D01*
X100050Y767874D02*
X233449D01*
X100050Y767674D02*
X233448D01*
X100050Y767474D02*
X233448D01*
X100050Y767274D02*
X233448D01*
X100050Y767074D02*
X233448D01*
X100050Y766874D02*
X233447D01*
X100050Y766674D02*
X233447D01*
X100050Y766474D02*
X233447D01*
X100050Y766274D02*
X233446D01*
X100050Y766074D02*
X233446D01*
X100050Y765874D02*
X233446D01*
X100050Y765674D02*
X233445D01*
X100050Y765474D02*
X233445D01*
X100050Y765274D02*
X233445D01*
X100050Y765074D02*
X233445D01*
X100050Y764874D02*
X233444D01*
X100050Y764674D02*
X233444D01*
X100050Y764474D02*
X233444D01*
X100050Y764274D02*
X233443D01*
X100050Y764074D02*
X233443D01*
X100050Y763874D02*
X233443D01*
X100050Y763674D02*
X233443D01*
X100050Y763474D02*
X233442D01*
X100050Y763274D02*
X233442D01*
X100050Y763074D02*
X233442D01*
X100050Y762874D02*
X233441D01*
X100050Y762674D02*
X233441D01*
X100050Y762474D02*
X233441D01*
X100050Y762274D02*
X233440D01*
X100050Y762074D02*
X233440D01*
X100050Y761874D02*
X233440D01*
X100050Y761674D02*
X233440D01*
X100050Y761474D02*
X233439D01*
X100050Y761274D02*
X233439D01*
X100050Y761074D02*
X233439D01*
X100050Y760874D02*
X233438D01*
X100050Y760674D02*
X233438D01*
X100050Y760474D02*
X233438D01*
X100050Y760274D02*
X233437D01*
X100050Y760074D02*
X233437D01*
X100050Y759874D02*
X233437D01*
X100050Y759674D02*
X233437D01*
X100050Y759474D02*
X233436D01*
X100050Y759274D02*
X233436D01*
X100050Y759074D02*
X233436D01*
X100050Y758874D02*
X233435D01*
X100050Y758674D02*
X233435D01*
X100050Y758474D02*
X233435D01*
X100050Y758274D02*
X233435D01*
X100050Y758074D02*
X233434D01*
X100050Y757874D02*
X233434D01*
X100050Y757674D02*
X233434D01*
X100050Y757474D02*
X233433D01*
X100050Y757274D02*
X233433D01*
X100050Y757074D02*
X233433D01*
X100050Y756874D02*
X233432D01*
X100050Y756674D02*
X233432D01*
X100050Y756474D02*
X233432D01*
X100050Y756274D02*
X233432D01*
X100050Y756074D02*
X233431D01*
X100050Y755874D02*
X233431D01*
X100050Y755674D02*
X233431D01*
X100050Y755474D02*
X233430D01*
X100050Y755274D02*
X233430D01*
X100050Y755074D02*
X233430D01*
X100050Y754874D02*
X233429D01*
X100050Y754674D02*
X233429D01*
X100050Y754474D02*
X233429D01*
X100050Y754274D02*
X233429D01*
X100050Y754074D02*
X233428D01*
X100050Y753874D02*
X233428D01*
X100050Y753674D02*
X233428D01*
X100050Y753474D02*
X233427D01*
X100050Y753274D02*
X233427D01*
X100050Y753074D02*
X233427D01*
X100050Y752874D02*
X233427D01*
X100050Y752674D02*
X233426D01*
X100050Y752474D02*
X233426D01*
X100050Y752274D02*
X233426D01*
X100050Y752074D02*
X233425D01*
X100050Y751874D02*
X233425D01*
X100050Y751674D02*
X233425D01*
X100050Y751474D02*
X233424D01*
X100050Y751274D02*
X233424D01*
X100050Y751074D02*
X233424D01*
X100050Y750874D02*
X233424D01*
X100050Y750674D02*
X233423D01*
X100050Y750474D02*
X233423D01*
X100050Y750274D02*
X233423D01*
X100050Y750074D02*
X233422D01*
X100050Y749874D02*
X233422D01*
X100050Y749674D02*
X233422D01*
X100050Y749474D02*
X233421D01*
X100050Y749274D02*
X233421D01*
X100050Y749074D02*
X233421D01*
X100050Y748874D02*
X233421D01*
X100050Y748674D02*
X233420D01*
X100050Y748474D02*
X233420D01*
X100050Y748274D02*
X233420D01*
X100050Y748074D02*
X233419D01*
X100050Y747874D02*
X233419D01*
X100050Y747674D02*
X233419D01*
X100050Y747474D02*
X233419D01*
X100050Y747274D02*
X233418D01*
X100050Y747074D02*
X233418D01*
X100050Y746874D02*
X233418D01*
X100050Y746674D02*
X233417D01*
X100050Y746474D02*
X233417D01*
X100050Y746274D02*
X233417D01*
X100050Y746074D02*
X233416D01*
X100050Y745874D02*
X233416D01*
X100050Y745674D02*
X233416D01*
X100050Y745474D02*
X233416D01*
X100050Y745274D02*
X233415D01*
X100050Y745074D02*
X233415D01*
X100050Y744874D02*
X233415D01*
X100050Y744674D02*
X233414D01*
X100050Y744474D02*
X233414D01*
X100050Y744274D02*
X233414D01*
X100050Y744074D02*
X233413D01*
X100050Y743874D02*
X233413D01*
X100050Y743674D02*
X233413D01*
X100050Y743474D02*
X233413D01*
X100050Y743274D02*
X233412D01*
X100050Y743074D02*
X233412D01*
X100050Y742874D02*
X233412D01*
X100050Y742674D02*
X233411D01*
X100050Y742474D02*
X233411D01*
X100050Y742274D02*
X233411D01*
X100050Y742074D02*
X233411D01*
X100050Y741874D02*
X233410D01*
X100050Y741674D02*
X233410D01*
X100050Y741474D02*
X233410D01*
X100050Y741274D02*
X233409D01*
X100050Y741074D02*
X233409D01*
X100050Y740874D02*
X233409D01*
X100050Y740674D02*
X233408D01*
X100050Y740474D02*
X233408D01*
X100050Y740274D02*
X233408D01*
X100050Y740074D02*
X233408D01*
X100050Y739874D02*
X233407D01*
X100050Y739674D02*
X233407D01*
X100050Y739474D02*
X233407D01*
X100050Y739274D02*
X233406D01*
X100050Y739074D02*
X233406D01*
X100050Y738874D02*
X233406D01*
X100050Y738674D02*
X233405D01*
X100050Y738474D02*
X233405D01*
X100050Y738274D02*
X233405D01*
X100050Y738074D02*
X233405D01*
X100050Y737874D02*
X233404D01*
X100050Y737674D02*
X233404D01*
X100050Y737474D02*
X233404D01*
X100050Y737274D02*
X233403D01*
X100050Y737074D02*
X233403D01*
X100050Y736874D02*
X233403D01*
X100050Y736674D02*
X233403D01*
X100050Y736474D02*
X233402D01*
X100050Y736274D02*
X233402D01*
X100050Y736074D02*
X233402D01*
X100050Y735874D02*
X233401D01*
X100050Y735674D02*
X233401D01*
X100050Y735474D02*
X233401D01*
X100050Y735274D02*
X233400D01*
X100050Y735074D02*
X233400D01*
X100050Y734874D02*
X233400D01*
X100050Y734674D02*
X233400D01*
X100050Y734474D02*
X233399D01*
X100050Y734274D02*
X233399D01*
X100050Y734074D02*
X233399D01*
X100050Y733874D02*
X233398D01*
X100050Y733674D02*
X233398D01*
X100050Y733474D02*
X233398D01*
X100050Y733274D02*
X233397D01*
X100050Y733074D02*
X233397D01*
X100050Y732874D02*
X233397D01*
X100050Y732674D02*
X233397D01*
X100050Y732474D02*
X233396D01*
X100050Y732274D02*
X233396D01*
X100050Y732074D02*
X233396D01*
X100050Y731874D02*
X233395D01*
X100050Y731674D02*
X233395D01*
X100050Y731474D02*
X233395D01*
X100050Y731274D02*
X233395D01*
X100050Y731074D02*
X233394D01*
X100050Y730874D02*
X233394D01*
X100050Y730674D02*
X233394D01*
X100050Y730474D02*
X233393D01*
X100050Y730274D02*
X233393D01*
X100050Y730074D02*
X233393D01*
X100050Y729874D02*
X233392D01*
X100050Y729674D02*
X233392D01*
X100050Y729474D02*
X233392D01*
X100050Y729274D02*
X233392D01*
X100050Y729074D02*
X233391D01*
X100050Y728874D02*
X233391D01*
X100050Y728674D02*
X233391D01*
X100050Y728474D02*
X233390D01*
X100050Y728274D02*
X233390D01*
X100050Y728074D02*
X233390D01*
X100050Y727874D02*
X233389D01*
X100050Y727674D02*
X233389D01*
X100050Y727474D02*
X181150D01*
X100050Y727274D02*
X181150D01*
X100050Y727074D02*
X181150D01*
X100050Y726874D02*
X181150D01*
X100050Y726674D02*
X181150D01*
X100050Y726474D02*
X181150D01*
X100050Y726274D02*
X181150D01*
X100050Y726074D02*
X181150D01*
X100050Y725874D02*
X181150D01*
X100050Y725674D02*
X181150D01*
X100050Y725474D02*
X181150D01*
X100050Y725274D02*
X181150D01*
X100050Y725074D02*
X181150D01*
X100050Y724874D02*
X181150D01*
X100050Y724674D02*
X181150D01*
X100050Y724474D02*
X181150D01*
X100050Y724274D02*
X181150D01*
X100050Y724074D02*
X181150D01*
X100050Y723874D02*
X181150D01*
X100050Y723674D02*
X181150D01*
X100050Y723474D02*
X181150D01*
X100050Y723274D02*
X181150D01*
X100050Y723074D02*
X181150D01*
X100050Y722874D02*
X181150D01*
X100050Y722674D02*
X181150D01*
X100050Y722474D02*
X181150D01*
X100050Y722274D02*
X181150D01*
X100050Y722074D02*
X181150D01*
X100050Y721874D02*
X181150D01*
X100050Y721674D02*
X181150D01*
X100050Y721474D02*
X181150D01*
X100050Y721274D02*
X181150D01*
X100050Y721074D02*
X181150D01*
X100050Y720874D02*
X181150D01*
X100050Y720674D02*
X181150D01*
X100050Y720474D02*
X181150D01*
X100050Y720274D02*
X181150D01*
X100050Y720074D02*
X181150D01*
X100050Y719874D02*
X181150D01*
X100050Y719674D02*
X181150D01*
X100050Y719474D02*
X181150D01*
X100050Y719274D02*
X181150D01*
X100050Y719074D02*
X181150D01*
X100050Y718874D02*
X181150D01*
X100050Y718674D02*
X181150D01*
X100050Y718474D02*
X181150D01*
X100050Y718274D02*
X181150D01*
X100050Y718074D02*
X181150D01*
X100050Y717874D02*
X181150D01*
X100050Y717674D02*
X181150D01*
X100050Y717474D02*
X181150D01*
X100050Y717274D02*
X181150D01*
X100050Y717074D02*
X181150D01*
X100050Y716874D02*
X181150D01*
X100050Y716674D02*
X181150D01*
X100050Y716474D02*
X181150D01*
X100050Y716274D02*
X181150D01*
X100050Y716074D02*
X181150D01*
X100050Y715874D02*
X181150D01*
X100050Y715674D02*
X181150D01*
X100050Y715474D02*
X181150D01*
X100050Y715274D02*
X181150D01*
X100050Y715074D02*
X181150D01*
X100050Y714874D02*
X181150D01*
X100050Y714674D02*
X181150D01*
X100050Y714474D02*
X181150D01*
X100050Y714274D02*
X181150D01*
X100050Y714074D02*
X181150D01*
X100050Y713874D02*
X181150D01*
X100050Y713674D02*
X181150D01*
X100050Y713474D02*
X181150D01*
X100050Y713274D02*
X181150D01*
X100050Y713074D02*
X181150D01*
X100050Y712874D02*
X181150D01*
X100050Y712674D02*
X181150D01*
X100050Y712474D02*
X181150D01*
X100050Y712274D02*
X181150D01*
X100050Y712074D02*
X181150D01*
X100050Y711874D02*
X181150D01*
X100050Y711674D02*
X181150D01*
X100050Y711474D02*
X181150D01*
X100050Y711274D02*
X181150D01*
X100050Y711074D02*
X181150D01*
X100050Y710874D02*
X181150D01*
X100050Y710674D02*
X181150D01*
X100050Y710474D02*
X181150D01*
X100050Y710274D02*
X181150D01*
X100050Y710074D02*
X181150D01*
X100050Y709874D02*
X181150D01*
X100050Y709674D02*
X181150D01*
X100050Y709474D02*
X181150D01*
X100050Y709274D02*
X181150D01*
X100050Y709074D02*
X181150D01*
X100050Y708874D02*
X181150D01*
X100050Y708674D02*
X181150D01*
X100050Y708474D02*
X181150D01*
X100050Y708274D02*
X181150D01*
X100050Y708074D02*
X181150D01*
X100050Y707874D02*
X181150D01*
X100050Y707674D02*
X181150D01*
X100050Y707474D02*
X181150D01*
X100050Y707274D02*
X181150D01*
X100050Y707074D02*
X181150D01*
X100050Y706874D02*
X181150D01*
X100050Y706674D02*
X181150D01*
X100050Y706474D02*
X181150D01*
X100050Y706274D02*
X181150D01*
X100050Y706074D02*
X181150D01*
X100050Y705874D02*
X181150D01*
X100050Y705674D02*
X181150D01*
X100050Y705474D02*
X181150D01*
X100050Y705274D02*
X181150D01*
X100050Y705074D02*
X181150D01*
X100050Y704874D02*
X181150D01*
X100050Y704674D02*
X181150D01*
X100050Y704474D02*
X181150D01*
X100050Y704274D02*
X181150D01*
X100050Y704074D02*
X181150D01*
X100050Y703874D02*
X181150D01*
X100050Y703674D02*
X181150D01*
X100050Y703474D02*
X181150D01*
X100050Y703274D02*
X181150D01*
X100050Y703074D02*
X181150D01*
X100050Y702874D02*
X181150D01*
X100050Y702674D02*
X181150D01*
X100050Y702474D02*
X181150D01*
X100050Y702274D02*
X181150D01*
X100050Y702074D02*
X181150D01*
X100050Y701874D02*
X181150D01*
X100050Y701674D02*
X181150D01*
X100050Y701474D02*
X181150D01*
X100050Y701274D02*
X181150D01*
X100050Y701074D02*
X181150D01*
X100050Y700874D02*
X181150D01*
X100050Y700674D02*
X181150D01*
X100050Y700474D02*
X181150D01*
X100050Y700274D02*
X181150D01*
X100050Y700074D02*
X181150D01*
X100050Y699874D02*
X181150D01*
X100050Y699674D02*
X181150D01*
X100050Y699474D02*
X181150D01*
X100050Y699274D02*
X181150D01*
X100050Y699074D02*
X181150D01*
X100050Y698874D02*
X181150D01*
X100050Y698674D02*
X181150D01*
X100050Y698474D02*
X181150D01*
X100050Y698274D02*
X181150D01*
X100050Y698074D02*
X181150D01*
X100050Y697874D02*
X181150D01*
X100050Y697674D02*
X181150D01*
X100050Y697474D02*
X181150D01*
X100050Y697274D02*
X181150D01*
X100050Y697074D02*
X181150D01*
X100050Y696874D02*
X181150D01*
X100050Y696674D02*
X181150D01*
X100050Y696474D02*
X181150D01*
X100050Y696274D02*
X181150D01*
X100050Y696074D02*
X181150D01*
X100050Y695874D02*
X181150D01*
X100050Y695674D02*
X181150D01*
X100050Y695474D02*
X181150D01*
X100050Y695274D02*
X181150D01*
X100050Y695074D02*
X181150D01*
X100050Y694874D02*
X181150D01*
X100050Y694674D02*
X181150D01*
X100050Y694474D02*
X181150D01*
X100050Y694274D02*
X181150D01*
X100050Y694074D02*
X181150D01*
X100050Y693874D02*
X181150D01*
X100050Y693674D02*
X181150D01*
X100050Y693474D02*
X181150D01*
X100050Y693274D02*
X181150D01*
X100050Y693074D02*
X181150D01*
X100050Y692874D02*
X181150D01*
X100050Y692674D02*
X181150D01*
X100050Y692474D02*
X181150D01*
X100050Y692274D02*
X181150D01*
X100050Y692074D02*
X181150D01*
X100050Y691874D02*
X181150D01*
X100050Y691674D02*
X181150D01*
X100050Y691474D02*
X181150D01*
X100050Y691274D02*
X181150D01*
X100050Y691074D02*
X181150D01*
X100050Y690874D02*
X181150D01*
X100050Y690674D02*
X181150D01*
X100050Y690474D02*
X181150D01*
X100050Y690274D02*
X181150D01*
X100050Y690074D02*
X181150D01*
X100050Y689874D02*
X181150D01*
X100050Y689674D02*
X181150D01*
X100050Y689474D02*
X181150D01*
X100050Y689274D02*
X181150D01*
X100050Y689074D02*
X181150D01*
X100050Y688874D02*
X181150D01*
X100050Y688674D02*
X181150D01*
X100050Y688474D02*
X181150D01*
X100050Y688274D02*
X181150D01*
X100050Y688074D02*
X181150D01*
X100050Y687874D02*
X181150D01*
X100050Y687674D02*
X181150D01*
X100050Y687474D02*
X181150D01*
X100050Y687274D02*
X181150D01*
X100050Y687074D02*
X181150D01*
X100050Y686874D02*
X181150D01*
X100050Y686674D02*
X181150D01*
X100050Y686474D02*
X181150D01*
X100050Y686274D02*
X181150D01*
X100050Y686074D02*
X181150D01*
X100050Y685874D02*
X181150D01*
X100050Y685674D02*
X181150D01*
X100050Y685474D02*
X181150D01*
X100050Y685274D02*
X181150D01*
X100050Y685074D02*
X181150D01*
X100050Y684874D02*
X181150D01*
X100050Y684674D02*
X181150D01*
X100050Y684474D02*
X181150D01*
X100050Y684274D02*
X181150D01*
X100050Y684074D02*
X181150D01*
X100050Y683874D02*
X181150D01*
X100050Y683674D02*
X181150D01*
X100050Y683474D02*
X181150D01*
X100050Y683274D02*
X181150D01*
X100050Y683074D02*
X181150D01*
X100050Y682874D02*
X181150D01*
X100050Y682674D02*
X181150D01*
X100050Y682474D02*
X181150D01*
X100050Y682274D02*
X181150D01*
X100050Y682074D02*
X181150D01*
X100050Y681874D02*
X181150D01*
X100050Y681674D02*
X181150D01*
X100050Y681474D02*
X181150D01*
X100050Y681274D02*
X181150D01*
X100050Y681074D02*
X181150D01*
X100050Y680874D02*
X181150D01*
X100050Y680674D02*
X181150D01*
X100050Y680474D02*
X181150D01*
X100050Y680274D02*
X181150D01*
X100050Y680074D02*
X181150D01*
X100050Y679874D02*
X181150D01*
X100050Y679674D02*
X181150D01*
X100050Y679474D02*
X181150D01*
X100050Y679274D02*
X181150D01*
X100050Y679074D02*
X181150D01*
X100050Y678874D02*
X181150D01*
X100050Y678674D02*
X181150D01*
X100050Y678474D02*
X181150D01*
X100050Y678274D02*
X181150D01*
X100050Y678074D02*
X181150D01*
X100050Y677874D02*
X181150D01*
X100050Y677674D02*
X181150D01*
X100050Y677474D02*
X181150D01*
X100050Y677274D02*
X181150D01*
X100050Y677074D02*
X181150D01*
X100050Y676874D02*
X181150D01*
X100050Y676674D02*
X181150D01*
X100050Y676474D02*
X181150D01*
X100050Y676274D02*
X181150D01*
X100050Y676074D02*
X181150D01*
X100050Y675874D02*
X181150D01*
X100050Y675674D02*
X181150D01*
X100050Y675474D02*
X181150D01*
X100050Y675274D02*
X181150D01*
X100050Y675074D02*
X181150D01*
X100050Y674874D02*
X181150D01*
X100050Y674674D02*
X181150D01*
X100050Y674474D02*
X181150D01*
X100050Y674274D02*
X181150D01*
X100050Y674074D02*
X181150D01*
X100050Y673874D02*
X181150D01*
X100050Y673674D02*
X181150D01*
X100050Y673474D02*
X181150D01*
X100050Y673274D02*
X181150D01*
X100050Y673074D02*
X181150D01*
X100050Y672874D02*
X181150D01*
X100050Y672674D02*
X181150D01*
X100050Y672474D02*
X181150D01*
X100050Y672274D02*
X181150D01*
X100050Y672074D02*
X181150D01*
X100050Y671874D02*
X181150D01*
X100050Y671674D02*
X181150D01*
X100050Y671474D02*
X181150D01*
X100050Y671274D02*
X181150D01*
X100050Y671074D02*
X181150D01*
X100050Y670874D02*
X181150D01*
X100050Y670674D02*
X181150D01*
X100050Y670474D02*
X181150D01*
X100050Y670274D02*
X181150D01*
X100050Y670074D02*
X181150D01*
X100050Y669874D02*
X181150D01*
X100050Y669674D02*
X181150D01*
X100050Y669474D02*
X181150D01*
X100050Y669274D02*
X181150D01*
X100050Y669074D02*
X181150D01*
X100050Y668874D02*
X181150D01*
X100050Y668674D02*
X181150D01*
X100050Y668474D02*
X181150D01*
X100050Y668274D02*
X181150D01*
X100050Y668074D02*
X181150D01*
X100050Y667874D02*
X181150D01*
X100050Y667674D02*
X181150D01*
X100050Y667474D02*
X181150D01*
X100050Y667274D02*
X181150D01*
X100050Y667074D02*
X181150D01*
X100050Y666874D02*
X181150D01*
X100050Y666674D02*
X181150D01*
X100050Y666474D02*
X181150D01*
X100050Y666274D02*
X181150D01*
X100050Y666074D02*
X181150D01*
X100050Y665874D02*
X181150D01*
X100050Y665674D02*
X181150D01*
X100050Y665474D02*
X181150D01*
X100050Y665274D02*
X181150D01*
X100050Y665074D02*
X181150D01*
X100050Y664874D02*
X181150D01*
X100050Y664674D02*
X181150D01*
X100050Y664474D02*
X181150D01*
X100050Y664274D02*
X181150D01*
X100050Y664074D02*
X181150D01*
X100050Y663874D02*
X181150D01*
X100050Y663674D02*
X181150D01*
X100050Y663474D02*
X181150D01*
X100050Y663274D02*
X181150D01*
X100050Y663074D02*
X181150D01*
X100050Y662874D02*
X181150D01*
X100050Y662674D02*
X181150D01*
X100050Y662474D02*
X181150D01*
X100050Y662274D02*
X181150D01*
X100050Y662074D02*
X181150D01*
X100050Y661874D02*
X181150D01*
X100050Y661674D02*
X181150D01*
X100050Y661474D02*
X181150D01*
X100050Y661274D02*
X181150D01*
X100050Y661074D02*
X181150D01*
X100050Y660874D02*
X181150D01*
X100050Y660674D02*
X181150D01*
X100050Y660474D02*
X181150D01*
X100050Y660274D02*
X181150D01*
X100050Y660074D02*
X181150D01*
X100050Y659874D02*
X181150D01*
X100050Y659674D02*
X181150D01*
X100050Y659474D02*
X181150D01*
X100050Y659274D02*
X181150D01*
X100050Y659074D02*
X181150D01*
X100050Y658874D02*
X181150D01*
X100050Y658674D02*
X181150D01*
X100050Y658474D02*
X181150D01*
X100050Y658274D02*
X181150D01*
X100050Y658074D02*
X181150D01*
X100050Y657874D02*
X181150D01*
X100050Y657674D02*
X181150D01*
X100050Y657474D02*
X181150D01*
X100050Y657274D02*
X181150D01*
X100050Y657074D02*
X181150D01*
X100050Y656874D02*
X181150D01*
X100050Y656674D02*
X181150D01*
X100050Y656474D02*
X181150D01*
X100050Y656274D02*
X181150D01*
X100050Y656074D02*
X181150D01*
X100050Y655874D02*
X181150D01*
X100050Y655674D02*
X181150D01*
X100050Y655474D02*
X181150D01*
X100050Y655274D02*
X181150D01*
X100050Y655074D02*
X181150D01*
X100050Y654874D02*
X181150D01*
X100050Y654674D02*
X181150D01*
X100050Y654474D02*
X181150D01*
X100050Y654274D02*
X181150D01*
X100050Y654074D02*
X181150D01*
X100050Y653874D02*
X181150D01*
X100050Y653674D02*
X181150D01*
X100050Y653474D02*
X181150D01*
X100050Y653274D02*
X181150D01*
X100050Y653074D02*
X181150D01*
X100050Y652874D02*
X181150D01*
X100050Y652674D02*
X181150D01*
X100050Y652474D02*
X181150D01*
X100050Y652274D02*
X181150D01*
X100050Y652074D02*
X181150D01*
X100050Y651874D02*
X181150D01*
X100050Y651674D02*
X181150D01*
X100050Y651474D02*
X181150D01*
X100050Y651274D02*
X181150D01*
X100050Y651074D02*
X181150D01*
X100050Y650874D02*
X181150D01*
X100050Y650674D02*
X181150D01*
X100050Y650474D02*
X181150D01*
X100050Y650274D02*
X181150D01*
X100050Y650074D02*
X181150D01*
X100050Y649874D02*
X181150D01*
X100050Y649674D02*
X181150D01*
X100050Y649474D02*
X181150D01*
X100050Y649274D02*
X181150D01*
X100050Y649074D02*
X181150D01*
X100050Y648874D02*
X181150D01*
X100050Y648674D02*
X181150D01*
X100050Y648474D02*
X181150D01*
X100050Y648274D02*
X181150D01*
X100050Y648074D02*
X181150D01*
X100050Y647874D02*
X181150D01*
X100050Y647674D02*
X181150D01*
X100050Y647474D02*
X181150D01*
X100050Y647274D02*
X181150D01*
X100050Y647074D02*
X181150D01*
X100050Y646874D02*
X181150D01*
X100050Y646674D02*
X181150D01*
X100050Y646474D02*
X181150D01*
X100050Y646274D02*
X181150D01*
X100050Y646074D02*
X181150D01*
X100050Y645874D02*
X181150D01*
X100050Y645674D02*
X181150D01*
X100050Y645474D02*
X181150D01*
X100050Y645274D02*
X181150D01*
X100050Y645074D02*
X181150D01*
X100050Y644874D02*
X181150D01*
X100050Y644674D02*
X181150D01*
X100050Y644474D02*
X181150D01*
X100050Y644274D02*
X181150D01*
X100050Y644074D02*
X181150D01*
X100050Y643874D02*
X181150D01*
X100050Y643674D02*
X181150D01*
X100050Y643474D02*
X181150D01*
X100050Y643274D02*
X181150D01*
X100050Y643074D02*
X181150D01*
X100050Y642874D02*
X181150D01*
X100050Y642674D02*
X181150D01*
X100050Y642474D02*
X181150D01*
X100050Y642274D02*
X181150D01*
X100050Y642074D02*
X181150D01*
X100050Y641874D02*
X181150D01*
X100050Y641674D02*
X181150D01*
X100050Y641474D02*
X181150D01*
X100050Y641274D02*
X181150D01*
X100050Y641074D02*
X181150D01*
X100050Y640874D02*
X181150D01*
X100050Y640674D02*
X181150D01*
X100050Y640474D02*
X181150D01*
X100050Y640274D02*
X181150D01*
X100050Y640074D02*
X181150D01*
X100050Y639874D02*
X181150D01*
X100050Y639674D02*
X181150D01*
X100050Y639474D02*
X181150D01*
X100050Y639274D02*
X181150D01*
X100050Y639074D02*
X181150D01*
X100050Y638874D02*
X181150D01*
X100050Y638674D02*
X181150D01*
X100050Y638474D02*
X181150D01*
X100050Y638274D02*
X181150D01*
X100050Y638074D02*
X181150D01*
X100050Y637874D02*
X181150D01*
X100050Y637674D02*
X181150D01*
X100050Y637474D02*
X181150D01*
X100050Y637274D02*
X181150D01*
X100050Y637074D02*
X181150D01*
X100050Y636874D02*
X181150D01*
X100050Y636674D02*
X181150D01*
X100050Y636474D02*
X181150D01*
X100050Y636274D02*
X181150D01*
X100050Y636074D02*
X181150D01*
X100050Y635874D02*
X181150D01*
X100050Y635674D02*
X181150D01*
X100050Y635474D02*
X181150D01*
X100050Y635274D02*
X181150D01*
X100050Y635074D02*
X181150D01*
X100050Y634874D02*
X181150D01*
X100050Y634674D02*
X181150D01*
X100050Y634474D02*
X181150D01*
X100050Y634274D02*
X181150D01*
X100050Y634074D02*
X181150D01*
X100050Y633874D02*
X181150D01*
X100050Y633674D02*
X181150D01*
X100050Y633474D02*
X181150D01*
X100050Y633274D02*
X181150D01*
X100050Y633074D02*
X181150D01*
X100050Y632874D02*
X181150D01*
X100050Y632674D02*
X181150D01*
X100050Y632474D02*
X181150D01*
X100050Y632274D02*
X181150D01*
X100050Y632074D02*
X181150D01*
X100050Y631874D02*
X181150D01*
X100050Y631674D02*
X181150D01*
X100050Y631474D02*
X181150D01*
X100050Y631274D02*
X181150D01*
X100050Y631074D02*
X181150D01*
X100050Y630874D02*
X181150D01*
X100050Y630674D02*
X181150D01*
X100050Y630474D02*
X181150D01*
X100050Y630274D02*
X181150D01*
X100050Y630074D02*
X181150D01*
X100050Y629874D02*
X181150D01*
X100050Y629674D02*
X181150D01*
X100050Y629474D02*
X181150D01*
X100050Y629274D02*
X181150D01*
X100050Y629074D02*
X181150D01*
X100050Y628874D02*
X181150D01*
X100050Y628674D02*
X181150D01*
X100050Y628474D02*
X181150D01*
X100050Y628274D02*
X181150D01*
X100050Y628074D02*
X181150D01*
X100050Y627874D02*
X181150D01*
X100050Y627674D02*
X181150D01*
X100050Y627474D02*
X181150D01*
X100050Y627274D02*
X181150D01*
X100050Y627074D02*
X181150D01*
X100050Y626874D02*
X181150D01*
X100050Y626674D02*
X181150D01*
X100050Y626474D02*
X181150D01*
X100050Y626274D02*
X181150D01*
X100050Y626074D02*
X181150D01*
X100050Y625874D02*
X181150D01*
X100050Y625674D02*
X181150D01*
X100050Y625474D02*
X181150D01*
X100050Y625274D02*
X181150D01*
X100050Y625074D02*
X181150D01*
X100050Y624874D02*
X181150D01*
X100050Y624674D02*
X181150D01*
X100050Y624474D02*
X181150D01*
X100050Y624274D02*
X181150D01*
X100050Y624074D02*
X181150D01*
X100050Y623874D02*
X181150D01*
X100050Y623674D02*
X181150D01*
X100050Y623474D02*
X181150D01*
X100050Y623274D02*
X181150D01*
X100050Y623074D02*
X181150D01*
X100050Y622874D02*
X181150D01*
X100050Y622674D02*
X181150D01*
X100050Y622474D02*
X181150D01*
X100050Y622274D02*
X181150D01*
X100050Y622074D02*
X181150D01*
X100050Y621874D02*
X181150D01*
X100050Y621674D02*
X181150D01*
X100050Y621474D02*
X181150D01*
X100050Y621274D02*
X181150D01*
X100050Y621074D02*
X181150D01*
X100050Y620874D02*
X181150D01*
X100050Y620674D02*
X181150D01*
X100050Y620474D02*
X181150D01*
X100050Y620274D02*
X181150D01*
X100050Y620074D02*
X181150D01*
X100050Y619874D02*
X181150D01*
X100050Y619674D02*
X181150D01*
X100050Y619474D02*
X181150D01*
X100050Y619274D02*
X181150D01*
X100050Y619074D02*
X181150D01*
X100050Y618874D02*
X181150D01*
X100050Y618674D02*
X181150D01*
X100050Y618474D02*
X181150D01*
X100050Y618274D02*
X181150D01*
X100050Y618074D02*
X181150D01*
X100050Y617874D02*
X181150D01*
X100050Y617674D02*
X181150D01*
X100050Y617474D02*
X181150D01*
X100050Y617274D02*
X181150D01*
X100050Y617074D02*
X181150D01*
X100050Y616874D02*
X181150D01*
X100050Y616674D02*
X181150D01*
X100050Y616474D02*
X181150D01*
X100050Y616274D02*
X181150D01*
X100050Y616074D02*
X181150D01*
X100050Y615874D02*
X181150D01*
X100050Y615674D02*
X181150D01*
X100050Y615474D02*
X181150D01*
X100050Y615274D02*
X181150D01*
X100050Y615074D02*
X181150D01*
X100050Y614874D02*
X181150D01*
X100050Y614674D02*
X181150D01*
X100050Y614474D02*
X181150D01*
X100050Y614274D02*
X181150D01*
X100050Y614074D02*
X181150D01*
X100050Y613874D02*
X181150D01*
X100050Y613674D02*
X181150D01*
X100050Y613474D02*
X181150D01*
X100050Y613274D02*
X181150D01*
X100050Y613074D02*
X181150D01*
X100050Y612874D02*
X181150D01*
X100050Y612674D02*
X181150D01*
X100050Y612474D02*
X181150D01*
X100050Y612274D02*
X181150D01*
X100050Y612074D02*
X181150D01*
X100050Y611874D02*
X181150D01*
X100050Y611674D02*
X181150D01*
X100050Y611474D02*
X181150D01*
X100050Y611274D02*
X181150D01*
X100050Y611074D02*
X181150D01*
X100050Y610874D02*
X181150D01*
X100050Y610674D02*
X181150D01*
X100050Y610474D02*
X181150D01*
X100050Y610274D02*
X181150D01*
X100050Y610074D02*
X181150D01*
X100050Y609874D02*
X181150D01*
X100050Y609674D02*
X181150D01*
X100050Y609474D02*
X181150D01*
X100050Y609274D02*
X181150D01*
X100050Y609074D02*
X181150D01*
X100050Y608874D02*
X181150D01*
X100050Y608674D02*
X181150D01*
X100050Y608474D02*
X181150D01*
X100050Y608274D02*
X181150D01*
X100050Y608074D02*
X181150D01*
X100050Y607874D02*
X181150D01*
X100050Y607674D02*
X181150D01*
X100050Y607474D02*
X181150D01*
X100050Y607274D02*
X181150D01*
X100050Y607074D02*
X181150D01*
X100050Y606874D02*
X181150D01*
X100050Y606674D02*
X181150D01*
X100050Y606474D02*
X181150D01*
X100050Y606274D02*
X181150D01*
X100050Y606074D02*
X181150D01*
X100050Y605874D02*
X181150D01*
X100050Y605674D02*
X181150D01*
X100050Y605474D02*
X181150D01*
X100050Y605274D02*
X181150D01*
X100050Y605074D02*
X181150D01*
X100050Y604874D02*
X181150D01*
X100050Y604674D02*
X181150D01*
X100050Y604474D02*
X181150D01*
X100050Y604274D02*
X181150D01*
X100050Y604074D02*
X181150D01*
X100050Y603874D02*
X181150D01*
X100050Y603674D02*
X181150D01*
X100050Y603474D02*
X181150D01*
X100050Y603274D02*
X181150D01*
X100050Y603074D02*
X181150D01*
X100050Y602874D02*
X181150D01*
X100050Y602674D02*
X181150D01*
X100050Y602474D02*
X181150D01*
X100050Y602274D02*
X181150D01*
X100050Y602074D02*
X181150D01*
X100050Y601874D02*
X181150D01*
X100050Y601674D02*
X181150D01*
X100050Y601474D02*
X181150D01*
X100050Y601274D02*
X181150D01*
X100050Y601074D02*
X181150D01*
X100050Y600874D02*
X181150D01*
X100050Y600674D02*
X181150D01*
X100050Y600474D02*
X181150D01*
X100050Y600274D02*
X181150D01*
X100050Y600074D02*
X181150D01*
X100050Y599874D02*
X181150D01*
X100050Y599674D02*
X181150D01*
X100050Y599474D02*
X181150D01*
X100050Y599274D02*
X181150D01*
X100050Y599074D02*
X181150D01*
X100050Y598874D02*
X181150D01*
X100050Y598674D02*
X181150D01*
X100050Y598474D02*
X181150D01*
X100050Y598274D02*
X181150D01*
X100050Y598074D02*
X181150D01*
X100050Y597874D02*
X181150D01*
X100050Y597674D02*
X181150D01*
X100050Y597474D02*
X181150D01*
X100050Y597274D02*
X181150D01*
X100050Y597074D02*
X181150D01*
X100050Y596874D02*
X181150D01*
X100050Y596674D02*
X181150D01*
X100050Y596474D02*
X181150D01*
X100050Y596274D02*
X181150D01*
X100050Y596074D02*
X181150D01*
X100050Y595874D02*
X181150D01*
X100050Y595674D02*
X181150D01*
X100050Y595474D02*
X181150D01*
X100050Y595274D02*
X181150D01*
X100050Y595074D02*
X181150D01*
X100050Y594874D02*
X181150D01*
X100050Y594674D02*
X181150D01*
X100050Y594474D02*
X181150D01*
X100050Y594274D02*
X181150D01*
X100050Y594074D02*
X181150D01*
X100050Y593874D02*
X181150D01*
X100050Y593674D02*
X181150D01*
X100050Y593474D02*
X181150D01*
X100050Y593274D02*
X181150D01*
X100050Y593074D02*
X181150D01*
X100050Y592874D02*
X181150D01*
X100050Y592674D02*
X181150D01*
X100050Y592474D02*
X181150D01*
X100050Y592274D02*
X181150D01*
X100050Y592074D02*
X181150D01*
X100050Y591874D02*
X181150D01*
X100050Y591674D02*
X181150D01*
X100050Y591474D02*
X181150D01*
X100050Y591274D02*
X181150D01*
X100050Y591074D02*
X181150D01*
X100050Y590874D02*
X181150D01*
X100050Y590674D02*
X181150D01*
X100050Y590474D02*
X181150D01*
X100050Y590274D02*
X181150D01*
X100050Y590074D02*
X181150D01*
X100050Y589874D02*
X181150D01*
X100050Y589674D02*
X181150D01*
X100050Y589474D02*
X181150D01*
X100050Y589274D02*
X181150D01*
X100050Y589074D02*
X181150D01*
X100050Y588874D02*
X181150D01*
X100050Y588674D02*
X181150D01*
X100050Y588474D02*
X181150D01*
X100050Y588274D02*
X181150D01*
X100050Y588074D02*
X181150D01*
X100050Y587874D02*
X181150D01*
X100050Y587674D02*
X181150D01*
X100050Y587474D02*
X181150D01*
X100050Y587274D02*
X181150D01*
X100050Y587074D02*
X181150D01*
X100050Y586874D02*
X181150D01*
X100050Y586674D02*
X181150D01*
X100050Y586474D02*
X181150D01*
X100050Y586274D02*
X181150D01*
X100050Y586074D02*
X181150D01*
X100050Y585874D02*
X181150D01*
X100050Y585674D02*
X181150D01*
X100050Y585474D02*
X181150D01*
X100050Y585274D02*
X181150D01*
X100050Y585074D02*
X181150D01*
X100050Y584874D02*
X181150D01*
X100050Y584674D02*
X181150D01*
X100050Y584474D02*
X181150D01*
X100050Y584274D02*
X181150D01*
X100050Y584074D02*
X181150D01*
X100050Y583874D02*
X181150D01*
X100050Y583674D02*
X181150D01*
X100050Y583474D02*
X181150D01*
X100050Y583274D02*
X181150D01*
X100050Y583074D02*
X181150D01*
X100050Y582874D02*
X181150D01*
X100050Y582674D02*
X181150D01*
X100050Y582474D02*
X181150D01*
X100050Y582274D02*
X181150D01*
X100050Y582074D02*
X181150D01*
X100050Y581874D02*
X181150D01*
X100050Y581674D02*
X181150D01*
X100050Y581474D02*
X181150D01*
X100050Y581274D02*
X181150D01*
X100050Y581074D02*
X181150D01*
X100050Y580874D02*
X181150D01*
X100050Y580674D02*
X181150D01*
X100050Y580474D02*
X181150D01*
X100050Y580274D02*
X181150D01*
X100050Y580074D02*
X181150D01*
X100050Y579874D02*
X181150D01*
X100050Y579674D02*
X181150D01*
X100050Y579474D02*
X181150D01*
X100050Y579274D02*
X181150D01*
X100050Y579074D02*
X181150D01*
X100050Y578874D02*
X181150D01*
X100050Y578674D02*
X181150D01*
X100050Y578474D02*
X181150D01*
X100050Y578274D02*
X181150D01*
X100050Y578074D02*
X181150D01*
X100050Y577874D02*
X181150D01*
X100050Y577674D02*
X181150D01*
X100050Y577474D02*
X181150D01*
X100050Y577274D02*
X181150D01*
X100050Y577074D02*
X181150D01*
X100050Y576874D02*
X181150D01*
X100050Y576674D02*
X181150D01*
X100050Y576474D02*
X181150D01*
X100050Y576274D02*
X181150D01*
X100050Y576074D02*
X181150D01*
X100050Y575874D02*
X181150D01*
X100050Y575674D02*
X181150D01*
X100050Y575474D02*
X181150D01*
X100050Y575274D02*
X181150D01*
X100050Y575074D02*
X181150D01*
X100050Y574874D02*
X181150D01*
X100050Y574674D02*
X181150D01*
X100050Y574474D02*
X181150D01*
X100050Y574274D02*
X181150D01*
X100050Y574074D02*
X181150D01*
X100050Y573874D02*
X181150D01*
X100050Y573674D02*
X181150D01*
X100050Y573474D02*
X181150D01*
X100050Y573274D02*
X181150D01*
X100050Y573074D02*
X181150D01*
X100050Y572874D02*
X181150D01*
X100050Y572674D02*
X181150D01*
X100050Y572474D02*
X181150D01*
X100050Y572274D02*
X181150D01*
X100050Y572074D02*
X181150D01*
X100050Y571874D02*
X181150D01*
X100050Y571674D02*
X181150D01*
X100050Y571474D02*
X181150D01*
X100050Y571274D02*
X181150D01*
X100050Y571074D02*
X181150D01*
X100050Y570874D02*
X181150D01*
X100050Y570674D02*
X181150D01*
X100050Y570474D02*
X181150D01*
X100050Y570274D02*
X181150D01*
X100050Y570074D02*
X181150D01*
X100050Y569874D02*
X181150D01*
X100050Y569674D02*
X181150D01*
X100050Y569474D02*
X181150D01*
X100050Y569274D02*
X181150D01*
X100050Y569074D02*
X181150D01*
X100050Y568874D02*
X181150D01*
X100050Y568674D02*
X181150D01*
X100050Y568474D02*
X181150D01*
X100050Y568274D02*
X181150D01*
X100050Y568074D02*
X181150D01*
X100050Y567874D02*
X181150D01*
X100050Y567674D02*
X181150D01*
X100050Y567474D02*
X181150D01*
X100050Y567274D02*
X181150D01*
X100050Y567074D02*
X181150D01*
X100050Y566874D02*
X181150D01*
X100050Y566674D02*
X181150D01*
X100050Y566474D02*
X181150D01*
X100050Y566274D02*
X181150D01*
X100050Y566074D02*
X181150D01*
X100050Y565874D02*
X181150D01*
X100050Y565674D02*
X181150D01*
X100050Y565474D02*
X181150D01*
X100050Y565274D02*
X181150D01*
X100050Y565074D02*
X181150D01*
X100050Y564874D02*
X181150D01*
X100050Y564674D02*
X181150D01*
X100050Y564474D02*
X181150D01*
X100050Y564274D02*
X181150D01*
X100050Y564074D02*
X181150D01*
X100050Y563874D02*
X181150D01*
X100050Y563674D02*
X181150D01*
X100050Y563474D02*
X181150D01*
X100050Y563274D02*
X181150D01*
X100050Y563074D02*
X181150D01*
X100050Y562874D02*
X181150D01*
X100050Y562674D02*
X181150D01*
X100050Y562474D02*
X181150D01*
X100050Y562274D02*
X181150D01*
X100050Y562074D02*
X181150D01*
X100050Y561874D02*
X181150D01*
X100050Y561674D02*
X181150D01*
X100050Y561474D02*
X181150D01*
X100050Y561274D02*
X181150D01*
X100050Y561074D02*
X181150D01*
X100050Y560874D02*
X181150D01*
X100050Y560674D02*
X181150D01*
X100050Y560474D02*
X181150D01*
X100050Y560274D02*
X181150D01*
X100050Y560074D02*
X181150D01*
X100050Y559874D02*
X181150D01*
X100050Y559674D02*
X181150D01*
X100050Y559474D02*
X181150D01*
X100050Y559274D02*
X181150D01*
X100050Y559074D02*
X181150D01*
X100050Y558874D02*
X181150D01*
X100050Y558674D02*
X181150D01*
X100050Y558474D02*
X181150D01*
X100050Y558274D02*
X181150D01*
X100050Y558074D02*
X181150D01*
X100050Y557874D02*
X181150D01*
X100050Y557674D02*
X181150D01*
X100050Y557474D02*
X181150D01*
X100050Y557274D02*
X181150D01*
X100050Y557074D02*
X181150D01*
X100050Y556874D02*
X181150D01*
X100050Y556674D02*
X181150D01*
X100050Y556474D02*
X181150D01*
X100050Y556274D02*
X181150D01*
X100050Y556074D02*
X181150D01*
X100050Y555874D02*
X181150D01*
X100050Y555674D02*
X181150D01*
X100050Y555474D02*
X181150D01*
X100050Y555274D02*
X181150D01*
X100050Y555074D02*
X181150D01*
X100050Y554874D02*
X181150D01*
X100050Y554674D02*
X181150D01*
X100050Y554474D02*
X181150D01*
X100050Y554274D02*
X181150D01*
X100050Y554074D02*
X181150D01*
X100050Y553874D02*
X181150D01*
X100050Y553674D02*
X181150D01*
X100050Y553474D02*
X181150D01*
X100050Y553274D02*
X181150D01*
X100050Y553074D02*
X181150D01*
X100050Y552874D02*
X181150D01*
X100050Y552674D02*
X181150D01*
X100050Y552474D02*
X181150D01*
X100050Y552274D02*
X181150D01*
X100050Y552074D02*
X181150D01*
X100050Y551874D02*
X181150D01*
X100050Y551674D02*
X181150D01*
X100050Y551474D02*
X181150D01*
X100050Y551274D02*
X181150D01*
X100050Y551074D02*
X181150D01*
X100050Y550874D02*
X181150D01*
X100050Y550674D02*
X181150D01*
X100050Y550474D02*
X181150D01*
X100050Y550274D02*
X181150D01*
X100050Y550074D02*
X181150D01*
X100050Y549874D02*
X181150D01*
X100050Y549674D02*
X181150D01*
X100050Y549474D02*
X181150D01*
X100050Y549274D02*
X181150D01*
X100050Y549074D02*
X181150D01*
X100050Y548874D02*
X181150D01*
X100050Y548674D02*
X181150D01*
X100050Y548474D02*
X181150D01*
X100050Y548274D02*
X181150D01*
X100050Y548074D02*
X181150D01*
X100050Y547874D02*
X181150D01*
X100050Y547674D02*
X181150D01*
X100050Y547474D02*
X181150D01*
X100050Y547274D02*
X181150D01*
X100050Y547074D02*
X181150D01*
X100050Y546874D02*
X181150D01*
X100050Y546674D02*
X181150D01*
X100050Y546474D02*
X181150D01*
X100050Y546274D02*
X181150D01*
X100050Y546074D02*
X181150D01*
X100050Y545874D02*
X181150D01*
X100050Y545674D02*
X181150D01*
X100050Y545474D02*
X181150D01*
X100050Y545274D02*
X181150D01*
X100050Y545074D02*
X181150D01*
X100050Y544874D02*
X181150D01*
X100050Y544674D02*
X181150D01*
X100050Y544474D02*
X181150D01*
X100050Y544274D02*
X181150D01*
X100050Y544074D02*
X181150D01*
X100050Y543874D02*
X181150D01*
X100050Y543674D02*
X181150D01*
X100050Y543474D02*
X181150D01*
X100050Y543274D02*
X181150D01*
X100050Y543074D02*
X181150D01*
X100050Y542874D02*
X181150D01*
X100050Y542674D02*
X181150D01*
X100050Y542474D02*
X181150D01*
X100050Y542274D02*
X181150D01*
X100050Y542074D02*
X181150D01*
X100050Y541874D02*
X181150D01*
X100050Y541674D02*
X181150D01*
X100050Y541474D02*
X181150D01*
X100050Y541274D02*
X181150D01*
X100050Y541074D02*
X181150D01*
X100050Y540874D02*
X181150D01*
X233650Y903750D02*
Y935450D01*
X233450Y768736D02*
Y935450D01*
X233250Y727650D02*
Y935450D01*
X233050Y727650D02*
Y935450D01*
X232850Y727650D02*
Y935450D01*
X232650Y727650D02*
Y935450D01*
X232450Y727650D02*
Y935450D01*
X232250Y727650D02*
Y935450D01*
X232050Y727650D02*
Y935450D01*
X231850Y727650D02*
Y935450D01*
X231650Y727650D02*
Y935450D01*
X231450Y727650D02*
Y935450D01*
X231250Y727650D02*
Y935450D01*
X231050Y727650D02*
Y935450D01*
X230850Y727650D02*
Y935450D01*
X230650Y727650D02*
Y935450D01*
X230450Y727650D02*
Y935450D01*
X230250Y727650D02*
Y935450D01*
X230050Y727650D02*
Y935450D01*
X229850Y727650D02*
Y935450D01*
X229650Y727650D02*
Y935450D01*
X229450Y727650D02*
Y935450D01*
X229250Y727650D02*
Y935450D01*
X229050Y727650D02*
Y935450D01*
X228850Y727650D02*
Y935450D01*
X228650Y727650D02*
Y935450D01*
X228450Y727650D02*
Y935450D01*
X228250Y727650D02*
Y935450D01*
X228050Y727650D02*
Y935450D01*
X227850Y727650D02*
Y935450D01*
X227650Y727650D02*
Y935450D01*
X227450Y727650D02*
Y935450D01*
X227250Y727650D02*
Y935450D01*
X227050Y727650D02*
Y935450D01*
X226850Y727650D02*
Y935450D01*
X226650Y727650D02*
Y935450D01*
X226450Y727650D02*
Y935450D01*
X226250Y727650D02*
Y935450D01*
X226050Y727650D02*
Y935450D01*
X225850Y727650D02*
Y935450D01*
X225650Y727650D02*
Y935450D01*
X225450Y727650D02*
Y935450D01*
X225250Y727650D02*
Y935450D01*
X225050Y727650D02*
Y935450D01*
X224850Y727650D02*
Y935450D01*
X224650Y727650D02*
Y935450D01*
X224450Y727650D02*
Y935450D01*
X224250Y727650D02*
Y935450D01*
X224050Y727650D02*
Y935450D01*
X223850Y727650D02*
Y935450D01*
X223650Y727650D02*
Y935450D01*
X223450Y727650D02*
Y935450D01*
X223250Y727650D02*
Y935450D01*
X223050Y727650D02*
Y935450D01*
X222850Y727650D02*
Y935450D01*
X222650Y727650D02*
Y935450D01*
X222450Y727650D02*
Y935450D01*
X222250Y727650D02*
Y935450D01*
X222050Y727650D02*
Y935450D01*
X221850Y727650D02*
Y935450D01*
X221650Y727650D02*
Y935450D01*
X221450Y727650D02*
Y935450D01*
X221250Y727650D02*
Y935450D01*
X221050Y727650D02*
Y935450D01*
X220850Y727650D02*
Y935450D01*
X220650Y727650D02*
Y935450D01*
X220450Y727650D02*
Y935450D01*
X220250Y727650D02*
Y935450D01*
X220050Y727650D02*
Y935450D01*
X219850Y727650D02*
Y935450D01*
X219650Y727650D02*
Y935450D01*
X219450Y727650D02*
Y935450D01*
X219250Y727650D02*
Y935450D01*
X219050Y727650D02*
Y935450D01*
X218850Y727650D02*
Y935450D01*
X218650Y727650D02*
Y935450D01*
X218450Y727650D02*
Y935450D01*
X218250Y727650D02*
Y935450D01*
X218050Y727650D02*
Y935450D01*
X217850Y727650D02*
Y935450D01*
X217650Y727650D02*
Y935450D01*
X217450Y727650D02*
Y935450D01*
X217250Y727650D02*
Y935450D01*
X217050Y727650D02*
Y935450D01*
X216850Y727650D02*
Y935450D01*
X216650Y727650D02*
Y935450D01*
X216450Y727650D02*
Y935450D01*
X216250Y727650D02*
Y935450D01*
X216050Y727650D02*
Y935450D01*
X215850Y727650D02*
Y935450D01*
X215650Y727650D02*
Y935450D01*
X215450Y727650D02*
Y935450D01*
X215250Y727650D02*
Y935450D01*
X215050Y727650D02*
Y935450D01*
X214850Y727650D02*
Y935450D01*
X214650Y727650D02*
Y935450D01*
X214450Y727650D02*
Y935450D01*
X214250Y727650D02*
Y935450D01*
X214050Y727650D02*
Y935450D01*
X213850Y727650D02*
Y935450D01*
X213650Y727650D02*
Y935450D01*
X213450Y727650D02*
Y935450D01*
X213250Y727650D02*
Y935450D01*
X213050Y727650D02*
Y935450D01*
X212850Y727650D02*
Y935450D01*
X212650Y727650D02*
Y935450D01*
X212450Y727650D02*
Y935450D01*
X212250Y727650D02*
Y935450D01*
X212050Y727650D02*
Y935450D01*
X211850Y727650D02*
Y935450D01*
X211650Y727650D02*
Y935450D01*
X211450Y727650D02*
Y935450D01*
X211250Y727650D02*
Y935450D01*
X211050Y727650D02*
Y935450D01*
X210850Y727650D02*
Y935450D01*
X210650Y727650D02*
Y935450D01*
X210450Y727650D02*
Y935450D01*
X210250Y727650D02*
Y935450D01*
X210050Y727650D02*
Y935450D01*
X209850Y727650D02*
Y935450D01*
X209650Y727650D02*
Y935450D01*
X209450Y727650D02*
Y935450D01*
X209250Y727650D02*
Y935450D01*
X209050Y727650D02*
Y935450D01*
X208850Y727650D02*
Y935450D01*
X208650Y727650D02*
Y935450D01*
X208450Y727650D02*
Y935450D01*
X208250Y727650D02*
Y935450D01*
X208050Y727650D02*
Y935450D01*
X207850Y727650D02*
Y935450D01*
X207650Y727650D02*
Y935450D01*
X207450Y727650D02*
Y935450D01*
X207250Y727650D02*
Y935450D01*
X207050Y727650D02*
Y935450D01*
X206850Y727650D02*
Y935450D01*
X206650Y727650D02*
Y935450D01*
X206450Y727650D02*
Y935450D01*
X206250Y727650D02*
Y935450D01*
X206050Y727650D02*
Y935450D01*
X205850Y727650D02*
Y935450D01*
X205650Y727650D02*
Y935450D01*
X205450Y727650D02*
Y935450D01*
X205250Y727650D02*
Y935450D01*
X205050Y727650D02*
Y935450D01*
X204850Y727650D02*
Y935450D01*
X204650Y727650D02*
Y935450D01*
X204450Y727650D02*
Y935450D01*
X204250Y727650D02*
Y935450D01*
X204050Y727650D02*
Y935450D01*
X203850Y727650D02*
Y935450D01*
X203650Y727650D02*
Y935450D01*
X203450Y727650D02*
Y935450D01*
X203250Y727650D02*
Y935450D01*
X203050Y727650D02*
Y935450D01*
X202850Y727650D02*
Y935450D01*
X202650Y727650D02*
Y935450D01*
X202450Y727650D02*
Y935450D01*
X202250Y727650D02*
Y935450D01*
X202050Y727650D02*
Y935450D01*
X201850Y727650D02*
Y935450D01*
X201650Y727650D02*
Y935450D01*
X201450Y727650D02*
Y935450D01*
X201250Y727650D02*
Y935450D01*
X201050Y727650D02*
Y935450D01*
X200850Y727650D02*
Y935450D01*
X200650Y727650D02*
Y935450D01*
X200450Y727650D02*
Y935450D01*
X200250Y727650D02*
Y935450D01*
X200050Y727650D02*
Y935450D01*
X199850Y727650D02*
Y935450D01*
X199650Y727650D02*
Y935450D01*
X199450Y727650D02*
Y935450D01*
X199250Y727650D02*
Y935450D01*
X199050Y727650D02*
Y935450D01*
X198850Y727650D02*
Y935450D01*
X198650Y727650D02*
Y935450D01*
X198450Y727650D02*
Y935450D01*
X198250Y727650D02*
Y935450D01*
X198050Y727650D02*
Y935450D01*
X197850Y727650D02*
Y935450D01*
X197650Y727650D02*
Y935450D01*
X197450Y727650D02*
Y935450D01*
X197250Y727650D02*
Y935450D01*
X197050Y727650D02*
Y935450D01*
X196850Y727650D02*
Y935450D01*
X196650Y727650D02*
Y935450D01*
X196450Y727650D02*
Y935450D01*
X196250Y727650D02*
Y935450D01*
X196050Y727650D02*
Y935450D01*
X195850Y727650D02*
Y935450D01*
X195650Y727650D02*
Y935450D01*
X195450Y727650D02*
Y935450D01*
X195250Y727650D02*
Y935450D01*
X195050Y727650D02*
Y935450D01*
X194850Y727650D02*
Y935450D01*
X194650Y727650D02*
Y935450D01*
X194450Y727650D02*
Y935450D01*
X194250Y727650D02*
Y935450D01*
X194050Y727650D02*
Y935450D01*
X193850Y727650D02*
Y935450D01*
X193650Y727650D02*
Y935450D01*
X193450Y727650D02*
Y935450D01*
X193250Y727650D02*
Y935450D01*
X193050Y727650D02*
Y935450D01*
X192850Y727650D02*
Y935450D01*
X192650Y727650D02*
Y935450D01*
X192450Y727650D02*
Y935450D01*
X192250Y727650D02*
Y935450D01*
X192050Y727650D02*
Y935450D01*
X191850Y727650D02*
Y935450D01*
X191650Y727650D02*
Y935450D01*
X191450Y727650D02*
Y935450D01*
X191250Y727650D02*
Y935450D01*
X191050Y727650D02*
Y935450D01*
X190850Y727650D02*
Y935450D01*
X190650Y727650D02*
Y935450D01*
X190450Y727650D02*
Y935450D01*
X190250Y727650D02*
Y935450D01*
X190050Y727650D02*
Y935450D01*
X189850Y727650D02*
Y935450D01*
X189650Y727650D02*
Y935450D01*
X189450Y727650D02*
Y935450D01*
X189250Y727650D02*
Y935450D01*
X189050Y727650D02*
Y935450D01*
X188850Y727650D02*
Y935450D01*
X188650Y727650D02*
Y935450D01*
X188450Y727650D02*
Y935450D01*
X188250Y727650D02*
Y935450D01*
X188050Y727650D02*
Y935450D01*
X187850Y727650D02*
Y935450D01*
X187650Y727650D02*
Y935450D01*
X187450Y727650D02*
Y935450D01*
X187250Y727650D02*
Y935450D01*
X187050Y727650D02*
Y935450D01*
X186850Y727650D02*
Y935450D01*
X186650Y727650D02*
Y935450D01*
X186450Y727650D02*
Y935450D01*
X186250Y727650D02*
Y935450D01*
X186050Y727650D02*
Y935450D01*
X185850Y727650D02*
Y935450D01*
X185650Y727650D02*
Y935450D01*
X185450Y727650D02*
Y935450D01*
X185250Y727650D02*
Y935450D01*
X185050Y727650D02*
Y935450D01*
X184850Y727650D02*
Y935450D01*
X184650Y727650D02*
Y935450D01*
X184450Y727650D02*
Y935450D01*
X184250Y727650D02*
Y935450D01*
X184050Y727650D02*
Y935450D01*
X183850Y727650D02*
Y935450D01*
X183650Y727650D02*
Y935450D01*
X183450Y727650D02*
Y935450D01*
X183250Y727650D02*
Y935450D01*
X183050Y727650D02*
Y935450D01*
X182850Y727650D02*
Y935450D01*
X182650Y727650D02*
Y935450D01*
X182450Y727650D02*
Y935450D01*
X182250Y727650D02*
Y935450D01*
X182050Y727650D02*
Y935450D01*
X181850Y727650D02*
Y935450D01*
X181650Y727650D02*
Y935450D01*
X181450Y727650D02*
Y935450D01*
X181250Y727650D02*
Y935450D01*
X181050Y540675D02*
Y935450D01*
X180850Y540675D02*
Y935450D01*
X180650Y540675D02*
Y935450D01*
X180450Y540675D02*
Y935450D01*
X180250Y540675D02*
Y935450D01*
X180050Y540675D02*
Y935450D01*
X179850Y540675D02*
Y935450D01*
X179650Y540675D02*
Y935450D01*
X179450Y540675D02*
Y935450D01*
X179250Y540675D02*
Y935450D01*
X179050Y540675D02*
Y935450D01*
X178850Y540675D02*
Y935450D01*
X178650Y540675D02*
Y935450D01*
X178450Y540675D02*
Y935450D01*
X178250Y540675D02*
Y935450D01*
X178050Y540675D02*
Y935450D01*
X177850Y540675D02*
Y935450D01*
X177650Y540675D02*
Y935450D01*
X177450Y540675D02*
Y935450D01*
X177250Y540675D02*
Y935450D01*
X177050Y540675D02*
Y935450D01*
X176850Y540675D02*
Y935450D01*
X176650Y540675D02*
Y935450D01*
X176450Y540675D02*
Y935450D01*
X176250Y540675D02*
Y935450D01*
X176050Y540675D02*
Y935450D01*
X175850Y540675D02*
Y935450D01*
X175650Y540675D02*
Y935450D01*
X175450Y540675D02*
Y935450D01*
X175250Y540675D02*
Y935450D01*
X175050Y540675D02*
Y935450D01*
X174850Y540675D02*
Y935450D01*
X174650Y540675D02*
Y935450D01*
X174450Y540675D02*
Y935450D01*
X174250Y540675D02*
Y935450D01*
X174050Y540675D02*
Y935450D01*
X173850Y540675D02*
Y935450D01*
X173650Y540675D02*
Y935450D01*
X173450Y540675D02*
Y935450D01*
X173250Y540675D02*
Y935450D01*
X173050Y540675D02*
Y935450D01*
X172850Y540675D02*
Y935450D01*
X172650Y540675D02*
Y935450D01*
X172450Y540675D02*
Y935450D01*
X172250Y540675D02*
Y935450D01*
X172050Y540675D02*
Y935450D01*
X171850Y540675D02*
Y935450D01*
X171650Y540675D02*
Y935450D01*
X171450Y540675D02*
Y935450D01*
X171250Y540675D02*
Y935450D01*
X171050Y540675D02*
Y935450D01*
X170850Y540675D02*
Y935450D01*
X170650Y540675D02*
Y935450D01*
X170450Y540675D02*
Y935450D01*
X170250Y540675D02*
Y935450D01*
X170050Y540675D02*
Y935450D01*
X169850Y540675D02*
Y935450D01*
X169650Y540675D02*
Y935450D01*
X169450Y540675D02*
Y935450D01*
X169250Y540675D02*
Y935450D01*
X169050Y540675D02*
Y935450D01*
X168850Y540675D02*
Y935450D01*
X168650Y540675D02*
Y935450D01*
X168450Y540675D02*
Y935450D01*
X168250Y540675D02*
Y935450D01*
X168050Y540675D02*
Y935450D01*
X167850Y540675D02*
Y935450D01*
X167650Y540675D02*
Y935450D01*
X167450Y540675D02*
Y935450D01*
X167250Y540675D02*
Y935450D01*
X167050Y540675D02*
Y935450D01*
X166850Y540675D02*
Y935450D01*
X166650Y540675D02*
Y935450D01*
X166450Y540675D02*
Y935450D01*
X166250Y540675D02*
Y935450D01*
X166050Y540675D02*
Y935450D01*
X165850Y540675D02*
Y935450D01*
X165650Y540675D02*
Y935450D01*
X165450Y540675D02*
Y935450D01*
X165250Y540675D02*
Y935450D01*
X165050Y540675D02*
Y935450D01*
X164850Y540675D02*
Y935450D01*
X164650Y540675D02*
Y935450D01*
X164450Y540675D02*
Y935450D01*
X164250Y540675D02*
Y935450D01*
X164050Y540675D02*
Y935450D01*
X163850Y540675D02*
Y935450D01*
X163650Y540675D02*
Y935450D01*
X163450Y540675D02*
Y935450D01*
X163250Y540675D02*
Y935450D01*
X163050Y540675D02*
Y935450D01*
X162850Y540675D02*
Y935450D01*
X162650Y540675D02*
Y935450D01*
X162450Y540675D02*
Y935450D01*
X162250Y540675D02*
Y935450D01*
X162050Y540675D02*
Y935450D01*
X161850Y540675D02*
Y935450D01*
X161650Y540675D02*
Y935450D01*
X161450Y540675D02*
Y935450D01*
X161250Y540675D02*
Y935450D01*
X161050Y540675D02*
Y935450D01*
X160850Y540675D02*
Y935450D01*
X160650Y540675D02*
Y935450D01*
X160450Y540675D02*
Y935450D01*
X160250Y540675D02*
Y935450D01*
X160050Y540675D02*
Y935450D01*
X159850Y540675D02*
Y935450D01*
X159650Y540675D02*
Y935450D01*
X159450Y540675D02*
Y935450D01*
X159250Y540675D02*
Y935450D01*
X159050Y540675D02*
Y935450D01*
X158850Y540675D02*
Y935450D01*
X158650Y540675D02*
Y935450D01*
X158450Y540675D02*
Y935450D01*
X158250Y540675D02*
Y935450D01*
X158050Y540675D02*
Y935450D01*
X157850Y540675D02*
Y935450D01*
X157650Y540675D02*
Y935450D01*
X157450Y540675D02*
Y935450D01*
X157250Y540675D02*
Y935450D01*
X157050Y540675D02*
Y935450D01*
X156850Y540675D02*
Y935450D01*
X156650Y540675D02*
Y935450D01*
X156450Y540675D02*
Y935450D01*
X156250Y540675D02*
Y935450D01*
X156050Y540675D02*
Y935450D01*
X155850Y540675D02*
Y935450D01*
X155650Y540675D02*
Y935450D01*
X155450Y540675D02*
Y935450D01*
X155250Y540675D02*
Y935450D01*
X155050Y540675D02*
Y935450D01*
X154850Y540675D02*
Y935450D01*
X154650Y540675D02*
Y935450D01*
X154450Y540675D02*
Y935450D01*
X154250Y540675D02*
Y935450D01*
X154050Y540675D02*
Y935450D01*
X153850Y540675D02*
Y935450D01*
X153650Y540675D02*
Y935450D01*
X153450Y540675D02*
Y935450D01*
X153250Y540675D02*
Y935450D01*
X153050Y540675D02*
Y935450D01*
X152850Y540675D02*
Y935450D01*
X152650Y540675D02*
Y935450D01*
X152450Y540675D02*
Y935450D01*
X152250Y540675D02*
Y935450D01*
X152050Y540675D02*
Y935450D01*
X151850Y540675D02*
Y935450D01*
X151650Y540675D02*
Y935450D01*
X151450Y540675D02*
Y935450D01*
X151250Y540675D02*
Y935450D01*
X151050Y540675D02*
Y935450D01*
X150850Y540675D02*
Y935450D01*
X150650Y540675D02*
Y935450D01*
X150450Y540675D02*
Y935450D01*
X150250Y540675D02*
Y935450D01*
X150050Y540675D02*
Y935450D01*
X149850Y540675D02*
Y935450D01*
X149650Y540675D02*
Y935450D01*
X149450Y540675D02*
Y935450D01*
X149250Y540675D02*
Y935450D01*
X149050Y540675D02*
Y935450D01*
X148850Y540675D02*
Y935450D01*
X148650Y540675D02*
Y935450D01*
X148450Y540675D02*
Y935450D01*
X148250Y540675D02*
Y935450D01*
X148050Y540675D02*
Y935450D01*
X147850Y540675D02*
Y935450D01*
X147650Y540675D02*
Y935450D01*
X147450Y540675D02*
Y935450D01*
X147250Y540675D02*
Y935450D01*
X147050Y540675D02*
Y935450D01*
X146850Y540675D02*
Y935450D01*
X146650Y540675D02*
Y935450D01*
X146450Y540675D02*
Y935450D01*
X146250Y540675D02*
Y935450D01*
X146050Y540675D02*
Y935450D01*
X145850Y540675D02*
Y935450D01*
X145650Y540675D02*
Y935450D01*
X145450Y540675D02*
Y935450D01*
X145250Y540675D02*
Y935450D01*
X145050Y540675D02*
Y935450D01*
X144850Y540675D02*
Y935450D01*
X144650Y540675D02*
Y935450D01*
X144450Y540675D02*
Y935450D01*
X144250Y540675D02*
Y935450D01*
X144050Y540675D02*
Y935450D01*
X143850Y540675D02*
Y935450D01*
X143650Y540675D02*
Y935450D01*
X143450Y540675D02*
Y935450D01*
X143250Y540675D02*
Y935450D01*
X143050Y540675D02*
Y935450D01*
X142850Y540675D02*
Y935450D01*
X142650Y540675D02*
Y935450D01*
X142450Y540675D02*
Y935450D01*
X142250Y540675D02*
Y935450D01*
X142050Y540675D02*
Y935450D01*
X141850Y540675D02*
Y935450D01*
X141650Y540675D02*
Y935450D01*
X141450Y540675D02*
Y935450D01*
X141250Y540675D02*
Y935450D01*
X141050Y540675D02*
Y935450D01*
X140850Y540675D02*
Y935450D01*
X140650Y540675D02*
Y935450D01*
X140450Y540675D02*
Y935450D01*
X140250Y540675D02*
Y935450D01*
X140050Y540675D02*
Y935450D01*
X139850Y540675D02*
Y935450D01*
X139650Y540675D02*
Y935450D01*
X139450Y540675D02*
Y935450D01*
X139250Y540675D02*
Y935450D01*
X139050Y540675D02*
Y935450D01*
X138850Y540675D02*
Y935450D01*
X138650Y540675D02*
Y935450D01*
X138450Y540675D02*
Y935450D01*
X138250Y540675D02*
Y935450D01*
X138050Y540675D02*
Y935450D01*
X137850Y540675D02*
Y935450D01*
X137650Y540675D02*
Y935450D01*
X137450Y540675D02*
Y935450D01*
X137250Y540675D02*
Y935450D01*
X137050Y540675D02*
Y935450D01*
X136850Y540675D02*
Y935450D01*
X136650Y540675D02*
Y935450D01*
X136450Y540675D02*
Y935450D01*
X136250Y540675D02*
Y935450D01*
X136050Y540675D02*
Y935450D01*
X135850Y540675D02*
Y935450D01*
X135650Y540675D02*
Y935450D01*
X135450Y540675D02*
Y935450D01*
X135250Y540675D02*
Y935450D01*
X135050Y540675D02*
Y935450D01*
X134850Y540675D02*
Y935450D01*
X134650Y540675D02*
Y935450D01*
X134450Y540675D02*
Y935450D01*
X134250Y540675D02*
Y935450D01*
X134050Y540675D02*
Y935450D01*
X133850Y540675D02*
Y935450D01*
X133650Y540675D02*
Y935450D01*
X133450Y540675D02*
Y935450D01*
X133250Y540675D02*
Y935450D01*
X133050Y540675D02*
Y935450D01*
X132850Y540675D02*
Y935450D01*
X132650Y540675D02*
Y935450D01*
X132450Y540675D02*
Y935450D01*
X132250Y540675D02*
Y935450D01*
X132050Y540675D02*
Y935450D01*
X131850Y540675D02*
Y935450D01*
X131650Y540675D02*
Y935450D01*
X131450Y540675D02*
Y935450D01*
X131250Y540675D02*
Y935450D01*
X131050Y540675D02*
Y935450D01*
X130850Y540675D02*
Y935450D01*
X130650Y540675D02*
Y935450D01*
X130450Y540675D02*
Y935450D01*
X130250Y540675D02*
Y935450D01*
X130050Y540675D02*
Y935450D01*
X129850Y540675D02*
Y935450D01*
X129650Y540675D02*
Y935450D01*
X129450Y540675D02*
Y935450D01*
X129250Y540675D02*
Y935450D01*
X129050Y540675D02*
Y935450D01*
X128850Y540675D02*
Y935450D01*
X128650Y540675D02*
Y935450D01*
X128450Y540675D02*
Y935450D01*
X128250Y540675D02*
Y935450D01*
X128050Y540675D02*
Y935450D01*
X127850Y540675D02*
Y935450D01*
X127650Y540675D02*
Y935450D01*
X127450Y540675D02*
Y935450D01*
X127250Y540675D02*
Y935450D01*
X127050Y540675D02*
Y935450D01*
X126850Y540675D02*
Y935450D01*
X126650Y540675D02*
Y935450D01*
X126450Y540675D02*
Y935450D01*
X126250Y540675D02*
Y935450D01*
X126050Y540675D02*
Y935450D01*
X125850Y540675D02*
Y935450D01*
X125650Y540675D02*
Y935450D01*
X125450Y540675D02*
Y935450D01*
X125250Y540675D02*
Y935450D01*
X125050Y540675D02*
Y935450D01*
X124850Y540675D02*
Y935450D01*
X124650Y540675D02*
Y935450D01*
X124450Y540675D02*
Y935450D01*
X124250Y540675D02*
Y935450D01*
X124050Y540675D02*
Y935450D01*
X123850Y540675D02*
Y935450D01*
X123650Y540675D02*
Y935450D01*
X123450Y540675D02*
Y935450D01*
X123250Y540675D02*
Y935450D01*
X123050Y540675D02*
Y935450D01*
X122850Y540675D02*
Y935450D01*
X122650Y540675D02*
Y935450D01*
X122450Y540675D02*
Y935450D01*
X122250Y540675D02*
Y935450D01*
X122050Y540675D02*
Y935450D01*
X121850Y540675D02*
Y935450D01*
X121650Y540675D02*
Y935450D01*
X121450Y540675D02*
Y935450D01*
X121250Y540675D02*
Y935450D01*
X121050Y540675D02*
Y935450D01*
X120850Y540675D02*
Y935450D01*
X120650Y540675D02*
Y935450D01*
X120450Y540675D02*
Y935450D01*
X120250Y540675D02*
Y935450D01*
X120050Y540675D02*
Y935450D01*
X119850Y540675D02*
Y935450D01*
X119650Y540675D02*
Y935450D01*
X119450Y540675D02*
Y935450D01*
X119250Y540675D02*
Y935450D01*
X119050Y540675D02*
Y935450D01*
X118850Y540675D02*
Y935450D01*
X118650Y540675D02*
Y935450D01*
X118450Y540675D02*
Y935450D01*
X118250Y540675D02*
Y935450D01*
X118050Y540675D02*
Y935450D01*
X117850Y540675D02*
Y935450D01*
X117650Y540675D02*
Y935450D01*
X117450Y540675D02*
Y935450D01*
X117250Y540675D02*
Y935450D01*
X117050Y540675D02*
Y935450D01*
X116850Y540675D02*
Y935450D01*
X116650Y540675D02*
Y935450D01*
X116450Y540675D02*
Y935450D01*
X116250Y540675D02*
Y935450D01*
X116050Y540675D02*
Y935450D01*
X115850Y540675D02*
Y935450D01*
X115650Y540675D02*
Y935450D01*
X115450Y540675D02*
Y935450D01*
X115250Y540675D02*
Y935450D01*
X115050Y540675D02*
Y935450D01*
X114850Y540675D02*
Y935450D01*
X114650Y540675D02*
Y935450D01*
X114450Y540675D02*
Y935450D01*
X114250Y540675D02*
Y935450D01*
X114050Y540675D02*
Y935450D01*
X113850Y540675D02*
Y935450D01*
X113650Y540675D02*
Y935450D01*
X113450Y540675D02*
Y935450D01*
X113250Y540675D02*
Y935450D01*
X113050Y540675D02*
Y935450D01*
X112850Y540675D02*
Y935450D01*
X112650Y540675D02*
Y935450D01*
X112450Y540675D02*
Y935450D01*
X112250Y540675D02*
Y935450D01*
X112050Y540675D02*
Y935450D01*
X111850Y540675D02*
Y935450D01*
X111650Y540675D02*
Y935450D01*
X111450Y540675D02*
Y935450D01*
X111250Y540675D02*
Y935450D01*
X111050Y540675D02*
Y935450D01*
X110850Y540675D02*
Y935450D01*
X110650Y540675D02*
Y935450D01*
X110450Y540675D02*
Y935450D01*
X110250Y540675D02*
Y935450D01*
X110050Y540675D02*
Y935450D01*
X109850Y540675D02*
Y935450D01*
X109650Y540675D02*
Y935450D01*
X109450Y540675D02*
Y935450D01*
X109250Y540675D02*
Y935450D01*
X109050Y540675D02*
Y935450D01*
X108850Y540675D02*
Y935450D01*
X108650Y540675D02*
Y935450D01*
X108450Y540675D02*
Y935450D01*
X108250Y540675D02*
Y935450D01*
X108050Y540675D02*
Y935450D01*
X107850Y540675D02*
Y935450D01*
X107650Y540675D02*
Y935450D01*
X107450Y540675D02*
Y935450D01*
X107250Y540675D02*
Y935450D01*
X107050Y540675D02*
Y935450D01*
X106850Y540675D02*
Y935450D01*
X106650Y540675D02*
Y935450D01*
X106450Y540675D02*
Y935450D01*
X106250Y540675D02*
Y935450D01*
X106050Y540675D02*
Y935450D01*
X105850Y540675D02*
Y935450D01*
X105650Y540675D02*
Y935450D01*
X105450Y540675D02*
Y935450D01*
X105250Y540675D02*
Y935450D01*
X105050Y540675D02*
Y935450D01*
X104850Y540675D02*
Y935450D01*
X104650Y540675D02*
Y935450D01*
X104450Y540675D02*
Y935450D01*
X104250Y540675D02*
Y935450D01*
X104050Y540675D02*
Y935450D01*
X103850Y540675D02*
Y935450D01*
X103650Y540675D02*
Y935450D01*
X103450Y540675D02*
Y935450D01*
X103250Y540675D02*
Y935450D01*
X103050Y540675D02*
Y935450D01*
X102850Y540675D02*
Y935450D01*
X102650Y540675D02*
Y935450D01*
X102450Y540675D02*
Y935450D01*
X102250Y540675D02*
Y935450D01*
X102050Y540675D02*
Y935450D01*
X101850Y540675D02*
Y935450D01*
X101650Y540675D02*
Y935450D01*
X101450Y540675D02*
Y935450D01*
X101250Y540675D02*
Y935450D01*
X101050Y540675D02*
Y935450D01*
X100850Y540675D02*
Y935450D01*
X100650Y540675D02*
Y935450D01*
X100450Y540675D02*
Y935450D01*
X100250Y540675D02*
Y935450D01*
G54D83*
X100200Y1008900D02*
X128100D01*
Y984800*
X100200*
Y1008900*
X100000Y133900D02*
X127900D01*
Y109800*
X100000*
Y133900*
X100200Y1008739D02*
X128100D01*
X100200Y1008559D02*
X128100D01*
X100200Y1008379D02*
X128100D01*
X100200Y1008199D02*
X128100D01*
X100200Y1008019D02*
X128100D01*
X100200Y1007839D02*
X128100D01*
X100200Y1007659D02*
X128100D01*
X100200Y1007479D02*
X128100D01*
X100200Y1007299D02*
X128100D01*
X100200Y1007119D02*
X128100D01*
X100200Y1006939D02*
X128100D01*
X100200Y1006759D02*
X128100D01*
X100200Y1006579D02*
X128100D01*
X100200Y1006399D02*
X128100D01*
X100200Y1006219D02*
X128100D01*
X100200Y1006039D02*
X128100D01*
X100200Y1005859D02*
X128100D01*
X100200Y1005679D02*
X128100D01*
X100200Y1005499D02*
X128100D01*
X100200Y1005319D02*
X128100D01*
X100200Y1005139D02*
X128100D01*
X100200Y1004959D02*
X128100D01*
X100200Y1004779D02*
X128100D01*
X100200Y1004599D02*
X128100D01*
X100200Y1004419D02*
X128100D01*
X100200Y1004239D02*
X128100D01*
X100200Y1004059D02*
X128100D01*
X100200Y1003879D02*
X128100D01*
X100200Y1003699D02*
X128100D01*
X100200Y1003519D02*
X128100D01*
X100200Y1003339D02*
X128100D01*
X100200Y1003159D02*
X128100D01*
X100200Y1002979D02*
X128100D01*
X100200Y1002799D02*
X128100D01*
X100200Y1002619D02*
X128100D01*
X100200Y1002439D02*
X128100D01*
X100200Y1002259D02*
X128100D01*
X100200Y1002079D02*
X128100D01*
X100200Y1001899D02*
X128100D01*
X100200Y1001719D02*
X128100D01*
X100200Y1001539D02*
X128100D01*
X100200Y1001359D02*
X128100D01*
X100200Y1001179D02*
X128100D01*
X100200Y1000999D02*
X128100D01*
X100200Y1000819D02*
X128100D01*
X100200Y1000639D02*
X128100D01*
X100200Y1000459D02*
X128100D01*
X100200Y1000279D02*
X128100D01*
X100200Y1000099D02*
X128100D01*
X100200Y999919D02*
X128100D01*
X100200Y999739D02*
X128100D01*
X100200Y999559D02*
X128100D01*
X100200Y999379D02*
X128100D01*
X100200Y999199D02*
X128100D01*
X100200Y999019D02*
X128100D01*
X100200Y998839D02*
X128100D01*
X100200Y998659D02*
X128100D01*
X100200Y998479D02*
X128100D01*
X100200Y998299D02*
X128100D01*
X100200Y998119D02*
X128100D01*
X100200Y997939D02*
X128100D01*
X100200Y997759D02*
X128100D01*
X100200Y997579D02*
X128100D01*
X100200Y997399D02*
X128100D01*
X100200Y997219D02*
X128100D01*
X100200Y997039D02*
X128100D01*
X100200Y996859D02*
X128100D01*
X100200Y996679D02*
X128100D01*
X100200Y996499D02*
X128100D01*
X100200Y996319D02*
X128100D01*
X100200Y996139D02*
X128100D01*
X100200Y995959D02*
X128100D01*
X100200Y995779D02*
X128100D01*
X100200Y995599D02*
X128100D01*
X100200Y995419D02*
X128100D01*
X100200Y995239D02*
X128100D01*
X100200Y995059D02*
X128100D01*
X100200Y994879D02*
X128100D01*
X100200Y994699D02*
X128100D01*
X100200Y994519D02*
X128100D01*
X100200Y994339D02*
X128100D01*
X100200Y994159D02*
X128100D01*
X100200Y993979D02*
X128100D01*
X100200Y993799D02*
X128100D01*
X100200Y993619D02*
X128100D01*
X100200Y993439D02*
X128100D01*
X100200Y993259D02*
X128100D01*
X100200Y993079D02*
X128100D01*
X100200Y992899D02*
X128100D01*
X100200Y992719D02*
X128100D01*
X100200Y992539D02*
X128100D01*
X100200Y992359D02*
X128100D01*
X100200Y992179D02*
X128100D01*
X100200Y991999D02*
X128100D01*
X100200Y991819D02*
X128100D01*
X100200Y991639D02*
X128100D01*
X100200Y991459D02*
X128100D01*
X100200Y991279D02*
X128100D01*
X100200Y991099D02*
X128100D01*
X100200Y990919D02*
X128100D01*
X100200Y990739D02*
X128100D01*
X100200Y990559D02*
X128100D01*
X100200Y990379D02*
X128100D01*
X100200Y990199D02*
X128100D01*
X100200Y990019D02*
X128100D01*
X100200Y989839D02*
X128100D01*
X100200Y989659D02*
X128100D01*
X100200Y989479D02*
X128100D01*
X100200Y989299D02*
X128100D01*
X100200Y989119D02*
X128100D01*
X100200Y988939D02*
X128100D01*
X100200Y988759D02*
X128100D01*
X100200Y988579D02*
X128100D01*
X100200Y988399D02*
X128100D01*
X100200Y988219D02*
X128100D01*
X100200Y988039D02*
X128100D01*
X100200Y987859D02*
X128100D01*
X100200Y987679D02*
X128100D01*
X100200Y987499D02*
X128100D01*
X100200Y987319D02*
X128100D01*
X100200Y987139D02*
X128100D01*
X100200Y986959D02*
X128100D01*
X100200Y986779D02*
X128100D01*
X100200Y986599D02*
X128100D01*
X100200Y986419D02*
X128100D01*
X100200Y986239D02*
X128100D01*
X100200Y986059D02*
X128100D01*
X100200Y985879D02*
X128100D01*
X100200Y985699D02*
X128100D01*
X100200Y985519D02*
X128100D01*
X100200Y985339D02*
X128100D01*
X100200Y985159D02*
X128100D01*
X100200Y984979D02*
X128100D01*
X100000Y133739D02*
X127900D01*
X100000Y133559D02*
X127900D01*
X100000Y133379D02*
X127900D01*
X100000Y133199D02*
X127900D01*
X100000Y133019D02*
X127900D01*
X100000Y132839D02*
X127900D01*
X100000Y132659D02*
X127900D01*
X100000Y132479D02*
X127900D01*
X100000Y132299D02*
X127900D01*
X100000Y132119D02*
X127900D01*
X100000Y131939D02*
X127900D01*
X100000Y131759D02*
X127900D01*
X100000Y131579D02*
X127900D01*
X100000Y131399D02*
X127900D01*
X100000Y131219D02*
X127900D01*
X100000Y131039D02*
X127900D01*
X100000Y130859D02*
X127900D01*
X100000Y130679D02*
X127900D01*
X100000Y130499D02*
X127900D01*
X100000Y130319D02*
X127900D01*
X100000Y130139D02*
X127900D01*
X100000Y129959D02*
X127900D01*
X100000Y129779D02*
X127900D01*
X100000Y129599D02*
X127900D01*
X100000Y129419D02*
X127900D01*
X100000Y129239D02*
X127900D01*
X100000Y129059D02*
X127900D01*
X100000Y128879D02*
X127900D01*
X100000Y128699D02*
X127900D01*
X100000Y128519D02*
X127900D01*
X100000Y128339D02*
X127900D01*
X100000Y128159D02*
X127900D01*
X100000Y127979D02*
X127900D01*
X100000Y127799D02*
X127900D01*
X100000Y127619D02*
X127900D01*
X100000Y127439D02*
X127900D01*
X100000Y127259D02*
X127900D01*
X100000Y127079D02*
X127900D01*
X100000Y126899D02*
X127900D01*
X100000Y126719D02*
X127900D01*
X100000Y126539D02*
X127900D01*
X100000Y126359D02*
X127900D01*
X100000Y126179D02*
X127900D01*
X100000Y125999D02*
X127900D01*
X100000Y125819D02*
X127900D01*
X100000Y125639D02*
X127900D01*
X100000Y125459D02*
X127900D01*
X100000Y125279D02*
X127900D01*
X100000Y125099D02*
X127900D01*
X100000Y124919D02*
X127900D01*
X100000Y124739D02*
X127900D01*
X100000Y124559D02*
X127900D01*
X100000Y124379D02*
X127900D01*
X100000Y124199D02*
X127900D01*
X100000Y124019D02*
X127900D01*
X100000Y123839D02*
X127900D01*
X100000Y123659D02*
X127900D01*
X100000Y123479D02*
X127900D01*
X100000Y123299D02*
X127900D01*
X100000Y123119D02*
X127900D01*
X100000Y122939D02*
X127900D01*
X100000Y122759D02*
X127900D01*
X100000Y122579D02*
X127900D01*
X100000Y122399D02*
X127900D01*
X100000Y122219D02*
X127900D01*
X100000Y122039D02*
X127900D01*
X100000Y121859D02*
X127900D01*
X100000Y121679D02*
X127900D01*
X100000Y121499D02*
X127900D01*
X100000Y121319D02*
X127900D01*
X100000Y121139D02*
X127900D01*
X100000Y120959D02*
X127900D01*
X100000Y120779D02*
X127900D01*
X100000Y120599D02*
X127900D01*
X100000Y120419D02*
X127900D01*
X100000Y120239D02*
X127900D01*
X100000Y120059D02*
X127900D01*
X100000Y119879D02*
X127900D01*
X100000Y119699D02*
X127900D01*
X100000Y119519D02*
X127900D01*
X100000Y119339D02*
X127900D01*
X100000Y119159D02*
X127900D01*
X100000Y118979D02*
X127900D01*
X100000Y118799D02*
X127900D01*
X100000Y118619D02*
X127900D01*
X100000Y118439D02*
X127900D01*
X100000Y118259D02*
X127900D01*
X100000Y118079D02*
X127900D01*
X100000Y117899D02*
X127900D01*
X100000Y117719D02*
X127900D01*
X100000Y117539D02*
X127900D01*
X100000Y117359D02*
X127900D01*
X100000Y117179D02*
X127900D01*
X100000Y116999D02*
X127900D01*
X100000Y116819D02*
X127900D01*
X100000Y116639D02*
X127900D01*
X100000Y116459D02*
X127900D01*
X100000Y116279D02*
X127900D01*
X100000Y116099D02*
X127900D01*
X100000Y115919D02*
X127900D01*
X100000Y115739D02*
X127900D01*
X100000Y115559D02*
X127900D01*
X100000Y115379D02*
X127900D01*
X100000Y115199D02*
X127900D01*
X100000Y115019D02*
X127900D01*
X100000Y114839D02*
X127900D01*
X100000Y114659D02*
X127900D01*
X100000Y114479D02*
X127900D01*
X100000Y114299D02*
X127900D01*
X100000Y114119D02*
X127900D01*
X100000Y113939D02*
X127900D01*
X100000Y113759D02*
X127900D01*
X100000Y113579D02*
X127900D01*
X100000Y113399D02*
X127900D01*
X100000Y113219D02*
X127900D01*
X100000Y113039D02*
X127900D01*
X100000Y112859D02*
X127900D01*
X100000Y112679D02*
X127900D01*
X100000Y112499D02*
X127900D01*
X100000Y112319D02*
X127900D01*
X100000Y112139D02*
X127900D01*
X100000Y111959D02*
X127900D01*
X100000Y111779D02*
X127900D01*
X100000Y111599D02*
X127900D01*
X100000Y111419D02*
X127900D01*
X100000Y111239D02*
X127900D01*
X100000Y111059D02*
X127900D01*
X100000Y110879D02*
X127900D01*
X100000Y110699D02*
X127900D01*
X100000Y110519D02*
X127900D01*
X100000Y110339D02*
X127900D01*
X100000Y110159D02*
X127900D01*
X100000Y109979D02*
X127900D01*
G54D15*
X550888Y331509D03*
X237598Y290397D03*
X606300Y314850D03*
Y328350D03*
X596300Y314850D03*
Y328350D03*
X586300Y314850D03*
Y328350D03*
X537888Y331509D03*
G54D29*
X117700Y253125D03*
Y263125D03*
Y273125D03*
Y283125D03*
Y293125D03*
Y303125D03*
Y313125D03*
Y323125D03*
X107700Y253125D03*
Y263125D03*
Y273125D03*
Y283125D03*
Y293125D03*
Y303125D03*
Y313125D03*
Y323125D03*
X580000Y976875D03*
X590000D03*
X600000D03*
G54D30*
X518000Y616933D03*
X527000D03*
X518468Y625984D03*
X527468D03*
X518614Y653147D03*
X527614D03*
X517246Y663724D03*
X526246D03*
X610602Y637198D03*
X601602D03*
X609055Y619196D03*
X600055D03*
X610557Y655262D03*
X601557D03*
X612142Y600730D03*
X603142D03*
X609128Y628139D03*
X600128D03*
X610602Y646207D03*
X601602D03*
X610600Y664214D03*
X601600D03*
X518000Y607932D03*
X527000D03*
X518609Y635063D03*
X527609D03*
X518523Y644137D03*
X527523D03*
X517175Y672939D03*
X526175D03*
X612096Y610149D03*
X603096D03*
G54D32*
X527264Y586163D03*
Y595163D03*
X563341Y585058D03*
Y594058D03*
X548634Y682333D03*
Y673333D03*
X576754Y683198D03*
Y674198D03*
X616176Y688067D03*
Y679067D03*
X551330Y585411D03*
Y594411D03*
X517072Y586163D03*
Y595163D03*
X598487Y581244D03*
Y590244D03*
X605255Y687612D03*
Y678612D03*
X587944Y581356D03*
Y590356D03*
X567744Y683198D03*
Y674198D03*
X539579Y682424D03*
Y673424D03*
G54D40*
X717850Y471850D03*
Y121850D03*
Y996850D03*
Y646850D03*
G54D41*
X570000Y976875D03*
G54D45*
X237598Y280397D03*
Y270397D03*
Y260397D03*
X267598D03*
Y270397D03*
Y280397D03*
Y290397D03*
G54D48*
X146250Y385000D03*
X707850Y451850D03*
Y361850D03*
Y261850D03*
Y161850D03*
X697850Y451850D03*
Y361850D03*
Y261850D03*
Y161850D03*
X687850Y451850D03*
Y361850D03*
Y261850D03*
Y161850D03*
X707850Y976850D03*
Y886850D03*
Y786850D03*
Y686850D03*
X697850Y976850D03*
Y886850D03*
Y786850D03*
Y686850D03*
X687850Y976850D03*
Y886850D03*
Y786850D03*
Y686850D03*
G54D49*
X121250Y390000D03*
Y345000D03*
G54D53*
X650625Y985625D03*
X199482Y393039D03*
X199365Y366575D03*
Y356575D03*
X199482Y383039D03*
X295806Y380776D03*
X162500Y264375D03*
X676875Y660625D03*
X666875D03*
X515000Y893750D03*
G54D54*
X660625Y985625D03*
X209482Y393039D03*
X209365Y366575D03*
Y356575D03*
X209482Y383039D03*
X295806Y370776D03*
X162500Y254375D03*
X676875Y650625D03*
X666875D03*
X515000Y903750D03*
G54D55*
X116875Y169375D03*
Y149375D03*
G54D56*
X625100Y994500D03*
X160000Y968800D03*
X590800Y204800D03*
X203400Y223800D03*
G54D57*
X141000Y225625D03*
X151000D03*
X161000D03*
X121000D03*
X153125Y196875D03*
X163125D03*
X173125D03*
X133125D03*
G54D60*
X137500Y170748D03*
Y139252D03*
G54D62*
X156250Y380000D03*
X146250Y375000D03*
X156250Y370000D03*
X146250Y365000D03*
X156250Y360000D03*
X146250Y355000D03*
X156250Y350000D03*
X707850Y441850D03*
Y431850D03*
Y421850D03*
Y411850D03*
Y401850D03*
Y391850D03*
Y381850D03*
Y371850D03*
Y351850D03*
Y341850D03*
Y331850D03*
Y321850D03*
Y311850D03*
Y301850D03*
Y291850D03*
Y281850D03*
Y271850D03*
Y251850D03*
Y241850D03*
Y231850D03*
Y221850D03*
Y211850D03*
Y201850D03*
Y191850D03*
Y181850D03*
Y171850D03*
Y151850D03*
Y141850D03*
X697850Y441850D03*
Y431850D03*
Y421850D03*
Y411850D03*
Y401850D03*
Y391850D03*
Y381850D03*
Y371850D03*
Y351850D03*
Y341850D03*
Y331850D03*
Y321850D03*
Y311850D03*
Y301850D03*
Y291850D03*
Y281850D03*
Y271850D03*
Y251850D03*
Y241850D03*
Y231850D03*
Y221850D03*
Y211850D03*
Y201850D03*
Y191850D03*
Y181850D03*
Y171850D03*
Y151850D03*
Y141850D03*
X687850Y441850D03*
Y431850D03*
Y421850D03*
Y411850D03*
Y401850D03*
Y391850D03*
Y381850D03*
Y371850D03*
Y351850D03*
Y341850D03*
Y331850D03*
Y321850D03*
Y311850D03*
Y301850D03*
Y291850D03*
Y281850D03*
Y271850D03*
Y251850D03*
Y241850D03*
Y231850D03*
Y221850D03*
Y211850D03*
Y201850D03*
Y191850D03*
Y181850D03*
Y171850D03*
Y151850D03*
Y141850D03*
X707850Y966850D03*
Y956850D03*
Y946850D03*
Y936850D03*
Y926850D03*
Y916850D03*
Y906850D03*
Y896850D03*
Y876850D03*
Y866850D03*
Y856850D03*
Y846850D03*
Y836850D03*
Y826850D03*
Y816850D03*
Y806850D03*
Y796850D03*
Y776850D03*
Y766850D03*
Y756850D03*
Y746850D03*
Y736850D03*
Y726850D03*
Y716850D03*
Y706850D03*
Y696850D03*
Y676850D03*
Y666850D03*
X697850Y966850D03*
Y956850D03*
Y946850D03*
Y936850D03*
Y926850D03*
Y916850D03*
Y906850D03*
Y896850D03*
Y876850D03*
Y866850D03*
Y856850D03*
Y846850D03*
Y836850D03*
Y826850D03*
Y816850D03*
Y806850D03*
Y796850D03*
Y776850D03*
Y766850D03*
Y756850D03*
Y746850D03*
Y736850D03*
Y726850D03*
Y716850D03*
Y706850D03*
Y696850D03*
Y676850D03*
Y666850D03*
X687850Y966850D03*
Y956850D03*
Y946850D03*
Y936850D03*
Y926850D03*
Y916850D03*
Y906850D03*
Y896850D03*
Y876850D03*
Y866850D03*
Y856850D03*
Y846850D03*
Y836850D03*
Y826850D03*
Y816850D03*
Y806850D03*
Y796850D03*
Y776850D03*
Y766850D03*
Y756850D03*
Y746850D03*
Y736850D03*
Y726850D03*
Y716850D03*
Y706850D03*
Y696850D03*
Y676850D03*
Y666850D03*
G54D63*
X476250Y460000D03*
Y470000D03*
X386250Y460000D03*
Y470000D03*
X286250Y460000D03*
Y470000D03*
X176250Y460000D03*
Y470000D03*
X396250Y450000D03*
Y440000D03*
G54D64*
X466250Y460000D03*
Y470000D03*
X456250Y460000D03*
Y470000D03*
X446250Y460000D03*
Y470000D03*
X436250Y460000D03*
Y470000D03*
X426250Y460000D03*
Y470000D03*
X416250Y460000D03*
Y470000D03*
X406250Y460000D03*
Y470000D03*
X396250Y460000D03*
Y470000D03*
X376250Y460000D03*
Y470000D03*
X366250Y460000D03*
Y470000D03*
X356250Y460000D03*
Y470000D03*
X346250Y460000D03*
Y470000D03*
X336250Y460000D03*
Y470000D03*
X326250Y460000D03*
Y470000D03*
X316250Y460000D03*
Y470000D03*
X306250Y460000D03*
Y470000D03*
X296250Y460000D03*
Y470000D03*
X276250Y460000D03*
Y470000D03*
X266250Y460000D03*
Y470000D03*
X256250Y460000D03*
Y470000D03*
X246250Y460000D03*
Y470000D03*
X236250Y460000D03*
Y470000D03*
X226250Y460000D03*
Y470000D03*
X216250Y460000D03*
Y470000D03*
X206250Y460000D03*
Y470000D03*
X196250Y460000D03*
Y470000D03*
X186250Y460000D03*
Y470000D03*
X166250Y460000D03*
Y470000D03*
X386250Y450000D03*
X376250D03*
X366250D03*
X356250D03*
X346250D03*
X336250D03*
X326250D03*
X316250D03*
X306250D03*
X296250D03*
X286250D03*
X276250D03*
X266250D03*
X256250D03*
X246250D03*
X236250D03*
X226250D03*
X216250D03*
X206250D03*
X386250Y440000D03*
X376250D03*
X366250D03*
X356250D03*
X346250D03*
X336250D03*
X326250D03*
X316250D03*
X306250D03*
X296250D03*
X286250D03*
X276250D03*
X266250D03*
X256250D03*
X246250D03*
X236250D03*
X226250D03*
X216250D03*
X206250D03*
G54D65*
X106289D03*
X166250D03*
X481250Y440079D03*
X176250Y777500D03*
X466250D03*
X106289Y968189D03*
X481053D03*
G54D66*
X596875Y752500D03*
Y762500D03*
Y772500D03*
Y782500D03*
Y792500D03*
Y802500D03*
Y812500D03*
Y822500D03*
Y832500D03*
Y842500D03*
Y852500D03*
Y862500D03*
Y872500D03*
Y882500D03*
Y892500D03*
Y902500D03*
Y912500D03*
X536875D03*
Y902500D03*
Y892500D03*
Y882500D03*
Y872500D03*
Y862500D03*
Y852500D03*
Y842500D03*
Y832500D03*
Y822500D03*
Y812500D03*
Y802500D03*
Y792500D03*
Y782500D03*
Y772500D03*
Y762500D03*
Y752500D03*
Y742500D03*
X248125Y341875D03*
X258125Y351875D03*
X248125D03*
X258125Y361875D03*
X248125D03*
X258125Y371875D03*
X248125D03*
X258125Y381875D03*
X248125D03*
X258125Y391875D03*
X248125D03*
X225625Y341875D03*
X235625Y351875D03*
X225625D03*
X235625Y361875D03*
X225625D03*
X235625Y371875D03*
X225625D03*
X235625Y381875D03*
X225625D03*
X235625Y391875D03*
X225625D03*
G54D67*
X596875Y742500D03*
X258125Y341875D03*
X235625D03*
G54D69*
X460709Y160000D03*
X500709D03*
X560709D03*
X600709D03*
X460709Y350000D03*
X500709D03*
X530709D03*
X560709D03*
X600709D03*
X437599Y172323D03*
Y321929D03*
X623819D03*
Y188071D03*
X201646Y197875D03*
X226646D03*
X125525Y651250D03*
Y892500D03*
Y754375D03*
Y574375D03*
G54D70*
X431043Y127100D03*
X422579D03*
X382421D03*
X373957D03*
X648615Y128118D03*
Y136583D03*
Y176740D03*
Y185205D03*
X447057Y127700D03*
X455521D03*
X495679D03*
X504143D03*
X416250Y289173D03*
Y297638D03*
Y337795D03*
Y346260D03*
X157500Y177293D03*
Y168829D03*
Y128671D03*
Y120207D03*
X180000D03*
Y128671D03*
Y168829D03*
Y177293D03*
X202500Y176668D03*
Y168204D03*
Y128046D03*
Y119582D03*
G54D11*
X114055Y121850D03*
Y996850D03*
X0Y0D02*
M02*
