*
*
G04 PADS 9.4.1 Build Number: 494907 generated Gerber (RS-274-X) file*
G04 PC Version=2.1*
*
%IN "ATLAS_XP2V5.pcb"*%
*
%MOIN*%
*
%FSLAX35Y35*%
*
*
*
*
G04 PC Standard Apertures*
*
*
G04 Thermal Relief Aperture macro.*
%AMTER*
1,1,$1,0,0*
1,0,$1-$2,0,0*
21,0,$3,$4,0,0,45*
21,0,$3,$4,0,0,135*
%
*
*
G04 Annular Aperture macro.*
%AMANN*
1,1,$1,0,0*
1,0,$2,0,0*
%
*
*
G04 Odd Aperture macro.*
%AMODD*
1,1,$1,0,0*
1,0,$1-0.005,0,0*
%
*
*
G04 PC Custom Aperture Macros*
*
*
*
*
*
*
G04 PC Aperture Table*
*
%ADD010C,0.001*%
%ADD011R,0.0895X0.0995*%
%ADD012R,0.0595X0.0595*%
%ADD013R,0.0855X0.0235*%
%ADD014O,0.0855X0.0235*%
%ADD015R,0.0935X0.0245*%
%ADD016O,0.0935X0.0245*%
%ADD017R,0.0545X0.0595*%
%ADD018R,0.0595X0.0545*%
%ADD019R,0.0245X0.0935*%
%ADD020O,0.0245X0.0935*%
%ADD021R,0.0915X0.0555*%
%ADD022R,0.0595X0.0495*%
%ADD023R,0.0495X0.0595*%
%ADD024R,0.0645X0.1245*%
%ADD025O,0.0235X0.0735*%
%ADD026R,0.0945X0.1195*%
%ADD027R,0.0995X0.0595*%
%ADD028R,0.0595X0.0995*%
%ADD029R,0.0785X0.0705*%
%ADD030R,0.0495X0.0995*%
%ADD031R,0.0335X0.0275*%
%ADD032R,0.0275X0.0335*%
%ADD033R,0.0745X0.0795*%
%ADD034R,0.04753X0.03533*%
%ADD035R,0.0855X0.0855*%
%ADD036R,0.1035X0.0955*%
%ADD037R,0.1095X0.0395*%
%ADD038R,0.0355X0.0665*%
%ADD039R,0.0095X0.0625*%
%ADD040O,0.0095X0.0625*%
%ADD041O,0.0625X0.0095*%
%ADD042R,0.0625X0.0095*%
%ADD043R,0.0085X0.0355*%
%ADD044R,0.07824X0.21013*%
%ADD045R,0.12749X0.12249*%
%ADD046R,0.0315X0.0175*%
%ADD047R,0.031X0.02706*%
%ADD048R,0.12249X0.12749*%
%ADD049R,0.17667X0.1058*%
%ADD050R,0.1015X0.1455*%
*
*
*
*
G04 PC Circuitry*
G04 Layer Name ATLAS_XP2V5.pcb - circuitry*
%LPD*%
*
*
G04 PC Custom Flashes*
G04 Layer Name ATLAS_XP2V5.pcb - flashes*
%LPD*%
*
*
G04 PC Circuitry*
G04 Layer Name ATLAS_XP2V5.pcb - circuitry*
%LPD*%
*
G54D10*
G01X661375Y555799D02*
Y546449D01*
X671225*
Y555799*
X661375*
X661400Y546449D02*
Y555799D01*
X661450Y546449D02*
Y555799D01*
X661500Y546449D02*
Y555799D01*
X661550Y546449D02*
Y555799D01*
X661600Y546449D02*
Y555799D01*
X661650Y546449D02*
Y555799D01*
X661700Y546449D02*
Y555799D01*
X661750Y546449D02*
Y555799D01*
X661800Y546449D02*
Y555799D01*
X661850Y546449D02*
Y555799D01*
X661900Y546449D02*
Y555799D01*
X661950Y546449D02*
Y555799D01*
X662000Y546449D02*
Y555799D01*
X662050Y546449D02*
Y555799D01*
X662100Y546449D02*
Y555799D01*
X662150Y546449D02*
Y555799D01*
X662200Y546449D02*
Y555799D01*
X662250Y546449D02*
Y555799D01*
X662300Y546449D02*
Y555799D01*
X662350Y546449D02*
Y555799D01*
X662400Y546449D02*
Y555799D01*
X662450Y546449D02*
Y555799D01*
X662500Y546449D02*
Y555799D01*
X662550Y546449D02*
Y555799D01*
X662600Y546449D02*
Y555799D01*
X662650Y546449D02*
Y555799D01*
X662700Y546449D02*
Y555799D01*
X662750Y546449D02*
Y555799D01*
X662800Y546449D02*
Y555799D01*
X662850Y546449D02*
Y555799D01*
X662900Y546449D02*
Y555799D01*
X662950Y546449D02*
Y555799D01*
X663000Y546449D02*
Y555799D01*
X663050Y546449D02*
Y555799D01*
X663100Y546449D02*
Y555799D01*
X663150Y546449D02*
Y555799D01*
X663200Y546449D02*
Y555799D01*
X663250Y546449D02*
Y555799D01*
X663300Y546449D02*
Y555799D01*
X663350Y546449D02*
Y555799D01*
X663400Y546449D02*
Y555799D01*
X663450Y546449D02*
Y555799D01*
X663500Y546449D02*
Y555799D01*
X663550Y546449D02*
Y555799D01*
X663600Y546449D02*
Y555799D01*
X663650Y546449D02*
Y555799D01*
X663700Y546449D02*
Y555799D01*
X663750Y546449D02*
Y555799D01*
X663800Y546449D02*
Y555799D01*
X663850Y546449D02*
Y555799D01*
X663900Y546449D02*
Y555799D01*
X663950Y546449D02*
Y555799D01*
X664000Y546449D02*
Y555799D01*
X664050Y546449D02*
Y555799D01*
X664100Y546449D02*
Y555799D01*
X664150Y546449D02*
Y555799D01*
X664200Y546449D02*
Y555799D01*
X664250Y546449D02*
Y555799D01*
X664300Y546449D02*
Y555799D01*
X664350Y546449D02*
Y555799D01*
X664400Y546449D02*
Y555799D01*
X664450Y546449D02*
Y555799D01*
X664500Y546449D02*
Y555799D01*
X664550Y546449D02*
Y555799D01*
X664600Y546449D02*
Y555799D01*
X664650Y546449D02*
Y555799D01*
X664700Y546449D02*
Y555799D01*
X664750Y546449D02*
Y555799D01*
X664800Y546449D02*
Y555799D01*
X664850Y546449D02*
Y555799D01*
X664900Y546449D02*
Y555799D01*
X664950Y546449D02*
Y555799D01*
X665000Y546449D02*
Y555799D01*
X665050Y546449D02*
Y555799D01*
X665100Y546449D02*
Y555799D01*
X665150Y546449D02*
Y555799D01*
X665200Y546449D02*
Y555799D01*
X665250Y546449D02*
Y555799D01*
X665300Y546449D02*
Y555799D01*
X665350Y546449D02*
Y555799D01*
X665400Y546449D02*
Y555799D01*
X665450Y546449D02*
Y555799D01*
X665500Y546449D02*
Y555799D01*
X665550Y546449D02*
Y555799D01*
X665600Y546449D02*
Y555799D01*
X665650Y546449D02*
Y555799D01*
X665700Y546449D02*
Y555799D01*
X665750Y546449D02*
Y555799D01*
X665800Y546449D02*
Y555799D01*
X665850Y546449D02*
Y555799D01*
X665900Y546449D02*
Y555799D01*
X665950Y546449D02*
Y555799D01*
X666000Y546449D02*
Y555799D01*
X666050Y546449D02*
Y555799D01*
X666100Y546449D02*
Y555799D01*
X666150Y546449D02*
Y555799D01*
X666200Y546449D02*
Y555799D01*
X666250Y546449D02*
Y555799D01*
X666300Y546449D02*
Y555799D01*
X666350Y546449D02*
Y555799D01*
X666400Y546449D02*
Y555799D01*
X666450Y546449D02*
Y555799D01*
X666500Y546449D02*
Y555799D01*
X666550Y546449D02*
Y555799D01*
X666600Y546449D02*
Y555799D01*
X666650Y546449D02*
Y555799D01*
X666700Y546449D02*
Y555799D01*
X666750Y546449D02*
Y555799D01*
X666800Y546449D02*
Y555799D01*
X666850Y546449D02*
Y555799D01*
X666900Y546449D02*
Y555799D01*
X666950Y546449D02*
Y555799D01*
X667000Y546449D02*
Y555799D01*
X667050Y546449D02*
Y555799D01*
X667100Y546449D02*
Y555799D01*
X667150Y546449D02*
Y555799D01*
X667200Y546449D02*
Y555799D01*
X667250Y546449D02*
Y555799D01*
X667300Y546449D02*
Y555799D01*
X667350Y546449D02*
Y555799D01*
X667400Y546449D02*
Y555799D01*
X667450Y546449D02*
Y555799D01*
X667500Y546449D02*
Y555799D01*
X667550Y546449D02*
Y555799D01*
X667600Y546449D02*
Y555799D01*
X667650Y546449D02*
Y555799D01*
X667700Y546449D02*
Y555799D01*
X667750Y546449D02*
Y555799D01*
X667800Y546449D02*
Y555799D01*
X667850Y546449D02*
Y555799D01*
X667900Y546449D02*
Y555799D01*
X667950Y546449D02*
Y555799D01*
X668000Y546449D02*
Y555799D01*
X668050Y546449D02*
Y555799D01*
X668100Y546449D02*
Y555799D01*
X668150Y546449D02*
Y555799D01*
X668200Y546449D02*
Y555799D01*
X668250Y546449D02*
Y555799D01*
X668300Y546449D02*
Y555799D01*
X668350Y546449D02*
Y555799D01*
X668400Y546449D02*
Y555799D01*
X668450Y546449D02*
Y555799D01*
X668500Y546449D02*
Y555799D01*
X668550Y546449D02*
Y555799D01*
X668600Y546449D02*
Y555799D01*
X668650Y546449D02*
Y555799D01*
X668700Y546449D02*
Y555799D01*
X668750Y546449D02*
Y555799D01*
X668800Y546449D02*
Y555799D01*
X668850Y546449D02*
Y555799D01*
X668900Y546449D02*
Y555799D01*
X668950Y546449D02*
Y555799D01*
X669000Y546449D02*
Y555799D01*
X669050Y546449D02*
Y555799D01*
X669100Y546449D02*
Y555799D01*
X669150Y546449D02*
Y555799D01*
X669200Y546449D02*
Y555799D01*
X669250Y546449D02*
Y555799D01*
X669300Y546449D02*
Y555799D01*
X669350Y546449D02*
Y555799D01*
X669400Y546449D02*
Y555799D01*
X669450Y546449D02*
Y555799D01*
X669500Y546449D02*
Y555799D01*
X669550Y546449D02*
Y555799D01*
X669600Y546449D02*
Y555799D01*
X669650Y546449D02*
Y555799D01*
X669700Y546449D02*
Y555799D01*
X669750Y546449D02*
Y555799D01*
X669800Y546449D02*
Y555799D01*
X669850Y546449D02*
Y555799D01*
X669900Y546449D02*
Y555799D01*
X669950Y546449D02*
Y555799D01*
X670000Y546449D02*
Y555799D01*
X670050Y546449D02*
Y555799D01*
X670100Y546449D02*
Y555799D01*
X670150Y546449D02*
Y555799D01*
X670200Y546449D02*
Y555799D01*
X670250Y546449D02*
Y555799D01*
X670300Y546449D02*
Y555799D01*
X670350Y546449D02*
Y555799D01*
X670400Y546449D02*
Y555799D01*
X670450Y546449D02*
Y555799D01*
X670500Y546449D02*
Y555799D01*
X670550Y546449D02*
Y555799D01*
X670600Y546449D02*
Y555799D01*
X670650Y546449D02*
Y555799D01*
X670700Y546449D02*
Y555799D01*
X670750Y546449D02*
Y555799D01*
X670800Y546449D02*
Y555799D01*
X670850Y546449D02*
Y555799D01*
X670900Y546449D02*
Y555799D01*
X670950Y546449D02*
Y555799D01*
X671000Y546449D02*
Y555799D01*
X671050Y546449D02*
Y555799D01*
X671100Y546449D02*
Y555799D01*
X671150Y546449D02*
Y555799D01*
X671200Y546449D02*
Y555799D01*
X673675D02*
Y546449D01*
X681225*
Y555799*
X673675*
X673700Y546449D02*
Y555799D01*
X673750Y546449D02*
Y555799D01*
X673800Y546449D02*
Y555799D01*
X673850Y546449D02*
Y555799D01*
X673900Y546449D02*
Y555799D01*
X673950Y546449D02*
Y555799D01*
X674000Y546449D02*
Y555799D01*
X674050Y546449D02*
Y555799D01*
X674100Y546449D02*
Y555799D01*
X674150Y546449D02*
Y555799D01*
X674200Y546449D02*
Y555799D01*
X674250Y546449D02*
Y555799D01*
X674300Y546449D02*
Y555799D01*
X674350Y546449D02*
Y555799D01*
X674400Y546449D02*
Y555799D01*
X674450Y546449D02*
Y555799D01*
X674500Y546449D02*
Y555799D01*
X674550Y546449D02*
Y555799D01*
X674600Y546449D02*
Y555799D01*
X674650Y546449D02*
Y555799D01*
X674700Y546449D02*
Y555799D01*
X674750Y546449D02*
Y555799D01*
X674800Y546449D02*
Y555799D01*
X674850Y546449D02*
Y555799D01*
X674900Y546449D02*
Y555799D01*
X674950Y546449D02*
Y555799D01*
X675000Y546449D02*
Y555799D01*
X675050Y546449D02*
Y555799D01*
X675100Y546449D02*
Y555799D01*
X675150Y546449D02*
Y555799D01*
X675200Y546449D02*
Y555799D01*
X675250Y546449D02*
Y555799D01*
X675300Y546449D02*
Y555799D01*
X675350Y546449D02*
Y555799D01*
X675400Y546449D02*
Y555799D01*
X675450Y546449D02*
Y555799D01*
X675500Y546449D02*
Y555799D01*
X675550Y546449D02*
Y555799D01*
X675600Y546449D02*
Y555799D01*
X675650Y546449D02*
Y555799D01*
X675700Y546449D02*
Y555799D01*
X675750Y546449D02*
Y555799D01*
X675800Y546449D02*
Y555799D01*
X675850Y546449D02*
Y555799D01*
X675900Y546449D02*
Y555799D01*
X675950Y546449D02*
Y555799D01*
X676000Y546449D02*
Y555799D01*
X676050Y546449D02*
Y555799D01*
X676100Y546449D02*
Y555799D01*
X676150Y546449D02*
Y555799D01*
X676200Y546449D02*
Y555799D01*
X676250Y546449D02*
Y555799D01*
X676300Y546449D02*
Y555799D01*
X676350Y546449D02*
Y555799D01*
X676400Y546449D02*
Y555799D01*
X676450Y546449D02*
Y555799D01*
X676500Y546449D02*
Y555799D01*
X676550Y546449D02*
Y555799D01*
X676600Y546449D02*
Y555799D01*
X676650Y546449D02*
Y555799D01*
X676700Y546449D02*
Y555799D01*
X676750Y546449D02*
Y555799D01*
X676800Y546449D02*
Y555799D01*
X676850Y546449D02*
Y555799D01*
X676900Y546449D02*
Y555799D01*
X676950Y546449D02*
Y555799D01*
X677000Y546449D02*
Y555799D01*
X677050Y546449D02*
Y555799D01*
X677100Y546449D02*
Y555799D01*
X677150Y546449D02*
Y555799D01*
X677200Y546449D02*
Y555799D01*
X677250Y546449D02*
Y555799D01*
X677300Y546449D02*
Y555799D01*
X677350Y546449D02*
Y555799D01*
X677400Y546449D02*
Y555799D01*
X677450Y546449D02*
Y555799D01*
X677500Y546449D02*
Y555799D01*
X677550Y546449D02*
Y555799D01*
X677600Y546449D02*
Y555799D01*
X677650Y546449D02*
Y555799D01*
X677700Y546449D02*
Y555799D01*
X677750Y546449D02*
Y555799D01*
X677800Y546449D02*
Y555799D01*
X677850Y546449D02*
Y555799D01*
X677900Y546449D02*
Y555799D01*
X677950Y546449D02*
Y555799D01*
X678000Y546449D02*
Y555799D01*
X678050Y546449D02*
Y555799D01*
X678100Y546449D02*
Y555799D01*
X678150Y546449D02*
Y555799D01*
X678200Y546449D02*
Y555799D01*
X678250Y546449D02*
Y555799D01*
X678300Y546449D02*
Y555799D01*
X678350Y546449D02*
Y555799D01*
X678400Y546449D02*
Y555799D01*
X678450Y546449D02*
Y555799D01*
X678500Y546449D02*
Y555799D01*
X678550Y546449D02*
Y555799D01*
X678600Y546449D02*
Y555799D01*
X678650Y546449D02*
Y555799D01*
X678700Y546449D02*
Y555799D01*
X678750Y546449D02*
Y555799D01*
X678800Y546449D02*
Y555799D01*
X678850Y546449D02*
Y555799D01*
X678900Y546449D02*
Y555799D01*
X678950Y546449D02*
Y555799D01*
X679000Y546449D02*
Y555799D01*
X679050Y546449D02*
Y555799D01*
X679100Y546449D02*
Y555799D01*
X679150Y546449D02*
Y555799D01*
X679200Y546449D02*
Y555799D01*
X679250Y546449D02*
Y555799D01*
X679300Y546449D02*
Y555799D01*
X679350Y546449D02*
Y555799D01*
X679400Y546449D02*
Y555799D01*
X679450Y546449D02*
Y555799D01*
X679500Y546449D02*
Y555799D01*
X679550Y546449D02*
Y555799D01*
X679600Y546449D02*
Y555799D01*
X679650Y546449D02*
Y555799D01*
X679700Y546449D02*
Y555799D01*
X679750Y546449D02*
Y555799D01*
X679800Y546449D02*
Y555799D01*
X679850Y546449D02*
Y555799D01*
X679900Y546449D02*
Y555799D01*
X679950Y546449D02*
Y555799D01*
X680000Y546449D02*
Y555799D01*
X680050Y546449D02*
Y555799D01*
X680100Y546449D02*
Y555799D01*
X680150Y546449D02*
Y555799D01*
X680200Y546449D02*
Y555799D01*
X680250Y546449D02*
Y555799D01*
X680300Y546449D02*
Y555799D01*
X680350Y546449D02*
Y555799D01*
X680400Y546449D02*
Y555799D01*
X680450Y546449D02*
Y555799D01*
X680500Y546449D02*
Y555799D01*
X680550Y546449D02*
Y555799D01*
X680600Y546449D02*
Y555799D01*
X680650Y546449D02*
Y555799D01*
X680700Y546449D02*
Y555799D01*
X680750Y546449D02*
Y555799D01*
X680800Y546449D02*
Y555799D01*
X680850Y546449D02*
Y555799D01*
X680900Y546449D02*
Y555799D01*
X680950Y546449D02*
Y555799D01*
X681000Y546449D02*
Y555799D01*
X681050Y546449D02*
Y555799D01*
X681100Y546449D02*
Y555799D01*
X681150Y546449D02*
Y555799D01*
X681200Y546449D02*
Y555799D01*
X683675D02*
Y546449D01*
X691225*
Y555799*
X683675*
X683700Y546449D02*
Y555799D01*
X683750Y546449D02*
Y555799D01*
X683800Y546449D02*
Y555799D01*
X683850Y546449D02*
Y555799D01*
X683900Y546449D02*
Y555799D01*
X683950Y546449D02*
Y555799D01*
X684000Y546449D02*
Y555799D01*
X684050Y546449D02*
Y555799D01*
X684100Y546449D02*
Y555799D01*
X684150Y546449D02*
Y555799D01*
X684200Y546449D02*
Y555799D01*
X684250Y546449D02*
Y555799D01*
X684300Y546449D02*
Y555799D01*
X684350Y546449D02*
Y555799D01*
X684400Y546449D02*
Y555799D01*
X684450Y546449D02*
Y555799D01*
X684500Y546449D02*
Y555799D01*
X684550Y546449D02*
Y555799D01*
X684600Y546449D02*
Y555799D01*
X684650Y546449D02*
Y555799D01*
X684700Y546449D02*
Y555799D01*
X684750Y546449D02*
Y555799D01*
X684800Y546449D02*
Y555799D01*
X684850Y546449D02*
Y555799D01*
X684900Y546449D02*
Y555799D01*
X684950Y546449D02*
Y555799D01*
X685000Y546449D02*
Y555799D01*
X685050Y546449D02*
Y555799D01*
X685100Y546449D02*
Y555799D01*
X685150Y546449D02*
Y555799D01*
X685200Y546449D02*
Y555799D01*
X685250Y546449D02*
Y555799D01*
X685300Y546449D02*
Y555799D01*
X685350Y546449D02*
Y555799D01*
X685400Y546449D02*
Y555799D01*
X685450Y546449D02*
Y555799D01*
X685500Y546449D02*
Y555799D01*
X685550Y546449D02*
Y555799D01*
X685600Y546449D02*
Y555799D01*
X685650Y546449D02*
Y555799D01*
X685700Y546449D02*
Y555799D01*
X685750Y546449D02*
Y555799D01*
X685800Y546449D02*
Y555799D01*
X685850Y546449D02*
Y555799D01*
X685900Y546449D02*
Y555799D01*
X685950Y546449D02*
Y555799D01*
X686000Y546449D02*
Y555799D01*
X686050Y546449D02*
Y555799D01*
X686100Y546449D02*
Y555799D01*
X686150Y546449D02*
Y555799D01*
X686200Y546449D02*
Y555799D01*
X686250Y546449D02*
Y555799D01*
X686300Y546449D02*
Y555799D01*
X686350Y546449D02*
Y555799D01*
X686400Y546449D02*
Y555799D01*
X686450Y546449D02*
Y555799D01*
X686500Y546449D02*
Y555799D01*
X686550Y546449D02*
Y555799D01*
X686600Y546449D02*
Y555799D01*
X686650Y546449D02*
Y555799D01*
X686700Y546449D02*
Y555799D01*
X686750Y546449D02*
Y555799D01*
X686800Y546449D02*
Y555799D01*
X686850Y546449D02*
Y555799D01*
X686900Y546449D02*
Y555799D01*
X686950Y546449D02*
Y555799D01*
X687000Y546449D02*
Y555799D01*
X687050Y546449D02*
Y555799D01*
X687100Y546449D02*
Y555799D01*
X687150Y546449D02*
Y555799D01*
X687200Y546449D02*
Y555799D01*
X687250Y546449D02*
Y555799D01*
X687300Y546449D02*
Y555799D01*
X687350Y546449D02*
Y555799D01*
X687400Y546449D02*
Y555799D01*
X687450Y546449D02*
Y555799D01*
X687500Y546449D02*
Y555799D01*
X687550Y546449D02*
Y555799D01*
X687600Y546449D02*
Y555799D01*
X687650Y546449D02*
Y555799D01*
X687700Y546449D02*
Y555799D01*
X687750Y546449D02*
Y555799D01*
X687800Y546449D02*
Y555799D01*
X687850Y546449D02*
Y555799D01*
X687900Y546449D02*
Y555799D01*
X687950Y546449D02*
Y555799D01*
X688000Y546449D02*
Y555799D01*
X688050Y546449D02*
Y555799D01*
X688100Y546449D02*
Y555799D01*
X688150Y546449D02*
Y555799D01*
X688200Y546449D02*
Y555799D01*
X688250Y546449D02*
Y555799D01*
X688300Y546449D02*
Y555799D01*
X688350Y546449D02*
Y555799D01*
X688400Y546449D02*
Y555799D01*
X688450Y546449D02*
Y555799D01*
X688500Y546449D02*
Y555799D01*
X688550Y546449D02*
Y555799D01*
X688600Y546449D02*
Y555799D01*
X688650Y546449D02*
Y555799D01*
X688700Y546449D02*
Y555799D01*
X688750Y546449D02*
Y555799D01*
X688800Y546449D02*
Y555799D01*
X688850Y546449D02*
Y555799D01*
X688900Y546449D02*
Y555799D01*
X688950Y546449D02*
Y555799D01*
X689000Y546449D02*
Y555799D01*
X689050Y546449D02*
Y555799D01*
X689100Y546449D02*
Y555799D01*
X689150Y546449D02*
Y555799D01*
X689200Y546449D02*
Y555799D01*
X689250Y546449D02*
Y555799D01*
X689300Y546449D02*
Y555799D01*
X689350Y546449D02*
Y555799D01*
X689400Y546449D02*
Y555799D01*
X689450Y546449D02*
Y555799D01*
X689500Y546449D02*
Y555799D01*
X689550Y546449D02*
Y555799D01*
X689600Y546449D02*
Y555799D01*
X689650Y546449D02*
Y555799D01*
X689700Y546449D02*
Y555799D01*
X689750Y546449D02*
Y555799D01*
X689800Y546449D02*
Y555799D01*
X689850Y546449D02*
Y555799D01*
X689900Y546449D02*
Y555799D01*
X689950Y546449D02*
Y555799D01*
X690000Y546449D02*
Y555799D01*
X690050Y546449D02*
Y555799D01*
X690100Y546449D02*
Y555799D01*
X690150Y546449D02*
Y555799D01*
X690200Y546449D02*
Y555799D01*
X690250Y546449D02*
Y555799D01*
X690300Y546449D02*
Y555799D01*
X690350Y546449D02*
Y555799D01*
X690400Y546449D02*
Y555799D01*
X690450Y546449D02*
Y555799D01*
X690500Y546449D02*
Y555799D01*
X690550Y546449D02*
Y555799D01*
X690600Y546449D02*
Y555799D01*
X690650Y546449D02*
Y555799D01*
X690700Y546449D02*
Y555799D01*
X690750Y546449D02*
Y555799D01*
X690800Y546449D02*
Y555799D01*
X690850Y546449D02*
Y555799D01*
X690900Y546449D02*
Y555799D01*
X690950Y546449D02*
Y555799D01*
X691000Y546449D02*
Y555799D01*
X691050Y546449D02*
Y555799D01*
X691100Y546449D02*
Y555799D01*
X691150Y546449D02*
Y555799D01*
X691200Y546449D02*
Y555799D01*
X693675D02*
Y546449D01*
X703825*
Y555799*
X693675*
X693700Y546449D02*
Y555799D01*
X693750Y546449D02*
Y555799D01*
X693800Y546449D02*
Y555799D01*
X693850Y546449D02*
Y555799D01*
X693900Y546449D02*
Y555799D01*
X693950Y546449D02*
Y555799D01*
X694000Y546449D02*
Y555799D01*
X694050Y546449D02*
Y555799D01*
X694100Y546449D02*
Y555799D01*
X694150Y546449D02*
Y555799D01*
X694200Y546449D02*
Y555799D01*
X694250Y546449D02*
Y555799D01*
X694300Y546449D02*
Y555799D01*
X694350Y546449D02*
Y555799D01*
X694400Y546449D02*
Y555799D01*
X694450Y546449D02*
Y555799D01*
X694500Y546449D02*
Y555799D01*
X694550Y546449D02*
Y555799D01*
X694600Y546449D02*
Y555799D01*
X694650Y546449D02*
Y555799D01*
X694700Y546449D02*
Y555799D01*
X694750Y546449D02*
Y555799D01*
X694800Y546449D02*
Y555799D01*
X694850Y546449D02*
Y555799D01*
X694900Y546449D02*
Y555799D01*
X694950Y546449D02*
Y555799D01*
X695000Y546449D02*
Y555799D01*
X695050Y546449D02*
Y555799D01*
X695100Y546449D02*
Y555799D01*
X695150Y546449D02*
Y555799D01*
X695200Y546449D02*
Y555799D01*
X695250Y546449D02*
Y555799D01*
X695300Y546449D02*
Y555799D01*
X695350Y546449D02*
Y555799D01*
X695400Y546449D02*
Y555799D01*
X695450Y546449D02*
Y555799D01*
X695500Y546449D02*
Y555799D01*
X695550Y546449D02*
Y555799D01*
X695600Y546449D02*
Y555799D01*
X695650Y546449D02*
Y555799D01*
X695700Y546449D02*
Y555799D01*
X695750Y546449D02*
Y555799D01*
X695800Y546449D02*
Y555799D01*
X695850Y546449D02*
Y555799D01*
X695900Y546449D02*
Y555799D01*
X695950Y546449D02*
Y555799D01*
X696000Y546449D02*
Y555799D01*
X696050Y546449D02*
Y555799D01*
X696100Y546449D02*
Y555799D01*
X696150Y546449D02*
Y555799D01*
X696200Y546449D02*
Y555799D01*
X696250Y546449D02*
Y555799D01*
X696300Y546449D02*
Y555799D01*
X696350Y546449D02*
Y555799D01*
X696400Y546449D02*
Y555799D01*
X696450Y546449D02*
Y555799D01*
X696500Y546449D02*
Y555799D01*
X696550Y546449D02*
Y555799D01*
X696600Y546449D02*
Y555799D01*
X696650Y546449D02*
Y555799D01*
X696700Y546449D02*
Y555799D01*
X696750Y546449D02*
Y555799D01*
X696800Y546449D02*
Y555799D01*
X696850Y546449D02*
Y555799D01*
X696900Y546449D02*
Y555799D01*
X696950Y546449D02*
Y555799D01*
X697000Y546449D02*
Y555799D01*
X697050Y546449D02*
Y555799D01*
X697100Y546449D02*
Y555799D01*
X697150Y546449D02*
Y555799D01*
X697200Y546449D02*
Y555799D01*
X697250Y546449D02*
Y555799D01*
X697300Y546449D02*
Y555799D01*
X697350Y546449D02*
Y555799D01*
X697400Y546449D02*
Y555799D01*
X697450Y546449D02*
Y555799D01*
X697500Y546449D02*
Y555799D01*
X697550Y546449D02*
Y555799D01*
X697600Y546449D02*
Y555799D01*
X697650Y546449D02*
Y555799D01*
X697700Y546449D02*
Y555799D01*
X697750Y546449D02*
Y555799D01*
X697800Y546449D02*
Y555799D01*
X697850Y546449D02*
Y555799D01*
X697900Y546449D02*
Y555799D01*
X697950Y546449D02*
Y555799D01*
X698000Y546449D02*
Y555799D01*
X698050Y546449D02*
Y555799D01*
X698100Y546449D02*
Y555799D01*
X698150Y546449D02*
Y555799D01*
X698200Y546449D02*
Y555799D01*
X698250Y546449D02*
Y555799D01*
X698300Y546449D02*
Y555799D01*
X698350Y546449D02*
Y555799D01*
X698400Y546449D02*
Y555799D01*
X698450Y546449D02*
Y555799D01*
X698500Y546449D02*
Y555799D01*
X698550Y546449D02*
Y555799D01*
X698600Y546449D02*
Y555799D01*
X698650Y546449D02*
Y555799D01*
X698700Y546449D02*
Y555799D01*
X698750Y546449D02*
Y555799D01*
X698800Y546449D02*
Y555799D01*
X698850Y546449D02*
Y555799D01*
X698900Y546449D02*
Y555799D01*
X698950Y546449D02*
Y555799D01*
X699000Y546449D02*
Y555799D01*
X699050Y546449D02*
Y555799D01*
X699100Y546449D02*
Y555799D01*
X699150Y546449D02*
Y555799D01*
X699200Y546449D02*
Y555799D01*
X699250Y546449D02*
Y555799D01*
X699300Y546449D02*
Y555799D01*
X699350Y546449D02*
Y555799D01*
X699400Y546449D02*
Y555799D01*
X699450Y546449D02*
Y555799D01*
X699500Y546449D02*
Y555799D01*
X699550Y546449D02*
Y555799D01*
X699600Y546449D02*
Y555799D01*
X699650Y546449D02*
Y555799D01*
X699700Y546449D02*
Y555799D01*
X699750Y546449D02*
Y555799D01*
X699800Y546449D02*
Y555799D01*
X699850Y546449D02*
Y555799D01*
X699900Y546449D02*
Y555799D01*
X699950Y546449D02*
Y555799D01*
X700000Y546449D02*
Y555799D01*
X700050Y546449D02*
Y555799D01*
X700100Y546449D02*
Y555799D01*
X700150Y546449D02*
Y555799D01*
X700200Y546449D02*
Y555799D01*
X700250Y546449D02*
Y555799D01*
X700300Y546449D02*
Y555799D01*
X700350Y546449D02*
Y555799D01*
X700400Y546449D02*
Y555799D01*
X700450Y546449D02*
Y555799D01*
X700500Y546449D02*
Y555799D01*
X700550Y546449D02*
Y555799D01*
X700600Y546449D02*
Y555799D01*
X700650Y546449D02*
Y555799D01*
X700700Y546449D02*
Y555799D01*
X700750Y546449D02*
Y555799D01*
X700800Y546449D02*
Y555799D01*
X700850Y546449D02*
Y555799D01*
X700900Y546449D02*
Y555799D01*
X700950Y546449D02*
Y555799D01*
X701000Y546449D02*
Y555799D01*
X701050Y546449D02*
Y555799D01*
X701100Y546449D02*
Y555799D01*
X701150Y546449D02*
Y555799D01*
X701200Y546449D02*
Y555799D01*
X701250Y546449D02*
Y555799D01*
X701300Y546449D02*
Y555799D01*
X701350Y546449D02*
Y555799D01*
X701400Y546449D02*
Y555799D01*
X701450Y546449D02*
Y555799D01*
X701500Y546449D02*
Y555799D01*
X701550Y546449D02*
Y555799D01*
X701600Y546449D02*
Y555799D01*
X701650Y546449D02*
Y555799D01*
X701700Y546449D02*
Y555799D01*
X701750Y546449D02*
Y555799D01*
X701800Y546449D02*
Y555799D01*
X701850Y546449D02*
Y555799D01*
X701900Y546449D02*
Y555799D01*
X701950Y546449D02*
Y555799D01*
X702000Y546449D02*
Y555799D01*
X702050Y546449D02*
Y555799D01*
X702100Y546449D02*
Y555799D01*
X702150Y546449D02*
Y555799D01*
X702200Y546449D02*
Y555799D01*
X702250Y546449D02*
Y555799D01*
X702300Y546449D02*
Y555799D01*
X702350Y546449D02*
Y555799D01*
X702400Y546449D02*
Y555799D01*
X702450Y546449D02*
Y555799D01*
X702500Y546449D02*
Y555799D01*
X702550Y546449D02*
Y555799D01*
X702600Y546449D02*
Y555799D01*
X702650Y546449D02*
Y555799D01*
X702700Y546449D02*
Y555799D01*
X702750Y546449D02*
Y555799D01*
X702800Y546449D02*
Y555799D01*
X702850Y546449D02*
Y555799D01*
X702900Y546449D02*
Y555799D01*
X702950Y546449D02*
Y555799D01*
X703000Y546449D02*
Y555799D01*
X703050Y546449D02*
Y555799D01*
X703100Y546449D02*
Y555799D01*
X703150Y546449D02*
Y555799D01*
X703200Y546449D02*
Y555799D01*
X703250Y546449D02*
Y555799D01*
X703300Y546449D02*
Y555799D01*
X703350Y546449D02*
Y555799D01*
X703400Y546449D02*
Y555799D01*
X703450Y546449D02*
Y555799D01*
X703500Y546449D02*
Y555799D01*
X703550Y546449D02*
Y555799D01*
X703600Y546449D02*
Y555799D01*
X703650Y546449D02*
Y555799D01*
X703700Y546449D02*
Y555799D01*
X703750Y546449D02*
Y555799D01*
X703800Y546449D02*
Y555799D01*
X661375Y565799D02*
Y558249D01*
X671225*
Y565799*
X661375*
X661400Y558249D02*
Y565799D01*
X661450Y558249D02*
Y565799D01*
X661500Y558249D02*
Y565799D01*
X661550Y558249D02*
Y565799D01*
X661600Y558249D02*
Y565799D01*
X661650Y558249D02*
Y565799D01*
X661700Y558249D02*
Y565799D01*
X661750Y558249D02*
Y565799D01*
X661800Y558249D02*
Y565799D01*
X661850Y558249D02*
Y565799D01*
X661900Y558249D02*
Y565799D01*
X661950Y558249D02*
Y565799D01*
X662000Y558249D02*
Y565799D01*
X662050Y558249D02*
Y565799D01*
X662100Y558249D02*
Y565799D01*
X662150Y558249D02*
Y565799D01*
X662200Y558249D02*
Y565799D01*
X662250Y558249D02*
Y565799D01*
X662300Y558249D02*
Y565799D01*
X662350Y558249D02*
Y565799D01*
X662400Y558249D02*
Y565799D01*
X662450Y558249D02*
Y565799D01*
X662500Y558249D02*
Y565799D01*
X662550Y558249D02*
Y565799D01*
X662600Y558249D02*
Y565799D01*
X662650Y558249D02*
Y565799D01*
X662700Y558249D02*
Y565799D01*
X662750Y558249D02*
Y565799D01*
X662800Y558249D02*
Y565799D01*
X662850Y558249D02*
Y565799D01*
X662900Y558249D02*
Y565799D01*
X662950Y558249D02*
Y565799D01*
X663000Y558249D02*
Y565799D01*
X663050Y558249D02*
Y565799D01*
X663100Y558249D02*
Y565799D01*
X663150Y558249D02*
Y565799D01*
X663200Y558249D02*
Y565799D01*
X663250Y558249D02*
Y565799D01*
X663300Y558249D02*
Y565799D01*
X663350Y558249D02*
Y565799D01*
X663400Y558249D02*
Y565799D01*
X663450Y558249D02*
Y565799D01*
X663500Y558249D02*
Y565799D01*
X663550Y558249D02*
Y565799D01*
X663600Y558249D02*
Y565799D01*
X663650Y558249D02*
Y565799D01*
X663700Y558249D02*
Y565799D01*
X663750Y558249D02*
Y565799D01*
X663800Y558249D02*
Y565799D01*
X663850Y558249D02*
Y565799D01*
X663900Y558249D02*
Y565799D01*
X663950Y558249D02*
Y565799D01*
X664000Y558249D02*
Y565799D01*
X664050Y558249D02*
Y565799D01*
X664100Y558249D02*
Y565799D01*
X664150Y558249D02*
Y565799D01*
X664200Y558249D02*
Y565799D01*
X664250Y558249D02*
Y565799D01*
X664300Y558249D02*
Y565799D01*
X664350Y558249D02*
Y565799D01*
X664400Y558249D02*
Y565799D01*
X664450Y558249D02*
Y565799D01*
X664500Y558249D02*
Y565799D01*
X664550Y558249D02*
Y565799D01*
X664600Y558249D02*
Y565799D01*
X664650Y558249D02*
Y565799D01*
X664700Y558249D02*
Y565799D01*
X664750Y558249D02*
Y565799D01*
X664800Y558249D02*
Y565799D01*
X664850Y558249D02*
Y565799D01*
X664900Y558249D02*
Y565799D01*
X664950Y558249D02*
Y565799D01*
X665000Y558249D02*
Y565799D01*
X665050Y558249D02*
Y565799D01*
X665100Y558249D02*
Y565799D01*
X665150Y558249D02*
Y565799D01*
X665200Y558249D02*
Y565799D01*
X665250Y558249D02*
Y565799D01*
X665300Y558249D02*
Y565799D01*
X665350Y558249D02*
Y565799D01*
X665400Y558249D02*
Y565799D01*
X665450Y558249D02*
Y565799D01*
X665500Y558249D02*
Y565799D01*
X665550Y558249D02*
Y565799D01*
X665600Y558249D02*
Y565799D01*
X665650Y558249D02*
Y565799D01*
X665700Y558249D02*
Y565799D01*
X665750Y558249D02*
Y565799D01*
X665800Y558249D02*
Y565799D01*
X665850Y558249D02*
Y565799D01*
X665900Y558249D02*
Y565799D01*
X665950Y558249D02*
Y565799D01*
X666000Y558249D02*
Y565799D01*
X666050Y558249D02*
Y565799D01*
X666100Y558249D02*
Y565799D01*
X666150Y558249D02*
Y565799D01*
X666200Y558249D02*
Y565799D01*
X666250Y558249D02*
Y565799D01*
X666300Y558249D02*
Y565799D01*
X666350Y558249D02*
Y565799D01*
X666400Y558249D02*
Y565799D01*
X666450Y558249D02*
Y565799D01*
X666500Y558249D02*
Y565799D01*
X666550Y558249D02*
Y565799D01*
X666600Y558249D02*
Y565799D01*
X666650Y558249D02*
Y565799D01*
X666700Y558249D02*
Y565799D01*
X666750Y558249D02*
Y565799D01*
X666800Y558249D02*
Y565799D01*
X666850Y558249D02*
Y565799D01*
X666900Y558249D02*
Y565799D01*
X666950Y558249D02*
Y565799D01*
X667000Y558249D02*
Y565799D01*
X667050Y558249D02*
Y565799D01*
X667100Y558249D02*
Y565799D01*
X667150Y558249D02*
Y565799D01*
X667200Y558249D02*
Y565799D01*
X667250Y558249D02*
Y565799D01*
X667300Y558249D02*
Y565799D01*
X667350Y558249D02*
Y565799D01*
X667400Y558249D02*
Y565799D01*
X667450Y558249D02*
Y565799D01*
X667500Y558249D02*
Y565799D01*
X667550Y558249D02*
Y565799D01*
X667600Y558249D02*
Y565799D01*
X667650Y558249D02*
Y565799D01*
X667700Y558249D02*
Y565799D01*
X667750Y558249D02*
Y565799D01*
X667800Y558249D02*
Y565799D01*
X667850Y558249D02*
Y565799D01*
X667900Y558249D02*
Y565799D01*
X667950Y558249D02*
Y565799D01*
X668000Y558249D02*
Y565799D01*
X668050Y558249D02*
Y565799D01*
X668100Y558249D02*
Y565799D01*
X668150Y558249D02*
Y565799D01*
X668200Y558249D02*
Y565799D01*
X668250Y558249D02*
Y565799D01*
X668300Y558249D02*
Y565799D01*
X668350Y558249D02*
Y565799D01*
X668400Y558249D02*
Y565799D01*
X668450Y558249D02*
Y565799D01*
X668500Y558249D02*
Y565799D01*
X668550Y558249D02*
Y565799D01*
X668600Y558249D02*
Y565799D01*
X668650Y558249D02*
Y565799D01*
X668700Y558249D02*
Y565799D01*
X668750Y558249D02*
Y565799D01*
X668800Y558249D02*
Y565799D01*
X668850Y558249D02*
Y565799D01*
X668900Y558249D02*
Y565799D01*
X668950Y558249D02*
Y565799D01*
X669000Y558249D02*
Y565799D01*
X669050Y558249D02*
Y565799D01*
X669100Y558249D02*
Y565799D01*
X669150Y558249D02*
Y565799D01*
X669200Y558249D02*
Y565799D01*
X669250Y558249D02*
Y565799D01*
X669300Y558249D02*
Y565799D01*
X669350Y558249D02*
Y565799D01*
X669400Y558249D02*
Y565799D01*
X669450Y558249D02*
Y565799D01*
X669500Y558249D02*
Y565799D01*
X669550Y558249D02*
Y565799D01*
X669600Y558249D02*
Y565799D01*
X669650Y558249D02*
Y565799D01*
X669700Y558249D02*
Y565799D01*
X669750Y558249D02*
Y565799D01*
X669800Y558249D02*
Y565799D01*
X669850Y558249D02*
Y565799D01*
X669900Y558249D02*
Y565799D01*
X669950Y558249D02*
Y565799D01*
X670000Y558249D02*
Y565799D01*
X670050Y558249D02*
Y565799D01*
X670100Y558249D02*
Y565799D01*
X670150Y558249D02*
Y565799D01*
X670200Y558249D02*
Y565799D01*
X670250Y558249D02*
Y565799D01*
X670300Y558249D02*
Y565799D01*
X670350Y558249D02*
Y565799D01*
X670400Y558249D02*
Y565799D01*
X670450Y558249D02*
Y565799D01*
X670500Y558249D02*
Y565799D01*
X670550Y558249D02*
Y565799D01*
X670600Y558249D02*
Y565799D01*
X670650Y558249D02*
Y565799D01*
X670700Y558249D02*
Y565799D01*
X670750Y558249D02*
Y565799D01*
X670800Y558249D02*
Y565799D01*
X670850Y558249D02*
Y565799D01*
X670900Y558249D02*
Y565799D01*
X670950Y558249D02*
Y565799D01*
X671000Y558249D02*
Y565799D01*
X671050Y558249D02*
Y565799D01*
X671100Y558249D02*
Y565799D01*
X671150Y558249D02*
Y565799D01*
X671200Y558249D02*
Y565799D01*
X661375Y575799D02*
Y568249D01*
X671225*
Y575799*
X661375*
X661400Y568249D02*
Y575799D01*
X661450Y568249D02*
Y575799D01*
X661500Y568249D02*
Y575799D01*
X661550Y568249D02*
Y575799D01*
X661600Y568249D02*
Y575799D01*
X661650Y568249D02*
Y575799D01*
X661700Y568249D02*
Y575799D01*
X661750Y568249D02*
Y575799D01*
X661800Y568249D02*
Y575799D01*
X661850Y568249D02*
Y575799D01*
X661900Y568249D02*
Y575799D01*
X661950Y568249D02*
Y575799D01*
X662000Y568249D02*
Y575799D01*
X662050Y568249D02*
Y575799D01*
X662100Y568249D02*
Y575799D01*
X662150Y568249D02*
Y575799D01*
X662200Y568249D02*
Y575799D01*
X662250Y568249D02*
Y575799D01*
X662300Y568249D02*
Y575799D01*
X662350Y568249D02*
Y575799D01*
X662400Y568249D02*
Y575799D01*
X662450Y568249D02*
Y575799D01*
X662500Y568249D02*
Y575799D01*
X662550Y568249D02*
Y575799D01*
X662600Y568249D02*
Y575799D01*
X662650Y568249D02*
Y575799D01*
X662700Y568249D02*
Y575799D01*
X662750Y568249D02*
Y575799D01*
X662800Y568249D02*
Y575799D01*
X662850Y568249D02*
Y575799D01*
X662900Y568249D02*
Y575799D01*
X662950Y568249D02*
Y575799D01*
X663000Y568249D02*
Y575799D01*
X663050Y568249D02*
Y575799D01*
X663100Y568249D02*
Y575799D01*
X663150Y568249D02*
Y575799D01*
X663200Y568249D02*
Y575799D01*
X663250Y568249D02*
Y575799D01*
X663300Y568249D02*
Y575799D01*
X663350Y568249D02*
Y575799D01*
X663400Y568249D02*
Y575799D01*
X663450Y568249D02*
Y575799D01*
X663500Y568249D02*
Y575799D01*
X663550Y568249D02*
Y575799D01*
X663600Y568249D02*
Y575799D01*
X663650Y568249D02*
Y575799D01*
X663700Y568249D02*
Y575799D01*
X663750Y568249D02*
Y575799D01*
X663800Y568249D02*
Y575799D01*
X663850Y568249D02*
Y575799D01*
X663900Y568249D02*
Y575799D01*
X663950Y568249D02*
Y575799D01*
X664000Y568249D02*
Y575799D01*
X664050Y568249D02*
Y575799D01*
X664100Y568249D02*
Y575799D01*
X664150Y568249D02*
Y575799D01*
X664200Y568249D02*
Y575799D01*
X664250Y568249D02*
Y575799D01*
X664300Y568249D02*
Y575799D01*
X664350Y568249D02*
Y575799D01*
X664400Y568249D02*
Y575799D01*
X664450Y568249D02*
Y575799D01*
X664500Y568249D02*
Y575799D01*
X664550Y568249D02*
Y575799D01*
X664600Y568249D02*
Y575799D01*
X664650Y568249D02*
Y575799D01*
X664700Y568249D02*
Y575799D01*
X664750Y568249D02*
Y575799D01*
X664800Y568249D02*
Y575799D01*
X664850Y568249D02*
Y575799D01*
X664900Y568249D02*
Y575799D01*
X664950Y568249D02*
Y575799D01*
X665000Y568249D02*
Y575799D01*
X665050Y568249D02*
Y575799D01*
X665100Y568249D02*
Y575799D01*
X665150Y568249D02*
Y575799D01*
X665200Y568249D02*
Y575799D01*
X665250Y568249D02*
Y575799D01*
X665300Y568249D02*
Y575799D01*
X665350Y568249D02*
Y575799D01*
X665400Y568249D02*
Y575799D01*
X665450Y568249D02*
Y575799D01*
X665500Y568249D02*
Y575799D01*
X665550Y568249D02*
Y575799D01*
X665600Y568249D02*
Y575799D01*
X665650Y568249D02*
Y575799D01*
X665700Y568249D02*
Y575799D01*
X665750Y568249D02*
Y575799D01*
X665800Y568249D02*
Y575799D01*
X665850Y568249D02*
Y575799D01*
X665900Y568249D02*
Y575799D01*
X665950Y568249D02*
Y575799D01*
X666000Y568249D02*
Y575799D01*
X666050Y568249D02*
Y575799D01*
X666100Y568249D02*
Y575799D01*
X666150Y568249D02*
Y575799D01*
X666200Y568249D02*
Y575799D01*
X666250Y568249D02*
Y575799D01*
X666300Y568249D02*
Y575799D01*
X666350Y568249D02*
Y575799D01*
X666400Y568249D02*
Y575799D01*
X666450Y568249D02*
Y575799D01*
X666500Y568249D02*
Y575799D01*
X666550Y568249D02*
Y575799D01*
X666600Y568249D02*
Y575799D01*
X666650Y568249D02*
Y575799D01*
X666700Y568249D02*
Y575799D01*
X666750Y568249D02*
Y575799D01*
X666800Y568249D02*
Y575799D01*
X666850Y568249D02*
Y575799D01*
X666900Y568249D02*
Y575799D01*
X666950Y568249D02*
Y575799D01*
X667000Y568249D02*
Y575799D01*
X667050Y568249D02*
Y575799D01*
X667100Y568249D02*
Y575799D01*
X667150Y568249D02*
Y575799D01*
X667200Y568249D02*
Y575799D01*
X667250Y568249D02*
Y575799D01*
X667300Y568249D02*
Y575799D01*
X667350Y568249D02*
Y575799D01*
X667400Y568249D02*
Y575799D01*
X667450Y568249D02*
Y575799D01*
X667500Y568249D02*
Y575799D01*
X667550Y568249D02*
Y575799D01*
X667600Y568249D02*
Y575799D01*
X667650Y568249D02*
Y575799D01*
X667700Y568249D02*
Y575799D01*
X667750Y568249D02*
Y575799D01*
X667800Y568249D02*
Y575799D01*
X667850Y568249D02*
Y575799D01*
X667900Y568249D02*
Y575799D01*
X667950Y568249D02*
Y575799D01*
X668000Y568249D02*
Y575799D01*
X668050Y568249D02*
Y575799D01*
X668100Y568249D02*
Y575799D01*
X668150Y568249D02*
Y575799D01*
X668200Y568249D02*
Y575799D01*
X668250Y568249D02*
Y575799D01*
X668300Y568249D02*
Y575799D01*
X668350Y568249D02*
Y575799D01*
X668400Y568249D02*
Y575799D01*
X668450Y568249D02*
Y575799D01*
X668500Y568249D02*
Y575799D01*
X668550Y568249D02*
Y575799D01*
X668600Y568249D02*
Y575799D01*
X668650Y568249D02*
Y575799D01*
X668700Y568249D02*
Y575799D01*
X668750Y568249D02*
Y575799D01*
X668800Y568249D02*
Y575799D01*
X668850Y568249D02*
Y575799D01*
X668900Y568249D02*
Y575799D01*
X668950Y568249D02*
Y575799D01*
X669000Y568249D02*
Y575799D01*
X669050Y568249D02*
Y575799D01*
X669100Y568249D02*
Y575799D01*
X669150Y568249D02*
Y575799D01*
X669200Y568249D02*
Y575799D01*
X669250Y568249D02*
Y575799D01*
X669300Y568249D02*
Y575799D01*
X669350Y568249D02*
Y575799D01*
X669400Y568249D02*
Y575799D01*
X669450Y568249D02*
Y575799D01*
X669500Y568249D02*
Y575799D01*
X669550Y568249D02*
Y575799D01*
X669600Y568249D02*
Y575799D01*
X669650Y568249D02*
Y575799D01*
X669700Y568249D02*
Y575799D01*
X669750Y568249D02*
Y575799D01*
X669800Y568249D02*
Y575799D01*
X669850Y568249D02*
Y575799D01*
X669900Y568249D02*
Y575799D01*
X669950Y568249D02*
Y575799D01*
X670000Y568249D02*
Y575799D01*
X670050Y568249D02*
Y575799D01*
X670100Y568249D02*
Y575799D01*
X670150Y568249D02*
Y575799D01*
X670200Y568249D02*
Y575799D01*
X670250Y568249D02*
Y575799D01*
X670300Y568249D02*
Y575799D01*
X670350Y568249D02*
Y575799D01*
X670400Y568249D02*
Y575799D01*
X670450Y568249D02*
Y575799D01*
X670500Y568249D02*
Y575799D01*
X670550Y568249D02*
Y575799D01*
X670600Y568249D02*
Y575799D01*
X670650Y568249D02*
Y575799D01*
X670700Y568249D02*
Y575799D01*
X670750Y568249D02*
Y575799D01*
X670800Y568249D02*
Y575799D01*
X670850Y568249D02*
Y575799D01*
X670900Y568249D02*
Y575799D01*
X670950Y568249D02*
Y575799D01*
X671000Y568249D02*
Y575799D01*
X671050Y568249D02*
Y575799D01*
X671100Y568249D02*
Y575799D01*
X671150Y568249D02*
Y575799D01*
X671200Y568249D02*
Y575799D01*
X661375Y587599D02*
Y578249D01*
X671225*
Y587599*
X661375*
X661400Y578249D02*
Y587599D01*
X661450Y578249D02*
Y587599D01*
X661500Y578249D02*
Y587599D01*
X661550Y578249D02*
Y587599D01*
X661600Y578249D02*
Y587599D01*
X661650Y578249D02*
Y587599D01*
X661700Y578249D02*
Y587599D01*
X661750Y578249D02*
Y587599D01*
X661800Y578249D02*
Y587599D01*
X661850Y578249D02*
Y587599D01*
X661900Y578249D02*
Y587599D01*
X661950Y578249D02*
Y587599D01*
X662000Y578249D02*
Y587599D01*
X662050Y578249D02*
Y587599D01*
X662100Y578249D02*
Y587599D01*
X662150Y578249D02*
Y587599D01*
X662200Y578249D02*
Y587599D01*
X662250Y578249D02*
Y587599D01*
X662300Y578249D02*
Y587599D01*
X662350Y578249D02*
Y587599D01*
X662400Y578249D02*
Y587599D01*
X662450Y578249D02*
Y587599D01*
X662500Y578249D02*
Y587599D01*
X662550Y578249D02*
Y587599D01*
X662600Y578249D02*
Y587599D01*
X662650Y578249D02*
Y587599D01*
X662700Y578249D02*
Y587599D01*
X662750Y578249D02*
Y587599D01*
X662800Y578249D02*
Y587599D01*
X662850Y578249D02*
Y587599D01*
X662900Y578249D02*
Y587599D01*
X662950Y578249D02*
Y587599D01*
X663000Y578249D02*
Y587599D01*
X663050Y578249D02*
Y587599D01*
X663100Y578249D02*
Y587599D01*
X663150Y578249D02*
Y587599D01*
X663200Y578249D02*
Y587599D01*
X663250Y578249D02*
Y587599D01*
X663300Y578249D02*
Y587599D01*
X663350Y578249D02*
Y587599D01*
X663400Y578249D02*
Y587599D01*
X663450Y578249D02*
Y587599D01*
X663500Y578249D02*
Y587599D01*
X663550Y578249D02*
Y587599D01*
X663600Y578249D02*
Y587599D01*
X663650Y578249D02*
Y587599D01*
X663700Y578249D02*
Y587599D01*
X663750Y578249D02*
Y587599D01*
X663800Y578249D02*
Y587599D01*
X663850Y578249D02*
Y587599D01*
X663900Y578249D02*
Y587599D01*
X663950Y578249D02*
Y587599D01*
X664000Y578249D02*
Y587599D01*
X664050Y578249D02*
Y587599D01*
X664100Y578249D02*
Y587599D01*
X664150Y578249D02*
Y587599D01*
X664200Y578249D02*
Y587599D01*
X664250Y578249D02*
Y587599D01*
X664300Y578249D02*
Y587599D01*
X664350Y578249D02*
Y587599D01*
X664400Y578249D02*
Y587599D01*
X664450Y578249D02*
Y587599D01*
X664500Y578249D02*
Y587599D01*
X664550Y578249D02*
Y587599D01*
X664600Y578249D02*
Y587599D01*
X664650Y578249D02*
Y587599D01*
X664700Y578249D02*
Y587599D01*
X664750Y578249D02*
Y587599D01*
X664800Y578249D02*
Y587599D01*
X664850Y578249D02*
Y587599D01*
X664900Y578249D02*
Y587599D01*
X664950Y578249D02*
Y587599D01*
X665000Y578249D02*
Y587599D01*
X665050Y578249D02*
Y587599D01*
X665100Y578249D02*
Y587599D01*
X665150Y578249D02*
Y587599D01*
X665200Y578249D02*
Y587599D01*
X665250Y578249D02*
Y587599D01*
X665300Y578249D02*
Y587599D01*
X665350Y578249D02*
Y587599D01*
X665400Y578249D02*
Y587599D01*
X665450Y578249D02*
Y587599D01*
X665500Y578249D02*
Y587599D01*
X665550Y578249D02*
Y587599D01*
X665600Y578249D02*
Y587599D01*
X665650Y578249D02*
Y587599D01*
X665700Y578249D02*
Y587599D01*
X665750Y578249D02*
Y587599D01*
X665800Y578249D02*
Y587599D01*
X665850Y578249D02*
Y587599D01*
X665900Y578249D02*
Y587599D01*
X665950Y578249D02*
Y587599D01*
X666000Y578249D02*
Y587599D01*
X666050Y578249D02*
Y587599D01*
X666100Y578249D02*
Y587599D01*
X666150Y578249D02*
Y587599D01*
X666200Y578249D02*
Y587599D01*
X666250Y578249D02*
Y587599D01*
X666300Y578249D02*
Y587599D01*
X666350Y578249D02*
Y587599D01*
X666400Y578249D02*
Y587599D01*
X666450Y578249D02*
Y587599D01*
X666500Y578249D02*
Y587599D01*
X666550Y578249D02*
Y587599D01*
X666600Y578249D02*
Y587599D01*
X666650Y578249D02*
Y587599D01*
X666700Y578249D02*
Y587599D01*
X666750Y578249D02*
Y587599D01*
X666800Y578249D02*
Y587599D01*
X666850Y578249D02*
Y587599D01*
X666900Y578249D02*
Y587599D01*
X666950Y578249D02*
Y587599D01*
X667000Y578249D02*
Y587599D01*
X667050Y578249D02*
Y587599D01*
X667100Y578249D02*
Y587599D01*
X667150Y578249D02*
Y587599D01*
X667200Y578249D02*
Y587599D01*
X667250Y578249D02*
Y587599D01*
X667300Y578249D02*
Y587599D01*
X667350Y578249D02*
Y587599D01*
X667400Y578249D02*
Y587599D01*
X667450Y578249D02*
Y587599D01*
X667500Y578249D02*
Y587599D01*
X667550Y578249D02*
Y587599D01*
X667600Y578249D02*
Y587599D01*
X667650Y578249D02*
Y587599D01*
X667700Y578249D02*
Y587599D01*
X667750Y578249D02*
Y587599D01*
X667800Y578249D02*
Y587599D01*
X667850Y578249D02*
Y587599D01*
X667900Y578249D02*
Y587599D01*
X667950Y578249D02*
Y587599D01*
X668000Y578249D02*
Y587599D01*
X668050Y578249D02*
Y587599D01*
X668100Y578249D02*
Y587599D01*
X668150Y578249D02*
Y587599D01*
X668200Y578249D02*
Y587599D01*
X668250Y578249D02*
Y587599D01*
X668300Y578249D02*
Y587599D01*
X668350Y578249D02*
Y587599D01*
X668400Y578249D02*
Y587599D01*
X668450Y578249D02*
Y587599D01*
X668500Y578249D02*
Y587599D01*
X668550Y578249D02*
Y587599D01*
X668600Y578249D02*
Y587599D01*
X668650Y578249D02*
Y587599D01*
X668700Y578249D02*
Y587599D01*
X668750Y578249D02*
Y587599D01*
X668800Y578249D02*
Y587599D01*
X668850Y578249D02*
Y587599D01*
X668900Y578249D02*
Y587599D01*
X668950Y578249D02*
Y587599D01*
X669000Y578249D02*
Y587599D01*
X669050Y578249D02*
Y587599D01*
X669100Y578249D02*
Y587599D01*
X669150Y578249D02*
Y587599D01*
X669200Y578249D02*
Y587599D01*
X669250Y578249D02*
Y587599D01*
X669300Y578249D02*
Y587599D01*
X669350Y578249D02*
Y587599D01*
X669400Y578249D02*
Y587599D01*
X669450Y578249D02*
Y587599D01*
X669500Y578249D02*
Y587599D01*
X669550Y578249D02*
Y587599D01*
X669600Y578249D02*
Y587599D01*
X669650Y578249D02*
Y587599D01*
X669700Y578249D02*
Y587599D01*
X669750Y578249D02*
Y587599D01*
X669800Y578249D02*
Y587599D01*
X669850Y578249D02*
Y587599D01*
X669900Y578249D02*
Y587599D01*
X669950Y578249D02*
Y587599D01*
X670000Y578249D02*
Y587599D01*
X670050Y578249D02*
Y587599D01*
X670100Y578249D02*
Y587599D01*
X670150Y578249D02*
Y587599D01*
X670200Y578249D02*
Y587599D01*
X670250Y578249D02*
Y587599D01*
X670300Y578249D02*
Y587599D01*
X670350Y578249D02*
Y587599D01*
X670400Y578249D02*
Y587599D01*
X670450Y578249D02*
Y587599D01*
X670500Y578249D02*
Y587599D01*
X670550Y578249D02*
Y587599D01*
X670600Y578249D02*
Y587599D01*
X670650Y578249D02*
Y587599D01*
X670700Y578249D02*
Y587599D01*
X670750Y578249D02*
Y587599D01*
X670800Y578249D02*
Y587599D01*
X670850Y578249D02*
Y587599D01*
X670900Y578249D02*
Y587599D01*
X670950Y578249D02*
Y587599D01*
X671000Y578249D02*
Y587599D01*
X671050Y578249D02*
Y587599D01*
X671100Y578249D02*
Y587599D01*
X671150Y578249D02*
Y587599D01*
X671200Y578249D02*
Y587599D01*
X673675Y565799D02*
Y558249D01*
X681225*
Y565799*
X673675*
X673700Y558249D02*
Y565799D01*
X673750Y558249D02*
Y565799D01*
X673800Y558249D02*
Y565799D01*
X673850Y558249D02*
Y565799D01*
X673900Y558249D02*
Y565799D01*
X673950Y558249D02*
Y565799D01*
X674000Y558249D02*
Y565799D01*
X674050Y558249D02*
Y565799D01*
X674100Y558249D02*
Y565799D01*
X674150Y558249D02*
Y565799D01*
X674200Y558249D02*
Y565799D01*
X674250Y558249D02*
Y565799D01*
X674300Y558249D02*
Y565799D01*
X674350Y558249D02*
Y565799D01*
X674400Y558249D02*
Y565799D01*
X674450Y558249D02*
Y565799D01*
X674500Y558249D02*
Y565799D01*
X674550Y558249D02*
Y565799D01*
X674600Y558249D02*
Y565799D01*
X674650Y558249D02*
Y565799D01*
X674700Y558249D02*
Y565799D01*
X674750Y558249D02*
Y565799D01*
X674800Y558249D02*
Y565799D01*
X674850Y558249D02*
Y565799D01*
X674900Y558249D02*
Y565799D01*
X674950Y558249D02*
Y565799D01*
X675000Y558249D02*
Y565799D01*
X675050Y558249D02*
Y565799D01*
X675100Y558249D02*
Y565799D01*
X675150Y558249D02*
Y565799D01*
X675200Y558249D02*
Y565799D01*
X675250Y558249D02*
Y565799D01*
X675300Y558249D02*
Y565799D01*
X675350Y558249D02*
Y565799D01*
X675400Y558249D02*
Y565799D01*
X675450Y558249D02*
Y565799D01*
X675500Y558249D02*
Y565799D01*
X675550Y558249D02*
Y565799D01*
X675600Y558249D02*
Y565799D01*
X675650Y558249D02*
Y565799D01*
X675700Y558249D02*
Y565799D01*
X675750Y558249D02*
Y565799D01*
X675800Y558249D02*
Y565799D01*
X675850Y558249D02*
Y565799D01*
X675900Y558249D02*
Y565799D01*
X675950Y558249D02*
Y565799D01*
X676000Y558249D02*
Y565799D01*
X676050Y558249D02*
Y565799D01*
X676100Y558249D02*
Y565799D01*
X676150Y558249D02*
Y565799D01*
X676200Y558249D02*
Y565799D01*
X676250Y558249D02*
Y565799D01*
X676300Y558249D02*
Y565799D01*
X676350Y558249D02*
Y565799D01*
X676400Y558249D02*
Y565799D01*
X676450Y558249D02*
Y565799D01*
X676500Y558249D02*
Y565799D01*
X676550Y558249D02*
Y565799D01*
X676600Y558249D02*
Y565799D01*
X676650Y558249D02*
Y565799D01*
X676700Y558249D02*
Y565799D01*
X676750Y558249D02*
Y565799D01*
X676800Y558249D02*
Y565799D01*
X676850Y558249D02*
Y565799D01*
X676900Y558249D02*
Y565799D01*
X676950Y558249D02*
Y565799D01*
X677000Y558249D02*
Y565799D01*
X677050Y558249D02*
Y565799D01*
X677100Y558249D02*
Y565799D01*
X677150Y558249D02*
Y565799D01*
X677200Y558249D02*
Y565799D01*
X677250Y558249D02*
Y565799D01*
X677300Y558249D02*
Y565799D01*
X677350Y558249D02*
Y565799D01*
X677400Y558249D02*
Y565799D01*
X677450Y558249D02*
Y565799D01*
X677500Y558249D02*
Y565799D01*
X677550Y558249D02*
Y565799D01*
X677600Y558249D02*
Y565799D01*
X677650Y558249D02*
Y565799D01*
X677700Y558249D02*
Y565799D01*
X677750Y558249D02*
Y565799D01*
X677800Y558249D02*
Y565799D01*
X677850Y558249D02*
Y565799D01*
X677900Y558249D02*
Y565799D01*
X677950Y558249D02*
Y565799D01*
X678000Y558249D02*
Y565799D01*
X678050Y558249D02*
Y565799D01*
X678100Y558249D02*
Y565799D01*
X678150Y558249D02*
Y565799D01*
X678200Y558249D02*
Y565799D01*
X678250Y558249D02*
Y565799D01*
X678300Y558249D02*
Y565799D01*
X678350Y558249D02*
Y565799D01*
X678400Y558249D02*
Y565799D01*
X678450Y558249D02*
Y565799D01*
X678500Y558249D02*
Y565799D01*
X678550Y558249D02*
Y565799D01*
X678600Y558249D02*
Y565799D01*
X678650Y558249D02*
Y565799D01*
X678700Y558249D02*
Y565799D01*
X678750Y558249D02*
Y565799D01*
X678800Y558249D02*
Y565799D01*
X678850Y558249D02*
Y565799D01*
X678900Y558249D02*
Y565799D01*
X678950Y558249D02*
Y565799D01*
X679000Y558249D02*
Y565799D01*
X679050Y558249D02*
Y565799D01*
X679100Y558249D02*
Y565799D01*
X679150Y558249D02*
Y565799D01*
X679200Y558249D02*
Y565799D01*
X679250Y558249D02*
Y565799D01*
X679300Y558249D02*
Y565799D01*
X679350Y558249D02*
Y565799D01*
X679400Y558249D02*
Y565799D01*
X679450Y558249D02*
Y565799D01*
X679500Y558249D02*
Y565799D01*
X679550Y558249D02*
Y565799D01*
X679600Y558249D02*
Y565799D01*
X679650Y558249D02*
Y565799D01*
X679700Y558249D02*
Y565799D01*
X679750Y558249D02*
Y565799D01*
X679800Y558249D02*
Y565799D01*
X679850Y558249D02*
Y565799D01*
X679900Y558249D02*
Y565799D01*
X679950Y558249D02*
Y565799D01*
X680000Y558249D02*
Y565799D01*
X680050Y558249D02*
Y565799D01*
X680100Y558249D02*
Y565799D01*
X680150Y558249D02*
Y565799D01*
X680200Y558249D02*
Y565799D01*
X680250Y558249D02*
Y565799D01*
X680300Y558249D02*
Y565799D01*
X680350Y558249D02*
Y565799D01*
X680400Y558249D02*
Y565799D01*
X680450Y558249D02*
Y565799D01*
X680500Y558249D02*
Y565799D01*
X680550Y558249D02*
Y565799D01*
X680600Y558249D02*
Y565799D01*
X680650Y558249D02*
Y565799D01*
X680700Y558249D02*
Y565799D01*
X680750Y558249D02*
Y565799D01*
X680800Y558249D02*
Y565799D01*
X680850Y558249D02*
Y565799D01*
X680900Y558249D02*
Y565799D01*
X680950Y558249D02*
Y565799D01*
X681000Y558249D02*
Y565799D01*
X681050Y558249D02*
Y565799D01*
X681100Y558249D02*
Y565799D01*
X681150Y558249D02*
Y565799D01*
X681200Y558249D02*
Y565799D01*
X683675D02*
Y558249D01*
X691225*
Y565799*
X683675*
X683700Y558249D02*
Y565799D01*
X683750Y558249D02*
Y565799D01*
X683800Y558249D02*
Y565799D01*
X683850Y558249D02*
Y565799D01*
X683900Y558249D02*
Y565799D01*
X683950Y558249D02*
Y565799D01*
X684000Y558249D02*
Y565799D01*
X684050Y558249D02*
Y565799D01*
X684100Y558249D02*
Y565799D01*
X684150Y558249D02*
Y565799D01*
X684200Y558249D02*
Y565799D01*
X684250Y558249D02*
Y565799D01*
X684300Y558249D02*
Y565799D01*
X684350Y558249D02*
Y565799D01*
X684400Y558249D02*
Y565799D01*
X684450Y558249D02*
Y565799D01*
X684500Y558249D02*
Y565799D01*
X684550Y558249D02*
Y565799D01*
X684600Y558249D02*
Y565799D01*
X684650Y558249D02*
Y565799D01*
X684700Y558249D02*
Y565799D01*
X684750Y558249D02*
Y565799D01*
X684800Y558249D02*
Y565799D01*
X684850Y558249D02*
Y565799D01*
X684900Y558249D02*
Y565799D01*
X684950Y558249D02*
Y565799D01*
X685000Y558249D02*
Y565799D01*
X685050Y558249D02*
Y565799D01*
X685100Y558249D02*
Y565799D01*
X685150Y558249D02*
Y565799D01*
X685200Y558249D02*
Y565799D01*
X685250Y558249D02*
Y565799D01*
X685300Y558249D02*
Y565799D01*
X685350Y558249D02*
Y565799D01*
X685400Y558249D02*
Y565799D01*
X685450Y558249D02*
Y565799D01*
X685500Y558249D02*
Y565799D01*
X685550Y558249D02*
Y565799D01*
X685600Y558249D02*
Y565799D01*
X685650Y558249D02*
Y565799D01*
X685700Y558249D02*
Y565799D01*
X685750Y558249D02*
Y565799D01*
X685800Y558249D02*
Y565799D01*
X685850Y558249D02*
Y565799D01*
X685900Y558249D02*
Y565799D01*
X685950Y558249D02*
Y565799D01*
X686000Y558249D02*
Y565799D01*
X686050Y558249D02*
Y565799D01*
X686100Y558249D02*
Y565799D01*
X686150Y558249D02*
Y565799D01*
X686200Y558249D02*
Y565799D01*
X686250Y558249D02*
Y565799D01*
X686300Y558249D02*
Y565799D01*
X686350Y558249D02*
Y565799D01*
X686400Y558249D02*
Y565799D01*
X686450Y558249D02*
Y565799D01*
X686500Y558249D02*
Y565799D01*
X686550Y558249D02*
Y565799D01*
X686600Y558249D02*
Y565799D01*
X686650Y558249D02*
Y565799D01*
X686700Y558249D02*
Y565799D01*
X686750Y558249D02*
Y565799D01*
X686800Y558249D02*
Y565799D01*
X686850Y558249D02*
Y565799D01*
X686900Y558249D02*
Y565799D01*
X686950Y558249D02*
Y565799D01*
X687000Y558249D02*
Y565799D01*
X687050Y558249D02*
Y565799D01*
X687100Y558249D02*
Y565799D01*
X687150Y558249D02*
Y565799D01*
X687200Y558249D02*
Y565799D01*
X687250Y558249D02*
Y565799D01*
X687300Y558249D02*
Y565799D01*
X687350Y558249D02*
Y565799D01*
X687400Y558249D02*
Y565799D01*
X687450Y558249D02*
Y565799D01*
X687500Y558249D02*
Y565799D01*
X687550Y558249D02*
Y565799D01*
X687600Y558249D02*
Y565799D01*
X687650Y558249D02*
Y565799D01*
X687700Y558249D02*
Y565799D01*
X687750Y558249D02*
Y565799D01*
X687800Y558249D02*
Y565799D01*
X687850Y558249D02*
Y565799D01*
X687900Y558249D02*
Y565799D01*
X687950Y558249D02*
Y565799D01*
X688000Y558249D02*
Y565799D01*
X688050Y558249D02*
Y565799D01*
X688100Y558249D02*
Y565799D01*
X688150Y558249D02*
Y565799D01*
X688200Y558249D02*
Y565799D01*
X688250Y558249D02*
Y565799D01*
X688300Y558249D02*
Y565799D01*
X688350Y558249D02*
Y565799D01*
X688400Y558249D02*
Y565799D01*
X688450Y558249D02*
Y565799D01*
X688500Y558249D02*
Y565799D01*
X688550Y558249D02*
Y565799D01*
X688600Y558249D02*
Y565799D01*
X688650Y558249D02*
Y565799D01*
X688700Y558249D02*
Y565799D01*
X688750Y558249D02*
Y565799D01*
X688800Y558249D02*
Y565799D01*
X688850Y558249D02*
Y565799D01*
X688900Y558249D02*
Y565799D01*
X688950Y558249D02*
Y565799D01*
X689000Y558249D02*
Y565799D01*
X689050Y558249D02*
Y565799D01*
X689100Y558249D02*
Y565799D01*
X689150Y558249D02*
Y565799D01*
X689200Y558249D02*
Y565799D01*
X689250Y558249D02*
Y565799D01*
X689300Y558249D02*
Y565799D01*
X689350Y558249D02*
Y565799D01*
X689400Y558249D02*
Y565799D01*
X689450Y558249D02*
Y565799D01*
X689500Y558249D02*
Y565799D01*
X689550Y558249D02*
Y565799D01*
X689600Y558249D02*
Y565799D01*
X689650Y558249D02*
Y565799D01*
X689700Y558249D02*
Y565799D01*
X689750Y558249D02*
Y565799D01*
X689800Y558249D02*
Y565799D01*
X689850Y558249D02*
Y565799D01*
X689900Y558249D02*
Y565799D01*
X689950Y558249D02*
Y565799D01*
X690000Y558249D02*
Y565799D01*
X690050Y558249D02*
Y565799D01*
X690100Y558249D02*
Y565799D01*
X690150Y558249D02*
Y565799D01*
X690200Y558249D02*
Y565799D01*
X690250Y558249D02*
Y565799D01*
X690300Y558249D02*
Y565799D01*
X690350Y558249D02*
Y565799D01*
X690400Y558249D02*
Y565799D01*
X690450Y558249D02*
Y565799D01*
X690500Y558249D02*
Y565799D01*
X690550Y558249D02*
Y565799D01*
X690600Y558249D02*
Y565799D01*
X690650Y558249D02*
Y565799D01*
X690700Y558249D02*
Y565799D01*
X690750Y558249D02*
Y565799D01*
X690800Y558249D02*
Y565799D01*
X690850Y558249D02*
Y565799D01*
X690900Y558249D02*
Y565799D01*
X690950Y558249D02*
Y565799D01*
X691000Y558249D02*
Y565799D01*
X691050Y558249D02*
Y565799D01*
X691100Y558249D02*
Y565799D01*
X691150Y558249D02*
Y565799D01*
X691200Y558249D02*
Y565799D01*
X693675D02*
Y558249D01*
X703825*
Y565799*
X693675*
X693700Y558249D02*
Y565799D01*
X693750Y558249D02*
Y565799D01*
X693800Y558249D02*
Y565799D01*
X693850Y558249D02*
Y565799D01*
X693900Y558249D02*
Y565799D01*
X693950Y558249D02*
Y565799D01*
X694000Y558249D02*
Y565799D01*
X694050Y558249D02*
Y565799D01*
X694100Y558249D02*
Y565799D01*
X694150Y558249D02*
Y565799D01*
X694200Y558249D02*
Y565799D01*
X694250Y558249D02*
Y565799D01*
X694300Y558249D02*
Y565799D01*
X694350Y558249D02*
Y565799D01*
X694400Y558249D02*
Y565799D01*
X694450Y558249D02*
Y565799D01*
X694500Y558249D02*
Y565799D01*
X694550Y558249D02*
Y565799D01*
X694600Y558249D02*
Y565799D01*
X694650Y558249D02*
Y565799D01*
X694700Y558249D02*
Y565799D01*
X694750Y558249D02*
Y565799D01*
X694800Y558249D02*
Y565799D01*
X694850Y558249D02*
Y565799D01*
X694900Y558249D02*
Y565799D01*
X694950Y558249D02*
Y565799D01*
X695000Y558249D02*
Y565799D01*
X695050Y558249D02*
Y565799D01*
X695100Y558249D02*
Y565799D01*
X695150Y558249D02*
Y565799D01*
X695200Y558249D02*
Y565799D01*
X695250Y558249D02*
Y565799D01*
X695300Y558249D02*
Y565799D01*
X695350Y558249D02*
Y565799D01*
X695400Y558249D02*
Y565799D01*
X695450Y558249D02*
Y565799D01*
X695500Y558249D02*
Y565799D01*
X695550Y558249D02*
Y565799D01*
X695600Y558249D02*
Y565799D01*
X695650Y558249D02*
Y565799D01*
X695700Y558249D02*
Y565799D01*
X695750Y558249D02*
Y565799D01*
X695800Y558249D02*
Y565799D01*
X695850Y558249D02*
Y565799D01*
X695900Y558249D02*
Y565799D01*
X695950Y558249D02*
Y565799D01*
X696000Y558249D02*
Y565799D01*
X696050Y558249D02*
Y565799D01*
X696100Y558249D02*
Y565799D01*
X696150Y558249D02*
Y565799D01*
X696200Y558249D02*
Y565799D01*
X696250Y558249D02*
Y565799D01*
X696300Y558249D02*
Y565799D01*
X696350Y558249D02*
Y565799D01*
X696400Y558249D02*
Y565799D01*
X696450Y558249D02*
Y565799D01*
X696500Y558249D02*
Y565799D01*
X696550Y558249D02*
Y565799D01*
X696600Y558249D02*
Y565799D01*
X696650Y558249D02*
Y565799D01*
X696700Y558249D02*
Y565799D01*
X696750Y558249D02*
Y565799D01*
X696800Y558249D02*
Y565799D01*
X696850Y558249D02*
Y565799D01*
X696900Y558249D02*
Y565799D01*
X696950Y558249D02*
Y565799D01*
X697000Y558249D02*
Y565799D01*
X697050Y558249D02*
Y565799D01*
X697100Y558249D02*
Y565799D01*
X697150Y558249D02*
Y565799D01*
X697200Y558249D02*
Y565799D01*
X697250Y558249D02*
Y565799D01*
X697300Y558249D02*
Y565799D01*
X697350Y558249D02*
Y565799D01*
X697400Y558249D02*
Y565799D01*
X697450Y558249D02*
Y565799D01*
X697500Y558249D02*
Y565799D01*
X697550Y558249D02*
Y565799D01*
X697600Y558249D02*
Y565799D01*
X697650Y558249D02*
Y565799D01*
X697700Y558249D02*
Y565799D01*
X697750Y558249D02*
Y565799D01*
X697800Y558249D02*
Y565799D01*
X697850Y558249D02*
Y565799D01*
X697900Y558249D02*
Y565799D01*
X697950Y558249D02*
Y565799D01*
X698000Y558249D02*
Y565799D01*
X698050Y558249D02*
Y565799D01*
X698100Y558249D02*
Y565799D01*
X698150Y558249D02*
Y565799D01*
X698200Y558249D02*
Y565799D01*
X698250Y558249D02*
Y565799D01*
X698300Y558249D02*
Y565799D01*
X698350Y558249D02*
Y565799D01*
X698400Y558249D02*
Y565799D01*
X698450Y558249D02*
Y565799D01*
X698500Y558249D02*
Y565799D01*
X698550Y558249D02*
Y565799D01*
X698600Y558249D02*
Y565799D01*
X698650Y558249D02*
Y565799D01*
X698700Y558249D02*
Y565799D01*
X698750Y558249D02*
Y565799D01*
X698800Y558249D02*
Y565799D01*
X698850Y558249D02*
Y565799D01*
X698900Y558249D02*
Y565799D01*
X698950Y558249D02*
Y565799D01*
X699000Y558249D02*
Y565799D01*
X699050Y558249D02*
Y565799D01*
X699100Y558249D02*
Y565799D01*
X699150Y558249D02*
Y565799D01*
X699200Y558249D02*
Y565799D01*
X699250Y558249D02*
Y565799D01*
X699300Y558249D02*
Y565799D01*
X699350Y558249D02*
Y565799D01*
X699400Y558249D02*
Y565799D01*
X699450Y558249D02*
Y565799D01*
X699500Y558249D02*
Y565799D01*
X699550Y558249D02*
Y565799D01*
X699600Y558249D02*
Y565799D01*
X699650Y558249D02*
Y565799D01*
X699700Y558249D02*
Y565799D01*
X699750Y558249D02*
Y565799D01*
X699800Y558249D02*
Y565799D01*
X699850Y558249D02*
Y565799D01*
X699900Y558249D02*
Y565799D01*
X699950Y558249D02*
Y565799D01*
X700000Y558249D02*
Y565799D01*
X700050Y558249D02*
Y565799D01*
X700100Y558249D02*
Y565799D01*
X700150Y558249D02*
Y565799D01*
X700200Y558249D02*
Y565799D01*
X700250Y558249D02*
Y565799D01*
X700300Y558249D02*
Y565799D01*
X700350Y558249D02*
Y565799D01*
X700400Y558249D02*
Y565799D01*
X700450Y558249D02*
Y565799D01*
X700500Y558249D02*
Y565799D01*
X700550Y558249D02*
Y565799D01*
X700600Y558249D02*
Y565799D01*
X700650Y558249D02*
Y565799D01*
X700700Y558249D02*
Y565799D01*
X700750Y558249D02*
Y565799D01*
X700800Y558249D02*
Y565799D01*
X700850Y558249D02*
Y565799D01*
X700900Y558249D02*
Y565799D01*
X700950Y558249D02*
Y565799D01*
X701000Y558249D02*
Y565799D01*
X701050Y558249D02*
Y565799D01*
X701100Y558249D02*
Y565799D01*
X701150Y558249D02*
Y565799D01*
X701200Y558249D02*
Y565799D01*
X701250Y558249D02*
Y565799D01*
X701300Y558249D02*
Y565799D01*
X701350Y558249D02*
Y565799D01*
X701400Y558249D02*
Y565799D01*
X701450Y558249D02*
Y565799D01*
X701500Y558249D02*
Y565799D01*
X701550Y558249D02*
Y565799D01*
X701600Y558249D02*
Y565799D01*
X701650Y558249D02*
Y565799D01*
X701700Y558249D02*
Y565799D01*
X701750Y558249D02*
Y565799D01*
X701800Y558249D02*
Y565799D01*
X701850Y558249D02*
Y565799D01*
X701900Y558249D02*
Y565799D01*
X701950Y558249D02*
Y565799D01*
X702000Y558249D02*
Y565799D01*
X702050Y558249D02*
Y565799D01*
X702100Y558249D02*
Y565799D01*
X702150Y558249D02*
Y565799D01*
X702200Y558249D02*
Y565799D01*
X702250Y558249D02*
Y565799D01*
X702300Y558249D02*
Y565799D01*
X702350Y558249D02*
Y565799D01*
X702400Y558249D02*
Y565799D01*
X702450Y558249D02*
Y565799D01*
X702500Y558249D02*
Y565799D01*
X702550Y558249D02*
Y565799D01*
X702600Y558249D02*
Y565799D01*
X702650Y558249D02*
Y565799D01*
X702700Y558249D02*
Y565799D01*
X702750Y558249D02*
Y565799D01*
X702800Y558249D02*
Y565799D01*
X702850Y558249D02*
Y565799D01*
X702900Y558249D02*
Y565799D01*
X702950Y558249D02*
Y565799D01*
X703000Y558249D02*
Y565799D01*
X703050Y558249D02*
Y565799D01*
X703100Y558249D02*
Y565799D01*
X703150Y558249D02*
Y565799D01*
X703200Y558249D02*
Y565799D01*
X703250Y558249D02*
Y565799D01*
X703300Y558249D02*
Y565799D01*
X703350Y558249D02*
Y565799D01*
X703400Y558249D02*
Y565799D01*
X703450Y558249D02*
Y565799D01*
X703500Y558249D02*
Y565799D01*
X703550Y558249D02*
Y565799D01*
X703600Y558249D02*
Y565799D01*
X703650Y558249D02*
Y565799D01*
X703700Y558249D02*
Y565799D01*
X703750Y558249D02*
Y565799D01*
X703800Y558249D02*
Y565799D01*
X673675Y575799D02*
Y568249D01*
X681225*
Y575799*
X673675*
X673700Y568249D02*
Y575799D01*
X673750Y568249D02*
Y575799D01*
X673800Y568249D02*
Y575799D01*
X673850Y568249D02*
Y575799D01*
X673900Y568249D02*
Y575799D01*
X673950Y568249D02*
Y575799D01*
X674000Y568249D02*
Y575799D01*
X674050Y568249D02*
Y575799D01*
X674100Y568249D02*
Y575799D01*
X674150Y568249D02*
Y575799D01*
X674200Y568249D02*
Y575799D01*
X674250Y568249D02*
Y575799D01*
X674300Y568249D02*
Y575799D01*
X674350Y568249D02*
Y575799D01*
X674400Y568249D02*
Y575799D01*
X674450Y568249D02*
Y575799D01*
X674500Y568249D02*
Y575799D01*
X674550Y568249D02*
Y575799D01*
X674600Y568249D02*
Y575799D01*
X674650Y568249D02*
Y575799D01*
X674700Y568249D02*
Y575799D01*
X674750Y568249D02*
Y575799D01*
X674800Y568249D02*
Y575799D01*
X674850Y568249D02*
Y575799D01*
X674900Y568249D02*
Y575799D01*
X674950Y568249D02*
Y575799D01*
X675000Y568249D02*
Y575799D01*
X675050Y568249D02*
Y575799D01*
X675100Y568249D02*
Y575799D01*
X675150Y568249D02*
Y575799D01*
X675200Y568249D02*
Y575799D01*
X675250Y568249D02*
Y575799D01*
X675300Y568249D02*
Y575799D01*
X675350Y568249D02*
Y575799D01*
X675400Y568249D02*
Y575799D01*
X675450Y568249D02*
Y575799D01*
X675500Y568249D02*
Y575799D01*
X675550Y568249D02*
Y575799D01*
X675600Y568249D02*
Y575799D01*
X675650Y568249D02*
Y575799D01*
X675700Y568249D02*
Y575799D01*
X675750Y568249D02*
Y575799D01*
X675800Y568249D02*
Y575799D01*
X675850Y568249D02*
Y575799D01*
X675900Y568249D02*
Y575799D01*
X675950Y568249D02*
Y575799D01*
X676000Y568249D02*
Y575799D01*
X676050Y568249D02*
Y575799D01*
X676100Y568249D02*
Y575799D01*
X676150Y568249D02*
Y575799D01*
X676200Y568249D02*
Y575799D01*
X676250Y568249D02*
Y575799D01*
X676300Y568249D02*
Y575799D01*
X676350Y568249D02*
Y575799D01*
X676400Y568249D02*
Y575799D01*
X676450Y568249D02*
Y575799D01*
X676500Y568249D02*
Y575799D01*
X676550Y568249D02*
Y575799D01*
X676600Y568249D02*
Y575799D01*
X676650Y568249D02*
Y575799D01*
X676700Y568249D02*
Y575799D01*
X676750Y568249D02*
Y575799D01*
X676800Y568249D02*
Y575799D01*
X676850Y568249D02*
Y575799D01*
X676900Y568249D02*
Y575799D01*
X676950Y568249D02*
Y575799D01*
X677000Y568249D02*
Y575799D01*
X677050Y568249D02*
Y575799D01*
X677100Y568249D02*
Y575799D01*
X677150Y568249D02*
Y575799D01*
X677200Y568249D02*
Y575799D01*
X677250Y568249D02*
Y575799D01*
X677300Y568249D02*
Y575799D01*
X677350Y568249D02*
Y575799D01*
X677400Y568249D02*
Y575799D01*
X677450Y568249D02*
Y575799D01*
X677500Y568249D02*
Y575799D01*
X677550Y568249D02*
Y575799D01*
X677600Y568249D02*
Y575799D01*
X677650Y568249D02*
Y575799D01*
X677700Y568249D02*
Y575799D01*
X677750Y568249D02*
Y575799D01*
X677800Y568249D02*
Y575799D01*
X677850Y568249D02*
Y575799D01*
X677900Y568249D02*
Y575799D01*
X677950Y568249D02*
Y575799D01*
X678000Y568249D02*
Y575799D01*
X678050Y568249D02*
Y575799D01*
X678100Y568249D02*
Y575799D01*
X678150Y568249D02*
Y575799D01*
X678200Y568249D02*
Y575799D01*
X678250Y568249D02*
Y575799D01*
X678300Y568249D02*
Y575799D01*
X678350Y568249D02*
Y575799D01*
X678400Y568249D02*
Y575799D01*
X678450Y568249D02*
Y575799D01*
X678500Y568249D02*
Y575799D01*
X678550Y568249D02*
Y575799D01*
X678600Y568249D02*
Y575799D01*
X678650Y568249D02*
Y575799D01*
X678700Y568249D02*
Y575799D01*
X678750Y568249D02*
Y575799D01*
X678800Y568249D02*
Y575799D01*
X678850Y568249D02*
Y575799D01*
X678900Y568249D02*
Y575799D01*
X678950Y568249D02*
Y575799D01*
X679000Y568249D02*
Y575799D01*
X679050Y568249D02*
Y575799D01*
X679100Y568249D02*
Y575799D01*
X679150Y568249D02*
Y575799D01*
X679200Y568249D02*
Y575799D01*
X679250Y568249D02*
Y575799D01*
X679300Y568249D02*
Y575799D01*
X679350Y568249D02*
Y575799D01*
X679400Y568249D02*
Y575799D01*
X679450Y568249D02*
Y575799D01*
X679500Y568249D02*
Y575799D01*
X679550Y568249D02*
Y575799D01*
X679600Y568249D02*
Y575799D01*
X679650Y568249D02*
Y575799D01*
X679700Y568249D02*
Y575799D01*
X679750Y568249D02*
Y575799D01*
X679800Y568249D02*
Y575799D01*
X679850Y568249D02*
Y575799D01*
X679900Y568249D02*
Y575799D01*
X679950Y568249D02*
Y575799D01*
X680000Y568249D02*
Y575799D01*
X680050Y568249D02*
Y575799D01*
X680100Y568249D02*
Y575799D01*
X680150Y568249D02*
Y575799D01*
X680200Y568249D02*
Y575799D01*
X680250Y568249D02*
Y575799D01*
X680300Y568249D02*
Y575799D01*
X680350Y568249D02*
Y575799D01*
X680400Y568249D02*
Y575799D01*
X680450Y568249D02*
Y575799D01*
X680500Y568249D02*
Y575799D01*
X680550Y568249D02*
Y575799D01*
X680600Y568249D02*
Y575799D01*
X680650Y568249D02*
Y575799D01*
X680700Y568249D02*
Y575799D01*
X680750Y568249D02*
Y575799D01*
X680800Y568249D02*
Y575799D01*
X680850Y568249D02*
Y575799D01*
X680900Y568249D02*
Y575799D01*
X680950Y568249D02*
Y575799D01*
X681000Y568249D02*
Y575799D01*
X681050Y568249D02*
Y575799D01*
X681100Y568249D02*
Y575799D01*
X681150Y568249D02*
Y575799D01*
X681200Y568249D02*
Y575799D01*
X683675D02*
Y568249D01*
X691225*
Y575799*
X683675*
X683700Y568249D02*
Y575799D01*
X683750Y568249D02*
Y575799D01*
X683800Y568249D02*
Y575799D01*
X683850Y568249D02*
Y575799D01*
X683900Y568249D02*
Y575799D01*
X683950Y568249D02*
Y575799D01*
X684000Y568249D02*
Y575799D01*
X684050Y568249D02*
Y575799D01*
X684100Y568249D02*
Y575799D01*
X684150Y568249D02*
Y575799D01*
X684200Y568249D02*
Y575799D01*
X684250Y568249D02*
Y575799D01*
X684300Y568249D02*
Y575799D01*
X684350Y568249D02*
Y575799D01*
X684400Y568249D02*
Y575799D01*
X684450Y568249D02*
Y575799D01*
X684500Y568249D02*
Y575799D01*
X684550Y568249D02*
Y575799D01*
X684600Y568249D02*
Y575799D01*
X684650Y568249D02*
Y575799D01*
X684700Y568249D02*
Y575799D01*
X684750Y568249D02*
Y575799D01*
X684800Y568249D02*
Y575799D01*
X684850Y568249D02*
Y575799D01*
X684900Y568249D02*
Y575799D01*
X684950Y568249D02*
Y575799D01*
X685000Y568249D02*
Y575799D01*
X685050Y568249D02*
Y575799D01*
X685100Y568249D02*
Y575799D01*
X685150Y568249D02*
Y575799D01*
X685200Y568249D02*
Y575799D01*
X685250Y568249D02*
Y575799D01*
X685300Y568249D02*
Y575799D01*
X685350Y568249D02*
Y575799D01*
X685400Y568249D02*
Y575799D01*
X685450Y568249D02*
Y575799D01*
X685500Y568249D02*
Y575799D01*
X685550Y568249D02*
Y575799D01*
X685600Y568249D02*
Y575799D01*
X685650Y568249D02*
Y575799D01*
X685700Y568249D02*
Y575799D01*
X685750Y568249D02*
Y575799D01*
X685800Y568249D02*
Y575799D01*
X685850Y568249D02*
Y575799D01*
X685900Y568249D02*
Y575799D01*
X685950Y568249D02*
Y575799D01*
X686000Y568249D02*
Y575799D01*
X686050Y568249D02*
Y575799D01*
X686100Y568249D02*
Y575799D01*
X686150Y568249D02*
Y575799D01*
X686200Y568249D02*
Y575799D01*
X686250Y568249D02*
Y575799D01*
X686300Y568249D02*
Y575799D01*
X686350Y568249D02*
Y575799D01*
X686400Y568249D02*
Y575799D01*
X686450Y568249D02*
Y575799D01*
X686500Y568249D02*
Y575799D01*
X686550Y568249D02*
Y575799D01*
X686600Y568249D02*
Y575799D01*
X686650Y568249D02*
Y575799D01*
X686700Y568249D02*
Y575799D01*
X686750Y568249D02*
Y575799D01*
X686800Y568249D02*
Y575799D01*
X686850Y568249D02*
Y575799D01*
X686900Y568249D02*
Y575799D01*
X686950Y568249D02*
Y575799D01*
X687000Y568249D02*
Y575799D01*
X687050Y568249D02*
Y575799D01*
X687100Y568249D02*
Y575799D01*
X687150Y568249D02*
Y575799D01*
X687200Y568249D02*
Y575799D01*
X687250Y568249D02*
Y575799D01*
X687300Y568249D02*
Y575799D01*
X687350Y568249D02*
Y575799D01*
X687400Y568249D02*
Y575799D01*
X687450Y568249D02*
Y575799D01*
X687500Y568249D02*
Y575799D01*
X687550Y568249D02*
Y575799D01*
X687600Y568249D02*
Y575799D01*
X687650Y568249D02*
Y575799D01*
X687700Y568249D02*
Y575799D01*
X687750Y568249D02*
Y575799D01*
X687800Y568249D02*
Y575799D01*
X687850Y568249D02*
Y575799D01*
X687900Y568249D02*
Y575799D01*
X687950Y568249D02*
Y575799D01*
X688000Y568249D02*
Y575799D01*
X688050Y568249D02*
Y575799D01*
X688100Y568249D02*
Y575799D01*
X688150Y568249D02*
Y575799D01*
X688200Y568249D02*
Y575799D01*
X688250Y568249D02*
Y575799D01*
X688300Y568249D02*
Y575799D01*
X688350Y568249D02*
Y575799D01*
X688400Y568249D02*
Y575799D01*
X688450Y568249D02*
Y575799D01*
X688500Y568249D02*
Y575799D01*
X688550Y568249D02*
Y575799D01*
X688600Y568249D02*
Y575799D01*
X688650Y568249D02*
Y575799D01*
X688700Y568249D02*
Y575799D01*
X688750Y568249D02*
Y575799D01*
X688800Y568249D02*
Y575799D01*
X688850Y568249D02*
Y575799D01*
X688900Y568249D02*
Y575799D01*
X688950Y568249D02*
Y575799D01*
X689000Y568249D02*
Y575799D01*
X689050Y568249D02*
Y575799D01*
X689100Y568249D02*
Y575799D01*
X689150Y568249D02*
Y575799D01*
X689200Y568249D02*
Y575799D01*
X689250Y568249D02*
Y575799D01*
X689300Y568249D02*
Y575799D01*
X689350Y568249D02*
Y575799D01*
X689400Y568249D02*
Y575799D01*
X689450Y568249D02*
Y575799D01*
X689500Y568249D02*
Y575799D01*
X689550Y568249D02*
Y575799D01*
X689600Y568249D02*
Y575799D01*
X689650Y568249D02*
Y575799D01*
X689700Y568249D02*
Y575799D01*
X689750Y568249D02*
Y575799D01*
X689800Y568249D02*
Y575799D01*
X689850Y568249D02*
Y575799D01*
X689900Y568249D02*
Y575799D01*
X689950Y568249D02*
Y575799D01*
X690000Y568249D02*
Y575799D01*
X690050Y568249D02*
Y575799D01*
X690100Y568249D02*
Y575799D01*
X690150Y568249D02*
Y575799D01*
X690200Y568249D02*
Y575799D01*
X690250Y568249D02*
Y575799D01*
X690300Y568249D02*
Y575799D01*
X690350Y568249D02*
Y575799D01*
X690400Y568249D02*
Y575799D01*
X690450Y568249D02*
Y575799D01*
X690500Y568249D02*
Y575799D01*
X690550Y568249D02*
Y575799D01*
X690600Y568249D02*
Y575799D01*
X690650Y568249D02*
Y575799D01*
X690700Y568249D02*
Y575799D01*
X690750Y568249D02*
Y575799D01*
X690800Y568249D02*
Y575799D01*
X690850Y568249D02*
Y575799D01*
X690900Y568249D02*
Y575799D01*
X690950Y568249D02*
Y575799D01*
X691000Y568249D02*
Y575799D01*
X691050Y568249D02*
Y575799D01*
X691100Y568249D02*
Y575799D01*
X691150Y568249D02*
Y575799D01*
X691200Y568249D02*
Y575799D01*
X693675D02*
Y568249D01*
X703825*
Y575799*
X693675*
X693700Y568249D02*
Y575799D01*
X693750Y568249D02*
Y575799D01*
X693800Y568249D02*
Y575799D01*
X693850Y568249D02*
Y575799D01*
X693900Y568249D02*
Y575799D01*
X693950Y568249D02*
Y575799D01*
X694000Y568249D02*
Y575799D01*
X694050Y568249D02*
Y575799D01*
X694100Y568249D02*
Y575799D01*
X694150Y568249D02*
Y575799D01*
X694200Y568249D02*
Y575799D01*
X694250Y568249D02*
Y575799D01*
X694300Y568249D02*
Y575799D01*
X694350Y568249D02*
Y575799D01*
X694400Y568249D02*
Y575799D01*
X694450Y568249D02*
Y575799D01*
X694500Y568249D02*
Y575799D01*
X694550Y568249D02*
Y575799D01*
X694600Y568249D02*
Y575799D01*
X694650Y568249D02*
Y575799D01*
X694700Y568249D02*
Y575799D01*
X694750Y568249D02*
Y575799D01*
X694800Y568249D02*
Y575799D01*
X694850Y568249D02*
Y575799D01*
X694900Y568249D02*
Y575799D01*
X694950Y568249D02*
Y575799D01*
X695000Y568249D02*
Y575799D01*
X695050Y568249D02*
Y575799D01*
X695100Y568249D02*
Y575799D01*
X695150Y568249D02*
Y575799D01*
X695200Y568249D02*
Y575799D01*
X695250Y568249D02*
Y575799D01*
X695300Y568249D02*
Y575799D01*
X695350Y568249D02*
Y575799D01*
X695400Y568249D02*
Y575799D01*
X695450Y568249D02*
Y575799D01*
X695500Y568249D02*
Y575799D01*
X695550Y568249D02*
Y575799D01*
X695600Y568249D02*
Y575799D01*
X695650Y568249D02*
Y575799D01*
X695700Y568249D02*
Y575799D01*
X695750Y568249D02*
Y575799D01*
X695800Y568249D02*
Y575799D01*
X695850Y568249D02*
Y575799D01*
X695900Y568249D02*
Y575799D01*
X695950Y568249D02*
Y575799D01*
X696000Y568249D02*
Y575799D01*
X696050Y568249D02*
Y575799D01*
X696100Y568249D02*
Y575799D01*
X696150Y568249D02*
Y575799D01*
X696200Y568249D02*
Y575799D01*
X696250Y568249D02*
Y575799D01*
X696300Y568249D02*
Y575799D01*
X696350Y568249D02*
Y575799D01*
X696400Y568249D02*
Y575799D01*
X696450Y568249D02*
Y575799D01*
X696500Y568249D02*
Y575799D01*
X696550Y568249D02*
Y575799D01*
X696600Y568249D02*
Y575799D01*
X696650Y568249D02*
Y575799D01*
X696700Y568249D02*
Y575799D01*
X696750Y568249D02*
Y575799D01*
X696800Y568249D02*
Y575799D01*
X696850Y568249D02*
Y575799D01*
X696900Y568249D02*
Y575799D01*
X696950Y568249D02*
Y575799D01*
X697000Y568249D02*
Y575799D01*
X697050Y568249D02*
Y575799D01*
X697100Y568249D02*
Y575799D01*
X697150Y568249D02*
Y575799D01*
X697200Y568249D02*
Y575799D01*
X697250Y568249D02*
Y575799D01*
X697300Y568249D02*
Y575799D01*
X697350Y568249D02*
Y575799D01*
X697400Y568249D02*
Y575799D01*
X697450Y568249D02*
Y575799D01*
X697500Y568249D02*
Y575799D01*
X697550Y568249D02*
Y575799D01*
X697600Y568249D02*
Y575799D01*
X697650Y568249D02*
Y575799D01*
X697700Y568249D02*
Y575799D01*
X697750Y568249D02*
Y575799D01*
X697800Y568249D02*
Y575799D01*
X697850Y568249D02*
Y575799D01*
X697900Y568249D02*
Y575799D01*
X697950Y568249D02*
Y575799D01*
X698000Y568249D02*
Y575799D01*
X698050Y568249D02*
Y575799D01*
X698100Y568249D02*
Y575799D01*
X698150Y568249D02*
Y575799D01*
X698200Y568249D02*
Y575799D01*
X698250Y568249D02*
Y575799D01*
X698300Y568249D02*
Y575799D01*
X698350Y568249D02*
Y575799D01*
X698400Y568249D02*
Y575799D01*
X698450Y568249D02*
Y575799D01*
X698500Y568249D02*
Y575799D01*
X698550Y568249D02*
Y575799D01*
X698600Y568249D02*
Y575799D01*
X698650Y568249D02*
Y575799D01*
X698700Y568249D02*
Y575799D01*
X698750Y568249D02*
Y575799D01*
X698800Y568249D02*
Y575799D01*
X698850Y568249D02*
Y575799D01*
X698900Y568249D02*
Y575799D01*
X698950Y568249D02*
Y575799D01*
X699000Y568249D02*
Y575799D01*
X699050Y568249D02*
Y575799D01*
X699100Y568249D02*
Y575799D01*
X699150Y568249D02*
Y575799D01*
X699200Y568249D02*
Y575799D01*
X699250Y568249D02*
Y575799D01*
X699300Y568249D02*
Y575799D01*
X699350Y568249D02*
Y575799D01*
X699400Y568249D02*
Y575799D01*
X699450Y568249D02*
Y575799D01*
X699500Y568249D02*
Y575799D01*
X699550Y568249D02*
Y575799D01*
X699600Y568249D02*
Y575799D01*
X699650Y568249D02*
Y575799D01*
X699700Y568249D02*
Y575799D01*
X699750Y568249D02*
Y575799D01*
X699800Y568249D02*
Y575799D01*
X699850Y568249D02*
Y575799D01*
X699900Y568249D02*
Y575799D01*
X699950Y568249D02*
Y575799D01*
X700000Y568249D02*
Y575799D01*
X700050Y568249D02*
Y575799D01*
X700100Y568249D02*
Y575799D01*
X700150Y568249D02*
Y575799D01*
X700200Y568249D02*
Y575799D01*
X700250Y568249D02*
Y575799D01*
X700300Y568249D02*
Y575799D01*
X700350Y568249D02*
Y575799D01*
X700400Y568249D02*
Y575799D01*
X700450Y568249D02*
Y575799D01*
X700500Y568249D02*
Y575799D01*
X700550Y568249D02*
Y575799D01*
X700600Y568249D02*
Y575799D01*
X700650Y568249D02*
Y575799D01*
X700700Y568249D02*
Y575799D01*
X700750Y568249D02*
Y575799D01*
X700800Y568249D02*
Y575799D01*
X700850Y568249D02*
Y575799D01*
X700900Y568249D02*
Y575799D01*
X700950Y568249D02*
Y575799D01*
X701000Y568249D02*
Y575799D01*
X701050Y568249D02*
Y575799D01*
X701100Y568249D02*
Y575799D01*
X701150Y568249D02*
Y575799D01*
X701200Y568249D02*
Y575799D01*
X701250Y568249D02*
Y575799D01*
X701300Y568249D02*
Y575799D01*
X701350Y568249D02*
Y575799D01*
X701400Y568249D02*
Y575799D01*
X701450Y568249D02*
Y575799D01*
X701500Y568249D02*
Y575799D01*
X701550Y568249D02*
Y575799D01*
X701600Y568249D02*
Y575799D01*
X701650Y568249D02*
Y575799D01*
X701700Y568249D02*
Y575799D01*
X701750Y568249D02*
Y575799D01*
X701800Y568249D02*
Y575799D01*
X701850Y568249D02*
Y575799D01*
X701900Y568249D02*
Y575799D01*
X701950Y568249D02*
Y575799D01*
X702000Y568249D02*
Y575799D01*
X702050Y568249D02*
Y575799D01*
X702100Y568249D02*
Y575799D01*
X702150Y568249D02*
Y575799D01*
X702200Y568249D02*
Y575799D01*
X702250Y568249D02*
Y575799D01*
X702300Y568249D02*
Y575799D01*
X702350Y568249D02*
Y575799D01*
X702400Y568249D02*
Y575799D01*
X702450Y568249D02*
Y575799D01*
X702500Y568249D02*
Y575799D01*
X702550Y568249D02*
Y575799D01*
X702600Y568249D02*
Y575799D01*
X702650Y568249D02*
Y575799D01*
X702700Y568249D02*
Y575799D01*
X702750Y568249D02*
Y575799D01*
X702800Y568249D02*
Y575799D01*
X702850Y568249D02*
Y575799D01*
X702900Y568249D02*
Y575799D01*
X702950Y568249D02*
Y575799D01*
X703000Y568249D02*
Y575799D01*
X703050Y568249D02*
Y575799D01*
X703100Y568249D02*
Y575799D01*
X703150Y568249D02*
Y575799D01*
X703200Y568249D02*
Y575799D01*
X703250Y568249D02*
Y575799D01*
X703300Y568249D02*
Y575799D01*
X703350Y568249D02*
Y575799D01*
X703400Y568249D02*
Y575799D01*
X703450Y568249D02*
Y575799D01*
X703500Y568249D02*
Y575799D01*
X703550Y568249D02*
Y575799D01*
X703600Y568249D02*
Y575799D01*
X703650Y568249D02*
Y575799D01*
X703700Y568249D02*
Y575799D01*
X703750Y568249D02*
Y575799D01*
X703800Y568249D02*
Y575799D01*
X673675Y587599D02*
Y578249D01*
X681225*
Y587599*
X673675*
X673700Y578249D02*
Y587599D01*
X673750Y578249D02*
Y587599D01*
X673800Y578249D02*
Y587599D01*
X673850Y578249D02*
Y587599D01*
X673900Y578249D02*
Y587599D01*
X673950Y578249D02*
Y587599D01*
X674000Y578249D02*
Y587599D01*
X674050Y578249D02*
Y587599D01*
X674100Y578249D02*
Y587599D01*
X674150Y578249D02*
Y587599D01*
X674200Y578249D02*
Y587599D01*
X674250Y578249D02*
Y587599D01*
X674300Y578249D02*
Y587599D01*
X674350Y578249D02*
Y587599D01*
X674400Y578249D02*
Y587599D01*
X674450Y578249D02*
Y587599D01*
X674500Y578249D02*
Y587599D01*
X674550Y578249D02*
Y587599D01*
X674600Y578249D02*
Y587599D01*
X674650Y578249D02*
Y587599D01*
X674700Y578249D02*
Y587599D01*
X674750Y578249D02*
Y587599D01*
X674800Y578249D02*
Y587599D01*
X674850Y578249D02*
Y587599D01*
X674900Y578249D02*
Y587599D01*
X674950Y578249D02*
Y587599D01*
X675000Y578249D02*
Y587599D01*
X675050Y578249D02*
Y587599D01*
X675100Y578249D02*
Y587599D01*
X675150Y578249D02*
Y587599D01*
X675200Y578249D02*
Y587599D01*
X675250Y578249D02*
Y587599D01*
X675300Y578249D02*
Y587599D01*
X675350Y578249D02*
Y587599D01*
X675400Y578249D02*
Y587599D01*
X675450Y578249D02*
Y587599D01*
X675500Y578249D02*
Y587599D01*
X675550Y578249D02*
Y587599D01*
X675600Y578249D02*
Y587599D01*
X675650Y578249D02*
Y587599D01*
X675700Y578249D02*
Y587599D01*
X675750Y578249D02*
Y587599D01*
X675800Y578249D02*
Y587599D01*
X675850Y578249D02*
Y587599D01*
X675900Y578249D02*
Y587599D01*
X675950Y578249D02*
Y587599D01*
X676000Y578249D02*
Y587599D01*
X676050Y578249D02*
Y587599D01*
X676100Y578249D02*
Y587599D01*
X676150Y578249D02*
Y587599D01*
X676200Y578249D02*
Y587599D01*
X676250Y578249D02*
Y587599D01*
X676300Y578249D02*
Y587599D01*
X676350Y578249D02*
Y587599D01*
X676400Y578249D02*
Y587599D01*
X676450Y578249D02*
Y587599D01*
X676500Y578249D02*
Y587599D01*
X676550Y578249D02*
Y587599D01*
X676600Y578249D02*
Y587599D01*
X676650Y578249D02*
Y587599D01*
X676700Y578249D02*
Y587599D01*
X676750Y578249D02*
Y587599D01*
X676800Y578249D02*
Y587599D01*
X676850Y578249D02*
Y587599D01*
X676900Y578249D02*
Y587599D01*
X676950Y578249D02*
Y587599D01*
X677000Y578249D02*
Y587599D01*
X677050Y578249D02*
Y587599D01*
X677100Y578249D02*
Y587599D01*
X677150Y578249D02*
Y587599D01*
X677200Y578249D02*
Y587599D01*
X677250Y578249D02*
Y587599D01*
X677300Y578249D02*
Y587599D01*
X677350Y578249D02*
Y587599D01*
X677400Y578249D02*
Y587599D01*
X677450Y578249D02*
Y587599D01*
X677500Y578249D02*
Y587599D01*
X677550Y578249D02*
Y587599D01*
X677600Y578249D02*
Y587599D01*
X677650Y578249D02*
Y587599D01*
X677700Y578249D02*
Y587599D01*
X677750Y578249D02*
Y587599D01*
X677800Y578249D02*
Y587599D01*
X677850Y578249D02*
Y587599D01*
X677900Y578249D02*
Y587599D01*
X677950Y578249D02*
Y587599D01*
X678000Y578249D02*
Y587599D01*
X678050Y578249D02*
Y587599D01*
X678100Y578249D02*
Y587599D01*
X678150Y578249D02*
Y587599D01*
X678200Y578249D02*
Y587599D01*
X678250Y578249D02*
Y587599D01*
X678300Y578249D02*
Y587599D01*
X678350Y578249D02*
Y587599D01*
X678400Y578249D02*
Y587599D01*
X678450Y578249D02*
Y587599D01*
X678500Y578249D02*
Y587599D01*
X678550Y578249D02*
Y587599D01*
X678600Y578249D02*
Y587599D01*
X678650Y578249D02*
Y587599D01*
X678700Y578249D02*
Y587599D01*
X678750Y578249D02*
Y587599D01*
X678800Y578249D02*
Y587599D01*
X678850Y578249D02*
Y587599D01*
X678900Y578249D02*
Y587599D01*
X678950Y578249D02*
Y587599D01*
X679000Y578249D02*
Y587599D01*
X679050Y578249D02*
Y587599D01*
X679100Y578249D02*
Y587599D01*
X679150Y578249D02*
Y587599D01*
X679200Y578249D02*
Y587599D01*
X679250Y578249D02*
Y587599D01*
X679300Y578249D02*
Y587599D01*
X679350Y578249D02*
Y587599D01*
X679400Y578249D02*
Y587599D01*
X679450Y578249D02*
Y587599D01*
X679500Y578249D02*
Y587599D01*
X679550Y578249D02*
Y587599D01*
X679600Y578249D02*
Y587599D01*
X679650Y578249D02*
Y587599D01*
X679700Y578249D02*
Y587599D01*
X679750Y578249D02*
Y587599D01*
X679800Y578249D02*
Y587599D01*
X679850Y578249D02*
Y587599D01*
X679900Y578249D02*
Y587599D01*
X679950Y578249D02*
Y587599D01*
X680000Y578249D02*
Y587599D01*
X680050Y578249D02*
Y587599D01*
X680100Y578249D02*
Y587599D01*
X680150Y578249D02*
Y587599D01*
X680200Y578249D02*
Y587599D01*
X680250Y578249D02*
Y587599D01*
X680300Y578249D02*
Y587599D01*
X680350Y578249D02*
Y587599D01*
X680400Y578249D02*
Y587599D01*
X680450Y578249D02*
Y587599D01*
X680500Y578249D02*
Y587599D01*
X680550Y578249D02*
Y587599D01*
X680600Y578249D02*
Y587599D01*
X680650Y578249D02*
Y587599D01*
X680700Y578249D02*
Y587599D01*
X680750Y578249D02*
Y587599D01*
X680800Y578249D02*
Y587599D01*
X680850Y578249D02*
Y587599D01*
X680900Y578249D02*
Y587599D01*
X680950Y578249D02*
Y587599D01*
X681000Y578249D02*
Y587599D01*
X681050Y578249D02*
Y587599D01*
X681100Y578249D02*
Y587599D01*
X681150Y578249D02*
Y587599D01*
X681200Y578249D02*
Y587599D01*
X683675D02*
Y578249D01*
X691225*
Y587599*
X683675*
X683700Y578249D02*
Y587599D01*
X683750Y578249D02*
Y587599D01*
X683800Y578249D02*
Y587599D01*
X683850Y578249D02*
Y587599D01*
X683900Y578249D02*
Y587599D01*
X683950Y578249D02*
Y587599D01*
X684000Y578249D02*
Y587599D01*
X684050Y578249D02*
Y587599D01*
X684100Y578249D02*
Y587599D01*
X684150Y578249D02*
Y587599D01*
X684200Y578249D02*
Y587599D01*
X684250Y578249D02*
Y587599D01*
X684300Y578249D02*
Y587599D01*
X684350Y578249D02*
Y587599D01*
X684400Y578249D02*
Y587599D01*
X684450Y578249D02*
Y587599D01*
X684500Y578249D02*
Y587599D01*
X684550Y578249D02*
Y587599D01*
X684600Y578249D02*
Y587599D01*
X684650Y578249D02*
Y587599D01*
X684700Y578249D02*
Y587599D01*
X684750Y578249D02*
Y587599D01*
X684800Y578249D02*
Y587599D01*
X684850Y578249D02*
Y587599D01*
X684900Y578249D02*
Y587599D01*
X684950Y578249D02*
Y587599D01*
X685000Y578249D02*
Y587599D01*
X685050Y578249D02*
Y587599D01*
X685100Y578249D02*
Y587599D01*
X685150Y578249D02*
Y587599D01*
X685200Y578249D02*
Y587599D01*
X685250Y578249D02*
Y587599D01*
X685300Y578249D02*
Y587599D01*
X685350Y578249D02*
Y587599D01*
X685400Y578249D02*
Y587599D01*
X685450Y578249D02*
Y587599D01*
X685500Y578249D02*
Y587599D01*
X685550Y578249D02*
Y587599D01*
X685600Y578249D02*
Y587599D01*
X685650Y578249D02*
Y587599D01*
X685700Y578249D02*
Y587599D01*
X685750Y578249D02*
Y587599D01*
X685800Y578249D02*
Y587599D01*
X685850Y578249D02*
Y587599D01*
X685900Y578249D02*
Y587599D01*
X685950Y578249D02*
Y587599D01*
X686000Y578249D02*
Y587599D01*
X686050Y578249D02*
Y587599D01*
X686100Y578249D02*
Y587599D01*
X686150Y578249D02*
Y587599D01*
X686200Y578249D02*
Y587599D01*
X686250Y578249D02*
Y587599D01*
X686300Y578249D02*
Y587599D01*
X686350Y578249D02*
Y587599D01*
X686400Y578249D02*
Y587599D01*
X686450Y578249D02*
Y587599D01*
X686500Y578249D02*
Y587599D01*
X686550Y578249D02*
Y587599D01*
X686600Y578249D02*
Y587599D01*
X686650Y578249D02*
Y587599D01*
X686700Y578249D02*
Y587599D01*
X686750Y578249D02*
Y587599D01*
X686800Y578249D02*
Y587599D01*
X686850Y578249D02*
Y587599D01*
X686900Y578249D02*
Y587599D01*
X686950Y578249D02*
Y587599D01*
X687000Y578249D02*
Y587599D01*
X687050Y578249D02*
Y587599D01*
X687100Y578249D02*
Y587599D01*
X687150Y578249D02*
Y587599D01*
X687200Y578249D02*
Y587599D01*
X687250Y578249D02*
Y587599D01*
X687300Y578249D02*
Y587599D01*
X687350Y578249D02*
Y587599D01*
X687400Y578249D02*
Y587599D01*
X687450Y578249D02*
Y587599D01*
X687500Y578249D02*
Y587599D01*
X687550Y578249D02*
Y587599D01*
X687600Y578249D02*
Y587599D01*
X687650Y578249D02*
Y587599D01*
X687700Y578249D02*
Y587599D01*
X687750Y578249D02*
Y587599D01*
X687800Y578249D02*
Y587599D01*
X687850Y578249D02*
Y587599D01*
X687900Y578249D02*
Y587599D01*
X687950Y578249D02*
Y587599D01*
X688000Y578249D02*
Y587599D01*
X688050Y578249D02*
Y587599D01*
X688100Y578249D02*
Y587599D01*
X688150Y578249D02*
Y587599D01*
X688200Y578249D02*
Y587599D01*
X688250Y578249D02*
Y587599D01*
X688300Y578249D02*
Y587599D01*
X688350Y578249D02*
Y587599D01*
X688400Y578249D02*
Y587599D01*
X688450Y578249D02*
Y587599D01*
X688500Y578249D02*
Y587599D01*
X688550Y578249D02*
Y587599D01*
X688600Y578249D02*
Y587599D01*
X688650Y578249D02*
Y587599D01*
X688700Y578249D02*
Y587599D01*
X688750Y578249D02*
Y587599D01*
X688800Y578249D02*
Y587599D01*
X688850Y578249D02*
Y587599D01*
X688900Y578249D02*
Y587599D01*
X688950Y578249D02*
Y587599D01*
X689000Y578249D02*
Y587599D01*
X689050Y578249D02*
Y587599D01*
X689100Y578249D02*
Y587599D01*
X689150Y578249D02*
Y587599D01*
X689200Y578249D02*
Y587599D01*
X689250Y578249D02*
Y587599D01*
X689300Y578249D02*
Y587599D01*
X689350Y578249D02*
Y587599D01*
X689400Y578249D02*
Y587599D01*
X689450Y578249D02*
Y587599D01*
X689500Y578249D02*
Y587599D01*
X689550Y578249D02*
Y587599D01*
X689600Y578249D02*
Y587599D01*
X689650Y578249D02*
Y587599D01*
X689700Y578249D02*
Y587599D01*
X689750Y578249D02*
Y587599D01*
X689800Y578249D02*
Y587599D01*
X689850Y578249D02*
Y587599D01*
X689900Y578249D02*
Y587599D01*
X689950Y578249D02*
Y587599D01*
X690000Y578249D02*
Y587599D01*
X690050Y578249D02*
Y587599D01*
X690100Y578249D02*
Y587599D01*
X690150Y578249D02*
Y587599D01*
X690200Y578249D02*
Y587599D01*
X690250Y578249D02*
Y587599D01*
X690300Y578249D02*
Y587599D01*
X690350Y578249D02*
Y587599D01*
X690400Y578249D02*
Y587599D01*
X690450Y578249D02*
Y587599D01*
X690500Y578249D02*
Y587599D01*
X690550Y578249D02*
Y587599D01*
X690600Y578249D02*
Y587599D01*
X690650Y578249D02*
Y587599D01*
X690700Y578249D02*
Y587599D01*
X690750Y578249D02*
Y587599D01*
X690800Y578249D02*
Y587599D01*
X690850Y578249D02*
Y587599D01*
X690900Y578249D02*
Y587599D01*
X690950Y578249D02*
Y587599D01*
X691000Y578249D02*
Y587599D01*
X691050Y578249D02*
Y587599D01*
X691100Y578249D02*
Y587599D01*
X691150Y578249D02*
Y587599D01*
X691200Y578249D02*
Y587599D01*
X693675D02*
Y578249D01*
X703825*
Y587599*
X693675*
X693700Y578249D02*
Y587599D01*
X693750Y578249D02*
Y587599D01*
X693800Y578249D02*
Y587599D01*
X693850Y578249D02*
Y587599D01*
X693900Y578249D02*
Y587599D01*
X693950Y578249D02*
Y587599D01*
X694000Y578249D02*
Y587599D01*
X694050Y578249D02*
Y587599D01*
X694100Y578249D02*
Y587599D01*
X694150Y578249D02*
Y587599D01*
X694200Y578249D02*
Y587599D01*
X694250Y578249D02*
Y587599D01*
X694300Y578249D02*
Y587599D01*
X694350Y578249D02*
Y587599D01*
X694400Y578249D02*
Y587599D01*
X694450Y578249D02*
Y587599D01*
X694500Y578249D02*
Y587599D01*
X694550Y578249D02*
Y587599D01*
X694600Y578249D02*
Y587599D01*
X694650Y578249D02*
Y587599D01*
X694700Y578249D02*
Y587599D01*
X694750Y578249D02*
Y587599D01*
X694800Y578249D02*
Y587599D01*
X694850Y578249D02*
Y587599D01*
X694900Y578249D02*
Y587599D01*
X694950Y578249D02*
Y587599D01*
X695000Y578249D02*
Y587599D01*
X695050Y578249D02*
Y587599D01*
X695100Y578249D02*
Y587599D01*
X695150Y578249D02*
Y587599D01*
X695200Y578249D02*
Y587599D01*
X695250Y578249D02*
Y587599D01*
X695300Y578249D02*
Y587599D01*
X695350Y578249D02*
Y587599D01*
X695400Y578249D02*
Y587599D01*
X695450Y578249D02*
Y587599D01*
X695500Y578249D02*
Y587599D01*
X695550Y578249D02*
Y587599D01*
X695600Y578249D02*
Y587599D01*
X695650Y578249D02*
Y587599D01*
X695700Y578249D02*
Y587599D01*
X695750Y578249D02*
Y587599D01*
X695800Y578249D02*
Y587599D01*
X695850Y578249D02*
Y587599D01*
X695900Y578249D02*
Y587599D01*
X695950Y578249D02*
Y587599D01*
X696000Y578249D02*
Y587599D01*
X696050Y578249D02*
Y587599D01*
X696100Y578249D02*
Y587599D01*
X696150Y578249D02*
Y587599D01*
X696200Y578249D02*
Y587599D01*
X696250Y578249D02*
Y587599D01*
X696300Y578249D02*
Y587599D01*
X696350Y578249D02*
Y587599D01*
X696400Y578249D02*
Y587599D01*
X696450Y578249D02*
Y587599D01*
X696500Y578249D02*
Y587599D01*
X696550Y578249D02*
Y587599D01*
X696600Y578249D02*
Y587599D01*
X696650Y578249D02*
Y587599D01*
X696700Y578249D02*
Y587599D01*
X696750Y578249D02*
Y587599D01*
X696800Y578249D02*
Y587599D01*
X696850Y578249D02*
Y587599D01*
X696900Y578249D02*
Y587599D01*
X696950Y578249D02*
Y587599D01*
X697000Y578249D02*
Y587599D01*
X697050Y578249D02*
Y587599D01*
X697100Y578249D02*
Y587599D01*
X697150Y578249D02*
Y587599D01*
X697200Y578249D02*
Y587599D01*
X697250Y578249D02*
Y587599D01*
X697300Y578249D02*
Y587599D01*
X697350Y578249D02*
Y587599D01*
X697400Y578249D02*
Y587599D01*
X697450Y578249D02*
Y587599D01*
X697500Y578249D02*
Y587599D01*
X697550Y578249D02*
Y587599D01*
X697600Y578249D02*
Y587599D01*
X697650Y578249D02*
Y587599D01*
X697700Y578249D02*
Y587599D01*
X697750Y578249D02*
Y587599D01*
X697800Y578249D02*
Y587599D01*
X697850Y578249D02*
Y587599D01*
X697900Y578249D02*
Y587599D01*
X697950Y578249D02*
Y587599D01*
X698000Y578249D02*
Y587599D01*
X698050Y578249D02*
Y587599D01*
X698100Y578249D02*
Y587599D01*
X698150Y578249D02*
Y587599D01*
X698200Y578249D02*
Y587599D01*
X698250Y578249D02*
Y587599D01*
X698300Y578249D02*
Y587599D01*
X698350Y578249D02*
Y587599D01*
X698400Y578249D02*
Y587599D01*
X698450Y578249D02*
Y587599D01*
X698500Y578249D02*
Y587599D01*
X698550Y578249D02*
Y587599D01*
X698600Y578249D02*
Y587599D01*
X698650Y578249D02*
Y587599D01*
X698700Y578249D02*
Y587599D01*
X698750Y578249D02*
Y587599D01*
X698800Y578249D02*
Y587599D01*
X698850Y578249D02*
Y587599D01*
X698900Y578249D02*
Y587599D01*
X698950Y578249D02*
Y587599D01*
X699000Y578249D02*
Y587599D01*
X699050Y578249D02*
Y587599D01*
X699100Y578249D02*
Y587599D01*
X699150Y578249D02*
Y587599D01*
X699200Y578249D02*
Y587599D01*
X699250Y578249D02*
Y587599D01*
X699300Y578249D02*
Y587599D01*
X699350Y578249D02*
Y587599D01*
X699400Y578249D02*
Y587599D01*
X699450Y578249D02*
Y587599D01*
X699500Y578249D02*
Y587599D01*
X699550Y578249D02*
Y587599D01*
X699600Y578249D02*
Y587599D01*
X699650Y578249D02*
Y587599D01*
X699700Y578249D02*
Y587599D01*
X699750Y578249D02*
Y587599D01*
X699800Y578249D02*
Y587599D01*
X699850Y578249D02*
Y587599D01*
X699900Y578249D02*
Y587599D01*
X699950Y578249D02*
Y587599D01*
X700000Y578249D02*
Y587599D01*
X700050Y578249D02*
Y587599D01*
X700100Y578249D02*
Y587599D01*
X700150Y578249D02*
Y587599D01*
X700200Y578249D02*
Y587599D01*
X700250Y578249D02*
Y587599D01*
X700300Y578249D02*
Y587599D01*
X700350Y578249D02*
Y587599D01*
X700400Y578249D02*
Y587599D01*
X700450Y578249D02*
Y587599D01*
X700500Y578249D02*
Y587599D01*
X700550Y578249D02*
Y587599D01*
X700600Y578249D02*
Y587599D01*
X700650Y578249D02*
Y587599D01*
X700700Y578249D02*
Y587599D01*
X700750Y578249D02*
Y587599D01*
X700800Y578249D02*
Y587599D01*
X700850Y578249D02*
Y587599D01*
X700900Y578249D02*
Y587599D01*
X700950Y578249D02*
Y587599D01*
X701000Y578249D02*
Y587599D01*
X701050Y578249D02*
Y587599D01*
X701100Y578249D02*
Y587599D01*
X701150Y578249D02*
Y587599D01*
X701200Y578249D02*
Y587599D01*
X701250Y578249D02*
Y587599D01*
X701300Y578249D02*
Y587599D01*
X701350Y578249D02*
Y587599D01*
X701400Y578249D02*
Y587599D01*
X701450Y578249D02*
Y587599D01*
X701500Y578249D02*
Y587599D01*
X701550Y578249D02*
Y587599D01*
X701600Y578249D02*
Y587599D01*
X701650Y578249D02*
Y587599D01*
X701700Y578249D02*
Y587599D01*
X701750Y578249D02*
Y587599D01*
X701800Y578249D02*
Y587599D01*
X701850Y578249D02*
Y587599D01*
X701900Y578249D02*
Y587599D01*
X701950Y578249D02*
Y587599D01*
X702000Y578249D02*
Y587599D01*
X702050Y578249D02*
Y587599D01*
X702100Y578249D02*
Y587599D01*
X702150Y578249D02*
Y587599D01*
X702200Y578249D02*
Y587599D01*
X702250Y578249D02*
Y587599D01*
X702300Y578249D02*
Y587599D01*
X702350Y578249D02*
Y587599D01*
X702400Y578249D02*
Y587599D01*
X702450Y578249D02*
Y587599D01*
X702500Y578249D02*
Y587599D01*
X702550Y578249D02*
Y587599D01*
X702600Y578249D02*
Y587599D01*
X702650Y578249D02*
Y587599D01*
X702700Y578249D02*
Y587599D01*
X702750Y578249D02*
Y587599D01*
X702800Y578249D02*
Y587599D01*
X702850Y578249D02*
Y587599D01*
X702900Y578249D02*
Y587599D01*
X702950Y578249D02*
Y587599D01*
X703000Y578249D02*
Y587599D01*
X703050Y578249D02*
Y587599D01*
X703100Y578249D02*
Y587599D01*
X703150Y578249D02*
Y587599D01*
X703200Y578249D02*
Y587599D01*
X703250Y578249D02*
Y587599D01*
X703300Y578249D02*
Y587599D01*
X703350Y578249D02*
Y587599D01*
X703400Y578249D02*
Y587599D01*
X703450Y578249D02*
Y587599D01*
X703500Y578249D02*
Y587599D01*
X703550Y578249D02*
Y587599D01*
X703600Y578249D02*
Y587599D01*
X703650Y578249D02*
Y587599D01*
X703700Y578249D02*
Y587599D01*
X703750Y578249D02*
Y587599D01*
X703800Y578249D02*
Y587599D01*
X391105Y379445D02*
X371555D01*
Y360595*
X391105*
Y363245*
X388070*
X388051Y363250*
X388033Y363260*
X388020Y363274*
X388010Y363291*
X388005Y363310*
Y365930*
X388010Y365949*
X388020Y365966*
X388033Y365980*
X388051Y365990*
X388070Y365995*
X391105*
Y368645*
X388070*
X388051Y368650*
X388033Y368660*
X388020Y368674*
X388010Y368691*
X388005Y368710*
Y371330*
X388010Y371349*
X388020Y371366*
X388033Y371380*
X388051Y371390*
X388070Y371395*
X391105*
Y374045*
X388070*
X388051Y374050*
X388033Y374060*
X388020Y374074*
X388010Y374091*
X388005Y374110*
Y376730*
X388010Y376749*
X388020Y376766*
X388033Y376780*
X388051Y376790*
X388070Y376795*
X391105*
Y379445*
X371600Y360595D02*
Y379445D01*
X371650Y360595D02*
Y379445D01*
X371700Y360595D02*
Y379445D01*
X371750Y360595D02*
Y379445D01*
X371800Y360595D02*
Y379445D01*
X371850Y360595D02*
Y379445D01*
X371900Y360595D02*
Y379445D01*
X371950Y360595D02*
Y379445D01*
X372000Y360595D02*
Y379445D01*
X372050Y360595D02*
Y379445D01*
X372100Y360595D02*
Y379445D01*
X372150Y360595D02*
Y379445D01*
X372200Y360595D02*
Y379445D01*
X372250Y360595D02*
Y379445D01*
X372300Y360595D02*
Y379445D01*
X372350Y360595D02*
Y379445D01*
X372400Y360595D02*
Y379445D01*
X372450Y360595D02*
Y379445D01*
X372500Y360595D02*
Y379445D01*
X372550Y360595D02*
Y379445D01*
X372600Y360595D02*
Y379445D01*
X372650Y360595D02*
Y379445D01*
X372700Y360595D02*
Y379445D01*
X372750Y360595D02*
Y379445D01*
X372800Y360595D02*
Y379445D01*
X372850Y360595D02*
Y379445D01*
X372900Y360595D02*
Y379445D01*
X372950Y360595D02*
Y379445D01*
X373000Y360595D02*
Y379445D01*
X373050Y360595D02*
Y379445D01*
X373100Y360595D02*
Y379445D01*
X373150Y360595D02*
Y379445D01*
X373200Y360595D02*
Y379445D01*
X373250Y360595D02*
Y379445D01*
X373300Y360595D02*
Y379445D01*
X373350Y360595D02*
Y379445D01*
X373400Y360595D02*
Y379445D01*
X373450Y360595D02*
Y379445D01*
X373500Y360595D02*
Y379445D01*
X373550Y360595D02*
Y379445D01*
X373600Y360595D02*
Y379445D01*
X373650Y360595D02*
Y379445D01*
X373700Y360595D02*
Y379445D01*
X373750Y360595D02*
Y379445D01*
X373800Y360595D02*
Y379445D01*
X373850Y360595D02*
Y379445D01*
X373900Y360595D02*
Y379445D01*
X373950Y360595D02*
Y379445D01*
X374000Y360595D02*
Y379445D01*
X374050Y360595D02*
Y379445D01*
X374100Y360595D02*
Y379445D01*
X374150Y360595D02*
Y379445D01*
X374200Y360595D02*
Y379445D01*
X374250Y360595D02*
Y379445D01*
X374300Y360595D02*
Y379445D01*
X374350Y360595D02*
Y379445D01*
X374400Y360595D02*
Y379445D01*
X374450Y360595D02*
Y379445D01*
X374500Y360595D02*
Y379445D01*
X374550Y360595D02*
Y379445D01*
X374600Y360595D02*
Y379445D01*
X374650Y360595D02*
Y379445D01*
X374700Y360595D02*
Y379445D01*
X374750Y360595D02*
Y379445D01*
X374800Y360595D02*
Y379445D01*
X374850Y360595D02*
Y379445D01*
X374900Y360595D02*
Y379445D01*
X374950Y360595D02*
Y379445D01*
X375000Y360595D02*
Y379445D01*
X375050Y360595D02*
Y379445D01*
X375100Y360595D02*
Y379445D01*
X375150Y360595D02*
Y379445D01*
X375200Y360595D02*
Y379445D01*
X375250Y360595D02*
Y379445D01*
X375300Y360595D02*
Y379445D01*
X375350Y360595D02*
Y379445D01*
X375400Y360595D02*
Y379445D01*
X375450Y360595D02*
Y379445D01*
X375500Y360595D02*
Y379445D01*
X375550Y360595D02*
Y379445D01*
X375600Y360595D02*
Y379445D01*
X375650Y360595D02*
Y379445D01*
X375700Y360595D02*
Y379445D01*
X375750Y360595D02*
Y379445D01*
X375800Y360595D02*
Y379445D01*
X375850Y360595D02*
Y379445D01*
X375900Y360595D02*
Y379445D01*
X375950Y360595D02*
Y379445D01*
X376000Y360595D02*
Y379445D01*
X376050Y360595D02*
Y379445D01*
X376100Y360595D02*
Y379445D01*
X376150Y360595D02*
Y379445D01*
X376200Y360595D02*
Y379445D01*
X376250Y360595D02*
Y379445D01*
X376300Y360595D02*
Y379445D01*
X376350Y360595D02*
Y379445D01*
X376400Y360595D02*
Y379445D01*
X376450Y360595D02*
Y379445D01*
X376500Y360595D02*
Y379445D01*
X376550Y360595D02*
Y379445D01*
X376600Y360595D02*
Y379445D01*
X376650Y360595D02*
Y379445D01*
X376700Y360595D02*
Y379445D01*
X376750Y360595D02*
Y379445D01*
X376800Y360595D02*
Y379445D01*
X376850Y360595D02*
Y379445D01*
X376900Y360595D02*
Y379445D01*
X376950Y360595D02*
Y379445D01*
X377000Y360595D02*
Y379445D01*
X377050Y360595D02*
Y379445D01*
X377100Y360595D02*
Y379445D01*
X377150Y360595D02*
Y379445D01*
X377200Y360595D02*
Y379445D01*
X377250Y360595D02*
Y379445D01*
X377300Y360595D02*
Y379445D01*
X377350Y360595D02*
Y379445D01*
X377400Y360595D02*
Y379445D01*
X377450Y360595D02*
Y379445D01*
X377500Y360595D02*
Y379445D01*
X377550Y360595D02*
Y379445D01*
X377600Y360595D02*
Y379445D01*
X377650Y360595D02*
Y379445D01*
X377700Y360595D02*
Y379445D01*
X377750Y360595D02*
Y379445D01*
X377800Y360595D02*
Y379445D01*
X377850Y360595D02*
Y379445D01*
X377900Y360595D02*
Y379445D01*
X377950Y360595D02*
Y379445D01*
X378000Y360595D02*
Y379445D01*
X378050Y360595D02*
Y379445D01*
X378100Y360595D02*
Y379445D01*
X378150Y360595D02*
Y379445D01*
X378200Y360595D02*
Y379445D01*
X378250Y360595D02*
Y379445D01*
X378300Y360595D02*
Y379445D01*
X378350Y360595D02*
Y379445D01*
X378400Y360595D02*
Y379445D01*
X378450Y360595D02*
Y379445D01*
X378500Y360595D02*
Y379445D01*
X378550Y360595D02*
Y379445D01*
X378600Y360595D02*
Y379445D01*
X378650Y360595D02*
Y379445D01*
X378700Y360595D02*
Y379445D01*
X378750Y360595D02*
Y379445D01*
X378800Y360595D02*
Y379445D01*
X378850Y360595D02*
Y379445D01*
X378900Y360595D02*
Y379445D01*
X378950Y360595D02*
Y379445D01*
X379000Y360595D02*
Y379445D01*
X379050Y360595D02*
Y379445D01*
X379100Y360595D02*
Y379445D01*
X379150Y360595D02*
Y379445D01*
X379200Y360595D02*
Y379445D01*
X379250Y360595D02*
Y379445D01*
X379300Y360595D02*
Y379445D01*
X379350Y360595D02*
Y379445D01*
X379400Y360595D02*
Y379445D01*
X379450Y360595D02*
Y379445D01*
X379500Y360595D02*
Y379445D01*
X379550Y360595D02*
Y379445D01*
X379600Y360595D02*
Y379445D01*
X379650Y360595D02*
Y379445D01*
X379700Y360595D02*
Y379445D01*
X379750Y360595D02*
Y379445D01*
X379800Y360595D02*
Y379445D01*
X379850Y360595D02*
Y379445D01*
X379900Y360595D02*
Y379445D01*
X379950Y360595D02*
Y379445D01*
X380000Y360595D02*
Y379445D01*
X380050Y360595D02*
Y379445D01*
X380100Y360595D02*
Y379445D01*
X380150Y360595D02*
Y379445D01*
X380200Y360595D02*
Y379445D01*
X380250Y360595D02*
Y379445D01*
X380300Y360595D02*
Y379445D01*
X380350Y360595D02*
Y379445D01*
X380400Y360595D02*
Y379445D01*
X380450Y360595D02*
Y379445D01*
X380500Y360595D02*
Y379445D01*
X380550Y360595D02*
Y379445D01*
X380600Y360595D02*
Y379445D01*
X380650Y360595D02*
Y379445D01*
X380700Y360595D02*
Y379445D01*
X380750Y360595D02*
Y379445D01*
X380800Y360595D02*
Y379445D01*
X380850Y360595D02*
Y379445D01*
X380900Y360595D02*
Y379445D01*
X380950Y360595D02*
Y379445D01*
X381000Y360595D02*
Y379445D01*
X381050Y360595D02*
Y379445D01*
X381100Y360595D02*
Y379445D01*
X381150Y360595D02*
Y379445D01*
X381200Y360595D02*
Y379445D01*
X381250Y360595D02*
Y379445D01*
X381300Y360595D02*
Y379445D01*
X381350Y360595D02*
Y379445D01*
X381400Y360595D02*
Y379445D01*
X381450Y360595D02*
Y379445D01*
X381500Y360595D02*
Y379445D01*
X381550Y360595D02*
Y379445D01*
X381600Y360595D02*
Y379445D01*
X381650Y360595D02*
Y379445D01*
X381700Y360595D02*
Y379445D01*
X381750Y360595D02*
Y379445D01*
X381800Y360595D02*
Y379445D01*
X381850Y360595D02*
Y379445D01*
X381900Y360595D02*
Y379445D01*
X381950Y360595D02*
Y379445D01*
X382000Y360595D02*
Y379445D01*
X382050Y360595D02*
Y379445D01*
X382100Y360595D02*
Y379445D01*
X382150Y360595D02*
Y379445D01*
X382200Y360595D02*
Y379445D01*
X382250Y360595D02*
Y379445D01*
X382300Y360595D02*
Y379445D01*
X382350Y360595D02*
Y379445D01*
X382400Y360595D02*
Y379445D01*
X382450Y360595D02*
Y379445D01*
X382500Y360595D02*
Y379445D01*
X382550Y360595D02*
Y379445D01*
X382600Y360595D02*
Y379445D01*
X382650Y360595D02*
Y379445D01*
X382700Y360595D02*
Y379445D01*
X382750Y360595D02*
Y379445D01*
X382800Y360595D02*
Y379445D01*
X382850Y360595D02*
Y379445D01*
X382900Y360595D02*
Y379445D01*
X382950Y360595D02*
Y379445D01*
X383000Y360595D02*
Y379445D01*
X383050Y360595D02*
Y379445D01*
X383100Y360595D02*
Y379445D01*
X383150Y360595D02*
Y379445D01*
X383200Y360595D02*
Y379445D01*
X383250Y360595D02*
Y379445D01*
X383300Y360595D02*
Y379445D01*
X383350Y360595D02*
Y379445D01*
X383400Y360595D02*
Y379445D01*
X383450Y360595D02*
Y379445D01*
X383500Y360595D02*
Y379445D01*
X383550Y360595D02*
Y379445D01*
X383600Y360595D02*
Y379445D01*
X383650Y360595D02*
Y379445D01*
X383700Y360595D02*
Y379445D01*
X383750Y360595D02*
Y379445D01*
X383800Y360595D02*
Y379445D01*
X383850Y360595D02*
Y379445D01*
X383900Y360595D02*
Y379445D01*
X383950Y360595D02*
Y379445D01*
X384000Y360595D02*
Y379445D01*
X384050Y360595D02*
Y379445D01*
X384100Y360595D02*
Y379445D01*
X384150Y360595D02*
Y379445D01*
X384200Y360595D02*
Y379445D01*
X384250Y360595D02*
Y379445D01*
X384300Y360595D02*
Y379445D01*
X384350Y360595D02*
Y379445D01*
X384400Y360595D02*
Y379445D01*
X384450Y360595D02*
Y379445D01*
X384500Y360595D02*
Y379445D01*
X384550Y360595D02*
Y379445D01*
X384600Y360595D02*
Y379445D01*
X384650Y360595D02*
Y379445D01*
X384700Y360595D02*
Y379445D01*
X384750Y360595D02*
Y379445D01*
X384800Y360595D02*
Y379445D01*
X384850Y360595D02*
Y379445D01*
X384900Y360595D02*
Y379445D01*
X384950Y360595D02*
Y379445D01*
X385000Y360595D02*
Y379445D01*
X385050Y360595D02*
Y379445D01*
X385100Y360595D02*
Y379445D01*
X385150Y360595D02*
Y379445D01*
X385200Y360595D02*
Y379445D01*
X385250Y360595D02*
Y379445D01*
X385300Y360595D02*
Y379445D01*
X385350Y360595D02*
Y379445D01*
X385400Y360595D02*
Y379445D01*
X385450Y360595D02*
Y379445D01*
X385500Y360595D02*
Y379445D01*
X385550Y360595D02*
Y379445D01*
X385600Y360595D02*
Y379445D01*
X385650Y360595D02*
Y379445D01*
X385700Y360595D02*
Y379445D01*
X385750Y360595D02*
Y379445D01*
X385800Y360595D02*
Y379445D01*
X385850Y360595D02*
Y379445D01*
X385900Y360595D02*
Y379445D01*
X385950Y360595D02*
Y379445D01*
X386000Y360595D02*
Y379445D01*
X386050Y360595D02*
Y379445D01*
X386100Y360595D02*
Y379445D01*
X386150Y360595D02*
Y379445D01*
X386200Y360595D02*
Y379445D01*
X386250Y360595D02*
Y379445D01*
X386300Y360595D02*
Y379445D01*
X386350Y360595D02*
Y379445D01*
X386400Y360595D02*
Y379445D01*
X386450Y360595D02*
Y379445D01*
X386500Y360595D02*
Y379445D01*
X386550Y360595D02*
Y379445D01*
X386600Y360595D02*
Y379445D01*
X386650Y360595D02*
Y379445D01*
X386700Y360595D02*
Y379445D01*
X386750Y360595D02*
Y379445D01*
X386800Y360595D02*
Y379445D01*
X386850Y360595D02*
Y379445D01*
X386900Y360595D02*
Y379445D01*
X386950Y360595D02*
Y379445D01*
X387000Y360595D02*
Y379445D01*
X387050Y360595D02*
Y379445D01*
X387100Y360595D02*
Y379445D01*
X387150Y360595D02*
Y379445D01*
X387200Y360595D02*
Y379445D01*
X387250Y360595D02*
Y379445D01*
X387300Y360595D02*
Y379445D01*
X387350Y360595D02*
Y379445D01*
X387400Y360595D02*
Y379445D01*
X387450Y360595D02*
Y379445D01*
X387500Y360595D02*
Y379445D01*
X387550Y360595D02*
Y379445D01*
X387600Y360595D02*
Y379445D01*
X387650Y360595D02*
Y379445D01*
X387700Y360595D02*
Y379445D01*
X387750Y360595D02*
Y379445D01*
X387800Y360595D02*
Y379445D01*
X387850Y360595D02*
Y379445D01*
X387900Y360595D02*
Y379445D01*
X387950Y360595D02*
Y379445D01*
X388000Y360595D02*
Y379445D01*
X388050Y360595D02*
Y363250D01*
Y365989D02*
Y368650D01*
Y371389D02*
Y374050D01*
Y376789D02*
Y379445D01*
X388100Y360595D02*
Y363245D01*
Y365995D02*
Y368645D01*
Y371395D02*
Y374045D01*
Y376795D02*
Y379445D01*
X388150Y360595D02*
Y363245D01*
Y365995D02*
Y368645D01*
Y371395D02*
Y374045D01*
Y376795D02*
Y379445D01*
X388200Y360595D02*
Y363245D01*
Y365995D02*
Y368645D01*
Y371395D02*
Y374045D01*
Y376795D02*
Y379445D01*
X388250Y360595D02*
Y363245D01*
Y365995D02*
Y368645D01*
Y371395D02*
Y374045D01*
Y376795D02*
Y379445D01*
X388300Y360595D02*
Y363245D01*
Y365995D02*
Y368645D01*
Y371395D02*
Y374045D01*
Y376795D02*
Y379445D01*
X388350Y360595D02*
Y363245D01*
Y365995D02*
Y368645D01*
Y371395D02*
Y374045D01*
Y376795D02*
Y379445D01*
X388400Y360595D02*
Y363245D01*
Y365995D02*
Y368645D01*
Y371395D02*
Y374045D01*
Y376795D02*
Y379445D01*
X388450Y360595D02*
Y363245D01*
Y365995D02*
Y368645D01*
Y371395D02*
Y374045D01*
Y376795D02*
Y379445D01*
X388500Y360595D02*
Y363245D01*
Y365995D02*
Y368645D01*
Y371395D02*
Y374045D01*
Y376795D02*
Y379445D01*
X388550Y360595D02*
Y363245D01*
Y365995D02*
Y368645D01*
Y371395D02*
Y374045D01*
Y376795D02*
Y379445D01*
X388600Y360595D02*
Y363245D01*
Y365995D02*
Y368645D01*
Y371395D02*
Y374045D01*
Y376795D02*
Y379445D01*
X388650Y360595D02*
Y363245D01*
Y365995D02*
Y368645D01*
Y371395D02*
Y374045D01*
Y376795D02*
Y379445D01*
X388700Y360595D02*
Y363245D01*
Y365995D02*
Y368645D01*
Y371395D02*
Y374045D01*
Y376795D02*
Y379445D01*
X388750Y360595D02*
Y363245D01*
Y365995D02*
Y368645D01*
Y371395D02*
Y374045D01*
Y376795D02*
Y379445D01*
X388800Y360595D02*
Y363245D01*
Y365995D02*
Y368645D01*
Y371395D02*
Y374045D01*
Y376795D02*
Y379445D01*
X388850Y360595D02*
Y363245D01*
Y365995D02*
Y368645D01*
Y371395D02*
Y374045D01*
Y376795D02*
Y379445D01*
X388900Y360595D02*
Y363245D01*
Y365995D02*
Y368645D01*
Y371395D02*
Y374045D01*
Y376795D02*
Y379445D01*
X388950Y360595D02*
Y363245D01*
Y365995D02*
Y368645D01*
Y371395D02*
Y374045D01*
Y376795D02*
Y379445D01*
X389000Y360595D02*
Y363245D01*
Y365995D02*
Y368645D01*
Y371395D02*
Y374045D01*
Y376795D02*
Y379445D01*
X389050Y360595D02*
Y363245D01*
Y365995D02*
Y368645D01*
Y371395D02*
Y374045D01*
Y376795D02*
Y379445D01*
X389100Y360595D02*
Y363245D01*
Y365995D02*
Y368645D01*
Y371395D02*
Y374045D01*
Y376795D02*
Y379445D01*
X389150Y360595D02*
Y363245D01*
Y365995D02*
Y368645D01*
Y371395D02*
Y374045D01*
Y376795D02*
Y379445D01*
X389200Y360595D02*
Y363245D01*
Y365995D02*
Y368645D01*
Y371395D02*
Y374045D01*
Y376795D02*
Y379445D01*
X389250Y360595D02*
Y363245D01*
Y365995D02*
Y368645D01*
Y371395D02*
Y374045D01*
Y376795D02*
Y379445D01*
X389300Y360595D02*
Y363245D01*
Y365995D02*
Y368645D01*
Y371395D02*
Y374045D01*
Y376795D02*
Y379445D01*
X389350Y360595D02*
Y363245D01*
Y365995D02*
Y368645D01*
Y371395D02*
Y374045D01*
Y376795D02*
Y379445D01*
X389400Y360595D02*
Y363245D01*
Y365995D02*
Y368645D01*
Y371395D02*
Y374045D01*
Y376795D02*
Y379445D01*
X389450Y360595D02*
Y363245D01*
Y365995D02*
Y368645D01*
Y371395D02*
Y374045D01*
Y376795D02*
Y379445D01*
X389500Y360595D02*
Y363245D01*
Y365995D02*
Y368645D01*
Y371395D02*
Y374045D01*
Y376795D02*
Y379445D01*
X389550Y360595D02*
Y363245D01*
Y365995D02*
Y368645D01*
Y371395D02*
Y374045D01*
Y376795D02*
Y379445D01*
X389600Y360595D02*
Y363245D01*
Y365995D02*
Y368645D01*
Y371395D02*
Y374045D01*
Y376795D02*
Y379445D01*
X389650Y360595D02*
Y363245D01*
Y365995D02*
Y368645D01*
Y371395D02*
Y374045D01*
Y376795D02*
Y379445D01*
X389700Y360595D02*
Y363245D01*
Y365995D02*
Y368645D01*
Y371395D02*
Y374045D01*
Y376795D02*
Y379445D01*
X389750Y360595D02*
Y363245D01*
Y365995D02*
Y368645D01*
Y371395D02*
Y374045D01*
Y376795D02*
Y379445D01*
X389800Y360595D02*
Y363245D01*
Y365995D02*
Y368645D01*
Y371395D02*
Y374045D01*
Y376795D02*
Y379445D01*
X389850Y360595D02*
Y363245D01*
Y365995D02*
Y368645D01*
Y371395D02*
Y374045D01*
Y376795D02*
Y379445D01*
X389900Y360595D02*
Y363245D01*
Y365995D02*
Y368645D01*
Y371395D02*
Y374045D01*
Y376795D02*
Y379445D01*
X389950Y360595D02*
Y363245D01*
Y365995D02*
Y368645D01*
Y371395D02*
Y374045D01*
Y376795D02*
Y379445D01*
X390000Y360595D02*
Y363245D01*
Y365995D02*
Y368645D01*
Y371395D02*
Y374045D01*
Y376795D02*
Y379445D01*
X390050Y360595D02*
Y363245D01*
Y365995D02*
Y368645D01*
Y371395D02*
Y374045D01*
Y376795D02*
Y379445D01*
X390100Y360595D02*
Y363245D01*
Y365995D02*
Y368645D01*
Y371395D02*
Y374045D01*
Y376795D02*
Y379445D01*
X390150Y360595D02*
Y363245D01*
Y365995D02*
Y368645D01*
Y371395D02*
Y374045D01*
Y376795D02*
Y379445D01*
X390200Y360595D02*
Y363245D01*
Y365995D02*
Y368645D01*
Y371395D02*
Y374045D01*
Y376795D02*
Y379445D01*
X390250Y360595D02*
Y363245D01*
Y365995D02*
Y368645D01*
Y371395D02*
Y374045D01*
Y376795D02*
Y379445D01*
X390300Y360595D02*
Y363245D01*
Y365995D02*
Y368645D01*
Y371395D02*
Y374045D01*
Y376795D02*
Y379445D01*
X390350Y360595D02*
Y363245D01*
Y365995D02*
Y368645D01*
Y371395D02*
Y374045D01*
Y376795D02*
Y379445D01*
X390400Y360595D02*
Y363245D01*
Y365995D02*
Y368645D01*
Y371395D02*
Y374045D01*
Y376795D02*
Y379445D01*
X390450Y360595D02*
Y363245D01*
Y365995D02*
Y368645D01*
Y371395D02*
Y374045D01*
Y376795D02*
Y379445D01*
X390500Y360595D02*
Y363245D01*
Y365995D02*
Y368645D01*
Y371395D02*
Y374045D01*
Y376795D02*
Y379445D01*
X390550Y360595D02*
Y363245D01*
Y365995D02*
Y368645D01*
Y371395D02*
Y374045D01*
Y376795D02*
Y379445D01*
X390600Y360595D02*
Y363245D01*
Y365995D02*
Y368645D01*
Y371395D02*
Y374045D01*
Y376795D02*
Y379445D01*
X390650Y360595D02*
Y363245D01*
Y365995D02*
Y368645D01*
Y371395D02*
Y374045D01*
Y376795D02*
Y379445D01*
X390700Y360595D02*
Y363245D01*
Y365995D02*
Y368645D01*
Y371395D02*
Y374045D01*
Y376795D02*
Y379445D01*
X390750Y360595D02*
Y363245D01*
Y365995D02*
Y368645D01*
Y371395D02*
Y374045D01*
Y376795D02*
Y379445D01*
X390800Y360595D02*
Y363245D01*
Y365995D02*
Y368645D01*
Y371395D02*
Y374045D01*
Y376795D02*
Y379445D01*
X390850Y360595D02*
Y363245D01*
Y365995D02*
Y368645D01*
Y371395D02*
Y374045D01*
Y376795D02*
Y379445D01*
X390900Y360595D02*
Y363245D01*
Y365995D02*
Y368645D01*
Y371395D02*
Y374045D01*
Y376795D02*
Y379445D01*
X390950Y360595D02*
Y363245D01*
Y365995D02*
Y368645D01*
Y371395D02*
Y374045D01*
Y376795D02*
Y379445D01*
X391000Y360595D02*
Y363245D01*
Y365995D02*
Y368645D01*
Y371395D02*
Y374045D01*
Y376795D02*
Y379445D01*
X391050Y360595D02*
Y363245D01*
Y365995D02*
Y368645D01*
Y371395D02*
Y374045D01*
Y376795D02*
Y379445D01*
X391100Y360595D02*
Y363245D01*
Y365995D02*
Y368645D01*
Y371395D02*
Y374045D01*
Y376795D02*
Y379445D01*
G54D11*
X313125Y205625D03*
Y188625D03*
X676341Y433608D03*
Y450608D03*
X221250Y134375D03*
Y151375D03*
G54D12*
X615000Y935625D03*
X628000D03*
X506104Y979673D03*
Y966673D03*
X603125Y955000D03*
Y942000D03*
X500138Y992128D03*
X513138D03*
X519356Y952191D03*
X532356D03*
X156250Y241250D03*
X169250D03*
X175668Y273890D03*
Y260890D03*
X211371Y313948D03*
Y300948D03*
X388740Y610671D03*
X375740D03*
X143980Y252057D03*
X130980D03*
X144131Y262297D03*
X131131D03*
X144281Y272687D03*
X131281D03*
X144357Y282777D03*
X131357D03*
X144357Y293017D03*
X131357D03*
X144201Y303422D03*
X131201D03*
X131250Y313750D03*
X144250D03*
X131353Y324338D03*
X144353D03*
X648750Y971875D03*
Y958875D03*
X467937Y667247D03*
Y680247D03*
X648750Y948750D03*
Y935750D03*
X676250Y984375D03*
Y971375D03*
X344716Y336317D03*
X358216D03*
X392402Y347827D03*
Y334327D03*
X383415Y388841D03*
X369915D03*
X345125Y314375D03*
X358625D03*
X349156Y303630D03*
Y290130D03*
X400900Y305150D03*
Y318650D03*
X336806Y361216D03*
Y347716D03*
X341838Y279280D03*
Y265780D03*
X364375Y266375D03*
Y279875D03*
X353750D03*
Y266375D03*
X277584Y266004D03*
Y252504D03*
X253368Y201377D03*
Y187877D03*
X242375Y303125D03*
X228875D03*
X261873Y330498D03*
X248373D03*
X236125Y330625D03*
X222625D03*
X219500Y246875D03*
X233000D03*
X665250Y166875D03*
X678750D03*
X665250Y156875D03*
X678750D03*
X665250Y116875D03*
X678750D03*
X665250Y126875D03*
X678750D03*
X665250Y136875D03*
X678750D03*
X665250Y146875D03*
X678750D03*
X390900Y318650D03*
Y305150D03*
X671718Y622206D03*
Y608706D03*
G54D13*
X636875Y801250D03*
G54D14*
Y791250D03*
Y781250D03*
Y771250D03*
Y761250D03*
Y751250D03*
Y741250D03*
Y731250D03*
X674375D03*
Y741250D03*
Y751250D03*
Y761250D03*
Y771250D03*
Y781250D03*
Y791250D03*
Y801250D03*
G54D15*
X215625Y258125D03*
X616875Y961250D03*
G54D16*
X215625Y263125D03*
Y268125D03*
Y273125D03*
Y278125D03*
Y283125D03*
Y288125D03*
Y293125D03*
X196025D03*
Y288125D03*
Y283125D03*
Y278125D03*
Y273125D03*
Y268125D03*
Y263125D03*
Y258125D03*
X616875Y956250D03*
Y951250D03*
Y946250D03*
X636475D03*
Y951250D03*
Y956250D03*
Y961250D03*
G54D17*
X593125Y940000D03*
Y950000D03*
X557125D03*
Y940000D03*
G54D18*
X374989Y620469D03*
X384989D03*
Y656469D03*
X374989D03*
X243948Y210951D03*
X253948D03*
Y246951D03*
X243948D03*
G54D19*
X522500Y962500D03*
G54D20*
X527500D03*
X532500D03*
X537500D03*
X542500D03*
X547500D03*
X552500D03*
X557500D03*
Y982100D03*
X552500D03*
X547500D03*
X542500D03*
X537500D03*
X532500D03*
X527500D03*
X522500D03*
G54D21*
X663125Y936250D03*
Y947950D03*
Y959375D03*
Y971075D03*
G54D22*
X349273Y356575D03*
X358273D03*
X390492Y287886D03*
X399492D03*
X358094Y325915D03*
X349094D03*
X349212Y346720D03*
X358212D03*
X254250Y303125D03*
X263250D03*
X533246Y992246D03*
X524246D03*
X194917Y250900D03*
X203917D03*
X700570Y637000D03*
X691570D03*
X629413Y971022D03*
X620413D03*
X449150Y671422D03*
X458150D03*
X449222Y681138D03*
X458222D03*
G54D23*
X375200Y283802D03*
Y274802D03*
X359677Y303153D03*
Y294153D03*
X276999Y286705D03*
Y277705D03*
X276413Y298665D03*
Y307665D03*
X226038Y270045D03*
Y261045D03*
X185906Y270196D03*
Y261196D03*
X225661Y283257D03*
Y292257D03*
X515861Y977900D03*
Y968900D03*
X710169Y621315D03*
Y612315D03*
X518971Y746411D03*
Y755411D03*
X528156Y746486D03*
Y755486D03*
G54D24*
X331625Y251250D03*
X357125D03*
X331625Y233750D03*
X357125D03*
G54D25*
X367426Y294445D03*
X372426D03*
X377426D03*
X382426D03*
Y314445D03*
X377426D03*
X372426D03*
X367426D03*
G54D26*
X505625Y747125D03*
Y776625D03*
X390000Y241500D03*
Y271000D03*
X407500Y241500D03*
Y271000D03*
X425625Y241500D03*
Y271000D03*
G54D27*
X236250Y148625D03*
Y135125D03*
X327700Y191050D03*
Y204550D03*
G54D28*
X518150Y130500D03*
X531650D03*
X570250Y130300D03*
X583750D03*
X544350Y130500D03*
X557850D03*
X595650Y130000D03*
X609150D03*
G54D29*
X420633Y678604D03*
Y658604D03*
X437133D03*
Y678604D03*
G54D30*
X672600Y532674D03*
X682600D03*
X692600D03*
G54D31*
X640779Y239741D03*
Y234741D03*
Y229741D03*
Y224741D03*
X653079D03*
Y229741D03*
Y234741D03*
Y239741D03*
X640438Y261582D03*
Y256582D03*
Y251582D03*
Y246582D03*
X652738D03*
Y251582D03*
Y256582D03*
Y261582D03*
G54D32*
X396080Y665549D03*
X401080D03*
X406080D03*
X411080D03*
Y677849D03*
X406080D03*
X401080D03*
X396080D03*
X668846Y915766D03*
X663846D03*
X658846D03*
X653846D03*
Y903466D03*
X658846D03*
X663846D03*
X668846D03*
X674258Y824182D03*
X669258D03*
X664258D03*
X659258D03*
Y811882D03*
X664258D03*
X669258D03*
X674258D03*
X650616Y824418D03*
X645616D03*
X640616D03*
X635616D03*
Y812118D03*
X640616D03*
X645616D03*
X650616D03*
X499020Y403840D03*
X504020D03*
X509020D03*
X514020D03*
Y416140D03*
X509020D03*
X504020D03*
X499020D03*
X527991Y403840D03*
X532991D03*
X537991D03*
X542991D03*
Y416140D03*
X537991D03*
X532991D03*
X527991D03*
X567150Y403840D03*
X572150D03*
X577150D03*
X582150D03*
Y416140D03*
X577150D03*
X572150D03*
X567150D03*
X632505Y403840D03*
X637505D03*
X642505D03*
X647505D03*
Y416140D03*
X642505D03*
X637505D03*
X632505D03*
X599376Y403840D03*
X604376D03*
X609376D03*
X614376D03*
Y416140D03*
X609376D03*
X604376D03*
X599376D03*
X662015Y403840D03*
X667015D03*
X672015D03*
X677015D03*
Y416140D03*
X672015D03*
X667015D03*
X662015D03*
X200308Y313648D03*
X195308D03*
X190308D03*
X185308D03*
Y301348D03*
X190308D03*
X195308D03*
X200308D03*
X678105Y687410D03*
X673105D03*
X668105D03*
X663105D03*
Y675110D03*
X668105D03*
X673105D03*
X678105D03*
G54D33*
X451500Y379375D03*
X471000D03*
G54D34*
X244375Y202697D03*
Y189803D03*
G54D35*
X659000Y532600D03*
X645800D03*
G54D36*
X702900Y516100D03*
X677900D03*
X702900Y497200D03*
X677900D03*
G54D37*
X647396Y889661D03*
Y881791D03*
X664396D03*
X647396Y873911D03*
X664396D03*
X647396Y866040D03*
X664396D03*
X647396Y858161D03*
X664396D03*
X647396Y850291D03*
X664396D03*
X647396Y842418D03*
X664396D03*
Y889661D03*
G54D38*
X693400Y481800D03*
X680400D03*
G54D39*
X514375Y576250D03*
X532105D03*
X551805D03*
X571505D03*
X591205D03*
X610905D03*
X604995Y694720D03*
X585295D03*
X565595D03*
X545895D03*
X526195D03*
G54D40*
X516345Y576250D03*
X518315D03*
X520285D03*
X522255D03*
X524225D03*
X526195D03*
X528165D03*
X530135D03*
X534075D03*
X536045D03*
X538015D03*
X539985D03*
X541955D03*
X543925D03*
X545895D03*
X547865D03*
X549835D03*
X553775D03*
X555745D03*
X557715D03*
X559685D03*
X561655D03*
X563625D03*
X565595D03*
X567565D03*
X569535D03*
X573475D03*
X575445D03*
X577415D03*
X579385D03*
X581355D03*
X583325D03*
X585295D03*
X587265D03*
X589235D03*
X593175D03*
X595145D03*
X597115D03*
X599085D03*
X601055D03*
X603025D03*
X604995D03*
X606965D03*
X608935D03*
X612875D03*
X614845D03*
Y694720D03*
X612875D03*
X610905D03*
X608935D03*
X606965D03*
X603025D03*
X601055D03*
X599085D03*
X597115D03*
X595145D03*
X593175D03*
X591205D03*
X589235D03*
X587265D03*
X583325D03*
X581355D03*
X579385D03*
X577415D03*
X575445D03*
X573475D03*
X571505D03*
X569535D03*
X567565D03*
X563625D03*
X561655D03*
X559685D03*
X557715D03*
X555745D03*
X553775D03*
X551805D03*
X549835D03*
X547865D03*
X543925D03*
X541955D03*
X539985D03*
X538015D03*
X536045D03*
X534075D03*
X532105D03*
X530135D03*
X528165D03*
X524225D03*
X522255D03*
X520285D03*
X518315D03*
X516345D03*
X514375D03*
G54D41*
X623845Y585250D03*
Y587220D03*
Y589190D03*
Y591160D03*
Y593130D03*
Y595100D03*
Y597070D03*
Y601010D03*
Y602980D03*
Y604950D03*
Y606920D03*
Y608890D03*
Y610860D03*
Y612830D03*
Y614800D03*
Y616770D03*
Y620710D03*
Y622680D03*
Y624650D03*
Y626620D03*
Y628590D03*
Y630560D03*
Y632530D03*
Y634500D03*
Y636470D03*
Y640410D03*
Y642380D03*
Y644350D03*
Y646320D03*
Y648290D03*
Y650260D03*
Y652230D03*
Y654200D03*
Y656170D03*
Y660110D03*
Y662080D03*
Y664050D03*
Y666020D03*
Y667990D03*
Y669960D03*
Y671930D03*
Y673900D03*
Y675870D03*
Y679810D03*
Y681780D03*
Y683750D03*
Y685720D03*
X505375D03*
Y683750D03*
Y681780D03*
Y677840D03*
Y675870D03*
Y673900D03*
Y671930D03*
Y669960D03*
Y667990D03*
Y666020D03*
Y664050D03*
Y662080D03*
Y658140D03*
Y656170D03*
Y654200D03*
Y652230D03*
Y650260D03*
Y648290D03*
Y646320D03*
Y644350D03*
Y642380D03*
Y638440D03*
Y636470D03*
Y634500D03*
Y632530D03*
Y630560D03*
Y628590D03*
Y626620D03*
Y624650D03*
Y622680D03*
Y618740D03*
Y616770D03*
Y614800D03*
Y612830D03*
Y610860D03*
Y608890D03*
Y606920D03*
Y604950D03*
Y602980D03*
Y599040D03*
Y597070D03*
Y595100D03*
Y593130D03*
Y591160D03*
Y589190D03*
Y587220D03*
Y585250D03*
G54D42*
X623845Y599040D03*
Y618740D03*
Y638440D03*
Y658140D03*
Y677840D03*
X505375Y679810D03*
Y660110D03*
Y640410D03*
Y620710D03*
Y601010D03*
G54D43*
X367972Y324275D03*
X370530D03*
X373090D03*
X375648D03*
X378287D03*
X380725D03*
X383325D03*
Y349427D03*
X380767D03*
X378208D03*
X375648D03*
X373128D03*
X370492D03*
X367972D03*
G54D44*
X389500Y188094D03*
Y149906D03*
G54D45*
X280390Y164900D03*
Y207400D03*
G54D46*
X692276Y629365D03*
Y625625D03*
Y621885D03*
X702776D03*
Y629365D03*
G54D47*
X367913Y378091D03*
Y372697D03*
Y367303D03*
Y361909D03*
X389587D03*
Y367303D03*
Y372697D03*
Y378091D03*
G54D48*
X251875Y135000D03*
X294375D03*
G54D49*
X312199Y166436D03*
X349601D03*
Y145964D03*
X312199D03*
G54D50*
X248400Y169900D03*
X220400D03*
X0Y0D02*
M02*
