*
*
G04 PADS 9.4.1 Build Number: 494907 generated Gerber (RS-274-X) file*
G04 PC Version=2.1*
*
%IN "ATLAS_XP2V5.pcb"*%
*
%MOIN*%
*
%FSLAX35Y35*%
*
*
*
*
G04 PC Standard Apertures*
*
*
G04 Thermal Relief Aperture macro.*
%AMTER*
1,1,$1,0,0*
1,0,$1-$2,0,0*
21,0,$3,$4,0,0,45*
21,0,$3,$4,0,0,135*
%
*
*
G04 Annular Aperture macro.*
%AMANN*
1,1,$1,0,0*
1,0,$2,0,0*
%
*
*
G04 Odd Aperture macro.*
%AMODD*
1,1,$1,0,0*
1,0,$1-0.005,0,0*
%
*
*
G04 PC Custom Aperture Macros*
*
*
*
*
*
*
G04 PC Aperture Table*
*
%ADD010C,0.001*%
%ADD083C,0.002*%
%ADD012R,0.1025X0.1465*%
%ADD013R,0.0905X0.1005*%
%ADD014R,0.0405X0.0705*%
%ADD015R,0.0605X0.0605*%
%ADD016R,0.0865X0.0245*%
%ADD017O,0.0865X0.0245*%
%ADD018R,0.0945X0.0255*%
%ADD019O,0.0945X0.0255*%
%ADD020R,0.0555X0.0605*%
%ADD021R,0.0605X0.0555*%
%ADD022R,0.0115X0.0705*%
%ADD023O,0.0115X0.0705*%
%ADD024O,0.0705X0.0115*%
%ADD025R,0.0705X0.0115*%
%ADD026R,0.0255X0.0945*%
%ADD027O,0.0255X0.0945*%
%ADD028R,0.0925X0.0565*%
%ADD029C,0.0625*%
%ADD030R,0.0605X0.0505*%
%ADD031R,0.01033X0.03987*%
%ADD032R,0.0505X0.0605*%
%ADD033R,0.0655X0.1255*%
%ADD034O,0.0245X0.0745*%
%ADD035R,0.0955X0.1205*%
%ADD036R,0.1005X0.0605*%
%ADD037R,0.0605X0.1005*%
%ADD038R,0.0795X0.0715*%
%ADD039R,0.0505X0.1005*%
%ADD040C,0.1165*%
%ADD041R,0.0625X0.0625*%
%ADD042R,0.0345X0.0285*%
%ADD043R,0.0285X0.0345*%
%ADD044R,0.0355X0.0205*%
%ADD045C,0.0605*%
%ADD046R,0.0755X0.0805*%
%ADD047R,0.04853X0.03633*%
%ADD048R,0.0555X0.0555*%
%ADD049C,0.1285*%
%ADD050R,0.0865X0.0865*%
%ADD051R,0.1045X0.0965*%
%ADD052R,0.1105X0.0405*%
%ADD053R,0.0675X0.0675*%
%ADD054C,0.0675*%
%ADD055O,0.1555X0.1055*%
%ADD056C,0.1265*%
%ADD057C,0.0775*%
%ADD058R,0.07924X0.21113*%
%ADD059R,0.12849X0.12349*%
%ADD060C,0.06743*%
%ADD062C,0.0555*%
%ADD063R,0.0655X0.0655*%
%ADD064C,0.0655*%
%ADD065C,0.2305*%
%ADD066C,0.0585*%
%ADD067R,0.0585X0.0585*%
%ADD068R,0.032X0.02806*%
%ADD069C,0.2105*%
%ADD070C,0.05956*%
%ADD071R,0.12349X0.12849*%
%ADD011C,0.1405*%
%ADD011R,0.17767X0.1068*%
*
*
*
*
G04 PC Circuitry*
G04 Layer Name ATLAS_XP2V5.pcb - circuitry*
%LPD*%
*
*
G04 PC Custom Flashes*
G04 Layer Name ATLAS_XP2V5.pcb - flashes*
%LPD*%
*
*
G04 PC Circuitry*
G04 Layer Name ATLAS_XP2V5.pcb - circuitry*
%LPD*%
*
G54D10*
G01X661325Y587649D02*
Y546399D01*
X703875*
Y587649*
X661325*
X661350Y546399D02*
Y587649D01*
X661400Y546399D02*
Y587649D01*
X661450Y546399D02*
Y587649D01*
X661500Y546399D02*
Y587649D01*
X661550Y546399D02*
Y587649D01*
X661600Y546399D02*
Y587649D01*
X661650Y546399D02*
Y587649D01*
X661700Y546399D02*
Y587649D01*
X661750Y546399D02*
Y587649D01*
X661800Y546399D02*
Y587649D01*
X661850Y546399D02*
Y587649D01*
X661900Y546399D02*
Y587649D01*
X661950Y546399D02*
Y587649D01*
X662000Y546399D02*
Y587649D01*
X662050Y546399D02*
Y587649D01*
X662100Y546399D02*
Y587649D01*
X662150Y546399D02*
Y587649D01*
X662200Y546399D02*
Y587649D01*
X662250Y546399D02*
Y587649D01*
X662300Y546399D02*
Y587649D01*
X662350Y546399D02*
Y587649D01*
X662400Y546399D02*
Y587649D01*
X662450Y546399D02*
Y587649D01*
X662500Y546399D02*
Y587649D01*
X662550Y546399D02*
Y587649D01*
X662600Y546399D02*
Y587649D01*
X662650Y546399D02*
Y587649D01*
X662700Y546399D02*
Y587649D01*
X662750Y546399D02*
Y587649D01*
X662800Y546399D02*
Y587649D01*
X662850Y546399D02*
Y587649D01*
X662900Y546399D02*
Y587649D01*
X662950Y546399D02*
Y587649D01*
X663000Y546399D02*
Y587649D01*
X663050Y546399D02*
Y587649D01*
X663100Y546399D02*
Y587649D01*
X663150Y546399D02*
Y587649D01*
X663200Y546399D02*
Y587649D01*
X663250Y546399D02*
Y587649D01*
X663300Y546399D02*
Y587649D01*
X663350Y546399D02*
Y587649D01*
X663400Y546399D02*
Y587649D01*
X663450Y546399D02*
Y587649D01*
X663500Y546399D02*
Y587649D01*
X663550Y546399D02*
Y587649D01*
X663600Y546399D02*
Y587649D01*
X663650Y546399D02*
Y587649D01*
X663700Y546399D02*
Y587649D01*
X663750Y546399D02*
Y587649D01*
X663800Y546399D02*
Y587649D01*
X663850Y546399D02*
Y587649D01*
X663900Y546399D02*
Y587649D01*
X663950Y546399D02*
Y587649D01*
X664000Y546399D02*
Y587649D01*
X664050Y546399D02*
Y587649D01*
X664100Y546399D02*
Y587649D01*
X664150Y546399D02*
Y587649D01*
X664200Y546399D02*
Y587649D01*
X664250Y546399D02*
Y587649D01*
X664300Y546399D02*
Y587649D01*
X664350Y546399D02*
Y587649D01*
X664400Y546399D02*
Y587649D01*
X664450Y546399D02*
Y587649D01*
X664500Y546399D02*
Y587649D01*
X664550Y546399D02*
Y587649D01*
X664600Y546399D02*
Y587649D01*
X664650Y546399D02*
Y587649D01*
X664700Y546399D02*
Y587649D01*
X664750Y546399D02*
Y587649D01*
X664800Y546399D02*
Y587649D01*
X664850Y546399D02*
Y587649D01*
X664900Y546399D02*
Y587649D01*
X664950Y546399D02*
Y587649D01*
X665000Y546399D02*
Y587649D01*
X665050Y546399D02*
Y587649D01*
X665100Y546399D02*
Y587649D01*
X665150Y546399D02*
Y587649D01*
X665200Y546399D02*
Y587649D01*
X665250Y546399D02*
Y587649D01*
X665300Y546399D02*
Y587649D01*
X665350Y546399D02*
Y587649D01*
X665400Y546399D02*
Y587649D01*
X665450Y546399D02*
Y587649D01*
X665500Y546399D02*
Y587649D01*
X665550Y546399D02*
Y587649D01*
X665600Y546399D02*
Y587649D01*
X665650Y546399D02*
Y587649D01*
X665700Y546399D02*
Y587649D01*
X665750Y546399D02*
Y587649D01*
X665800Y546399D02*
Y587649D01*
X665850Y546399D02*
Y587649D01*
X665900Y546399D02*
Y587649D01*
X665950Y546399D02*
Y587649D01*
X666000Y546399D02*
Y587649D01*
X666050Y546399D02*
Y587649D01*
X666100Y546399D02*
Y587649D01*
X666150Y546399D02*
Y587649D01*
X666200Y546399D02*
Y587649D01*
X666250Y546399D02*
Y587649D01*
X666300Y546399D02*
Y587649D01*
X666350Y546399D02*
Y587649D01*
X666400Y546399D02*
Y587649D01*
X666450Y546399D02*
Y587649D01*
X666500Y546399D02*
Y587649D01*
X666550Y546399D02*
Y587649D01*
X666600Y546399D02*
Y587649D01*
X666650Y546399D02*
Y587649D01*
X666700Y546399D02*
Y587649D01*
X666750Y546399D02*
Y587649D01*
X666800Y546399D02*
Y587649D01*
X666850Y546399D02*
Y587649D01*
X666900Y546399D02*
Y587649D01*
X666950Y546399D02*
Y587649D01*
X667000Y546399D02*
Y587649D01*
X667050Y546399D02*
Y587649D01*
X667100Y546399D02*
Y587649D01*
X667150Y546399D02*
Y587649D01*
X667200Y546399D02*
Y587649D01*
X667250Y546399D02*
Y587649D01*
X667300Y546399D02*
Y587649D01*
X667350Y546399D02*
Y587649D01*
X667400Y546399D02*
Y587649D01*
X667450Y546399D02*
Y587649D01*
X667500Y546399D02*
Y587649D01*
X667550Y546399D02*
Y587649D01*
X667600Y546399D02*
Y587649D01*
X667650Y546399D02*
Y587649D01*
X667700Y546399D02*
Y587649D01*
X667750Y546399D02*
Y587649D01*
X667800Y546399D02*
Y587649D01*
X667850Y546399D02*
Y587649D01*
X667900Y546399D02*
Y587649D01*
X667950Y546399D02*
Y587649D01*
X668000Y546399D02*
Y587649D01*
X668050Y546399D02*
Y587649D01*
X668100Y546399D02*
Y587649D01*
X668150Y546399D02*
Y587649D01*
X668200Y546399D02*
Y587649D01*
X668250Y546399D02*
Y587649D01*
X668300Y546399D02*
Y587649D01*
X668350Y546399D02*
Y587649D01*
X668400Y546399D02*
Y587649D01*
X668450Y546399D02*
Y587649D01*
X668500Y546399D02*
Y587649D01*
X668550Y546399D02*
Y587649D01*
X668600Y546399D02*
Y587649D01*
X668650Y546399D02*
Y587649D01*
X668700Y546399D02*
Y587649D01*
X668750Y546399D02*
Y587649D01*
X668800Y546399D02*
Y587649D01*
X668850Y546399D02*
Y587649D01*
X668900Y546399D02*
Y587649D01*
X668950Y546399D02*
Y587649D01*
X669000Y546399D02*
Y587649D01*
X669050Y546399D02*
Y587649D01*
X669100Y546399D02*
Y587649D01*
X669150Y546399D02*
Y587649D01*
X669200Y546399D02*
Y587649D01*
X669250Y546399D02*
Y587649D01*
X669300Y546399D02*
Y587649D01*
X669350Y546399D02*
Y587649D01*
X669400Y546399D02*
Y587649D01*
X669450Y546399D02*
Y587649D01*
X669500Y546399D02*
Y587649D01*
X669550Y546399D02*
Y587649D01*
X669600Y546399D02*
Y587649D01*
X669650Y546399D02*
Y587649D01*
X669700Y546399D02*
Y587649D01*
X669750Y546399D02*
Y587649D01*
X669800Y546399D02*
Y587649D01*
X669850Y546399D02*
Y587649D01*
X669900Y546399D02*
Y587649D01*
X669950Y546399D02*
Y587649D01*
X670000Y546399D02*
Y587649D01*
X670050Y546399D02*
Y587649D01*
X670100Y546399D02*
Y587649D01*
X670150Y546399D02*
Y587649D01*
X670200Y546399D02*
Y587649D01*
X670250Y546399D02*
Y587649D01*
X670300Y546399D02*
Y587649D01*
X670350Y546399D02*
Y587649D01*
X670400Y546399D02*
Y587649D01*
X670450Y546399D02*
Y587649D01*
X670500Y546399D02*
Y587649D01*
X670550Y546399D02*
Y587649D01*
X670600Y546399D02*
Y587649D01*
X670650Y546399D02*
Y587649D01*
X670700Y546399D02*
Y587649D01*
X670750Y546399D02*
Y587649D01*
X670800Y546399D02*
Y587649D01*
X670850Y546399D02*
Y587649D01*
X670900Y546399D02*
Y587649D01*
X670950Y546399D02*
Y587649D01*
X671000Y546399D02*
Y587649D01*
X671050Y546399D02*
Y587649D01*
X671100Y546399D02*
Y587649D01*
X671150Y546399D02*
Y587649D01*
X671200Y546399D02*
Y587649D01*
X671250Y546399D02*
Y587649D01*
X671300Y546399D02*
Y587649D01*
X671350Y546399D02*
Y587649D01*
X671400Y546399D02*
Y587649D01*
X671450Y546399D02*
Y587649D01*
X671500Y546399D02*
Y587649D01*
X671550Y546399D02*
Y587649D01*
X671600Y546399D02*
Y587649D01*
X671650Y546399D02*
Y587649D01*
X671700Y546399D02*
Y587649D01*
X671750Y546399D02*
Y587649D01*
X671800Y546399D02*
Y587649D01*
X671850Y546399D02*
Y587649D01*
X671900Y546399D02*
Y587649D01*
X671950Y546399D02*
Y587649D01*
X672000Y546399D02*
Y587649D01*
X672050Y546399D02*
Y587649D01*
X672100Y546399D02*
Y587649D01*
X672150Y546399D02*
Y587649D01*
X672200Y546399D02*
Y587649D01*
X672250Y546399D02*
Y587649D01*
X672300Y546399D02*
Y587649D01*
X672350Y546399D02*
Y587649D01*
X672400Y546399D02*
Y587649D01*
X672450Y546399D02*
Y587649D01*
X672500Y546399D02*
Y587649D01*
X672550Y546399D02*
Y587649D01*
X672600Y546399D02*
Y587649D01*
X672650Y546399D02*
Y587649D01*
X672700Y546399D02*
Y587649D01*
X672750Y546399D02*
Y587649D01*
X672800Y546399D02*
Y587649D01*
X672850Y546399D02*
Y587649D01*
X672900Y546399D02*
Y587649D01*
X672950Y546399D02*
Y587649D01*
X673000Y546399D02*
Y587649D01*
X673050Y546399D02*
Y587649D01*
X673100Y546399D02*
Y587649D01*
X673150Y546399D02*
Y587649D01*
X673200Y546399D02*
Y587649D01*
X673250Y546399D02*
Y587649D01*
X673300Y546399D02*
Y587649D01*
X673350Y546399D02*
Y587649D01*
X673400Y546399D02*
Y587649D01*
X673450Y546399D02*
Y587649D01*
X673500Y546399D02*
Y587649D01*
X673550Y546399D02*
Y587649D01*
X673600Y546399D02*
Y587649D01*
X673650Y546399D02*
Y587649D01*
X673700Y546399D02*
Y587649D01*
X673750Y546399D02*
Y587649D01*
X673800Y546399D02*
Y587649D01*
X673850Y546399D02*
Y587649D01*
X673900Y546399D02*
Y587649D01*
X673950Y546399D02*
Y587649D01*
X674000Y546399D02*
Y587649D01*
X674050Y546399D02*
Y587649D01*
X674100Y546399D02*
Y587649D01*
X674150Y546399D02*
Y587649D01*
X674200Y546399D02*
Y587649D01*
X674250Y546399D02*
Y587649D01*
X674300Y546399D02*
Y587649D01*
X674350Y546399D02*
Y587649D01*
X674400Y546399D02*
Y587649D01*
X674450Y546399D02*
Y587649D01*
X674500Y546399D02*
Y587649D01*
X674550Y546399D02*
Y587649D01*
X674600Y546399D02*
Y587649D01*
X674650Y546399D02*
Y587649D01*
X674700Y546399D02*
Y587649D01*
X674750Y546399D02*
Y587649D01*
X674800Y546399D02*
Y587649D01*
X674850Y546399D02*
Y587649D01*
X674900Y546399D02*
Y587649D01*
X674950Y546399D02*
Y587649D01*
X675000Y546399D02*
Y587649D01*
X675050Y546399D02*
Y587649D01*
X675100Y546399D02*
Y587649D01*
X675150Y546399D02*
Y587649D01*
X675200Y546399D02*
Y587649D01*
X675250Y546399D02*
Y587649D01*
X675300Y546399D02*
Y587649D01*
X675350Y546399D02*
Y587649D01*
X675400Y546399D02*
Y587649D01*
X675450Y546399D02*
Y587649D01*
X675500Y546399D02*
Y587649D01*
X675550Y546399D02*
Y587649D01*
X675600Y546399D02*
Y587649D01*
X675650Y546399D02*
Y587649D01*
X675700Y546399D02*
Y587649D01*
X675750Y546399D02*
Y587649D01*
X675800Y546399D02*
Y587649D01*
X675850Y546399D02*
Y587649D01*
X675900Y546399D02*
Y587649D01*
X675950Y546399D02*
Y587649D01*
X676000Y546399D02*
Y587649D01*
X676050Y546399D02*
Y587649D01*
X676100Y546399D02*
Y587649D01*
X676150Y546399D02*
Y587649D01*
X676200Y546399D02*
Y587649D01*
X676250Y546399D02*
Y587649D01*
X676300Y546399D02*
Y587649D01*
X676350Y546399D02*
Y587649D01*
X676400Y546399D02*
Y587649D01*
X676450Y546399D02*
Y587649D01*
X676500Y546399D02*
Y587649D01*
X676550Y546399D02*
Y587649D01*
X676600Y546399D02*
Y587649D01*
X676650Y546399D02*
Y587649D01*
X676700Y546399D02*
Y587649D01*
X676750Y546399D02*
Y587649D01*
X676800Y546399D02*
Y587649D01*
X676850Y546399D02*
Y587649D01*
X676900Y546399D02*
Y587649D01*
X676950Y546399D02*
Y587649D01*
X677000Y546399D02*
Y587649D01*
X677050Y546399D02*
Y587649D01*
X677100Y546399D02*
Y587649D01*
X677150Y546399D02*
Y587649D01*
X677200Y546399D02*
Y587649D01*
X677250Y546399D02*
Y587649D01*
X677300Y546399D02*
Y587649D01*
X677350Y546399D02*
Y587649D01*
X677400Y546399D02*
Y587649D01*
X677450Y546399D02*
Y587649D01*
X677500Y546399D02*
Y587649D01*
X677550Y546399D02*
Y587649D01*
X677600Y546399D02*
Y587649D01*
X677650Y546399D02*
Y587649D01*
X677700Y546399D02*
Y587649D01*
X677750Y546399D02*
Y587649D01*
X677800Y546399D02*
Y587649D01*
X677850Y546399D02*
Y587649D01*
X677900Y546399D02*
Y587649D01*
X677950Y546399D02*
Y587649D01*
X678000Y546399D02*
Y587649D01*
X678050Y546399D02*
Y587649D01*
X678100Y546399D02*
Y587649D01*
X678150Y546399D02*
Y587649D01*
X678200Y546399D02*
Y587649D01*
X678250Y546399D02*
Y587649D01*
X678300Y546399D02*
Y587649D01*
X678350Y546399D02*
Y587649D01*
X678400Y546399D02*
Y587649D01*
X678450Y546399D02*
Y587649D01*
X678500Y546399D02*
Y587649D01*
X678550Y546399D02*
Y587649D01*
X678600Y546399D02*
Y587649D01*
X678650Y546399D02*
Y587649D01*
X678700Y546399D02*
Y587649D01*
X678750Y546399D02*
Y587649D01*
X678800Y546399D02*
Y587649D01*
X678850Y546399D02*
Y587649D01*
X678900Y546399D02*
Y587649D01*
X678950Y546399D02*
Y587649D01*
X679000Y546399D02*
Y587649D01*
X679050Y546399D02*
Y587649D01*
X679100Y546399D02*
Y587649D01*
X679150Y546399D02*
Y587649D01*
X679200Y546399D02*
Y587649D01*
X679250Y546399D02*
Y587649D01*
X679300Y546399D02*
Y587649D01*
X679350Y546399D02*
Y587649D01*
X679400Y546399D02*
Y587649D01*
X679450Y546399D02*
Y587649D01*
X679500Y546399D02*
Y587649D01*
X679550Y546399D02*
Y587649D01*
X679600Y546399D02*
Y587649D01*
X679650Y546399D02*
Y587649D01*
X679700Y546399D02*
Y587649D01*
X679750Y546399D02*
Y587649D01*
X679800Y546399D02*
Y587649D01*
X679850Y546399D02*
Y587649D01*
X679900Y546399D02*
Y587649D01*
X679950Y546399D02*
Y587649D01*
X680000Y546399D02*
Y587649D01*
X680050Y546399D02*
Y587649D01*
X680100Y546399D02*
Y587649D01*
X680150Y546399D02*
Y587649D01*
X680200Y546399D02*
Y587649D01*
X680250Y546399D02*
Y587649D01*
X680300Y546399D02*
Y587649D01*
X680350Y546399D02*
Y587649D01*
X680400Y546399D02*
Y587649D01*
X680450Y546399D02*
Y587649D01*
X680500Y546399D02*
Y587649D01*
X680550Y546399D02*
Y587649D01*
X680600Y546399D02*
Y587649D01*
X680650Y546399D02*
Y587649D01*
X680700Y546399D02*
Y587649D01*
X680750Y546399D02*
Y587649D01*
X680800Y546399D02*
Y587649D01*
X680850Y546399D02*
Y587649D01*
X680900Y546399D02*
Y587649D01*
X680950Y546399D02*
Y587649D01*
X681000Y546399D02*
Y587649D01*
X681050Y546399D02*
Y587649D01*
X681100Y546399D02*
Y587649D01*
X681150Y546399D02*
Y587649D01*
X681200Y546399D02*
Y587649D01*
X681250Y546399D02*
Y587649D01*
X681300Y546399D02*
Y587649D01*
X681350Y546399D02*
Y587649D01*
X681400Y546399D02*
Y587649D01*
X681450Y546399D02*
Y587649D01*
X681500Y546399D02*
Y587649D01*
X681550Y546399D02*
Y587649D01*
X681600Y546399D02*
Y587649D01*
X681650Y546399D02*
Y587649D01*
X681700Y546399D02*
Y587649D01*
X681750Y546399D02*
Y587649D01*
X681800Y546399D02*
Y587649D01*
X681850Y546399D02*
Y587649D01*
X681900Y546399D02*
Y587649D01*
X681950Y546399D02*
Y587649D01*
X682000Y546399D02*
Y587649D01*
X682050Y546399D02*
Y587649D01*
X682100Y546399D02*
Y587649D01*
X682150Y546399D02*
Y587649D01*
X682200Y546399D02*
Y587649D01*
X682250Y546399D02*
Y587649D01*
X682300Y546399D02*
Y587649D01*
X682350Y546399D02*
Y587649D01*
X682400Y546399D02*
Y587649D01*
X682450Y546399D02*
Y587649D01*
X682500Y546399D02*
Y587649D01*
X682550Y546399D02*
Y587649D01*
X682600Y546399D02*
Y587649D01*
X682650Y546399D02*
Y587649D01*
X682700Y546399D02*
Y587649D01*
X682750Y546399D02*
Y587649D01*
X682800Y546399D02*
Y587649D01*
X682850Y546399D02*
Y587649D01*
X682900Y546399D02*
Y587649D01*
X682950Y546399D02*
Y587649D01*
X683000Y546399D02*
Y587649D01*
X683050Y546399D02*
Y587649D01*
X683100Y546399D02*
Y587649D01*
X683150Y546399D02*
Y587649D01*
X683200Y546399D02*
Y587649D01*
X683250Y546399D02*
Y587649D01*
X683300Y546399D02*
Y587649D01*
X683350Y546399D02*
Y587649D01*
X683400Y546399D02*
Y587649D01*
X683450Y546399D02*
Y587649D01*
X683500Y546399D02*
Y587649D01*
X683550Y546399D02*
Y587649D01*
X683600Y546399D02*
Y587649D01*
X683650Y546399D02*
Y587649D01*
X683700Y546399D02*
Y587649D01*
X683750Y546399D02*
Y587649D01*
X683800Y546399D02*
Y587649D01*
X683850Y546399D02*
Y587649D01*
X683900Y546399D02*
Y587649D01*
X683950Y546399D02*
Y587649D01*
X684000Y546399D02*
Y587649D01*
X684050Y546399D02*
Y587649D01*
X684100Y546399D02*
Y587649D01*
X684150Y546399D02*
Y587649D01*
X684200Y546399D02*
Y587649D01*
X684250Y546399D02*
Y587649D01*
X684300Y546399D02*
Y587649D01*
X684350Y546399D02*
Y587649D01*
X684400Y546399D02*
Y587649D01*
X684450Y546399D02*
Y587649D01*
X684500Y546399D02*
Y587649D01*
X684550Y546399D02*
Y587649D01*
X684600Y546399D02*
Y587649D01*
X684650Y546399D02*
Y587649D01*
X684700Y546399D02*
Y587649D01*
X684750Y546399D02*
Y587649D01*
X684800Y546399D02*
Y587649D01*
X684850Y546399D02*
Y587649D01*
X684900Y546399D02*
Y587649D01*
X684950Y546399D02*
Y587649D01*
X685000Y546399D02*
Y587649D01*
X685050Y546399D02*
Y587649D01*
X685100Y546399D02*
Y587649D01*
X685150Y546399D02*
Y587649D01*
X685200Y546399D02*
Y587649D01*
X685250Y546399D02*
Y587649D01*
X685300Y546399D02*
Y587649D01*
X685350Y546399D02*
Y587649D01*
X685400Y546399D02*
Y587649D01*
X685450Y546399D02*
Y587649D01*
X685500Y546399D02*
Y587649D01*
X685550Y546399D02*
Y587649D01*
X685600Y546399D02*
Y587649D01*
X685650Y546399D02*
Y587649D01*
X685700Y546399D02*
Y587649D01*
X685750Y546399D02*
Y587649D01*
X685800Y546399D02*
Y587649D01*
X685850Y546399D02*
Y587649D01*
X685900Y546399D02*
Y587649D01*
X685950Y546399D02*
Y587649D01*
X686000Y546399D02*
Y587649D01*
X686050Y546399D02*
Y587649D01*
X686100Y546399D02*
Y587649D01*
X686150Y546399D02*
Y587649D01*
X686200Y546399D02*
Y587649D01*
X686250Y546399D02*
Y587649D01*
X686300Y546399D02*
Y587649D01*
X686350Y546399D02*
Y587649D01*
X686400Y546399D02*
Y587649D01*
X686450Y546399D02*
Y587649D01*
X686500Y546399D02*
Y587649D01*
X686550Y546399D02*
Y587649D01*
X686600Y546399D02*
Y587649D01*
X686650Y546399D02*
Y587649D01*
X686700Y546399D02*
Y587649D01*
X686750Y546399D02*
Y587649D01*
X686800Y546399D02*
Y587649D01*
X686850Y546399D02*
Y587649D01*
X686900Y546399D02*
Y587649D01*
X686950Y546399D02*
Y587649D01*
X687000Y546399D02*
Y587649D01*
X687050Y546399D02*
Y587649D01*
X687100Y546399D02*
Y587649D01*
X687150Y546399D02*
Y587649D01*
X687200Y546399D02*
Y587649D01*
X687250Y546399D02*
Y587649D01*
X687300Y546399D02*
Y587649D01*
X687350Y546399D02*
Y587649D01*
X687400Y546399D02*
Y587649D01*
X687450Y546399D02*
Y587649D01*
X687500Y546399D02*
Y587649D01*
X687550Y546399D02*
Y587649D01*
X687600Y546399D02*
Y587649D01*
X687650Y546399D02*
Y587649D01*
X687700Y546399D02*
Y587649D01*
X687750Y546399D02*
Y587649D01*
X687800Y546399D02*
Y587649D01*
X687850Y546399D02*
Y587649D01*
X687900Y546399D02*
Y587649D01*
X687950Y546399D02*
Y587649D01*
X688000Y546399D02*
Y587649D01*
X688050Y546399D02*
Y587649D01*
X688100Y546399D02*
Y587649D01*
X688150Y546399D02*
Y587649D01*
X688200Y546399D02*
Y587649D01*
X688250Y546399D02*
Y587649D01*
X688300Y546399D02*
Y587649D01*
X688350Y546399D02*
Y587649D01*
X688400Y546399D02*
Y587649D01*
X688450Y546399D02*
Y587649D01*
X688500Y546399D02*
Y587649D01*
X688550Y546399D02*
Y587649D01*
X688600Y546399D02*
Y587649D01*
X688650Y546399D02*
Y587649D01*
X688700Y546399D02*
Y587649D01*
X688750Y546399D02*
Y587649D01*
X688800Y546399D02*
Y587649D01*
X688850Y546399D02*
Y587649D01*
X688900Y546399D02*
Y587649D01*
X688950Y546399D02*
Y587649D01*
X689000Y546399D02*
Y587649D01*
X689050Y546399D02*
Y587649D01*
X689100Y546399D02*
Y587649D01*
X689150Y546399D02*
Y587649D01*
X689200Y546399D02*
Y587649D01*
X689250Y546399D02*
Y587649D01*
X689300Y546399D02*
Y587649D01*
X689350Y546399D02*
Y587649D01*
X689400Y546399D02*
Y587649D01*
X689450Y546399D02*
Y587649D01*
X689500Y546399D02*
Y587649D01*
X689550Y546399D02*
Y587649D01*
X689600Y546399D02*
Y587649D01*
X689650Y546399D02*
Y587649D01*
X689700Y546399D02*
Y587649D01*
X689750Y546399D02*
Y587649D01*
X689800Y546399D02*
Y587649D01*
X689850Y546399D02*
Y587649D01*
X689900Y546399D02*
Y587649D01*
X689950Y546399D02*
Y587649D01*
X690000Y546399D02*
Y587649D01*
X690050Y546399D02*
Y587649D01*
X690100Y546399D02*
Y587649D01*
X690150Y546399D02*
Y587649D01*
X690200Y546399D02*
Y587649D01*
X690250Y546399D02*
Y587649D01*
X690300Y546399D02*
Y587649D01*
X690350Y546399D02*
Y587649D01*
X690400Y546399D02*
Y587649D01*
X690450Y546399D02*
Y587649D01*
X690500Y546399D02*
Y587649D01*
X690550Y546399D02*
Y587649D01*
X690600Y546399D02*
Y587649D01*
X690650Y546399D02*
Y587649D01*
X690700Y546399D02*
Y587649D01*
X690750Y546399D02*
Y587649D01*
X690800Y546399D02*
Y587649D01*
X690850Y546399D02*
Y587649D01*
X690900Y546399D02*
Y587649D01*
X690950Y546399D02*
Y587649D01*
X691000Y546399D02*
Y587649D01*
X691050Y546399D02*
Y587649D01*
X691100Y546399D02*
Y587649D01*
X691150Y546399D02*
Y587649D01*
X691200Y546399D02*
Y587649D01*
X691250Y546399D02*
Y587649D01*
X691300Y546399D02*
Y587649D01*
X691350Y546399D02*
Y587649D01*
X691400Y546399D02*
Y587649D01*
X691450Y546399D02*
Y587649D01*
X691500Y546399D02*
Y587649D01*
X691550Y546399D02*
Y587649D01*
X691600Y546399D02*
Y587649D01*
X691650Y546399D02*
Y587649D01*
X691700Y546399D02*
Y587649D01*
X691750Y546399D02*
Y587649D01*
X691800Y546399D02*
Y587649D01*
X691850Y546399D02*
Y587649D01*
X691900Y546399D02*
Y587649D01*
X691950Y546399D02*
Y587649D01*
X692000Y546399D02*
Y587649D01*
X692050Y546399D02*
Y587649D01*
X692100Y546399D02*
Y587649D01*
X692150Y546399D02*
Y587649D01*
X692200Y546399D02*
Y587649D01*
X692250Y546399D02*
Y587649D01*
X692300Y546399D02*
Y587649D01*
X692350Y546399D02*
Y587649D01*
X692400Y546399D02*
Y587649D01*
X692450Y546399D02*
Y587649D01*
X692500Y546399D02*
Y587649D01*
X692550Y546399D02*
Y587649D01*
X692600Y546399D02*
Y587649D01*
X692650Y546399D02*
Y587649D01*
X692700Y546399D02*
Y587649D01*
X692750Y546399D02*
Y587649D01*
X692800Y546399D02*
Y587649D01*
X692850Y546399D02*
Y587649D01*
X692900Y546399D02*
Y587649D01*
X692950Y546399D02*
Y587649D01*
X693000Y546399D02*
Y587649D01*
X693050Y546399D02*
Y587649D01*
X693100Y546399D02*
Y587649D01*
X693150Y546399D02*
Y587649D01*
X693200Y546399D02*
Y587649D01*
X693250Y546399D02*
Y587649D01*
X693300Y546399D02*
Y587649D01*
X693350Y546399D02*
Y587649D01*
X693400Y546399D02*
Y587649D01*
X693450Y546399D02*
Y587649D01*
X693500Y546399D02*
Y587649D01*
X693550Y546399D02*
Y587649D01*
X693600Y546399D02*
Y587649D01*
X693650Y546399D02*
Y587649D01*
X693700Y546399D02*
Y587649D01*
X693750Y546399D02*
Y587649D01*
X693800Y546399D02*
Y587649D01*
X693850Y546399D02*
Y587649D01*
X693900Y546399D02*
Y587649D01*
X693950Y546399D02*
Y587649D01*
X694000Y546399D02*
Y587649D01*
X694050Y546399D02*
Y587649D01*
X694100Y546399D02*
Y587649D01*
X694150Y546399D02*
Y587649D01*
X694200Y546399D02*
Y587649D01*
X694250Y546399D02*
Y587649D01*
X694300Y546399D02*
Y587649D01*
X694350Y546399D02*
Y587649D01*
X694400Y546399D02*
Y587649D01*
X694450Y546399D02*
Y587649D01*
X694500Y546399D02*
Y587649D01*
X694550Y546399D02*
Y587649D01*
X694600Y546399D02*
Y587649D01*
X694650Y546399D02*
Y587649D01*
X694700Y546399D02*
Y587649D01*
X694750Y546399D02*
Y587649D01*
X694800Y546399D02*
Y587649D01*
X694850Y546399D02*
Y587649D01*
X694900Y546399D02*
Y587649D01*
X694950Y546399D02*
Y587649D01*
X695000Y546399D02*
Y587649D01*
X695050Y546399D02*
Y587649D01*
X695100Y546399D02*
Y587649D01*
X695150Y546399D02*
Y587649D01*
X695200Y546399D02*
Y587649D01*
X695250Y546399D02*
Y587649D01*
X695300Y546399D02*
Y587649D01*
X695350Y546399D02*
Y587649D01*
X695400Y546399D02*
Y587649D01*
X695450Y546399D02*
Y587649D01*
X695500Y546399D02*
Y587649D01*
X695550Y546399D02*
Y587649D01*
X695600Y546399D02*
Y587649D01*
X695650Y546399D02*
Y587649D01*
X695700Y546399D02*
Y587649D01*
X695750Y546399D02*
Y587649D01*
X695800Y546399D02*
Y587649D01*
X695850Y546399D02*
Y587649D01*
X695900Y546399D02*
Y587649D01*
X695950Y546399D02*
Y587649D01*
X696000Y546399D02*
Y587649D01*
X696050Y546399D02*
Y587649D01*
X696100Y546399D02*
Y587649D01*
X696150Y546399D02*
Y587649D01*
X696200Y546399D02*
Y587649D01*
X696250Y546399D02*
Y587649D01*
X696300Y546399D02*
Y587649D01*
X696350Y546399D02*
Y587649D01*
X696400Y546399D02*
Y587649D01*
X696450Y546399D02*
Y587649D01*
X696500Y546399D02*
Y587649D01*
X696550Y546399D02*
Y587649D01*
X696600Y546399D02*
Y587649D01*
X696650Y546399D02*
Y587649D01*
X696700Y546399D02*
Y587649D01*
X696750Y546399D02*
Y587649D01*
X696800Y546399D02*
Y587649D01*
X696850Y546399D02*
Y587649D01*
X696900Y546399D02*
Y587649D01*
X696950Y546399D02*
Y587649D01*
X697000Y546399D02*
Y587649D01*
X697050Y546399D02*
Y587649D01*
X697100Y546399D02*
Y587649D01*
X697150Y546399D02*
Y587649D01*
X697200Y546399D02*
Y587649D01*
X697250Y546399D02*
Y587649D01*
X697300Y546399D02*
Y587649D01*
X697350Y546399D02*
Y587649D01*
X697400Y546399D02*
Y587649D01*
X697450Y546399D02*
Y587649D01*
X697500Y546399D02*
Y587649D01*
X697550Y546399D02*
Y587649D01*
X697600Y546399D02*
Y587649D01*
X697650Y546399D02*
Y587649D01*
X697700Y546399D02*
Y587649D01*
X697750Y546399D02*
Y587649D01*
X697800Y546399D02*
Y587649D01*
X697850Y546399D02*
Y587649D01*
X697900Y546399D02*
Y587649D01*
X697950Y546399D02*
Y587649D01*
X698000Y546399D02*
Y587649D01*
X698050Y546399D02*
Y587649D01*
X698100Y546399D02*
Y587649D01*
X698150Y546399D02*
Y587649D01*
X698200Y546399D02*
Y587649D01*
X698250Y546399D02*
Y587649D01*
X698300Y546399D02*
Y587649D01*
X698350Y546399D02*
Y587649D01*
X698400Y546399D02*
Y587649D01*
X698450Y546399D02*
Y587649D01*
X698500Y546399D02*
Y587649D01*
X698550Y546399D02*
Y587649D01*
X698600Y546399D02*
Y587649D01*
X698650Y546399D02*
Y587649D01*
X698700Y546399D02*
Y587649D01*
X698750Y546399D02*
Y587649D01*
X698800Y546399D02*
Y587649D01*
X698850Y546399D02*
Y587649D01*
X698900Y546399D02*
Y587649D01*
X698950Y546399D02*
Y587649D01*
X699000Y546399D02*
Y587649D01*
X699050Y546399D02*
Y587649D01*
X699100Y546399D02*
Y587649D01*
X699150Y546399D02*
Y587649D01*
X699200Y546399D02*
Y587649D01*
X699250Y546399D02*
Y587649D01*
X699300Y546399D02*
Y587649D01*
X699350Y546399D02*
Y587649D01*
X699400Y546399D02*
Y587649D01*
X699450Y546399D02*
Y587649D01*
X699500Y546399D02*
Y587649D01*
X699550Y546399D02*
Y587649D01*
X699600Y546399D02*
Y587649D01*
X699650Y546399D02*
Y587649D01*
X699700Y546399D02*
Y587649D01*
X699750Y546399D02*
Y587649D01*
X699800Y546399D02*
Y587649D01*
X699850Y546399D02*
Y587649D01*
X699900Y546399D02*
Y587649D01*
X699950Y546399D02*
Y587649D01*
X700000Y546399D02*
Y587649D01*
X700050Y546399D02*
Y587649D01*
X700100Y546399D02*
Y587649D01*
X700150Y546399D02*
Y587649D01*
X700200Y546399D02*
Y587649D01*
X700250Y546399D02*
Y587649D01*
X700300Y546399D02*
Y587649D01*
X700350Y546399D02*
Y587649D01*
X700400Y546399D02*
Y587649D01*
X700450Y546399D02*
Y587649D01*
X700500Y546399D02*
Y587649D01*
X700550Y546399D02*
Y587649D01*
X700600Y546399D02*
Y587649D01*
X700650Y546399D02*
Y587649D01*
X700700Y546399D02*
Y587649D01*
X700750Y546399D02*
Y587649D01*
X700800Y546399D02*
Y587649D01*
X700850Y546399D02*
Y587649D01*
X700900Y546399D02*
Y587649D01*
X700950Y546399D02*
Y587649D01*
X701000Y546399D02*
Y587649D01*
X701050Y546399D02*
Y587649D01*
X701100Y546399D02*
Y587649D01*
X701150Y546399D02*
Y587649D01*
X701200Y546399D02*
Y587649D01*
X701250Y546399D02*
Y587649D01*
X701300Y546399D02*
Y587649D01*
X701350Y546399D02*
Y587649D01*
X701400Y546399D02*
Y587649D01*
X701450Y546399D02*
Y587649D01*
X701500Y546399D02*
Y587649D01*
X701550Y546399D02*
Y587649D01*
X701600Y546399D02*
Y587649D01*
X701650Y546399D02*
Y587649D01*
X701700Y546399D02*
Y587649D01*
X701750Y546399D02*
Y587649D01*
X701800Y546399D02*
Y587649D01*
X701850Y546399D02*
Y587649D01*
X701900Y546399D02*
Y587649D01*
X701950Y546399D02*
Y587649D01*
X702000Y546399D02*
Y587649D01*
X702050Y546399D02*
Y587649D01*
X702100Y546399D02*
Y587649D01*
X702150Y546399D02*
Y587649D01*
X702200Y546399D02*
Y587649D01*
X702250Y546399D02*
Y587649D01*
X702300Y546399D02*
Y587649D01*
X702350Y546399D02*
Y587649D01*
X702400Y546399D02*
Y587649D01*
X702450Y546399D02*
Y587649D01*
X702500Y546399D02*
Y587649D01*
X702550Y546399D02*
Y587649D01*
X702600Y546399D02*
Y587649D01*
X702650Y546399D02*
Y587649D01*
X702700Y546399D02*
Y587649D01*
X702750Y546399D02*
Y587649D01*
X702800Y546399D02*
Y587649D01*
X702850Y546399D02*
Y587649D01*
X702900Y546399D02*
Y587649D01*
X702950Y546399D02*
Y587649D01*
X703000Y546399D02*
Y587649D01*
X703050Y546399D02*
Y587649D01*
X703100Y546399D02*
Y587649D01*
X703150Y546399D02*
Y587649D01*
X703200Y546399D02*
Y587649D01*
X703250Y546399D02*
Y587649D01*
X703300Y546399D02*
Y587649D01*
X703350Y546399D02*
Y587649D01*
X703400Y546399D02*
Y587649D01*
X703450Y546399D02*
Y587649D01*
X703500Y546399D02*
Y587649D01*
X703550Y546399D02*
Y587649D01*
X703600Y546399D02*
Y587649D01*
X703650Y546399D02*
Y587649D01*
X703700Y546399D02*
Y587649D01*
X703750Y546399D02*
Y587649D01*
X703800Y546399D02*
Y587649D01*
X703850Y546399D02*
Y587649D01*
X661225D02*
Y546399D01*
X703775*
Y587649*
X661225*
X661250Y546399D02*
Y587649D01*
X661300Y546399D02*
Y587649D01*
X661350Y546399D02*
Y587649D01*
X661400Y546399D02*
Y587649D01*
X661450Y546399D02*
Y587649D01*
X661500Y546399D02*
Y587649D01*
X661550Y546399D02*
Y587649D01*
X661600Y546399D02*
Y587649D01*
X661650Y546399D02*
Y587649D01*
X661700Y546399D02*
Y587649D01*
X661750Y546399D02*
Y587649D01*
X661800Y546399D02*
Y587649D01*
X661850Y546399D02*
Y587649D01*
X661900Y546399D02*
Y587649D01*
X661950Y546399D02*
Y587649D01*
X662000Y546399D02*
Y587649D01*
X662050Y546399D02*
Y587649D01*
X662100Y546399D02*
Y587649D01*
X662150Y546399D02*
Y587649D01*
X662200Y546399D02*
Y587649D01*
X662250Y546399D02*
Y587649D01*
X662300Y546399D02*
Y587649D01*
X662350Y546399D02*
Y587649D01*
X662400Y546399D02*
Y587649D01*
X662450Y546399D02*
Y587649D01*
X662500Y546399D02*
Y587649D01*
X662550Y546399D02*
Y587649D01*
X662600Y546399D02*
Y587649D01*
X662650Y546399D02*
Y587649D01*
X662700Y546399D02*
Y587649D01*
X662750Y546399D02*
Y587649D01*
X662800Y546399D02*
Y587649D01*
X662850Y546399D02*
Y587649D01*
X662900Y546399D02*
Y587649D01*
X662950Y546399D02*
Y587649D01*
X663000Y546399D02*
Y587649D01*
X663050Y546399D02*
Y587649D01*
X663100Y546399D02*
Y587649D01*
X663150Y546399D02*
Y587649D01*
X663200Y546399D02*
Y587649D01*
X663250Y546399D02*
Y587649D01*
X663300Y546399D02*
Y587649D01*
X663350Y546399D02*
Y587649D01*
X663400Y546399D02*
Y587649D01*
X663450Y546399D02*
Y587649D01*
X663500Y546399D02*
Y587649D01*
X663550Y546399D02*
Y587649D01*
X663600Y546399D02*
Y587649D01*
X663650Y546399D02*
Y587649D01*
X663700Y546399D02*
Y587649D01*
X663750Y546399D02*
Y587649D01*
X663800Y546399D02*
Y587649D01*
X663850Y546399D02*
Y587649D01*
X663900Y546399D02*
Y587649D01*
X663950Y546399D02*
Y587649D01*
X664000Y546399D02*
Y587649D01*
X664050Y546399D02*
Y587649D01*
X664100Y546399D02*
Y587649D01*
X664150Y546399D02*
Y587649D01*
X664200Y546399D02*
Y587649D01*
X664250Y546399D02*
Y587649D01*
X664300Y546399D02*
Y587649D01*
X664350Y546399D02*
Y587649D01*
X664400Y546399D02*
Y587649D01*
X664450Y546399D02*
Y587649D01*
X664500Y546399D02*
Y587649D01*
X664550Y546399D02*
Y587649D01*
X664600Y546399D02*
Y587649D01*
X664650Y546399D02*
Y587649D01*
X664700Y546399D02*
Y587649D01*
X664750Y546399D02*
Y587649D01*
X664800Y546399D02*
Y587649D01*
X664850Y546399D02*
Y587649D01*
X664900Y546399D02*
Y587649D01*
X664950Y546399D02*
Y587649D01*
X665000Y546399D02*
Y587649D01*
X665050Y546399D02*
Y587649D01*
X665100Y546399D02*
Y587649D01*
X665150Y546399D02*
Y587649D01*
X665200Y546399D02*
Y587649D01*
X665250Y546399D02*
Y587649D01*
X665300Y546399D02*
Y587649D01*
X665350Y546399D02*
Y587649D01*
X665400Y546399D02*
Y587649D01*
X665450Y546399D02*
Y587649D01*
X665500Y546399D02*
Y587649D01*
X665550Y546399D02*
Y587649D01*
X665600Y546399D02*
Y587649D01*
X665650Y546399D02*
Y587649D01*
X665700Y546399D02*
Y587649D01*
X665750Y546399D02*
Y587649D01*
X665800Y546399D02*
Y587649D01*
X665850Y546399D02*
Y587649D01*
X665900Y546399D02*
Y587649D01*
X665950Y546399D02*
Y587649D01*
X666000Y546399D02*
Y587649D01*
X666050Y546399D02*
Y587649D01*
X666100Y546399D02*
Y587649D01*
X666150Y546399D02*
Y587649D01*
X666200Y546399D02*
Y587649D01*
X666250Y546399D02*
Y587649D01*
X666300Y546399D02*
Y587649D01*
X666350Y546399D02*
Y587649D01*
X666400Y546399D02*
Y587649D01*
X666450Y546399D02*
Y587649D01*
X666500Y546399D02*
Y587649D01*
X666550Y546399D02*
Y587649D01*
X666600Y546399D02*
Y587649D01*
X666650Y546399D02*
Y587649D01*
X666700Y546399D02*
Y587649D01*
X666750Y546399D02*
Y587649D01*
X666800Y546399D02*
Y587649D01*
X666850Y546399D02*
Y587649D01*
X666900Y546399D02*
Y587649D01*
X666950Y546399D02*
Y587649D01*
X667000Y546399D02*
Y587649D01*
X667050Y546399D02*
Y587649D01*
X667100Y546399D02*
Y587649D01*
X667150Y546399D02*
Y587649D01*
X667200Y546399D02*
Y587649D01*
X667250Y546399D02*
Y587649D01*
X667300Y546399D02*
Y587649D01*
X667350Y546399D02*
Y587649D01*
X667400Y546399D02*
Y587649D01*
X667450Y546399D02*
Y587649D01*
X667500Y546399D02*
Y587649D01*
X667550Y546399D02*
Y587649D01*
X667600Y546399D02*
Y587649D01*
X667650Y546399D02*
Y587649D01*
X667700Y546399D02*
Y587649D01*
X667750Y546399D02*
Y587649D01*
X667800Y546399D02*
Y587649D01*
X667850Y546399D02*
Y587649D01*
X667900Y546399D02*
Y587649D01*
X667950Y546399D02*
Y587649D01*
X668000Y546399D02*
Y587649D01*
X668050Y546399D02*
Y587649D01*
X668100Y546399D02*
Y587649D01*
X668150Y546399D02*
Y587649D01*
X668200Y546399D02*
Y587649D01*
X668250Y546399D02*
Y587649D01*
X668300Y546399D02*
Y587649D01*
X668350Y546399D02*
Y587649D01*
X668400Y546399D02*
Y587649D01*
X668450Y546399D02*
Y587649D01*
X668500Y546399D02*
Y587649D01*
X668550Y546399D02*
Y587649D01*
X668600Y546399D02*
Y587649D01*
X668650Y546399D02*
Y587649D01*
X668700Y546399D02*
Y587649D01*
X668750Y546399D02*
Y587649D01*
X668800Y546399D02*
Y587649D01*
X668850Y546399D02*
Y587649D01*
X668900Y546399D02*
Y587649D01*
X668950Y546399D02*
Y587649D01*
X669000Y546399D02*
Y587649D01*
X669050Y546399D02*
Y587649D01*
X669100Y546399D02*
Y587649D01*
X669150Y546399D02*
Y587649D01*
X669200Y546399D02*
Y587649D01*
X669250Y546399D02*
Y587649D01*
X669300Y546399D02*
Y587649D01*
X669350Y546399D02*
Y587649D01*
X669400Y546399D02*
Y587649D01*
X669450Y546399D02*
Y587649D01*
X669500Y546399D02*
Y587649D01*
X669550Y546399D02*
Y587649D01*
X669600Y546399D02*
Y587649D01*
X669650Y546399D02*
Y587649D01*
X669700Y546399D02*
Y587649D01*
X669750Y546399D02*
Y587649D01*
X669800Y546399D02*
Y587649D01*
X669850Y546399D02*
Y587649D01*
X669900Y546399D02*
Y587649D01*
X669950Y546399D02*
Y587649D01*
X670000Y546399D02*
Y587649D01*
X670050Y546399D02*
Y587649D01*
X670100Y546399D02*
Y587649D01*
X670150Y546399D02*
Y587649D01*
X670200Y546399D02*
Y587649D01*
X670250Y546399D02*
Y587649D01*
X670300Y546399D02*
Y587649D01*
X670350Y546399D02*
Y587649D01*
X670400Y546399D02*
Y587649D01*
X670450Y546399D02*
Y587649D01*
X670500Y546399D02*
Y587649D01*
X670550Y546399D02*
Y587649D01*
X670600Y546399D02*
Y587649D01*
X670650Y546399D02*
Y587649D01*
X670700Y546399D02*
Y587649D01*
X670750Y546399D02*
Y587649D01*
X670800Y546399D02*
Y587649D01*
X670850Y546399D02*
Y587649D01*
X670900Y546399D02*
Y587649D01*
X670950Y546399D02*
Y587649D01*
X671000Y546399D02*
Y587649D01*
X671050Y546399D02*
Y587649D01*
X671100Y546399D02*
Y587649D01*
X671150Y546399D02*
Y587649D01*
X671200Y546399D02*
Y587649D01*
X671250Y546399D02*
Y587649D01*
X671300Y546399D02*
Y587649D01*
X671350Y546399D02*
Y587649D01*
X671400Y546399D02*
Y587649D01*
X671450Y546399D02*
Y587649D01*
X671500Y546399D02*
Y587649D01*
X671550Y546399D02*
Y587649D01*
X671600Y546399D02*
Y587649D01*
X671650Y546399D02*
Y587649D01*
X671700Y546399D02*
Y587649D01*
X671750Y546399D02*
Y587649D01*
X671800Y546399D02*
Y587649D01*
X671850Y546399D02*
Y587649D01*
X671900Y546399D02*
Y587649D01*
X671950Y546399D02*
Y587649D01*
X672000Y546399D02*
Y587649D01*
X672050Y546399D02*
Y587649D01*
X672100Y546399D02*
Y587649D01*
X672150Y546399D02*
Y587649D01*
X672200Y546399D02*
Y587649D01*
X672250Y546399D02*
Y587649D01*
X672300Y546399D02*
Y587649D01*
X672350Y546399D02*
Y587649D01*
X672400Y546399D02*
Y587649D01*
X672450Y546399D02*
Y587649D01*
X672500Y546399D02*
Y587649D01*
X672550Y546399D02*
Y587649D01*
X672600Y546399D02*
Y587649D01*
X672650Y546399D02*
Y587649D01*
X672700Y546399D02*
Y587649D01*
X672750Y546399D02*
Y587649D01*
X672800Y546399D02*
Y587649D01*
X672850Y546399D02*
Y587649D01*
X672900Y546399D02*
Y587649D01*
X672950Y546399D02*
Y587649D01*
X673000Y546399D02*
Y587649D01*
X673050Y546399D02*
Y587649D01*
X673100Y546399D02*
Y587649D01*
X673150Y546399D02*
Y587649D01*
X673200Y546399D02*
Y587649D01*
X673250Y546399D02*
Y587649D01*
X673300Y546399D02*
Y587649D01*
X673350Y546399D02*
Y587649D01*
X673400Y546399D02*
Y587649D01*
X673450Y546399D02*
Y587649D01*
X673500Y546399D02*
Y587649D01*
X673550Y546399D02*
Y587649D01*
X673600Y546399D02*
Y587649D01*
X673650Y546399D02*
Y587649D01*
X673700Y546399D02*
Y587649D01*
X673750Y546399D02*
Y587649D01*
X673800Y546399D02*
Y587649D01*
X673850Y546399D02*
Y587649D01*
X673900Y546399D02*
Y587649D01*
X673950Y546399D02*
Y587649D01*
X674000Y546399D02*
Y587649D01*
X674050Y546399D02*
Y587649D01*
X674100Y546399D02*
Y587649D01*
X674150Y546399D02*
Y587649D01*
X674200Y546399D02*
Y587649D01*
X674250Y546399D02*
Y587649D01*
X674300Y546399D02*
Y587649D01*
X674350Y546399D02*
Y587649D01*
X674400Y546399D02*
Y587649D01*
X674450Y546399D02*
Y587649D01*
X674500Y546399D02*
Y587649D01*
X674550Y546399D02*
Y587649D01*
X674600Y546399D02*
Y587649D01*
X674650Y546399D02*
Y587649D01*
X674700Y546399D02*
Y587649D01*
X674750Y546399D02*
Y587649D01*
X674800Y546399D02*
Y587649D01*
X674850Y546399D02*
Y587649D01*
X674900Y546399D02*
Y587649D01*
X674950Y546399D02*
Y587649D01*
X675000Y546399D02*
Y587649D01*
X675050Y546399D02*
Y587649D01*
X675100Y546399D02*
Y587649D01*
X675150Y546399D02*
Y587649D01*
X675200Y546399D02*
Y587649D01*
X675250Y546399D02*
Y587649D01*
X675300Y546399D02*
Y587649D01*
X675350Y546399D02*
Y587649D01*
X675400Y546399D02*
Y587649D01*
X675450Y546399D02*
Y587649D01*
X675500Y546399D02*
Y587649D01*
X675550Y546399D02*
Y587649D01*
X675600Y546399D02*
Y587649D01*
X675650Y546399D02*
Y587649D01*
X675700Y546399D02*
Y587649D01*
X675750Y546399D02*
Y587649D01*
X675800Y546399D02*
Y587649D01*
X675850Y546399D02*
Y587649D01*
X675900Y546399D02*
Y587649D01*
X675950Y546399D02*
Y587649D01*
X676000Y546399D02*
Y587649D01*
X676050Y546399D02*
Y587649D01*
X676100Y546399D02*
Y587649D01*
X676150Y546399D02*
Y587649D01*
X676200Y546399D02*
Y587649D01*
X676250Y546399D02*
Y587649D01*
X676300Y546399D02*
Y587649D01*
X676350Y546399D02*
Y587649D01*
X676400Y546399D02*
Y587649D01*
X676450Y546399D02*
Y587649D01*
X676500Y546399D02*
Y587649D01*
X676550Y546399D02*
Y587649D01*
X676600Y546399D02*
Y587649D01*
X676650Y546399D02*
Y587649D01*
X676700Y546399D02*
Y587649D01*
X676750Y546399D02*
Y587649D01*
X676800Y546399D02*
Y587649D01*
X676850Y546399D02*
Y587649D01*
X676900Y546399D02*
Y587649D01*
X676950Y546399D02*
Y587649D01*
X677000Y546399D02*
Y587649D01*
X677050Y546399D02*
Y587649D01*
X677100Y546399D02*
Y587649D01*
X677150Y546399D02*
Y587649D01*
X677200Y546399D02*
Y587649D01*
X677250Y546399D02*
Y587649D01*
X677300Y546399D02*
Y587649D01*
X677350Y546399D02*
Y587649D01*
X677400Y546399D02*
Y587649D01*
X677450Y546399D02*
Y587649D01*
X677500Y546399D02*
Y587649D01*
X677550Y546399D02*
Y587649D01*
X677600Y546399D02*
Y587649D01*
X677650Y546399D02*
Y587649D01*
X677700Y546399D02*
Y587649D01*
X677750Y546399D02*
Y587649D01*
X677800Y546399D02*
Y587649D01*
X677850Y546399D02*
Y587649D01*
X677900Y546399D02*
Y587649D01*
X677950Y546399D02*
Y587649D01*
X678000Y546399D02*
Y587649D01*
X678050Y546399D02*
Y587649D01*
X678100Y546399D02*
Y587649D01*
X678150Y546399D02*
Y587649D01*
X678200Y546399D02*
Y587649D01*
X678250Y546399D02*
Y587649D01*
X678300Y546399D02*
Y587649D01*
X678350Y546399D02*
Y587649D01*
X678400Y546399D02*
Y587649D01*
X678450Y546399D02*
Y587649D01*
X678500Y546399D02*
Y587649D01*
X678550Y546399D02*
Y587649D01*
X678600Y546399D02*
Y587649D01*
X678650Y546399D02*
Y587649D01*
X678700Y546399D02*
Y587649D01*
X678750Y546399D02*
Y587649D01*
X678800Y546399D02*
Y587649D01*
X678850Y546399D02*
Y587649D01*
X678900Y546399D02*
Y587649D01*
X678950Y546399D02*
Y587649D01*
X679000Y546399D02*
Y587649D01*
X679050Y546399D02*
Y587649D01*
X679100Y546399D02*
Y587649D01*
X679150Y546399D02*
Y587649D01*
X679200Y546399D02*
Y587649D01*
X679250Y546399D02*
Y587649D01*
X679300Y546399D02*
Y587649D01*
X679350Y546399D02*
Y587649D01*
X679400Y546399D02*
Y587649D01*
X679450Y546399D02*
Y587649D01*
X679500Y546399D02*
Y587649D01*
X679550Y546399D02*
Y587649D01*
X679600Y546399D02*
Y587649D01*
X679650Y546399D02*
Y587649D01*
X679700Y546399D02*
Y587649D01*
X679750Y546399D02*
Y587649D01*
X679800Y546399D02*
Y587649D01*
X679850Y546399D02*
Y587649D01*
X679900Y546399D02*
Y587649D01*
X679950Y546399D02*
Y587649D01*
X680000Y546399D02*
Y587649D01*
X680050Y546399D02*
Y587649D01*
X680100Y546399D02*
Y587649D01*
X680150Y546399D02*
Y587649D01*
X680200Y546399D02*
Y587649D01*
X680250Y546399D02*
Y587649D01*
X680300Y546399D02*
Y587649D01*
X680350Y546399D02*
Y587649D01*
X680400Y546399D02*
Y587649D01*
X680450Y546399D02*
Y587649D01*
X680500Y546399D02*
Y587649D01*
X680550Y546399D02*
Y587649D01*
X680600Y546399D02*
Y587649D01*
X680650Y546399D02*
Y587649D01*
X680700Y546399D02*
Y587649D01*
X680750Y546399D02*
Y587649D01*
X680800Y546399D02*
Y587649D01*
X680850Y546399D02*
Y587649D01*
X680900Y546399D02*
Y587649D01*
X680950Y546399D02*
Y587649D01*
X681000Y546399D02*
Y587649D01*
X681050Y546399D02*
Y587649D01*
X681100Y546399D02*
Y587649D01*
X681150Y546399D02*
Y587649D01*
X681200Y546399D02*
Y587649D01*
X681250Y546399D02*
Y587649D01*
X681300Y546399D02*
Y587649D01*
X681350Y546399D02*
Y587649D01*
X681400Y546399D02*
Y587649D01*
X681450Y546399D02*
Y587649D01*
X681500Y546399D02*
Y587649D01*
X681550Y546399D02*
Y587649D01*
X681600Y546399D02*
Y587649D01*
X681650Y546399D02*
Y587649D01*
X681700Y546399D02*
Y587649D01*
X681750Y546399D02*
Y587649D01*
X681800Y546399D02*
Y587649D01*
X681850Y546399D02*
Y587649D01*
X681900Y546399D02*
Y587649D01*
X681950Y546399D02*
Y587649D01*
X682000Y546399D02*
Y587649D01*
X682050Y546399D02*
Y587649D01*
X682100Y546399D02*
Y587649D01*
X682150Y546399D02*
Y587649D01*
X682200Y546399D02*
Y587649D01*
X682250Y546399D02*
Y587649D01*
X682300Y546399D02*
Y587649D01*
X682350Y546399D02*
Y587649D01*
X682400Y546399D02*
Y587649D01*
X682450Y546399D02*
Y587649D01*
X682500Y546399D02*
Y587649D01*
X682550Y546399D02*
Y587649D01*
X682600Y546399D02*
Y587649D01*
X682650Y546399D02*
Y587649D01*
X682700Y546399D02*
Y587649D01*
X682750Y546399D02*
Y587649D01*
X682800Y546399D02*
Y587649D01*
X682850Y546399D02*
Y587649D01*
X682900Y546399D02*
Y587649D01*
X682950Y546399D02*
Y587649D01*
X683000Y546399D02*
Y587649D01*
X683050Y546399D02*
Y587649D01*
X683100Y546399D02*
Y587649D01*
X683150Y546399D02*
Y587649D01*
X683200Y546399D02*
Y587649D01*
X683250Y546399D02*
Y587649D01*
X683300Y546399D02*
Y587649D01*
X683350Y546399D02*
Y587649D01*
X683400Y546399D02*
Y587649D01*
X683450Y546399D02*
Y587649D01*
X683500Y546399D02*
Y587649D01*
X683550Y546399D02*
Y587649D01*
X683600Y546399D02*
Y587649D01*
X683650Y546399D02*
Y587649D01*
X683700Y546399D02*
Y587649D01*
X683750Y546399D02*
Y587649D01*
X683800Y546399D02*
Y587649D01*
X683850Y546399D02*
Y587649D01*
X683900Y546399D02*
Y587649D01*
X683950Y546399D02*
Y587649D01*
X684000Y546399D02*
Y587649D01*
X684050Y546399D02*
Y587649D01*
X684100Y546399D02*
Y587649D01*
X684150Y546399D02*
Y587649D01*
X684200Y546399D02*
Y587649D01*
X684250Y546399D02*
Y587649D01*
X684300Y546399D02*
Y587649D01*
X684350Y546399D02*
Y587649D01*
X684400Y546399D02*
Y587649D01*
X684450Y546399D02*
Y587649D01*
X684500Y546399D02*
Y587649D01*
X684550Y546399D02*
Y587649D01*
X684600Y546399D02*
Y587649D01*
X684650Y546399D02*
Y587649D01*
X684700Y546399D02*
Y587649D01*
X684750Y546399D02*
Y587649D01*
X684800Y546399D02*
Y587649D01*
X684850Y546399D02*
Y587649D01*
X684900Y546399D02*
Y587649D01*
X684950Y546399D02*
Y587649D01*
X685000Y546399D02*
Y587649D01*
X685050Y546399D02*
Y587649D01*
X685100Y546399D02*
Y587649D01*
X685150Y546399D02*
Y587649D01*
X685200Y546399D02*
Y587649D01*
X685250Y546399D02*
Y587649D01*
X685300Y546399D02*
Y587649D01*
X685350Y546399D02*
Y587649D01*
X685400Y546399D02*
Y587649D01*
X685450Y546399D02*
Y587649D01*
X685500Y546399D02*
Y587649D01*
X685550Y546399D02*
Y587649D01*
X685600Y546399D02*
Y587649D01*
X685650Y546399D02*
Y587649D01*
X685700Y546399D02*
Y587649D01*
X685750Y546399D02*
Y587649D01*
X685800Y546399D02*
Y587649D01*
X685850Y546399D02*
Y587649D01*
X685900Y546399D02*
Y587649D01*
X685950Y546399D02*
Y587649D01*
X686000Y546399D02*
Y587649D01*
X686050Y546399D02*
Y587649D01*
X686100Y546399D02*
Y587649D01*
X686150Y546399D02*
Y587649D01*
X686200Y546399D02*
Y587649D01*
X686250Y546399D02*
Y587649D01*
X686300Y546399D02*
Y587649D01*
X686350Y546399D02*
Y587649D01*
X686400Y546399D02*
Y587649D01*
X686450Y546399D02*
Y587649D01*
X686500Y546399D02*
Y587649D01*
X686550Y546399D02*
Y587649D01*
X686600Y546399D02*
Y587649D01*
X686650Y546399D02*
Y587649D01*
X686700Y546399D02*
Y587649D01*
X686750Y546399D02*
Y587649D01*
X686800Y546399D02*
Y587649D01*
X686850Y546399D02*
Y587649D01*
X686900Y546399D02*
Y587649D01*
X686950Y546399D02*
Y587649D01*
X687000Y546399D02*
Y587649D01*
X687050Y546399D02*
Y587649D01*
X687100Y546399D02*
Y587649D01*
X687150Y546399D02*
Y587649D01*
X687200Y546399D02*
Y587649D01*
X687250Y546399D02*
Y587649D01*
X687300Y546399D02*
Y587649D01*
X687350Y546399D02*
Y587649D01*
X687400Y546399D02*
Y587649D01*
X687450Y546399D02*
Y587649D01*
X687500Y546399D02*
Y587649D01*
X687550Y546399D02*
Y587649D01*
X687600Y546399D02*
Y587649D01*
X687650Y546399D02*
Y587649D01*
X687700Y546399D02*
Y587649D01*
X687750Y546399D02*
Y587649D01*
X687800Y546399D02*
Y587649D01*
X687850Y546399D02*
Y587649D01*
X687900Y546399D02*
Y587649D01*
X687950Y546399D02*
Y587649D01*
X688000Y546399D02*
Y587649D01*
X688050Y546399D02*
Y587649D01*
X688100Y546399D02*
Y587649D01*
X688150Y546399D02*
Y587649D01*
X688200Y546399D02*
Y587649D01*
X688250Y546399D02*
Y587649D01*
X688300Y546399D02*
Y587649D01*
X688350Y546399D02*
Y587649D01*
X688400Y546399D02*
Y587649D01*
X688450Y546399D02*
Y587649D01*
X688500Y546399D02*
Y587649D01*
X688550Y546399D02*
Y587649D01*
X688600Y546399D02*
Y587649D01*
X688650Y546399D02*
Y587649D01*
X688700Y546399D02*
Y587649D01*
X688750Y546399D02*
Y587649D01*
X688800Y546399D02*
Y587649D01*
X688850Y546399D02*
Y587649D01*
X688900Y546399D02*
Y587649D01*
X688950Y546399D02*
Y587649D01*
X689000Y546399D02*
Y587649D01*
X689050Y546399D02*
Y587649D01*
X689100Y546399D02*
Y587649D01*
X689150Y546399D02*
Y587649D01*
X689200Y546399D02*
Y587649D01*
X689250Y546399D02*
Y587649D01*
X689300Y546399D02*
Y587649D01*
X689350Y546399D02*
Y587649D01*
X689400Y546399D02*
Y587649D01*
X689450Y546399D02*
Y587649D01*
X689500Y546399D02*
Y587649D01*
X689550Y546399D02*
Y587649D01*
X689600Y546399D02*
Y587649D01*
X689650Y546399D02*
Y587649D01*
X689700Y546399D02*
Y587649D01*
X689750Y546399D02*
Y587649D01*
X689800Y546399D02*
Y587649D01*
X689850Y546399D02*
Y587649D01*
X689900Y546399D02*
Y587649D01*
X689950Y546399D02*
Y587649D01*
X690000Y546399D02*
Y587649D01*
X690050Y546399D02*
Y587649D01*
X690100Y546399D02*
Y587649D01*
X690150Y546399D02*
Y587649D01*
X690200Y546399D02*
Y587649D01*
X690250Y546399D02*
Y587649D01*
X690300Y546399D02*
Y587649D01*
X690350Y546399D02*
Y587649D01*
X690400Y546399D02*
Y587649D01*
X690450Y546399D02*
Y587649D01*
X690500Y546399D02*
Y587649D01*
X690550Y546399D02*
Y587649D01*
X690600Y546399D02*
Y587649D01*
X690650Y546399D02*
Y587649D01*
X690700Y546399D02*
Y587649D01*
X690750Y546399D02*
Y587649D01*
X690800Y546399D02*
Y587649D01*
X690850Y546399D02*
Y587649D01*
X690900Y546399D02*
Y587649D01*
X690950Y546399D02*
Y587649D01*
X691000Y546399D02*
Y587649D01*
X691050Y546399D02*
Y587649D01*
X691100Y546399D02*
Y587649D01*
X691150Y546399D02*
Y587649D01*
X691200Y546399D02*
Y587649D01*
X691250Y546399D02*
Y587649D01*
X691300Y546399D02*
Y587649D01*
X691350Y546399D02*
Y587649D01*
X691400Y546399D02*
Y587649D01*
X691450Y546399D02*
Y587649D01*
X691500Y546399D02*
Y587649D01*
X691550Y546399D02*
Y587649D01*
X691600Y546399D02*
Y587649D01*
X691650Y546399D02*
Y587649D01*
X691700Y546399D02*
Y587649D01*
X691750Y546399D02*
Y587649D01*
X691800Y546399D02*
Y587649D01*
X691850Y546399D02*
Y587649D01*
X691900Y546399D02*
Y587649D01*
X691950Y546399D02*
Y587649D01*
X692000Y546399D02*
Y587649D01*
X692050Y546399D02*
Y587649D01*
X692100Y546399D02*
Y587649D01*
X692150Y546399D02*
Y587649D01*
X692200Y546399D02*
Y587649D01*
X692250Y546399D02*
Y587649D01*
X692300Y546399D02*
Y587649D01*
X692350Y546399D02*
Y587649D01*
X692400Y546399D02*
Y587649D01*
X692450Y546399D02*
Y587649D01*
X692500Y546399D02*
Y587649D01*
X692550Y546399D02*
Y587649D01*
X692600Y546399D02*
Y587649D01*
X692650Y546399D02*
Y587649D01*
X692700Y546399D02*
Y587649D01*
X692750Y546399D02*
Y587649D01*
X692800Y546399D02*
Y587649D01*
X692850Y546399D02*
Y587649D01*
X692900Y546399D02*
Y587649D01*
X692950Y546399D02*
Y587649D01*
X693000Y546399D02*
Y587649D01*
X693050Y546399D02*
Y587649D01*
X693100Y546399D02*
Y587649D01*
X693150Y546399D02*
Y587649D01*
X693200Y546399D02*
Y587649D01*
X693250Y546399D02*
Y587649D01*
X693300Y546399D02*
Y587649D01*
X693350Y546399D02*
Y587649D01*
X693400Y546399D02*
Y587649D01*
X693450Y546399D02*
Y587649D01*
X693500Y546399D02*
Y587649D01*
X693550Y546399D02*
Y587649D01*
X693600Y546399D02*
Y587649D01*
X693650Y546399D02*
Y587649D01*
X693700Y546399D02*
Y587649D01*
X693750Y546399D02*
Y587649D01*
X693800Y546399D02*
Y587649D01*
X693850Y546399D02*
Y587649D01*
X693900Y546399D02*
Y587649D01*
X693950Y546399D02*
Y587649D01*
X694000Y546399D02*
Y587649D01*
X694050Y546399D02*
Y587649D01*
X694100Y546399D02*
Y587649D01*
X694150Y546399D02*
Y587649D01*
X694200Y546399D02*
Y587649D01*
X694250Y546399D02*
Y587649D01*
X694300Y546399D02*
Y587649D01*
X694350Y546399D02*
Y587649D01*
X694400Y546399D02*
Y587649D01*
X694450Y546399D02*
Y587649D01*
X694500Y546399D02*
Y587649D01*
X694550Y546399D02*
Y587649D01*
X694600Y546399D02*
Y587649D01*
X694650Y546399D02*
Y587649D01*
X694700Y546399D02*
Y587649D01*
X694750Y546399D02*
Y587649D01*
X694800Y546399D02*
Y587649D01*
X694850Y546399D02*
Y587649D01*
X694900Y546399D02*
Y587649D01*
X694950Y546399D02*
Y587649D01*
X695000Y546399D02*
Y587649D01*
X695050Y546399D02*
Y587649D01*
X695100Y546399D02*
Y587649D01*
X695150Y546399D02*
Y587649D01*
X695200Y546399D02*
Y587649D01*
X695250Y546399D02*
Y587649D01*
X695300Y546399D02*
Y587649D01*
X695350Y546399D02*
Y587649D01*
X695400Y546399D02*
Y587649D01*
X695450Y546399D02*
Y587649D01*
X695500Y546399D02*
Y587649D01*
X695550Y546399D02*
Y587649D01*
X695600Y546399D02*
Y587649D01*
X695650Y546399D02*
Y587649D01*
X695700Y546399D02*
Y587649D01*
X695750Y546399D02*
Y587649D01*
X695800Y546399D02*
Y587649D01*
X695850Y546399D02*
Y587649D01*
X695900Y546399D02*
Y587649D01*
X695950Y546399D02*
Y587649D01*
X696000Y546399D02*
Y587649D01*
X696050Y546399D02*
Y587649D01*
X696100Y546399D02*
Y587649D01*
X696150Y546399D02*
Y587649D01*
X696200Y546399D02*
Y587649D01*
X696250Y546399D02*
Y587649D01*
X696300Y546399D02*
Y587649D01*
X696350Y546399D02*
Y587649D01*
X696400Y546399D02*
Y587649D01*
X696450Y546399D02*
Y587649D01*
X696500Y546399D02*
Y587649D01*
X696550Y546399D02*
Y587649D01*
X696600Y546399D02*
Y587649D01*
X696650Y546399D02*
Y587649D01*
X696700Y546399D02*
Y587649D01*
X696750Y546399D02*
Y587649D01*
X696800Y546399D02*
Y587649D01*
X696850Y546399D02*
Y587649D01*
X696900Y546399D02*
Y587649D01*
X696950Y546399D02*
Y587649D01*
X697000Y546399D02*
Y587649D01*
X697050Y546399D02*
Y587649D01*
X697100Y546399D02*
Y587649D01*
X697150Y546399D02*
Y587649D01*
X697200Y546399D02*
Y587649D01*
X697250Y546399D02*
Y587649D01*
X697300Y546399D02*
Y587649D01*
X697350Y546399D02*
Y587649D01*
X697400Y546399D02*
Y587649D01*
X697450Y546399D02*
Y587649D01*
X697500Y546399D02*
Y587649D01*
X697550Y546399D02*
Y587649D01*
X697600Y546399D02*
Y587649D01*
X697650Y546399D02*
Y587649D01*
X697700Y546399D02*
Y587649D01*
X697750Y546399D02*
Y587649D01*
X697800Y546399D02*
Y587649D01*
X697850Y546399D02*
Y587649D01*
X697900Y546399D02*
Y587649D01*
X697950Y546399D02*
Y587649D01*
X698000Y546399D02*
Y587649D01*
X698050Y546399D02*
Y587649D01*
X698100Y546399D02*
Y587649D01*
X698150Y546399D02*
Y587649D01*
X698200Y546399D02*
Y587649D01*
X698250Y546399D02*
Y587649D01*
X698300Y546399D02*
Y587649D01*
X698350Y546399D02*
Y587649D01*
X698400Y546399D02*
Y587649D01*
X698450Y546399D02*
Y587649D01*
X698500Y546399D02*
Y587649D01*
X698550Y546399D02*
Y587649D01*
X698600Y546399D02*
Y587649D01*
X698650Y546399D02*
Y587649D01*
X698700Y546399D02*
Y587649D01*
X698750Y546399D02*
Y587649D01*
X698800Y546399D02*
Y587649D01*
X698850Y546399D02*
Y587649D01*
X698900Y546399D02*
Y587649D01*
X698950Y546399D02*
Y587649D01*
X699000Y546399D02*
Y587649D01*
X699050Y546399D02*
Y587649D01*
X699100Y546399D02*
Y587649D01*
X699150Y546399D02*
Y587649D01*
X699200Y546399D02*
Y587649D01*
X699250Y546399D02*
Y587649D01*
X699300Y546399D02*
Y587649D01*
X699350Y546399D02*
Y587649D01*
X699400Y546399D02*
Y587649D01*
X699450Y546399D02*
Y587649D01*
X699500Y546399D02*
Y587649D01*
X699550Y546399D02*
Y587649D01*
X699600Y546399D02*
Y587649D01*
X699650Y546399D02*
Y587649D01*
X699700Y546399D02*
Y587649D01*
X699750Y546399D02*
Y587649D01*
X699800Y546399D02*
Y587649D01*
X699850Y546399D02*
Y587649D01*
X699900Y546399D02*
Y587649D01*
X699950Y546399D02*
Y587649D01*
X700000Y546399D02*
Y587649D01*
X700050Y546399D02*
Y587649D01*
X700100Y546399D02*
Y587649D01*
X700150Y546399D02*
Y587649D01*
X700200Y546399D02*
Y587649D01*
X700250Y546399D02*
Y587649D01*
X700300Y546399D02*
Y587649D01*
X700350Y546399D02*
Y587649D01*
X700400Y546399D02*
Y587649D01*
X700450Y546399D02*
Y587649D01*
X700500Y546399D02*
Y587649D01*
X700550Y546399D02*
Y587649D01*
X700600Y546399D02*
Y587649D01*
X700650Y546399D02*
Y587649D01*
X700700Y546399D02*
Y587649D01*
X700750Y546399D02*
Y587649D01*
X700800Y546399D02*
Y587649D01*
X700850Y546399D02*
Y587649D01*
X700900Y546399D02*
Y587649D01*
X700950Y546399D02*
Y587649D01*
X701000Y546399D02*
Y587649D01*
X701050Y546399D02*
Y587649D01*
X701100Y546399D02*
Y587649D01*
X701150Y546399D02*
Y587649D01*
X701200Y546399D02*
Y587649D01*
X701250Y546399D02*
Y587649D01*
X701300Y546399D02*
Y587649D01*
X701350Y546399D02*
Y587649D01*
X701400Y546399D02*
Y587649D01*
X701450Y546399D02*
Y587649D01*
X701500Y546399D02*
Y587649D01*
X701550Y546399D02*
Y587649D01*
X701600Y546399D02*
Y587649D01*
X701650Y546399D02*
Y587649D01*
X701700Y546399D02*
Y587649D01*
X701750Y546399D02*
Y587649D01*
X701800Y546399D02*
Y587649D01*
X701850Y546399D02*
Y587649D01*
X701900Y546399D02*
Y587649D01*
X701950Y546399D02*
Y587649D01*
X702000Y546399D02*
Y587649D01*
X702050Y546399D02*
Y587649D01*
X702100Y546399D02*
Y587649D01*
X702150Y546399D02*
Y587649D01*
X702200Y546399D02*
Y587649D01*
X702250Y546399D02*
Y587649D01*
X702300Y546399D02*
Y587649D01*
X702350Y546399D02*
Y587649D01*
X702400Y546399D02*
Y587649D01*
X702450Y546399D02*
Y587649D01*
X702500Y546399D02*
Y587649D01*
X702550Y546399D02*
Y587649D01*
X702600Y546399D02*
Y587649D01*
X702650Y546399D02*
Y587649D01*
X702700Y546399D02*
Y587649D01*
X702750Y546399D02*
Y587649D01*
X702800Y546399D02*
Y587649D01*
X702850Y546399D02*
Y587649D01*
X702900Y546399D02*
Y587649D01*
X702950Y546399D02*
Y587649D01*
X703000Y546399D02*
Y587649D01*
X703050Y546399D02*
Y587649D01*
X703100Y546399D02*
Y587649D01*
X703150Y546399D02*
Y587649D01*
X703200Y546399D02*
Y587649D01*
X703250Y546399D02*
Y587649D01*
X703300Y546399D02*
Y587649D01*
X703350Y546399D02*
Y587649D01*
X703400Y546399D02*
Y587649D01*
X703450Y546399D02*
Y587649D01*
X703500Y546399D02*
Y587649D01*
X703550Y546399D02*
Y587649D01*
X703600Y546399D02*
Y587649D01*
X703650Y546399D02*
Y587649D01*
X703700Y546399D02*
Y587649D01*
X703750Y546399D02*
Y587649D01*
X391155Y379495D02*
X371505D01*
Y360545*
X391155*
Y363295*
X388075*
X388065Y363298*
X388058Y363306*
X388055Y363315*
Y365925*
X388058Y365934*
X388065Y365941*
X388075Y365945*
X391155*
Y368695*
X388075*
X388065Y368698*
X388058Y368706*
X388055Y368715*
Y371325*
X388058Y371334*
X388065Y371341*
X388075Y371345*
X391155*
Y374095*
X388075*
X388065Y374098*
X388058Y374106*
X388055Y374115*
Y376725*
X388058Y376734*
X388065Y376741*
X388075Y376745*
X391155*
Y379495*
X371550Y360545D02*
Y379495D01*
X371600Y360545D02*
Y379495D01*
X371650Y360545D02*
Y379495D01*
X371700Y360545D02*
Y379495D01*
X371750Y360545D02*
Y379495D01*
X371800Y360545D02*
Y379495D01*
X371850Y360545D02*
Y379495D01*
X371900Y360545D02*
Y379495D01*
X371950Y360545D02*
Y379495D01*
X372000Y360545D02*
Y379495D01*
X372050Y360545D02*
Y379495D01*
X372100Y360545D02*
Y379495D01*
X372150Y360545D02*
Y379495D01*
X372200Y360545D02*
Y379495D01*
X372250Y360545D02*
Y379495D01*
X372300Y360545D02*
Y379495D01*
X372350Y360545D02*
Y379495D01*
X372400Y360545D02*
Y379495D01*
X372450Y360545D02*
Y379495D01*
X372500Y360545D02*
Y379495D01*
X372550Y360545D02*
Y379495D01*
X372600Y360545D02*
Y379495D01*
X372650Y360545D02*
Y379495D01*
X372700Y360545D02*
Y379495D01*
X372750Y360545D02*
Y379495D01*
X372800Y360545D02*
Y379495D01*
X372850Y360545D02*
Y379495D01*
X372900Y360545D02*
Y379495D01*
X372950Y360545D02*
Y379495D01*
X373000Y360545D02*
Y379495D01*
X373050Y360545D02*
Y379495D01*
X373100Y360545D02*
Y379495D01*
X373150Y360545D02*
Y379495D01*
X373200Y360545D02*
Y379495D01*
X373250Y360545D02*
Y379495D01*
X373300Y360545D02*
Y379495D01*
X373350Y360545D02*
Y379495D01*
X373400Y360545D02*
Y379495D01*
X373450Y360545D02*
Y379495D01*
X373500Y360545D02*
Y379495D01*
X373550Y360545D02*
Y379495D01*
X373600Y360545D02*
Y379495D01*
X373650Y360545D02*
Y379495D01*
X373700Y360545D02*
Y379495D01*
X373750Y360545D02*
Y379495D01*
X373800Y360545D02*
Y379495D01*
X373850Y360545D02*
Y379495D01*
X373900Y360545D02*
Y379495D01*
X373950Y360545D02*
Y379495D01*
X374000Y360545D02*
Y379495D01*
X374050Y360545D02*
Y379495D01*
X374100Y360545D02*
Y379495D01*
X374150Y360545D02*
Y379495D01*
X374200Y360545D02*
Y379495D01*
X374250Y360545D02*
Y379495D01*
X374300Y360545D02*
Y379495D01*
X374350Y360545D02*
Y379495D01*
X374400Y360545D02*
Y379495D01*
X374450Y360545D02*
Y379495D01*
X374500Y360545D02*
Y379495D01*
X374550Y360545D02*
Y379495D01*
X374600Y360545D02*
Y379495D01*
X374650Y360545D02*
Y379495D01*
X374700Y360545D02*
Y379495D01*
X374750Y360545D02*
Y379495D01*
X374800Y360545D02*
Y379495D01*
X374850Y360545D02*
Y379495D01*
X374900Y360545D02*
Y379495D01*
X374950Y360545D02*
Y379495D01*
X375000Y360545D02*
Y379495D01*
X375050Y360545D02*
Y379495D01*
X375100Y360545D02*
Y379495D01*
X375150Y360545D02*
Y379495D01*
X375200Y360545D02*
Y379495D01*
X375250Y360545D02*
Y379495D01*
X375300Y360545D02*
Y379495D01*
X375350Y360545D02*
Y379495D01*
X375400Y360545D02*
Y379495D01*
X375450Y360545D02*
Y379495D01*
X375500Y360545D02*
Y379495D01*
X375550Y360545D02*
Y379495D01*
X375600Y360545D02*
Y379495D01*
X375650Y360545D02*
Y379495D01*
X375700Y360545D02*
Y379495D01*
X375750Y360545D02*
Y379495D01*
X375800Y360545D02*
Y379495D01*
X375850Y360545D02*
Y379495D01*
X375900Y360545D02*
Y379495D01*
X375950Y360545D02*
Y379495D01*
X376000Y360545D02*
Y379495D01*
X376050Y360545D02*
Y379495D01*
X376100Y360545D02*
Y379495D01*
X376150Y360545D02*
Y379495D01*
X376200Y360545D02*
Y379495D01*
X376250Y360545D02*
Y379495D01*
X376300Y360545D02*
Y379495D01*
X376350Y360545D02*
Y379495D01*
X376400Y360545D02*
Y379495D01*
X376450Y360545D02*
Y379495D01*
X376500Y360545D02*
Y379495D01*
X376550Y360545D02*
Y379495D01*
X376600Y360545D02*
Y379495D01*
X376650Y360545D02*
Y379495D01*
X376700Y360545D02*
Y379495D01*
X376750Y360545D02*
Y379495D01*
X376800Y360545D02*
Y379495D01*
X376850Y360545D02*
Y379495D01*
X376900Y360545D02*
Y379495D01*
X376950Y360545D02*
Y379495D01*
X377000Y360545D02*
Y379495D01*
X377050Y360545D02*
Y379495D01*
X377100Y360545D02*
Y379495D01*
X377150Y360545D02*
Y379495D01*
X377200Y360545D02*
Y379495D01*
X377250Y360545D02*
Y379495D01*
X377300Y360545D02*
Y379495D01*
X377350Y360545D02*
Y379495D01*
X377400Y360545D02*
Y379495D01*
X377450Y360545D02*
Y379495D01*
X377500Y360545D02*
Y379495D01*
X377550Y360545D02*
Y379495D01*
X377600Y360545D02*
Y379495D01*
X377650Y360545D02*
Y379495D01*
X377700Y360545D02*
Y379495D01*
X377750Y360545D02*
Y379495D01*
X377800Y360545D02*
Y379495D01*
X377850Y360545D02*
Y379495D01*
X377900Y360545D02*
Y379495D01*
X377950Y360545D02*
Y379495D01*
X378000Y360545D02*
Y379495D01*
X378050Y360545D02*
Y379495D01*
X378100Y360545D02*
Y379495D01*
X378150Y360545D02*
Y379495D01*
X378200Y360545D02*
Y379495D01*
X378250Y360545D02*
Y379495D01*
X378300Y360545D02*
Y379495D01*
X378350Y360545D02*
Y379495D01*
X378400Y360545D02*
Y379495D01*
X378450Y360545D02*
Y379495D01*
X378500Y360545D02*
Y379495D01*
X378550Y360545D02*
Y379495D01*
X378600Y360545D02*
Y379495D01*
X378650Y360545D02*
Y379495D01*
X378700Y360545D02*
Y379495D01*
X378750Y360545D02*
Y379495D01*
X378800Y360545D02*
Y379495D01*
X378850Y360545D02*
Y379495D01*
X378900Y360545D02*
Y379495D01*
X378950Y360545D02*
Y379495D01*
X379000Y360545D02*
Y379495D01*
X379050Y360545D02*
Y379495D01*
X379100Y360545D02*
Y379495D01*
X379150Y360545D02*
Y379495D01*
X379200Y360545D02*
Y379495D01*
X379250Y360545D02*
Y379495D01*
X379300Y360545D02*
Y379495D01*
X379350Y360545D02*
Y379495D01*
X379400Y360545D02*
Y379495D01*
X379450Y360545D02*
Y379495D01*
X379500Y360545D02*
Y379495D01*
X379550Y360545D02*
Y379495D01*
X379600Y360545D02*
Y379495D01*
X379650Y360545D02*
Y379495D01*
X379700Y360545D02*
Y379495D01*
X379750Y360545D02*
Y379495D01*
X379800Y360545D02*
Y379495D01*
X379850Y360545D02*
Y379495D01*
X379900Y360545D02*
Y379495D01*
X379950Y360545D02*
Y379495D01*
X380000Y360545D02*
Y379495D01*
X380050Y360545D02*
Y379495D01*
X380100Y360545D02*
Y379495D01*
X380150Y360545D02*
Y379495D01*
X380200Y360545D02*
Y379495D01*
X380250Y360545D02*
Y379495D01*
X380300Y360545D02*
Y379495D01*
X380350Y360545D02*
Y379495D01*
X380400Y360545D02*
Y379495D01*
X380450Y360545D02*
Y379495D01*
X380500Y360545D02*
Y379495D01*
X380550Y360545D02*
Y379495D01*
X380600Y360545D02*
Y379495D01*
X380650Y360545D02*
Y379495D01*
X380700Y360545D02*
Y379495D01*
X380750Y360545D02*
Y379495D01*
X380800Y360545D02*
Y379495D01*
X380850Y360545D02*
Y379495D01*
X380900Y360545D02*
Y379495D01*
X380950Y360545D02*
Y379495D01*
X381000Y360545D02*
Y379495D01*
X381050Y360545D02*
Y379495D01*
X381100Y360545D02*
Y379495D01*
X381150Y360545D02*
Y379495D01*
X381200Y360545D02*
Y379495D01*
X381250Y360545D02*
Y379495D01*
X381300Y360545D02*
Y379495D01*
X381350Y360545D02*
Y379495D01*
X381400Y360545D02*
Y379495D01*
X381450Y360545D02*
Y379495D01*
X381500Y360545D02*
Y379495D01*
X381550Y360545D02*
Y379495D01*
X381600Y360545D02*
Y379495D01*
X381650Y360545D02*
Y379495D01*
X381700Y360545D02*
Y379495D01*
X381750Y360545D02*
Y379495D01*
X381800Y360545D02*
Y379495D01*
X381850Y360545D02*
Y379495D01*
X381900Y360545D02*
Y379495D01*
X381950Y360545D02*
Y379495D01*
X382000Y360545D02*
Y379495D01*
X382050Y360545D02*
Y379495D01*
X382100Y360545D02*
Y379495D01*
X382150Y360545D02*
Y379495D01*
X382200Y360545D02*
Y379495D01*
X382250Y360545D02*
Y379495D01*
X382300Y360545D02*
Y379495D01*
X382350Y360545D02*
Y379495D01*
X382400Y360545D02*
Y379495D01*
X382450Y360545D02*
Y379495D01*
X382500Y360545D02*
Y379495D01*
X382550Y360545D02*
Y379495D01*
X382600Y360545D02*
Y379495D01*
X382650Y360545D02*
Y379495D01*
X382700Y360545D02*
Y379495D01*
X382750Y360545D02*
Y379495D01*
X382800Y360545D02*
Y379495D01*
X382850Y360545D02*
Y379495D01*
X382900Y360545D02*
Y379495D01*
X382950Y360545D02*
Y379495D01*
X383000Y360545D02*
Y379495D01*
X383050Y360545D02*
Y379495D01*
X383100Y360545D02*
Y379495D01*
X383150Y360545D02*
Y379495D01*
X383200Y360545D02*
Y379495D01*
X383250Y360545D02*
Y379495D01*
X383300Y360545D02*
Y379495D01*
X383350Y360545D02*
Y379495D01*
X383400Y360545D02*
Y379495D01*
X383450Y360545D02*
Y379495D01*
X383500Y360545D02*
Y379495D01*
X383550Y360545D02*
Y379495D01*
X383600Y360545D02*
Y379495D01*
X383650Y360545D02*
Y379495D01*
X383700Y360545D02*
Y379495D01*
X383750Y360545D02*
Y379495D01*
X383800Y360545D02*
Y379495D01*
X383850Y360545D02*
Y379495D01*
X383900Y360545D02*
Y379495D01*
X383950Y360545D02*
Y379495D01*
X384000Y360545D02*
Y379495D01*
X384050Y360545D02*
Y379495D01*
X384100Y360545D02*
Y379495D01*
X384150Y360545D02*
Y379495D01*
X384200Y360545D02*
Y379495D01*
X384250Y360545D02*
Y379495D01*
X384300Y360545D02*
Y379495D01*
X384350Y360545D02*
Y379495D01*
X384400Y360545D02*
Y379495D01*
X384450Y360545D02*
Y379495D01*
X384500Y360545D02*
Y379495D01*
X384550Y360545D02*
Y379495D01*
X384600Y360545D02*
Y379495D01*
X384650Y360545D02*
Y379495D01*
X384700Y360545D02*
Y379495D01*
X384750Y360545D02*
Y379495D01*
X384800Y360545D02*
Y379495D01*
X384850Y360545D02*
Y379495D01*
X384900Y360545D02*
Y379495D01*
X384950Y360545D02*
Y379495D01*
X385000Y360545D02*
Y379495D01*
X385050Y360545D02*
Y379495D01*
X385100Y360545D02*
Y379495D01*
X385150Y360545D02*
Y379495D01*
X385200Y360545D02*
Y379495D01*
X385250Y360545D02*
Y379495D01*
X385300Y360545D02*
Y379495D01*
X385350Y360545D02*
Y379495D01*
X385400Y360545D02*
Y379495D01*
X385450Y360545D02*
Y379495D01*
X385500Y360545D02*
Y379495D01*
X385550Y360545D02*
Y379495D01*
X385600Y360545D02*
Y379495D01*
X385650Y360545D02*
Y379495D01*
X385700Y360545D02*
Y379495D01*
X385750Y360545D02*
Y379495D01*
X385800Y360545D02*
Y379495D01*
X385850Y360545D02*
Y379495D01*
X385900Y360545D02*
Y379495D01*
X385950Y360545D02*
Y379495D01*
X386000Y360545D02*
Y379495D01*
X386050Y360545D02*
Y379495D01*
X386100Y360545D02*
Y379495D01*
X386150Y360545D02*
Y379495D01*
X386200Y360545D02*
Y379495D01*
X386250Y360545D02*
Y379495D01*
X386300Y360545D02*
Y379495D01*
X386350Y360545D02*
Y379495D01*
X386400Y360545D02*
Y379495D01*
X386450Y360545D02*
Y379495D01*
X386500Y360545D02*
Y379495D01*
X386550Y360545D02*
Y379495D01*
X386600Y360545D02*
Y379495D01*
X386650Y360545D02*
Y379495D01*
X386700Y360545D02*
Y379495D01*
X386750Y360545D02*
Y379495D01*
X386800Y360545D02*
Y379495D01*
X386850Y360545D02*
Y379495D01*
X386900Y360545D02*
Y379495D01*
X386950Y360545D02*
Y379495D01*
X387000Y360545D02*
Y379495D01*
X387050Y360545D02*
Y379495D01*
X387100Y360545D02*
Y379495D01*
X387150Y360545D02*
Y379495D01*
X387200Y360545D02*
Y379495D01*
X387250Y360545D02*
Y379495D01*
X387300Y360545D02*
Y379495D01*
X387350Y360545D02*
Y379495D01*
X387400Y360545D02*
Y379495D01*
X387450Y360545D02*
Y379495D01*
X387500Y360545D02*
Y379495D01*
X387550Y360545D02*
Y379495D01*
X387600Y360545D02*
Y379495D01*
X387650Y360545D02*
Y379495D01*
X387700Y360545D02*
Y379495D01*
X387750Y360545D02*
Y379495D01*
X387800Y360545D02*
Y379495D01*
X387850Y360545D02*
Y379495D01*
X387900Y360545D02*
Y379495D01*
X387950Y360545D02*
Y379495D01*
X388000Y360545D02*
Y379495D01*
X388050Y360545D02*
Y379495D01*
X388100Y360545D02*
Y363295D01*
Y365945D02*
Y368695D01*
Y371345D02*
Y374095D01*
Y376745D02*
Y379495D01*
X388150Y360545D02*
Y363295D01*
Y365945D02*
Y368695D01*
Y371345D02*
Y374095D01*
Y376745D02*
Y379495D01*
X388200Y360545D02*
Y363295D01*
Y365945D02*
Y368695D01*
Y371345D02*
Y374095D01*
Y376745D02*
Y379495D01*
X388250Y360545D02*
Y363295D01*
Y365945D02*
Y368695D01*
Y371345D02*
Y374095D01*
Y376745D02*
Y379495D01*
X388300Y360545D02*
Y363295D01*
Y365945D02*
Y368695D01*
Y371345D02*
Y374095D01*
Y376745D02*
Y379495D01*
X388350Y360545D02*
Y363295D01*
Y365945D02*
Y368695D01*
Y371345D02*
Y374095D01*
Y376745D02*
Y379495D01*
X388400Y360545D02*
Y363295D01*
Y365945D02*
Y368695D01*
Y371345D02*
Y374095D01*
Y376745D02*
Y379495D01*
X388450Y360545D02*
Y363295D01*
Y365945D02*
Y368695D01*
Y371345D02*
Y374095D01*
Y376745D02*
Y379495D01*
X388500Y360545D02*
Y363295D01*
Y365945D02*
Y368695D01*
Y371345D02*
Y374095D01*
Y376745D02*
Y379495D01*
X388550Y360545D02*
Y363295D01*
Y365945D02*
Y368695D01*
Y371345D02*
Y374095D01*
Y376745D02*
Y379495D01*
X388600Y360545D02*
Y363295D01*
Y365945D02*
Y368695D01*
Y371345D02*
Y374095D01*
Y376745D02*
Y379495D01*
X388650Y360545D02*
Y363295D01*
Y365945D02*
Y368695D01*
Y371345D02*
Y374095D01*
Y376745D02*
Y379495D01*
X388700Y360545D02*
Y363295D01*
Y365945D02*
Y368695D01*
Y371345D02*
Y374095D01*
Y376745D02*
Y379495D01*
X388750Y360545D02*
Y363295D01*
Y365945D02*
Y368695D01*
Y371345D02*
Y374095D01*
Y376745D02*
Y379495D01*
X388800Y360545D02*
Y363295D01*
Y365945D02*
Y368695D01*
Y371345D02*
Y374095D01*
Y376745D02*
Y379495D01*
X388850Y360545D02*
Y363295D01*
Y365945D02*
Y368695D01*
Y371345D02*
Y374095D01*
Y376745D02*
Y379495D01*
X388900Y360545D02*
Y363295D01*
Y365945D02*
Y368695D01*
Y371345D02*
Y374095D01*
Y376745D02*
Y379495D01*
X388950Y360545D02*
Y363295D01*
Y365945D02*
Y368695D01*
Y371345D02*
Y374095D01*
Y376745D02*
Y379495D01*
X389000Y360545D02*
Y363295D01*
Y365945D02*
Y368695D01*
Y371345D02*
Y374095D01*
Y376745D02*
Y379495D01*
X389050Y360545D02*
Y363295D01*
Y365945D02*
Y368695D01*
Y371345D02*
Y374095D01*
Y376745D02*
Y379495D01*
X389100Y360545D02*
Y363295D01*
Y365945D02*
Y368695D01*
Y371345D02*
Y374095D01*
Y376745D02*
Y379495D01*
X389150Y360545D02*
Y363295D01*
Y365945D02*
Y368695D01*
Y371345D02*
Y374095D01*
Y376745D02*
Y379495D01*
X389200Y360545D02*
Y363295D01*
Y365945D02*
Y368695D01*
Y371345D02*
Y374095D01*
Y376745D02*
Y379495D01*
X389250Y360545D02*
Y363295D01*
Y365945D02*
Y368695D01*
Y371345D02*
Y374095D01*
Y376745D02*
Y379495D01*
X389300Y360545D02*
Y363295D01*
Y365945D02*
Y368695D01*
Y371345D02*
Y374095D01*
Y376745D02*
Y379495D01*
X389350Y360545D02*
Y363295D01*
Y365945D02*
Y368695D01*
Y371345D02*
Y374095D01*
Y376745D02*
Y379495D01*
X389400Y360545D02*
Y363295D01*
Y365945D02*
Y368695D01*
Y371345D02*
Y374095D01*
Y376745D02*
Y379495D01*
X389450Y360545D02*
Y363295D01*
Y365945D02*
Y368695D01*
Y371345D02*
Y374095D01*
Y376745D02*
Y379495D01*
X389500Y360545D02*
Y363295D01*
Y365945D02*
Y368695D01*
Y371345D02*
Y374095D01*
Y376745D02*
Y379495D01*
X389550Y360545D02*
Y363295D01*
Y365945D02*
Y368695D01*
Y371345D02*
Y374095D01*
Y376745D02*
Y379495D01*
X389600Y360545D02*
Y363295D01*
Y365945D02*
Y368695D01*
Y371345D02*
Y374095D01*
Y376745D02*
Y379495D01*
X389650Y360545D02*
Y363295D01*
Y365945D02*
Y368695D01*
Y371345D02*
Y374095D01*
Y376745D02*
Y379495D01*
X389700Y360545D02*
Y363295D01*
Y365945D02*
Y368695D01*
Y371345D02*
Y374095D01*
Y376745D02*
Y379495D01*
X389750Y360545D02*
Y363295D01*
Y365945D02*
Y368695D01*
Y371345D02*
Y374095D01*
Y376745D02*
Y379495D01*
X389800Y360545D02*
Y363295D01*
Y365945D02*
Y368695D01*
Y371345D02*
Y374095D01*
Y376745D02*
Y379495D01*
X389850Y360545D02*
Y363295D01*
Y365945D02*
Y368695D01*
Y371345D02*
Y374095D01*
Y376745D02*
Y379495D01*
X389900Y360545D02*
Y363295D01*
Y365945D02*
Y368695D01*
Y371345D02*
Y374095D01*
Y376745D02*
Y379495D01*
X389950Y360545D02*
Y363295D01*
Y365945D02*
Y368695D01*
Y371345D02*
Y374095D01*
Y376745D02*
Y379495D01*
X390000Y360545D02*
Y363295D01*
Y365945D02*
Y368695D01*
Y371345D02*
Y374095D01*
Y376745D02*
Y379495D01*
X390050Y360545D02*
Y363295D01*
Y365945D02*
Y368695D01*
Y371345D02*
Y374095D01*
Y376745D02*
Y379495D01*
X390100Y360545D02*
Y363295D01*
Y365945D02*
Y368695D01*
Y371345D02*
Y374095D01*
Y376745D02*
Y379495D01*
X390150Y360545D02*
Y363295D01*
Y365945D02*
Y368695D01*
Y371345D02*
Y374095D01*
Y376745D02*
Y379495D01*
X390200Y360545D02*
Y363295D01*
Y365945D02*
Y368695D01*
Y371345D02*
Y374095D01*
Y376745D02*
Y379495D01*
X390250Y360545D02*
Y363295D01*
Y365945D02*
Y368695D01*
Y371345D02*
Y374095D01*
Y376745D02*
Y379495D01*
X390300Y360545D02*
Y363295D01*
Y365945D02*
Y368695D01*
Y371345D02*
Y374095D01*
Y376745D02*
Y379495D01*
X390350Y360545D02*
Y363295D01*
Y365945D02*
Y368695D01*
Y371345D02*
Y374095D01*
Y376745D02*
Y379495D01*
X390400Y360545D02*
Y363295D01*
Y365945D02*
Y368695D01*
Y371345D02*
Y374095D01*
Y376745D02*
Y379495D01*
X390450Y360545D02*
Y363295D01*
Y365945D02*
Y368695D01*
Y371345D02*
Y374095D01*
Y376745D02*
Y379495D01*
X390500Y360545D02*
Y363295D01*
Y365945D02*
Y368695D01*
Y371345D02*
Y374095D01*
Y376745D02*
Y379495D01*
X390550Y360545D02*
Y363295D01*
Y365945D02*
Y368695D01*
Y371345D02*
Y374095D01*
Y376745D02*
Y379495D01*
X390600Y360545D02*
Y363295D01*
Y365945D02*
Y368695D01*
Y371345D02*
Y374095D01*
Y376745D02*
Y379495D01*
X390650Y360545D02*
Y363295D01*
Y365945D02*
Y368695D01*
Y371345D02*
Y374095D01*
Y376745D02*
Y379495D01*
X390700Y360545D02*
Y363295D01*
Y365945D02*
Y368695D01*
Y371345D02*
Y374095D01*
Y376745D02*
Y379495D01*
X390750Y360545D02*
Y363295D01*
Y365945D02*
Y368695D01*
Y371345D02*
Y374095D01*
Y376745D02*
Y379495D01*
X390800Y360545D02*
Y363295D01*
Y365945D02*
Y368695D01*
Y371345D02*
Y374095D01*
Y376745D02*
Y379495D01*
X390850Y360545D02*
Y363295D01*
Y365945D02*
Y368695D01*
Y371345D02*
Y374095D01*
Y376745D02*
Y379495D01*
X390900Y360545D02*
Y363295D01*
Y365945D02*
Y368695D01*
Y371345D02*
Y374095D01*
Y376745D02*
Y379495D01*
X390950Y360545D02*
Y363295D01*
Y365945D02*
Y368695D01*
Y371345D02*
Y374095D01*
Y376745D02*
Y379495D01*
X391000Y360545D02*
Y363295D01*
Y365945D02*
Y368695D01*
Y371345D02*
Y374095D01*
Y376745D02*
Y379495D01*
X391050Y360545D02*
Y363295D01*
Y365945D02*
Y368695D01*
Y371345D02*
Y374095D01*
Y376745D02*
Y379495D01*
X391100Y360545D02*
Y363295D01*
Y365945D02*
Y368695D01*
Y371345D02*
Y374095D01*
Y376745D02*
Y379495D01*
X391150Y360545D02*
Y363295D01*
Y365945D02*
Y368695D01*
Y371345D02*
Y374095D01*
Y376745D02*
Y379495D01*
G54D83*
X100100Y1008900D02*
X128000D01*
Y984800*
X100100*
Y1008900*
X100000Y133900D02*
X127900D01*
Y109800*
X100000*
Y133900*
X100100Y1008739D02*
X128000D01*
X100100Y1008559D02*
X128000D01*
X100100Y1008379D02*
X128000D01*
X100100Y1008199D02*
X128000D01*
X100100Y1008019D02*
X128000D01*
X100100Y1007839D02*
X128000D01*
X100100Y1007659D02*
X128000D01*
X100100Y1007479D02*
X128000D01*
X100100Y1007299D02*
X128000D01*
X100100Y1007119D02*
X128000D01*
X100100Y1006939D02*
X128000D01*
X100100Y1006759D02*
X128000D01*
X100100Y1006579D02*
X128000D01*
X100100Y1006399D02*
X128000D01*
X100100Y1006219D02*
X128000D01*
X100100Y1006039D02*
X128000D01*
X100100Y1005859D02*
X128000D01*
X100100Y1005679D02*
X128000D01*
X100100Y1005499D02*
X128000D01*
X100100Y1005319D02*
X128000D01*
X100100Y1005139D02*
X128000D01*
X100100Y1004959D02*
X128000D01*
X100100Y1004779D02*
X128000D01*
X100100Y1004599D02*
X128000D01*
X100100Y1004419D02*
X128000D01*
X100100Y1004239D02*
X128000D01*
X100100Y1004059D02*
X128000D01*
X100100Y1003879D02*
X128000D01*
X100100Y1003699D02*
X128000D01*
X100100Y1003519D02*
X128000D01*
X100100Y1003339D02*
X128000D01*
X100100Y1003159D02*
X128000D01*
X100100Y1002979D02*
X128000D01*
X100100Y1002799D02*
X128000D01*
X100100Y1002619D02*
X128000D01*
X100100Y1002439D02*
X128000D01*
X100100Y1002259D02*
X128000D01*
X100100Y1002079D02*
X128000D01*
X100100Y1001899D02*
X128000D01*
X100100Y1001719D02*
X128000D01*
X100100Y1001539D02*
X128000D01*
X100100Y1001359D02*
X128000D01*
X100100Y1001179D02*
X128000D01*
X100100Y1000999D02*
X128000D01*
X100100Y1000819D02*
X128000D01*
X100100Y1000639D02*
X128000D01*
X100100Y1000459D02*
X128000D01*
X100100Y1000279D02*
X128000D01*
X100100Y1000099D02*
X128000D01*
X100100Y999919D02*
X128000D01*
X100100Y999739D02*
X128000D01*
X100100Y999559D02*
X128000D01*
X100100Y999379D02*
X128000D01*
X100100Y999199D02*
X128000D01*
X100100Y999019D02*
X128000D01*
X100100Y998839D02*
X128000D01*
X100100Y998659D02*
X128000D01*
X100100Y998479D02*
X128000D01*
X100100Y998299D02*
X128000D01*
X100100Y998119D02*
X128000D01*
X100100Y997939D02*
X128000D01*
X100100Y997759D02*
X128000D01*
X100100Y997579D02*
X128000D01*
X100100Y997399D02*
X128000D01*
X100100Y997219D02*
X128000D01*
X100100Y997039D02*
X128000D01*
X100100Y996859D02*
X128000D01*
X100100Y996679D02*
X128000D01*
X100100Y996499D02*
X128000D01*
X100100Y996319D02*
X128000D01*
X100100Y996139D02*
X128000D01*
X100100Y995959D02*
X128000D01*
X100100Y995779D02*
X128000D01*
X100100Y995599D02*
X128000D01*
X100100Y995419D02*
X128000D01*
X100100Y995239D02*
X128000D01*
X100100Y995059D02*
X128000D01*
X100100Y994879D02*
X128000D01*
X100100Y994699D02*
X128000D01*
X100100Y994519D02*
X128000D01*
X100100Y994339D02*
X128000D01*
X100100Y994159D02*
X128000D01*
X100100Y993979D02*
X128000D01*
X100100Y993799D02*
X128000D01*
X100100Y993619D02*
X128000D01*
X100100Y993439D02*
X128000D01*
X100100Y993259D02*
X128000D01*
X100100Y993079D02*
X128000D01*
X100100Y992899D02*
X128000D01*
X100100Y992719D02*
X128000D01*
X100100Y992539D02*
X128000D01*
X100100Y992359D02*
X128000D01*
X100100Y992179D02*
X128000D01*
X100100Y991999D02*
X128000D01*
X100100Y991819D02*
X128000D01*
X100100Y991639D02*
X128000D01*
X100100Y991459D02*
X128000D01*
X100100Y991279D02*
X128000D01*
X100100Y991099D02*
X128000D01*
X100100Y990919D02*
X128000D01*
X100100Y990739D02*
X128000D01*
X100100Y990559D02*
X128000D01*
X100100Y990379D02*
X128000D01*
X100100Y990199D02*
X128000D01*
X100100Y990019D02*
X128000D01*
X100100Y989839D02*
X128000D01*
X100100Y989659D02*
X128000D01*
X100100Y989479D02*
X128000D01*
X100100Y989299D02*
X128000D01*
X100100Y989119D02*
X128000D01*
X100100Y988939D02*
X128000D01*
X100100Y988759D02*
X128000D01*
X100100Y988579D02*
X128000D01*
X100100Y988399D02*
X128000D01*
X100100Y988219D02*
X128000D01*
X100100Y988039D02*
X128000D01*
X100100Y987859D02*
X128000D01*
X100100Y987679D02*
X128000D01*
X100100Y987499D02*
X128000D01*
X100100Y987319D02*
X128000D01*
X100100Y987139D02*
X128000D01*
X100100Y986959D02*
X128000D01*
X100100Y986779D02*
X128000D01*
X100100Y986599D02*
X128000D01*
X100100Y986419D02*
X128000D01*
X100100Y986239D02*
X128000D01*
X100100Y986059D02*
X128000D01*
X100100Y985879D02*
X128000D01*
X100100Y985699D02*
X128000D01*
X100100Y985519D02*
X128000D01*
X100100Y985339D02*
X128000D01*
X100100Y985159D02*
X128000D01*
X100100Y984979D02*
X128000D01*
X100000Y133739D02*
X127900D01*
X100000Y133559D02*
X127900D01*
X100000Y133379D02*
X127900D01*
X100000Y133199D02*
X127900D01*
X100000Y133019D02*
X127900D01*
X100000Y132839D02*
X127900D01*
X100000Y132659D02*
X127900D01*
X100000Y132479D02*
X127900D01*
X100000Y132299D02*
X127900D01*
X100000Y132119D02*
X127900D01*
X100000Y131939D02*
X127900D01*
X100000Y131759D02*
X127900D01*
X100000Y131579D02*
X127900D01*
X100000Y131399D02*
X127900D01*
X100000Y131219D02*
X127900D01*
X100000Y131039D02*
X127900D01*
X100000Y130859D02*
X127900D01*
X100000Y130679D02*
X127900D01*
X100000Y130499D02*
X127900D01*
X100000Y130319D02*
X127900D01*
X100000Y130139D02*
X127900D01*
X100000Y129959D02*
X127900D01*
X100000Y129779D02*
X127900D01*
X100000Y129599D02*
X127900D01*
X100000Y129419D02*
X127900D01*
X100000Y129239D02*
X127900D01*
X100000Y129059D02*
X127900D01*
X100000Y128879D02*
X127900D01*
X100000Y128699D02*
X127900D01*
X100000Y128519D02*
X127900D01*
X100000Y128339D02*
X127900D01*
X100000Y128159D02*
X127900D01*
X100000Y127979D02*
X127900D01*
X100000Y127799D02*
X127900D01*
X100000Y127619D02*
X127900D01*
X100000Y127439D02*
X127900D01*
X100000Y127259D02*
X127900D01*
X100000Y127079D02*
X127900D01*
X100000Y126899D02*
X127900D01*
X100000Y126719D02*
X127900D01*
X100000Y126539D02*
X127900D01*
X100000Y126359D02*
X127900D01*
X100000Y126179D02*
X127900D01*
X100000Y125999D02*
X127900D01*
X100000Y125819D02*
X127900D01*
X100000Y125639D02*
X127900D01*
X100000Y125459D02*
X127900D01*
X100000Y125279D02*
X127900D01*
X100000Y125099D02*
X127900D01*
X100000Y124919D02*
X127900D01*
X100000Y124739D02*
X127900D01*
X100000Y124559D02*
X127900D01*
X100000Y124379D02*
X127900D01*
X100000Y124199D02*
X127900D01*
X100000Y124019D02*
X127900D01*
X100000Y123839D02*
X127900D01*
X100000Y123659D02*
X127900D01*
X100000Y123479D02*
X127900D01*
X100000Y123299D02*
X127900D01*
X100000Y123119D02*
X127900D01*
X100000Y122939D02*
X127900D01*
X100000Y122759D02*
X127900D01*
X100000Y122579D02*
X127900D01*
X100000Y122399D02*
X127900D01*
X100000Y122219D02*
X127900D01*
X100000Y122039D02*
X127900D01*
X100000Y121859D02*
X127900D01*
X100000Y121679D02*
X127900D01*
X100000Y121499D02*
X127900D01*
X100000Y121319D02*
X127900D01*
X100000Y121139D02*
X127900D01*
X100000Y120959D02*
X127900D01*
X100000Y120779D02*
X127900D01*
X100000Y120599D02*
X127900D01*
X100000Y120419D02*
X127900D01*
X100000Y120239D02*
X127900D01*
X100000Y120059D02*
X127900D01*
X100000Y119879D02*
X127900D01*
X100000Y119699D02*
X127900D01*
X100000Y119519D02*
X127900D01*
X100000Y119339D02*
X127900D01*
X100000Y119159D02*
X127900D01*
X100000Y118979D02*
X127900D01*
X100000Y118799D02*
X127900D01*
X100000Y118619D02*
X127900D01*
X100000Y118439D02*
X127900D01*
X100000Y118259D02*
X127900D01*
X100000Y118079D02*
X127900D01*
X100000Y117899D02*
X127900D01*
X100000Y117719D02*
X127900D01*
X100000Y117539D02*
X127900D01*
X100000Y117359D02*
X127900D01*
X100000Y117179D02*
X127900D01*
X100000Y116999D02*
X127900D01*
X100000Y116819D02*
X127900D01*
X100000Y116639D02*
X127900D01*
X100000Y116459D02*
X127900D01*
X100000Y116279D02*
X127900D01*
X100000Y116099D02*
X127900D01*
X100000Y115919D02*
X127900D01*
X100000Y115739D02*
X127900D01*
X100000Y115559D02*
X127900D01*
X100000Y115379D02*
X127900D01*
X100000Y115199D02*
X127900D01*
X100000Y115019D02*
X127900D01*
X100000Y114839D02*
X127900D01*
X100000Y114659D02*
X127900D01*
X100000Y114479D02*
X127900D01*
X100000Y114299D02*
X127900D01*
X100000Y114119D02*
X127900D01*
X100000Y113939D02*
X127900D01*
X100000Y113759D02*
X127900D01*
X100000Y113579D02*
X127900D01*
X100000Y113399D02*
X127900D01*
X100000Y113219D02*
X127900D01*
X100000Y113039D02*
X127900D01*
X100000Y112859D02*
X127900D01*
X100000Y112679D02*
X127900D01*
X100000Y112499D02*
X127900D01*
X100000Y112319D02*
X127900D01*
X100000Y112139D02*
X127900D01*
X100000Y111959D02*
X127900D01*
X100000Y111779D02*
X127900D01*
X100000Y111599D02*
X127900D01*
X100000Y111419D02*
X127900D01*
X100000Y111239D02*
X127900D01*
X100000Y111059D02*
X127900D01*
X100000Y110879D02*
X127900D01*
X100000Y110699D02*
X127900D01*
X100000Y110519D02*
X127900D01*
X100000Y110339D02*
X127900D01*
X100000Y110159D02*
X127900D01*
X100000Y109979D02*
X127900D01*
G54D12*
X248400Y169900D03*
X220400D03*
G54D13*
X313125Y205625D03*
Y188625D03*
X676341Y433608D03*
Y450608D03*
X221250Y134375D03*
Y151375D03*
G54D14*
X693400Y481800D03*
X680400D03*
G54D15*
X628000Y935625D03*
X506104Y966673D03*
X603125Y942000D03*
X513138Y992128D03*
X532356Y952191D03*
X169250Y241250D03*
X175668Y260890D03*
X211371Y300948D03*
X375740Y610671D03*
X130980Y252057D03*
X131131Y262297D03*
X131281Y272687D03*
X131357Y282777D03*
Y293017D03*
X131201Y303422D03*
X144250Y313750D03*
X144353Y324338D03*
X648750Y958875D03*
X467937Y680247D03*
X648750Y935750D03*
X676250Y971375D03*
X344716Y336317D03*
X358216D03*
X392402Y347827D03*
Y334327D03*
X383415Y388841D03*
X369915D03*
X345125Y314375D03*
X358625D03*
X349156Y303630D03*
Y290130D03*
X400900Y305150D03*
Y318650D03*
X336806Y361216D03*
Y347716D03*
X341838Y279280D03*
Y265780D03*
X364375Y266375D03*
Y279875D03*
X353750D03*
Y266375D03*
X277584Y266004D03*
Y252504D03*
X253368Y201377D03*
Y187877D03*
X242375Y303125D03*
X228875D03*
X261873Y330498D03*
X248373D03*
X236125Y330625D03*
X222625D03*
X237598Y290397D03*
X219500Y246875D03*
X233000D03*
X665250Y166875D03*
X678750D03*
X665250Y156875D03*
X678750D03*
X665250Y116875D03*
X678750D03*
X665250Y126875D03*
X678750D03*
X665250Y136875D03*
X678750D03*
X665250Y146875D03*
X678750D03*
X390900Y318650D03*
Y305150D03*
X671718Y622206D03*
Y608706D03*
X615000Y935625D03*
X506104Y979673D03*
X603125Y955000D03*
X500138Y992128D03*
X519356Y952191D03*
X156250Y241250D03*
X175668Y273890D03*
X211371Y313948D03*
X388740Y610671D03*
X143980Y252057D03*
X144131Y262297D03*
X144281Y272687D03*
X144357Y282777D03*
Y293017D03*
X144201Y303422D03*
X131250Y313750D03*
X131353Y324338D03*
X648750Y971875D03*
X467937Y667247D03*
X648750Y948750D03*
X676250Y984375D03*
G54D16*
X636875Y801250D03*
G54D17*
Y791250D03*
Y781250D03*
Y771250D03*
Y761250D03*
Y751250D03*
Y741250D03*
Y731250D03*
X674375D03*
Y741250D03*
Y751250D03*
Y761250D03*
Y771250D03*
Y781250D03*
Y791250D03*
Y801250D03*
G54D18*
X215625Y258125D03*
X616875Y961250D03*
G54D19*
X215625Y263125D03*
Y268125D03*
Y273125D03*
Y278125D03*
Y283125D03*
Y288125D03*
Y293125D03*
X196025D03*
Y288125D03*
Y283125D03*
Y278125D03*
Y273125D03*
Y268125D03*
Y263125D03*
Y258125D03*
X616875Y956250D03*
Y951250D03*
Y946250D03*
X636475D03*
Y951250D03*
Y956250D03*
Y961250D03*
G54D20*
X593125Y940000D03*
Y950000D03*
X557125D03*
Y940000D03*
G54D21*
X374989Y620469D03*
X384989D03*
Y656469D03*
X374989D03*
X243948Y210951D03*
X253948D03*
Y246951D03*
X243948D03*
G54D22*
X514375Y576250D03*
X532105D03*
X551805D03*
X571505D03*
X591205D03*
X610905D03*
X604995Y694720D03*
X585295D03*
X565595D03*
X545895D03*
X526195D03*
G54D23*
X516345Y576250D03*
X518315D03*
X520285D03*
X522255D03*
X524225D03*
X526195D03*
X528165D03*
X530135D03*
X534075D03*
X536045D03*
X538015D03*
X539985D03*
X541955D03*
X543925D03*
X545895D03*
X547865D03*
X549835D03*
X553775D03*
X555745D03*
X557715D03*
X559685D03*
X561655D03*
X563625D03*
X565595D03*
X567565D03*
X569535D03*
X573475D03*
X575445D03*
X577415D03*
X579385D03*
X581355D03*
X583325D03*
X585295D03*
X587265D03*
X589235D03*
X593175D03*
X595145D03*
X597115D03*
X599085D03*
X601055D03*
X603025D03*
X604995D03*
X606965D03*
X608935D03*
X612875D03*
X614845D03*
Y694720D03*
X612875D03*
X610905D03*
X608935D03*
X606965D03*
X603025D03*
X601055D03*
X599085D03*
X597115D03*
X595145D03*
X593175D03*
X591205D03*
X589235D03*
X587265D03*
X583325D03*
X581355D03*
X579385D03*
X577415D03*
X575445D03*
X573475D03*
X571505D03*
X569535D03*
X567565D03*
X563625D03*
X561655D03*
X559685D03*
X557715D03*
X555745D03*
X553775D03*
X551805D03*
X549835D03*
X547865D03*
X543925D03*
X541955D03*
X539985D03*
X538015D03*
X536045D03*
X534075D03*
X532105D03*
X530135D03*
X528165D03*
X524225D03*
X522255D03*
X520285D03*
X518315D03*
X516345D03*
X514375D03*
G54D24*
X623845Y585250D03*
Y587220D03*
Y589190D03*
Y591160D03*
Y593130D03*
Y595100D03*
Y597070D03*
Y601010D03*
Y602980D03*
Y604950D03*
Y606920D03*
Y608890D03*
Y610860D03*
Y612830D03*
Y614800D03*
Y616770D03*
Y620710D03*
Y622680D03*
Y624650D03*
Y626620D03*
Y628590D03*
Y630560D03*
Y632530D03*
Y634500D03*
Y636470D03*
Y640410D03*
Y642380D03*
Y644350D03*
Y646320D03*
Y648290D03*
Y650260D03*
Y652230D03*
Y654200D03*
Y656170D03*
Y660110D03*
Y662080D03*
Y664050D03*
Y666020D03*
Y667990D03*
Y669960D03*
Y671930D03*
Y673900D03*
Y675870D03*
Y679810D03*
Y681780D03*
Y683750D03*
Y685720D03*
X505375D03*
Y683750D03*
Y681780D03*
Y677840D03*
Y675870D03*
Y673900D03*
Y671930D03*
Y669960D03*
Y667990D03*
Y666020D03*
Y664050D03*
Y662080D03*
Y658140D03*
Y656170D03*
Y654200D03*
Y652230D03*
Y650260D03*
Y648290D03*
Y646320D03*
Y644350D03*
Y642380D03*
Y638440D03*
Y636470D03*
Y634500D03*
Y632530D03*
Y630560D03*
Y628590D03*
Y626620D03*
Y624650D03*
Y622680D03*
Y618740D03*
Y616770D03*
Y614800D03*
Y612830D03*
Y610860D03*
Y608890D03*
Y606920D03*
Y604950D03*
Y602980D03*
Y599040D03*
Y597070D03*
Y595100D03*
Y593130D03*
Y591160D03*
Y589190D03*
Y587220D03*
Y585250D03*
G54D25*
X623845Y599040D03*
Y618740D03*
Y638440D03*
Y658140D03*
Y677840D03*
X505375Y679810D03*
Y660110D03*
Y640410D03*
Y620710D03*
Y601010D03*
G54D26*
X522500Y962500D03*
G54D27*
X527500D03*
X532500D03*
X537500D03*
X542500D03*
X547500D03*
X552500D03*
X557500D03*
Y982100D03*
X552500D03*
X547500D03*
X542500D03*
X537500D03*
X532500D03*
X527500D03*
X522500D03*
G54D28*
X663125Y936250D03*
Y947950D03*
Y959375D03*
Y971075D03*
G54D29*
X117700Y253125D03*
Y263125D03*
Y273125D03*
Y283125D03*
Y293125D03*
Y303125D03*
Y313125D03*
Y323125D03*
X107700Y253125D03*
Y263125D03*
Y273125D03*
Y283125D03*
Y293125D03*
Y303125D03*
Y313125D03*
Y323125D03*
X580000Y976875D03*
X590000D03*
X600000D03*
G54D30*
X349273Y356575D03*
X358273D03*
X390492Y287886D03*
X399492D03*
X358094Y325915D03*
X349094D03*
X349212Y346720D03*
X358212D03*
X254250Y303125D03*
X263250D03*
X533246Y992246D03*
X524246D03*
X194917Y250900D03*
X203917D03*
X700570Y637000D03*
X691570D03*
X629413Y971022D03*
X620413D03*
X449150Y671422D03*
X458150D03*
X449222Y681138D03*
X458222D03*
G54D31*
X367972Y324275D03*
X370530D03*
X373090D03*
X375648D03*
X378287D03*
X380725D03*
X383325D03*
Y349427D03*
X380767D03*
X378208D03*
X375648D03*
X373128D03*
X370492D03*
X367972D03*
G54D32*
X375200Y283802D03*
Y274802D03*
X359677Y303153D03*
Y294153D03*
X276999Y286705D03*
Y277705D03*
X276413Y298665D03*
Y307665D03*
X226038Y270045D03*
Y261045D03*
X185906Y270196D03*
Y261196D03*
X225661Y283257D03*
Y292257D03*
X515861Y977900D03*
Y968900D03*
X710169Y621315D03*
Y612315D03*
X518971Y746411D03*
Y755411D03*
X528156Y746486D03*
Y755486D03*
G54D33*
X331625Y251250D03*
X357125D03*
X331625Y233750D03*
X357125D03*
G54D34*
X367426Y294445D03*
X372426D03*
X377426D03*
X382426D03*
Y314445D03*
X377426D03*
X372426D03*
X367426D03*
G54D35*
X505625Y747125D03*
Y776625D03*
X390000Y241500D03*
Y271000D03*
X407500Y241500D03*
Y271000D03*
X425625Y241500D03*
Y271000D03*
G54D36*
X236250Y148625D03*
Y135125D03*
X327700Y191050D03*
Y204550D03*
G54D37*
X518150Y130500D03*
X531650D03*
X570250Y130300D03*
X583750D03*
X544350Y130500D03*
X557850D03*
X595650Y130000D03*
X609150D03*
G54D38*
X420633Y678604D03*
Y658604D03*
X437133D03*
Y678604D03*
G54D39*
X672600Y532674D03*
X682600D03*
X692600D03*
G54D40*
X717850Y471850D03*
Y121850D03*
Y996850D03*
Y646850D03*
G54D41*
X570000Y976875D03*
G54D42*
X640779Y239741D03*
Y234741D03*
Y229741D03*
Y224741D03*
X653079D03*
Y229741D03*
Y234741D03*
Y239741D03*
X640438Y261582D03*
Y256582D03*
Y251582D03*
Y246582D03*
X652738D03*
Y251582D03*
Y256582D03*
Y261582D03*
G54D43*
X396080Y665549D03*
X401080D03*
X406080D03*
X411080D03*
Y677849D03*
X406080D03*
X401080D03*
X396080D03*
X668846Y915766D03*
X663846D03*
X658846D03*
X653846D03*
Y903466D03*
X658846D03*
X663846D03*
X668846D03*
X674258Y824182D03*
X669258D03*
X664258D03*
X659258D03*
Y811882D03*
X664258D03*
X669258D03*
X674258D03*
X650616Y824418D03*
X645616D03*
X640616D03*
X635616D03*
Y812118D03*
X640616D03*
X645616D03*
X650616D03*
X499020Y403840D03*
X504020D03*
X509020D03*
X514020D03*
Y416140D03*
X509020D03*
X504020D03*
X499020D03*
X527991Y403840D03*
X532991D03*
X537991D03*
X542991D03*
Y416140D03*
X537991D03*
X532991D03*
X527991D03*
X567150Y403840D03*
X572150D03*
X577150D03*
X582150D03*
Y416140D03*
X577150D03*
X572150D03*
X567150D03*
X632505Y403840D03*
X637505D03*
X642505D03*
X647505D03*
Y416140D03*
X642505D03*
X637505D03*
X632505D03*
X599376Y403840D03*
X604376D03*
X609376D03*
X614376D03*
Y416140D03*
X609376D03*
X604376D03*
X599376D03*
X662015Y403840D03*
X667015D03*
X672015D03*
X677015D03*
Y416140D03*
X672015D03*
X667015D03*
X662015D03*
X200308Y313648D03*
X195308D03*
X190308D03*
X185308D03*
Y301348D03*
X190308D03*
X195308D03*
X200308D03*
X678105Y687410D03*
X673105D03*
X668105D03*
X663105D03*
Y675110D03*
X668105D03*
X673105D03*
X678105D03*
G54D44*
X692276Y629365D03*
Y625625D03*
Y621885D03*
X702776D03*
Y629365D03*
G54D45*
X237598Y280397D03*
Y270397D03*
Y260397D03*
X267598D03*
Y270397D03*
Y280397D03*
Y290397D03*
G54D46*
X451500Y379375D03*
X471000D03*
G54D47*
X244375Y202697D03*
Y189803D03*
G54D48*
X146250Y385000D03*
X707850Y451850D03*
Y361850D03*
Y261850D03*
Y161850D03*
X697850Y451850D03*
Y361850D03*
Y261850D03*
Y161850D03*
X687850Y451850D03*
Y361850D03*
Y261850D03*
Y161850D03*
X707850Y976850D03*
Y886850D03*
Y786850D03*
Y686850D03*
X697850Y976850D03*
Y886850D03*
Y786850D03*
Y686850D03*
X687850Y976850D03*
Y886850D03*
Y786850D03*
Y686850D03*
G54D49*
X121250Y390000D03*
Y345000D03*
G54D50*
X659000Y532600D03*
X645800D03*
G54D51*
X702900Y516100D03*
X677900D03*
X702900Y497200D03*
X677900D03*
G54D52*
X647396Y889661D03*
X664396D03*
X647396Y881791D03*
X664396D03*
X647396Y873911D03*
X664396D03*
X647396Y866040D03*
X664396D03*
X647396Y858161D03*
X664396D03*
X647396Y850291D03*
X664396D03*
X647396Y842418D03*
X664396D03*
G54D53*
X650625Y985625D03*
X199482Y393039D03*
X199365Y366575D03*
Y356575D03*
X199482Y383039D03*
X295806Y380776D03*
X162500Y264375D03*
X676875Y660625D03*
X666875D03*
X515000Y893750D03*
G54D54*
X660625Y985625D03*
X209482Y393039D03*
X209365Y366575D03*
Y356575D03*
X209482Y383039D03*
X295806Y370776D03*
X162500Y254375D03*
X676875Y650625D03*
X666875D03*
X515000Y903750D03*
G54D55*
X116875Y169375D03*
Y149375D03*
G54D56*
X624900Y994500D03*
X159900Y968800D03*
X647500Y206250D03*
X203400Y223800D03*
G54D57*
X141000Y225625D03*
X151000D03*
X161000D03*
X121000D03*
X153125Y196875D03*
X163125D03*
X173125D03*
X133125D03*
G54D58*
X389500Y188094D03*
Y149906D03*
G54D59*
X280390Y164900D03*
Y207400D03*
G54D60*
X137500Y170748D03*
Y139252D03*
G54D62*
X707850Y441850D03*
Y431850D03*
Y421850D03*
Y411850D03*
Y401850D03*
Y391850D03*
Y381850D03*
Y371850D03*
Y351850D03*
Y341850D03*
Y331850D03*
Y321850D03*
Y311850D03*
Y301850D03*
Y291850D03*
Y281850D03*
Y271850D03*
Y251850D03*
Y241850D03*
Y231850D03*
Y221850D03*
Y211850D03*
Y201850D03*
Y191850D03*
Y181850D03*
Y171850D03*
Y151850D03*
Y141850D03*
X697850Y441850D03*
Y431850D03*
Y421850D03*
Y411850D03*
Y401850D03*
Y391850D03*
Y381850D03*
Y371850D03*
Y351850D03*
Y341850D03*
Y331850D03*
Y321850D03*
Y311850D03*
Y301850D03*
Y291850D03*
Y281850D03*
Y271850D03*
Y251850D03*
Y241850D03*
Y231850D03*
Y221850D03*
Y211850D03*
Y201850D03*
Y191850D03*
Y181850D03*
Y171850D03*
Y151850D03*
Y141850D03*
X687850Y441850D03*
Y431850D03*
Y421850D03*
Y411850D03*
Y401850D03*
Y391850D03*
Y381850D03*
Y371850D03*
Y351850D03*
Y341850D03*
Y331850D03*
Y321850D03*
Y311850D03*
Y301850D03*
Y291850D03*
Y281850D03*
Y271850D03*
Y251850D03*
Y241850D03*
Y231850D03*
Y221850D03*
Y211850D03*
Y201850D03*
Y191850D03*
Y181850D03*
Y171850D03*
Y151850D03*
Y141850D03*
X707850Y966850D03*
Y956850D03*
Y946850D03*
Y936850D03*
Y926850D03*
Y916850D03*
Y906850D03*
Y896850D03*
Y876850D03*
Y866850D03*
Y856850D03*
Y846850D03*
Y836850D03*
Y826850D03*
Y816850D03*
Y806850D03*
Y796850D03*
Y776850D03*
Y766850D03*
Y756850D03*
Y746850D03*
Y736850D03*
Y726850D03*
Y716850D03*
Y706850D03*
Y696850D03*
Y676850D03*
Y666850D03*
X697850Y966850D03*
Y956850D03*
Y946850D03*
Y936850D03*
Y926850D03*
Y916850D03*
Y906850D03*
Y896850D03*
Y876850D03*
Y866850D03*
Y856850D03*
Y846850D03*
Y836850D03*
Y826850D03*
Y816850D03*
Y806850D03*
Y796850D03*
Y776850D03*
Y766850D03*
Y756850D03*
Y746850D03*
Y736850D03*
Y726850D03*
Y716850D03*
Y706850D03*
Y696850D03*
Y676850D03*
Y666850D03*
X687850Y966850D03*
Y956850D03*
Y946850D03*
Y936850D03*
Y926850D03*
Y916850D03*
Y906850D03*
Y896850D03*
Y876850D03*
Y866850D03*
Y856850D03*
Y846850D03*
Y836850D03*
Y826850D03*
Y816850D03*
Y806850D03*
Y796850D03*
Y776850D03*
Y766850D03*
Y756850D03*
Y746850D03*
Y736850D03*
Y726850D03*
Y716850D03*
Y706850D03*
Y696850D03*
Y676850D03*
Y666850D03*
X156250Y380000D03*
X146250Y375000D03*
X156250Y370000D03*
X146250Y365000D03*
X156250Y360000D03*
X146250Y355000D03*
X156250Y350000D03*
G54D63*
X476250Y460000D03*
Y470000D03*
X386250Y460000D03*
Y470000D03*
X286250Y460000D03*
Y470000D03*
X176250Y460000D03*
Y470000D03*
X396250Y450000D03*
Y440000D03*
G54D64*
X466250Y460000D03*
Y470000D03*
X456250Y460000D03*
Y470000D03*
X446250Y460000D03*
Y470000D03*
X436250Y460000D03*
Y470000D03*
X426250Y460000D03*
Y470000D03*
X416250Y460000D03*
Y470000D03*
X406250Y460000D03*
Y470000D03*
X396250Y460000D03*
Y470000D03*
X376250Y460000D03*
Y470000D03*
X366250Y460000D03*
Y470000D03*
X356250Y460000D03*
Y470000D03*
X346250Y460000D03*
Y470000D03*
X336250Y460000D03*
Y470000D03*
X326250Y460000D03*
Y470000D03*
X316250Y460000D03*
Y470000D03*
X306250Y460000D03*
Y470000D03*
X296250Y460000D03*
Y470000D03*
X276250Y460000D03*
Y470000D03*
X266250Y460000D03*
Y470000D03*
X256250Y460000D03*
Y470000D03*
X246250Y460000D03*
Y470000D03*
X236250Y460000D03*
Y470000D03*
X226250Y460000D03*
Y470000D03*
X216250Y460000D03*
Y470000D03*
X206250Y460000D03*
Y470000D03*
X196250Y460000D03*
Y470000D03*
X186250Y460000D03*
Y470000D03*
X166250Y460000D03*
Y470000D03*
X386250Y450000D03*
X376250D03*
X366250D03*
X356250D03*
X346250D03*
X336250D03*
X326250D03*
X316250D03*
X306250D03*
X296250D03*
X286250D03*
X276250D03*
X266250D03*
X256250D03*
X246250D03*
X236250D03*
X226250D03*
X216250D03*
X206250D03*
X386250Y440000D03*
X376250D03*
X366250D03*
X356250D03*
X346250D03*
X336250D03*
X326250D03*
X316250D03*
X306250D03*
X296250D03*
X286250D03*
X276250D03*
X266250D03*
X256250D03*
X246250D03*
X236250D03*
X226250D03*
X216250D03*
X206250D03*
G54D65*
X106289D03*
X166250D03*
X481250Y440079D03*
X176250Y777500D03*
X466250D03*
X106289Y968189D03*
X481053D03*
G54D66*
X596875Y752500D03*
Y762500D03*
Y772500D03*
Y782500D03*
Y792500D03*
Y802500D03*
Y812500D03*
Y822500D03*
Y832500D03*
Y842500D03*
Y852500D03*
Y862500D03*
Y872500D03*
Y882500D03*
Y892500D03*
Y902500D03*
Y912500D03*
X536875D03*
Y902500D03*
Y892500D03*
Y882500D03*
Y872500D03*
Y862500D03*
Y852500D03*
Y842500D03*
Y832500D03*
Y822500D03*
Y812500D03*
Y802500D03*
Y792500D03*
Y782500D03*
Y772500D03*
Y762500D03*
Y752500D03*
Y742500D03*
X248125Y341875D03*
X258125Y351875D03*
X248125D03*
X258125Y361875D03*
X248125D03*
X258125Y371875D03*
X248125D03*
X258125Y381875D03*
X248125D03*
X258125Y391875D03*
X248125D03*
X225625Y341875D03*
X235625Y351875D03*
X225625D03*
X235625Y361875D03*
X225625D03*
X235625Y371875D03*
X225625D03*
X235625Y381875D03*
X225625D03*
X235625Y391875D03*
X225625D03*
G54D67*
X596875Y742500D03*
X258125Y341875D03*
X235625D03*
G54D68*
X367913Y378091D03*
Y372697D03*
Y367303D03*
Y361909D03*
X389587D03*
Y367303D03*
Y372697D03*
Y378091D03*
G54D69*
X460709Y160000D03*
X500709D03*
X560709D03*
X600709D03*
X460709Y350000D03*
X500709D03*
X530709D03*
X560709D03*
X600709D03*
X437599Y172323D03*
Y321929D03*
X623819D03*
Y188071D03*
X201646Y197875D03*
X226646D03*
X125525Y651250D03*
Y892500D03*
Y754375D03*
Y574375D03*
G54D70*
X431043Y127100D03*
X422579D03*
X382421D03*
X373957D03*
X648615Y128118D03*
Y136583D03*
Y176740D03*
Y185205D03*
X447057Y127700D03*
X455521D03*
X495679D03*
X504143D03*
X416250Y289173D03*
Y297638D03*
Y337795D03*
Y346260D03*
X157500Y177293D03*
Y168829D03*
Y128671D03*
Y120207D03*
X180000D03*
Y128671D03*
Y168829D03*
Y177293D03*
X202500Y176668D03*
Y168204D03*
Y128046D03*
Y119582D03*
G54D71*
X251875Y135000D03*
X294375D03*
G54D11*
X114055Y121850D03*
Y996850D03*
X312199Y166436D03*
X349601D03*
Y145964D03*
X312199D03*
G54D11*
X114055Y121850D03*
Y996850D03*
X312199Y166436D03*
X349601D03*
Y145964D03*
X312199D03*
X0Y0D02*
M02*
